<svg width="150" height="150" viewBox="0 0 150 150" fill="none" xmlns="http://www.w3.org/2000/svg">
<path d="M130.292 84.4895C128.914 85.2922 126.493 85.9522 123.691 86.4828C116.072 87.9277 105.631 88.4405 105.631 88.4405C105.631 88.4405 51.9576 95.4752 11.7306 69.312C11.7306 69.312 5.87948 64.4647 11.3073 57.9406C12.1431 56.9657 13.0317 56.1092 13.9627 55.3809L14.029 55.2761C14.6464 54.3744 15.3136 53.5618 16.0226 52.848C18.1066 50.7186 21.6254 48.1946 25.909 49.3385L131.562 76.3422C131.562 76.3422 135.421 81.495 130.292 84.4895Z" fill="#3F3D56"/>
<path d="M109.241 72.2507L131.359 47.4521L141.107 50.1166L131.562 76.3422C131.562 76.3422 109.495 76.6209 109.241 72.2507Z" fill="#3F3D56"/>
<path d="M53.5575 57.1847L97.6137 37.6593L104.715 40.005L84.8138 54.1523L78.5944 65.1492L53.5575 57.1847Z" fill="#3F3D56"/>
<path d="M123.691 86.4828C116.072 87.9276 105.631 88.4405 105.631 88.4405C105.631 88.4405 51.9576 95.4751 11.7306 69.312C11.7306 69.312 5.87948 64.4646 11.3073 57.9406L11.3257 58.061C11.3257 58.061 20.0057 67.332 61.4785 75.0713L123.691 86.4828Z" fill="#23D997"/>
<path d="M116.609 85.9477L136.306 98.6569L141.254 97.7896L129.473 83.796C129.473 83.796 115.222 78.9911 116.609 85.9477Z" fill="#3F3D56"/>
<path d="M18.4677 59.4189C17.5281 59.4434 15.375 56.9528 14.036 55.2761C14.6534 54.3744 15.3206 53.5618 16.0297 52.848C17.109 54.1568 19.0293 56.275 20.0974 56.1925C21.6395 56.0922 19.8829 59.3787 18.4677 59.4189Z" fill="#23D997"/>
<path d="M107.95 129.879L95.3041 130.925L59.7487 93.0381L53.1484 86.0034L49.9427 82.5853C55.9575 74.5585 80.4978 85.6289 80.4978 85.6289C80.9677 86.2554 81.1172 87.2967 81.0961 88.4472C81.0551 90.6011 80.4146 93.1295 80.1677 94.0392C80.1084 94.2622 80.0717 94.3804 80.0717 94.3804L107.95 129.879Z" fill="#3F3D56"/>
<path opacity="0.03" d="M124.115 43.1332C123.319 42.895 122.495 43.0362 121.749 43.539C121.302 43.8551 120.819 44.0185 120.329 44.0185C119.84 44.0185 119.356 43.8551 118.909 43.539C118.38 43.172 117.808 42.9911 117.231 43.0089C116.653 43.0266 116.086 43.2425 115.566 43.6416C115.27 43.8896 114.94 44.0204 114.604 44.0229C113.25 44.0229 112.122 41.8645 111.888 39.0194C112.159 38.7084 112.389 38.3169 112.565 37.8667C113.36 35.8444 114.59 34.5467 115.971 34.5467C117.353 34.5467 118.57 35.8176 119.363 37.8243C119.601 38.4308 119.933 38.9297 120.329 39.2725C120.725 39.6152 121.17 39.79 121.621 39.7798H121.656C122.727 39.7753 123.661 41.1399 124.115 43.1332Z" fill="black"/>
<path opacity="0.03" d="M35.5993 30.7674C35.2016 30.6471 34.7903 30.7177 34.4183 30.9703C34.1961 31.1254 33.9558 31.2059 33.7129 31.2066C33.4671 31.2065 33.2242 31.1237 33.0003 30.9636C32.7365 30.7812 32.4507 30.6916 32.1628 30.7008C31.8748 30.71 31.5916 30.818 31.3326 31.0171C31.1853 31.1407 31.0211 31.2058 30.8543 31.2066C30.1785 31.2066 29.6155 30.1297 29.4984 28.7116C29.6332 28.5553 29.7481 28.3601 29.837 28.1364C30.2321 27.1263 30.8459 26.4797 31.5302 26.4797C32.2145 26.4797 32.8254 27.1196 33.2233 28.1163C33.3418 28.4194 33.5082 28.6685 33.7061 28.8394C33.904 29.0102 34.1266 29.0968 34.352 29.0907H34.3703C34.9023 29.0907 35.3721 29.773 35.5993 30.7674Z" fill="black"/>
<path opacity="0.03" d="M31.3665 145.596C30.9688 145.476 30.5575 145.547 30.1855 145.799C29.9633 145.954 29.723 146.035 29.4801 146.036C29.2343 146.035 28.9914 145.953 28.7676 145.792C28.5037 145.61 28.2179 145.52 27.93 145.53C27.642 145.539 27.3588 145.647 27.0998 145.846C26.9525 145.97 26.7883 146.035 26.6215 146.036C25.9457 146.036 25.3827 144.959 25.2656 143.541C25.4004 143.384 25.5153 143.189 25.6042 142.965C25.9993 141.955 26.6131 141.309 27.2974 141.309C27.9817 141.309 28.5926 141.949 28.9905 142.945C29.1091 143.248 29.2754 143.497 29.4733 143.668C29.6712 143.839 29.8938 143.926 30.1192 143.92H30.1376C30.6695 143.92 31.1393 144.602 31.3665 145.596Z" fill="black"/>
<path opacity="0.03" d="M79.8122 12.5865C79.0155 12.3483 78.1919 12.4895 77.4461 12.9923C76.9994 13.3084 76.5154 13.4718 76.026 13.4718C75.5365 13.4718 75.0526 13.3084 74.6059 12.9923C74.0774 12.6253 73.5047 12.4444 72.9275 12.4621C72.3503 12.4799 71.7825 12.6958 71.2634 13.0949C70.9668 13.3429 70.6366 13.4737 70.3011 13.4762C68.9466 13.4762 67.8193 11.3178 67.5851 8.47275C67.8561 8.16172 68.0861 7.77017 68.2623 7.32C69.0567 5.29768 70.287 4 71.6683 4C73.0496 4 74.2672 5.27092 75.0602 7.27764C75.2974 7.88411 75.6301 8.38304 76.0258 8.72575C76.4214 9.06847 76.8665 9.24326 77.3177 9.23307H77.353C78.4239 9.22862 79.3579 10.5932 79.8122 12.5865Z" fill="black"/>
</svg>
