<svg width="150" height="150" viewBox="0 0 150 150" fill="none" xmlns="http://www.w3.org/2000/svg">
<g clip-path="url(#clip0)">
<path d="M121.289 88.4428C119.911 89.2455 117.489 89.9055 114.687 90.4361C107.068 91.881 96.6274 92.3938 96.6274 92.3938C96.6274 92.3938 42.9543 99.4285 2.7273 73.2653C2.7273 73.2653 -3.12381 68.418 2.30403 61.8939C3.13984 60.919 4.0284 60.0625 4.95939 59.3342L5.02571 59.2294C5.6431 58.3277 6.3103 57.5151 7.01935 56.8013C9.10329 54.6719 12.6221 52.1479 16.9057 53.2918L122.559 80.2955C122.559 80.2955 126.418 85.4483 121.289 88.4428Z" fill="#3F3D56"/>
<path d="M100.238 76.204L122.356 51.4054L132.104 54.0699L122.559 80.2955C122.559 80.2955 100.492 80.5742 100.238 76.204Z" fill="#3F3D56"/>
<path d="M44.5542 61.138L88.6104 41.6126L95.7116 43.9583L75.8105 58.1056L69.5911 69.1025L44.5542 61.138Z" fill="#3F3D56"/>
<path d="M114.687 90.4361C107.068 91.881 96.6274 92.3938 96.6274 92.3938C96.6274 92.3938 42.9543 99.4285 2.7273 73.2653C2.7273 73.2653 -3.12381 68.418 2.30403 61.8939L2.32237 62.0143C2.32237 62.0143 11.0024 71.2853 52.4752 79.0246L114.687 90.4361Z" fill="#23D997"/>
<path d="M107.606 89.901L127.302 102.61L132.25 101.743L120.469 87.7494C120.469 87.7494 106.219 82.9444 107.606 89.901Z" fill="#3F3D56"/>
<path d="M9.46444 63.3722C8.52476 63.3967 6.37168 60.9061 5.03271 59.2294C5.65011 58.3277 6.31731 57.5151 7.02635 56.8013C8.10571 58.1101 10.026 60.2283 11.0941 60.1458C12.6362 60.0455 10.8796 63.332 9.46444 63.3722Z" fill="#23D997"/>
<path d="M98.947 133.833L86.3008 134.878L50.7454 96.9914L44.1451 89.9568L40.9395 86.5386C46.9542 78.5118 71.4945 89.5822 71.4945 89.5822C71.9644 90.2087 72.1139 91.25 72.0928 92.4005C72.0518 94.5544 71.4113 97.0828 71.1644 97.9925C71.1051 98.2155 71.0684 98.3337 71.0684 98.3337L98.947 133.833Z" fill="#3F3D56"/>
<path opacity="0.03" d="M115.112 47.0865C114.315 46.8483 113.492 46.9896 112.746 47.4923C112.299 47.8084 111.815 47.9718 111.326 47.9718C110.836 47.9718 110.352 47.8084 109.906 47.4923C109.377 47.1254 108.804 46.9444 108.227 46.9622C107.65 46.9799 107.082 47.1958 106.563 47.5949C106.267 47.8429 105.936 47.9737 105.601 47.9762C104.246 47.9762 103.119 45.8178 102.885 42.9728C103.156 42.6617 103.386 42.2702 103.562 41.82C104.356 39.7977 105.587 38.5 106.968 38.5C108.349 38.5 109.567 39.7709 110.36 41.7776C110.597 42.3841 110.93 42.8831 111.326 43.2258C111.721 43.5685 112.166 43.7433 112.617 43.7331H112.653C113.724 43.7286 114.658 45.0932 115.112 47.0865Z" fill="black"/>
<path opacity="0.03" d="M26.596 34.7207C26.1983 34.6004 25.787 34.671 25.415 34.9236C25.1928 35.0787 24.9525 35.1592 24.7096 35.16C24.4638 35.1598 24.2209 35.077 23.997 34.9169C23.7332 34.7345 23.4474 34.6449 23.1595 34.6541C22.8715 34.6634 22.5883 34.7713 22.3293 34.9704C22.182 35.094 22.0178 35.1591 21.851 35.16C21.1752 35.16 20.6122 34.083 20.4951 32.6649C20.6299 32.5086 20.7448 32.3134 20.8337 32.0897C21.2288 31.0796 21.8426 30.433 22.5269 30.433C23.2112 30.433 23.8221 31.0729 24.22 32.0696C24.3385 32.3727 24.5049 32.6218 24.7028 32.7927C24.9007 32.9635 25.1233 33.0501 25.3487 33.044H25.3671C25.899 33.044 26.3688 33.7263 26.596 34.7207Z" fill="black"/>
<path opacity="0.03" d="M22.3632 149.55C21.9655 149.429 21.5542 149.5 21.1822 149.753C20.96 149.908 20.7197 149.988 20.4768 149.989C20.231 149.989 19.9881 149.906 19.7643 149.746C19.5004 149.563 19.2146 149.474 18.9267 149.483C18.6387 149.492 18.3555 149.6 18.0965 149.799C17.9492 149.923 17.785 149.988 17.6182 149.989C16.9424 149.989 16.3794 148.912 16.2623 147.494C16.3971 147.338 16.512 147.142 16.601 146.919C16.996 145.909 17.6098 145.262 18.2941 145.262C18.9784 145.262 19.5893 145.902 19.9872 146.899C20.1058 147.202 20.2721 147.451 20.47 147.622C20.6679 147.792 20.8905 147.879 21.1159 147.873H21.1343C21.6662 147.873 22.136 148.555 22.3632 149.55Z" fill="black"/>
<path opacity="0.03" d="M70.8089 16.5398C70.0122 16.3016 69.1886 16.4429 68.4428 16.9456C67.9961 17.2617 67.5121 17.4251 67.0227 17.4251C66.5332 17.4251 66.0493 17.2617 65.6026 16.9456C65.0741 16.5787 64.5014 16.3977 63.9242 16.4155C63.347 16.4332 62.7792 16.6491 62.2601 17.0482C61.9635 17.2962 61.6334 17.427 61.2978 17.4295C59.9433 17.4295 58.816 15.2711 58.5818 12.4261C58.8528 12.115 59.0828 11.7235 59.259 11.2733C60.0534 9.25099 61.2837 7.95331 62.665 7.95331C64.0463 7.95331 65.264 9.22423 66.0569 11.2309C66.2942 11.8374 66.6268 12.3363 67.0225 12.6791C67.4181 13.0218 67.8632 13.1966 68.3144 13.1864H68.3497C69.4206 13.1819 70.3546 14.5465 70.8089 16.5398Z" fill="black"/>
</g>
<defs>
<clipPath id="clip0">
<rect width="150" height="150" fill="white"/>
</clipPath>
</defs>
</svg>
