<svg width="149" height="150" viewBox="0 0 149 150" fill="none" xmlns="http://www.w3.org/2000/svg">
<g clip-path="url(#clip0)">
<g opacity="0.1">
<path opacity="0.1" d="M50.8726 143.035C57.9819 143.035 63.7451 141.043 63.7451 138.585C63.7451 136.127 57.9819 134.134 50.8726 134.134C43.7632 134.134 38 136.127 38 138.585C38 141.043 43.7632 143.035 50.8726 143.035Z" fill="black"/>
</g>
<g opacity="0.1">
<path opacity="0.1" d="M50.5853 142.59C56.9837 142.59 62.1706 140.797 62.1706 138.585C62.1706 136.373 56.9837 134.579 50.5853 134.579C44.1869 134.579 39 136.373 39 138.585C39 140.797 44.1869 142.59 50.5853 142.59Z" fill="black"/>
</g>
<path d="M51.1263 59.4793C51.7484 59.4793 52.2527 58.8517 52.2527 58.0774C52.2527 57.3032 51.7484 56.6756 51.1263 56.6756C50.5043 56.6756 50 57.3032 50 58.0774C50 58.8517 50.5043 59.4793 51.1263 59.4793Z" fill="#F2F2F2"/>
<path d="M51.1263 69.2924C51.7484 69.2924 52.2527 68.6647 52.2527 67.8905C52.2527 67.1163 51.7484 66.4886 51.1263 66.4886C50.5043 66.4886 50 67.1163 50 67.8905C50 68.6647 50.5043 69.2924 51.1263 69.2924Z" fill="#F2F2F2"/>
<path d="M50.6436 100.334C50.9991 100.334 51.2873 99.9751 51.2873 99.5327C51.2873 99.0903 50.9991 98.7316 50.6436 98.7316C50.2882 98.7316 50 99.0903 50 99.5327C50 99.9751 50.2882 100.334 50.6436 100.334Z" fill="#FF6584"/>
<path d="M50.6436 116.42H50.3505V116.055H50.2932V116.42H50V116.491H50.2932V116.856H50.3505V116.491H50.6436V116.42Z" fill="#F2F2F2"/>
<path d="M50.6436 96.7935H50.3504V96.4286H50.2932V96.7935H50V96.8648H50.2932V97.2296H50.3504V96.8648H50.6436V96.7935Z" fill="#F2F2F2"/>
<path d="M50.6436 107.408H50.3505V107.043H50.2932V107.408H50V107.479H50.2932V107.844H50.3505V107.479H50.6436V107.408Z" fill="#F2F2F2"/>
<path d="M50.6436 73.7627H50.3505V73.3979H50.2932V73.7627H50V73.834H50.2932V74.1989H50.3505V73.834H50.6436V73.7627Z" fill="#F2F2F2"/>
<path d="M50.6436 70.5585H50.3505V70.1936H50.2932V70.5585H50V70.6298H50.2932V70.9947H50.3505V70.6298H50.6436V70.5585Z" fill="#F2F2F2"/>
<path d="M63.2173 59.1177C63.2173 115.001 57.5713 115.001 50.6086 115.001C47.0089 115.001 43.7615 115.001 41.465 107.282C40.8047 105.063 40.2214 102.202 39.7325 98.5199C38.6314 90.2422 38 77.8029 38 59.1177C38 51.9325 38.6834 44.8887 39.7325 38.3097C40.2368 35.1424 40.8259 32.0852 41.465 29.1695C42.2465 25.5997 43.1031 22.2431 43.9674 19.1716C44.5469 17.1064 45.1321 15.1681 45.6999 13.3784C48.3237 5.1175 50.6086 -3.05176e-05 50.6086 -3.05176e-05C50.6086 -3.05176e-05 63.2173 28.2543 63.2173 59.1177Z" fill="#F2F2F2"/>
<g opacity="0.1">
<path opacity="0.1" d="M51.7325 13.3784V110.808H50V19.1716C50.5794 17.1064 51.1646 15.1682 51.7325 13.3784Z" fill="black"/>
</g>
<path d="M50.9299 47.1983C54.7572 47.1983 57.8599 43.3368 57.8599 38.5733C57.8599 33.8098 54.7572 29.9482 50.9299 29.9482C47.1026 29.9482 44 33.8098 44 38.5733C44 43.3368 47.1026 47.1983 50.9299 47.1983Z" fill="#3F3D56"/>
<path d="M65.6545 109.73C64.1137 105.01 62.1353 104.195 60.8421 104.266V103.501H40.6298V104.266C39.3366 104.195 37.3582 105.01 35.8173 109.73C33.3149 117.397 37.3573 130.574 37.3573 130.574C37.3573 130.574 35.1969 112.196 42.3709 112.075C42.9922 113.084 43.7546 113.945 44.6215 114.617V119.559H56.2068V115.067C57.3393 114.352 58.3283 113.329 59.101 112.075C66.2749 112.196 64.1146 130.574 64.1146 130.574C64.1146 130.574 68.157 117.397 65.6545 109.73Z" fill="#23D997"/>
<path d="M50.3899 45.2816C53.3667 45.2816 55.7799 42.2782 55.7799 38.5733C55.7799 34.8683 53.3667 31.8649 50.3899 31.8649C47.4132 31.8649 45 34.8683 45 38.5733C45 42.2782 47.4132 45.2816 50.3899 45.2816Z" fill="#23D997"/>
</g>
<defs>
<clipPath id="clip0">
<rect width="149" height="150" fill="white"/>
</clipPath>
</defs>
</svg>
