<svg width="149" height="150" viewBox="0 0 149 150" fill="none" xmlns="http://www.w3.org/2000/svg">
<g opacity="0.1">
<path opacity="0.1" d="M74.8726 150C81.9819 150 87.7451 147.91 87.7451 145.333C87.7451 142.755 81.9819 140.666 74.8726 140.666C67.7632 140.666 62 142.755 62 145.333C62 147.91 67.7632 150 74.8726 150Z" fill="black"/>
</g>
<g opacity="0.1">
<path opacity="0.1" d="M74.5853 149.533C80.9837 149.533 86.1706 147.653 86.1706 145.333C86.1706 143.013 80.9837 141.133 74.5853 141.133C68.1869 141.133 63 143.013 63 145.333C63 147.653 68.1869 149.533 74.5853 149.533Z" fill="black"/>
</g>
<path d="M75.1263 62.3756C75.7484 62.3756 76.2527 61.7174 76.2527 60.9054C76.2527 60.0935 75.7484 59.4353 75.1263 59.4353C74.5043 59.4353 74 60.0935 74 60.9054C74 61.7174 74.5043 62.3756 75.1263 62.3756Z" fill="#F2F2F2"/>
<path d="M75.1263 72.6665C75.7484 72.6665 76.2527 72.0083 76.2527 71.1963C76.2527 70.3844 75.7484 69.7262 75.1263 69.7262C74.5043 69.7262 74 70.3844 74 71.1963C74 72.0083 74.5043 72.6665 75.1263 72.6665Z" fill="#F2F2F2"/>
<path d="M74.6436 105.219C74.9991 105.219 75.2873 104.843 75.2873 104.379C75.2873 103.915 74.9991 103.539 74.6436 103.539C74.2882 103.539 74 103.915 74 104.379C74 104.843 74.2882 105.219 74.6436 105.219Z" fill="#FF6584"/>
<path d="M74.6436 122.089H74.3505V121.706H74.2932V122.089H74V122.163H74.2932V122.546H74.3505V122.163H74.6436V122.089Z" fill="#F2F2F2"/>
<path d="M74.6436 101.507H74.3504V101.124H74.2932V101.507H74V101.581H74.2932V101.964H74.3504V101.581H74.6436V101.507Z" fill="#F2F2F2"/>
<path d="M74.6436 112.638H74.3505V112.255H74.2932V112.638H74V112.712H74.2932V113.095H74.3505V112.712H74.6436V112.638Z" fill="#F2F2F2"/>
<path d="M74.6436 77.3545H74.3505V76.9719H74.2932V77.3545H74V77.4293H74.2932V77.8119H74.3505V77.4293H74.6436V77.3545Z" fill="#F2F2F2"/>
<path d="M74.6436 73.9942H74.3505V73.6116H74.2932V73.9942H74V74.069H74.2932V74.4516H74.3505V74.069H74.6436V73.9942Z" fill="#F2F2F2"/>
<path d="M87.2173 61.9963C87.2173 120.601 81.5713 120.601 74.6086 120.601C71.0089 120.601 67.7615 120.601 65.465 112.505C64.8047 110.179 64.2214 107.179 63.7325 103.317C62.6314 94.6364 62 81.5914 62 61.9963C62 54.4613 62.6834 47.0745 63.7325 40.1751C64.2368 36.8536 64.8259 33.6476 65.465 30.5899C66.2465 26.8462 67.1031 23.3262 67.9674 20.1051C68.5469 17.9393 69.1321 15.9067 69.6999 14.0299C72.3237 5.36672 74.6086 0 74.6086 0C74.6086 0 87.2173 29.6301 87.2173 61.9963Z" fill="#F2F2F2"/>
<g opacity="0.1">
<path opacity="0.1" d="M75.7325 14.0299V116.204H74V20.1052C74.5794 17.9394 75.1646 15.9068 75.7325 14.0299Z" fill="black"/>
</g>
<path d="M74.9299 49.4966C78.7572 49.4966 81.8599 45.447 81.8599 40.4516C81.8599 35.4561 78.7572 31.4065 74.9299 31.4065C71.1026 31.4065 68 35.4561 68 40.4516C68 45.447 71.1026 49.4966 74.9299 49.4966Z" fill="#3F3D56"/>
<path d="M89.6545 115.073C88.1137 110.123 86.1353 109.269 84.8421 109.343V108.541H64.6298V109.343C63.3366 109.269 61.3582 110.123 59.8173 115.073C57.3149 123.113 61.3573 136.932 61.3573 136.932C61.3573 136.932 59.1969 117.659 66.3709 117.533C66.9922 118.59 67.7546 119.493 68.6215 120.198V125.381H80.2068V120.67C81.3393 119.92 82.3283 118.848 83.101 117.533C90.2749 117.659 88.1146 136.932 88.1146 136.932C88.1146 136.932 92.157 123.113 89.6545 115.073Z" fill="#23D997"/>
<path d="M74.3899 47.4866C77.3667 47.4866 79.7799 44.3369 79.7799 40.4515C79.7799 36.5662 77.3667 33.4165 74.3899 33.4165C71.4132 33.4165 69 36.5662 69 40.4515C69 44.3369 71.4132 47.4866 74.3899 47.4866Z" fill="#23D997"/>
</svg>
