<svg width="150" height="150" viewBox="0 0 150 150" fill="none" xmlns="http://www.w3.org/2000/svg">
<g opacity="0.7">
<path opacity="0.7" d="M36.6629 128.425C37.6699 128.425 38.4864 127.287 38.4864 125.883C38.4864 124.479 37.6699 123.341 36.6629 123.341C35.6558 123.341 34.8394 124.479 34.8394 125.883C34.8394 127.287 35.6558 128.425 36.6629 128.425Z" fill="url(#paint0_linear)"/>
</g>
<path opacity="0.2" d="M36.6628 128.311C37.6247 128.311 38.4044 127.224 38.4044 125.883C38.4044 124.542 37.6247 123.455 36.6628 123.455C35.701 123.455 34.9213 124.542 34.9213 125.883C34.9213 127.224 35.701 128.311 36.6628 128.311Z" fill="black"/>
<path d="M26.8385 77.2347C27.2106 77.2347 27.5124 76.814 27.5124 76.2951C27.5124 75.7762 27.2106 75.3555 26.8385 75.3555C26.4663 75.3555 26.1646 75.7762 26.1646 76.2951C26.1646 76.814 26.4663 77.2347 26.8385 77.2347Z" fill="white"/>
<path d="M74.9366 131.765C75.3088 131.765 75.6106 131.345 75.6106 130.826C75.6106 130.307 75.3088 129.886 74.9366 129.886C74.5644 129.886 74.2627 130.307 74.2627 130.826C74.2627 131.345 74.5644 131.765 74.9366 131.765Z" fill="white"/>
<path d="M46.527 136.141C46.735 136.141 46.9036 135.906 46.9036 135.616C46.9036 135.326 46.735 135.091 46.527 135.091C46.319 135.091 46.1504 135.326 46.1504 135.616C46.1504 135.906 46.319 136.141 46.527 136.141Z" fill="white"/>
<path d="M129.906 110.718C130.114 110.718 130.282 110.483 130.282 110.193C130.282 109.903 130.114 109.668 129.906 109.668C129.698 109.668 129.529 109.903 129.529 110.193C129.529 110.483 129.698 110.718 129.906 110.718Z" fill="white"/>
<path d="M108.367 63.5559C108.575 63.5559 108.744 63.3208 108.744 63.0309C108.744 62.7409 108.575 62.5058 108.367 62.5058C108.159 62.5058 107.991 62.7409 107.991 63.0309C107.991 63.3208 108.159 63.5559 108.367 63.5559Z" fill="white"/>
<path d="M138.891 86.5841C139.099 86.5841 139.268 86.349 139.268 86.0591C139.268 85.7691 139.099 85.534 138.891 85.534C138.683 85.534 138.515 85.7691 138.515 86.0591C138.515 86.349 138.683 86.5841 138.891 86.5841Z" fill="white"/>
<path d="M38.7309 46.469C39.1031 46.469 39.4048 46.0484 39.4048 45.5295C39.4048 45.0106 39.1031 44.5899 38.7309 44.5899C38.3587 44.5899 38.057 45.0106 38.057 45.5295C38.057 46.0484 38.3587 46.469 38.7309 46.469Z" fill="white"/>
<path d="M20.2092 109.1H19.6093V108.264H19.3648V109.1H18.7649V109.441H19.3648V110.275H19.6093V109.441H20.2092V109.1Z" fill="white"/>
<path d="M35.2729 108.732H34.673V107.895H34.4285V108.732H33.8286V109.072H34.4285V109.907H34.673V109.072H35.2729V108.732Z" fill="white"/>
<path d="M56.8112 125.68H56.2113V124.844H55.9668V125.68H55.3669V126.021H55.9668V126.856H56.2113V126.021H56.8112V125.68Z" fill="white"/>
<path d="M86.8105 24.0801H86.537V23.6987H86.426V24.0801H86.1525V24.2348H86.426V24.6162H86.537V24.2348H86.8105V24.0801Z" fill="white"/>
<path d="M125.791 59.0829H125.518V58.7016H125.407V59.0829H125.133V59.2377H125.407V59.619H125.518V59.2377H125.791V59.0829Z" fill="white"/>
<path d="M102.799 81.9269H102.526V81.5455H102.415V81.9269H102.141V82.0816H102.415V82.463H102.526V82.0816H102.799V81.9269Z" fill="white"/>
<path d="M9.24569 96.2965H8.97217V95.9151H8.86117V96.2965H8.58765V96.4512H8.86117V96.8326H8.97217V96.4512H9.24569V96.2965Z" fill="white"/>
<path d="M20.4774 127.615H20.2039V127.233H20.0929V127.615H19.8193V127.77H20.0929V128.151H20.2039V127.77H20.4774V127.615Z" fill="white"/>
<path d="M55.7581 28.6857H55.4846V28.3044H55.3736V28.6857H55.1001V28.8405H55.3736V29.2218H55.4846V28.8405H55.7581V28.6857Z" fill="white"/>
<path d="M39.1087 83.7691H38.8352V83.3878H38.7242V83.7691H38.4507V83.9239H38.7242V84.3052H38.8352V83.9239H39.1087V83.7691Z" fill="white"/>
<path d="M42.6765 67.9257H42.403V67.5444H42.292V67.9257H42.0184V68.0805H42.292V68.4618H42.403V68.0805H42.6765V67.9257Z" fill="white"/>
<g opacity="0.7">
<path opacity="0.7" d="M98.8588 104.487C99.6995 104.487 100.381 103.537 100.381 102.365C100.381 101.193 99.6995 100.243 98.8588 100.243C98.0181 100.243 97.3365 101.193 97.3365 102.365C97.3365 103.537 98.0181 104.487 98.8588 104.487Z" fill="url(#paint1_linear)"/>
</g>
<path opacity="0.2" d="M98.8588 104.331C99.6374 104.331 100.269 103.45 100.269 102.365C100.269 101.279 99.6374 100.399 98.8588 100.399C98.0801 100.399 97.4489 101.279 97.4489 102.365C97.4489 103.45 98.0801 104.331 98.8588 104.331Z" fill="black"/>
<path opacity="0.2" d="M102.655 118.4C103.526 118.4 104.232 117.416 104.232 116.202C104.232 114.988 103.526 114.004 102.655 114.004C101.785 114.004 101.079 114.988 101.079 116.202C101.079 117.416 101.785 118.4 102.655 118.4Z" fill="black"/>
<path d="M57.6648 107.818H54.5292L55.0894 102.51H57.1045L57.6648 107.818Z" fill="#23D997"/>
<g opacity="0.1">
<path opacity="0.1" d="M54.9336 104.618H57.2606L57.1046 103.135H55.0895L54.9336 104.618Z" fill="black"/>
</g>
<g opacity="0.1">
<path opacity="0.1" d="M81.8037 104.618H84.132L83.9761 103.135H81.9596L81.8037 104.618Z" fill="black"/>
</g>
<g opacity="0.1">
<path opacity="0.1" d="M65.1215 104.618H67.4497L67.2938 103.135H65.2774L65.1215 104.618Z" fill="black"/>
</g>
<g opacity="0.1">
<path opacity="0.1" d="M71.5037 104.618H73.8319L73.6747 103.135H71.6596L71.5037 104.618Z" fill="black"/>
</g>
<path d="M80.0569 58.6482H57.6648V59.8972H80.0569V58.6482Z" fill="#23D997"/>
<path d="M55.0987 38.9213C55.217 38.7391 55.3614 38.5935 55.5225 38.4938C55.6836 38.3941 55.858 38.3427 56.0342 38.3427C56.2105 38.3427 56.3848 38.3941 56.546 38.4938C56.7071 38.5935 56.8515 38.7391 56.9698 38.9213C57.6225 39.8903 58.2105 41.1707 58.7259 42.5321C60.25 46.6294 61.0385 51.1809 61.0238 55.7963V103.85H51.1134V55.5937C51.101 51.1059 51.8514 46.6778 53.303 42.6721C53.9901 40.8004 54.6164 39.6287 55.0987 38.9213Z" fill="#E0E0E0"/>
<path d="M51.1703 56.618L53.5223 56.6346V60.6765H51.1703V56.618Z" fill="#23D997"/>
<path d="M58.6718 56.618L61.0238 56.6346V60.6765H58.6718V56.618Z" fill="#23D997"/>
<path d="M77.5939 56.618L79.9446 56.6346V60.6765H77.5939V56.618Z" fill="#23D997"/>
<path d="M85.0953 56.618L87.4461 56.6346V60.6765H85.0953V56.618Z" fill="#23D997"/>
<g opacity="0.1">
<path opacity="0.1" d="M58.7259 42.4695C58.2106 41.1081 57.6225 39.8277 56.9698 38.8587C56.7855 38.5737 56.5392 38.381 56.2687 38.3101C55.9983 38.2392 55.7186 38.2941 55.4727 38.4663C55.6143 38.5648 55.7423 38.6977 55.8506 38.8587C56.502 39.8277 57.0913 41.1081 57.6054 42.4695C59.1302 46.5664 59.9187 51.1182 59.9032 55.7337V103.783H61.0238V55.7356C61.0388 51.1195 60.2503 46.5673 58.7259 42.4695V42.4695Z" fill="black"/>
</g>
<g opacity="0.1">
<path opacity="0.1" d="M80.7876 42.6021C81.3016 41.2407 81.891 39.9603 82.5424 38.9913C82.6642 38.8078 82.8117 38.6611 82.9758 38.5602C82.7336 38.4124 82.4643 38.3746 82.2058 38.4519C81.9473 38.5293 81.7128 38.718 81.5355 38.9913C80.8828 39.9603 80.2934 41.2407 79.7794 42.6021C78.2553 46.6994 77.4668 51.2509 77.4815 55.8663V103.923H78.4897V55.87C78.4739 51.2532 79.2625 46.7002 80.7876 42.6021V42.6021Z" fill="black"/>
</g>
<path d="M56.1399 119.682H56.054C55.6496 119.682 55.2618 119.458 54.9758 119.059C54.6898 118.661 54.5292 118.12 54.5292 117.556V107.818H57.6648V117.556C57.6648 118.12 57.5041 118.661 57.2182 119.059C56.9322 119.458 56.5444 119.682 56.1399 119.682Z" fill="url(#paint2_linear)"/>
<path d="M67.1356 108.308H64L64.5603 103H66.5754L67.1356 108.308Z" fill="#23D997"/>
<path d="M65.6108 120.172H65.5249C65.1204 120.172 64.7326 119.948 64.4466 119.549C64.1607 119.15 64 118.61 64 118.046V108.308H67.1356V118.046C67.1356 118.61 66.975 119.15 66.689 119.549C66.403 119.948 66.0152 120.172 65.6108 120.172Z" fill="url(#paint3_linear)"/>
<path d="M74.1356 108.308H71L71.5603 103H73.5754L74.1356 108.308Z" fill="#23D997"/>
<path d="M72.6108 120.172H72.5249C72.1204 120.172 71.7326 119.948 71.4466 119.549C71.1607 119.15 71 118.61 71 118.046V108.308H74.1356V118.046C74.1356 118.61 73.975 119.15 73.689 119.549C73.403 119.948 73.0152 120.172 72.6108 120.172Z" fill="url(#paint4_linear)"/>
<path d="M84.1356 108.308H81L81.5603 103H83.5754L84.1356 108.308Z" fill="#23D997"/>
<path d="M83.5176 38.9213C83.3993 38.7391 83.2549 38.5935 83.0938 38.4938C82.9326 38.3941 82.7583 38.3427 82.582 38.3427C82.4057 38.3427 82.2314 38.3941 82.0703 38.4938C81.9092 38.5935 81.7648 38.7391 81.6465 38.9213C80.9951 39.8903 80.4057 41.1707 79.8917 42.5321C78.367 46.629 77.5785 51.1808 77.5938 55.7963V103.85H87.5041V55.5937C87.5165 51.1059 86.7662 46.6778 85.3146 42.6721C84.6262 40.8004 83.9999 39.6287 83.5176 38.9213Z" fill="#E0E0E0"/>
<path d="M82.6108 120.172H82.5249C82.1204 120.172 81.7326 119.948 81.4466 119.549C81.1607 119.15 81 118.61 81 118.046V108.308H84.1356V118.046C84.1356 118.61 83.975 119.15 83.689 119.549C83.403 119.948 83.0152 120.172 82.6108 120.172Z" fill="url(#paint5_linear)"/>
<path d="M70.5522 1.24351C70.3885 0.971928 70.1841 0.753574 69.9535 0.603771C69.7228 0.453967 69.4714 0.376343 69.217 0.376343C68.9625 0.376343 68.7111 0.453967 68.4804 0.603771C68.2498 0.753574 68.0454 0.971928 67.8817 1.24351C66.9567 2.69521 66.1111 4.613 65.3711 6.65421C63.1961 12.7042 62.0914 19.5721 62.0914 26.5358V103.654H76.2302V26.2263C76.2302 19.4597 75.1731 12.7779 73.1064 6.86423C72.1352 4.05848 71.2406 2.31386 70.5522 1.24351Z" fill="#EEEEEE"/>
<path d="M71.3054 9.81H66.8339C66.0311 9.81 65.3804 10.7173 65.3804 11.8365V12.4978C65.3804 13.617 66.0311 14.5243 66.8339 14.5243H71.3054C72.1081 14.5243 72.7589 13.617 72.7589 12.4978V11.8365C72.7589 10.7173 72.1081 9.81 71.3054 9.81Z" fill="#23D997"/>
<g opacity="0.1">
<path opacity="0.1" d="M76.1628 29.1721H62.1681V29.9293H76.1628V29.1721Z" fill="black"/>
</g>
<path d="M100.562 57.3549C100.195 56.683 99.736 56.1194 99.2115 55.6969V55.6969C98.609 55.2124 97.9345 54.9277 97.2404 54.8646C96.5463 54.8016 95.8511 54.962 95.2085 55.3333C94.566 55.7047 93.9933 56.2771 93.5347 57.0062C93.0761 57.7354 92.744 58.6019 92.5639 59.5386C92.3839 60.4754 92.3607 61.4573 92.4963 62.4084C92.6319 63.3596 92.9225 64.2546 93.3458 65.0242C93.7691 65.7938 94.3136 66.4173 94.9373 66.8466C95.561 67.276 96.2472 67.4996 96.9428 67.5002C97.0392 67.5002 97.1357 67.5002 97.2295 67.4855C98.047 67.4135 98.8353 67.0342 99.5106 66.3879C100.186 65.7415 100.723 64.8522 101.065 63.8144C101.407 62.7766 101.541 61.629 101.452 60.4936C101.364 59.3583 101.057 58.2774 100.563 57.366L100.562 57.3549Z" fill="url(#paint6_linear)"/>
<path opacity="0.2" d="M101.229 61.1647C101.229 62.6846 100.814 64.1474 100.067 65.2555C99.3213 66.3636 98.3003 67.0339 97.2123 67.1299C97.1238 67.1299 97.0326 67.1428 96.9414 67.1428C96.2833 67.1433 95.6339 66.9327 95.0435 66.5272C94.4531 66.1218 93.9375 65.5323 93.5367 64.8045C93.1359 64.0767 92.8606 63.2301 92.7322 62.3301C92.6037 61.4302 92.6255 60.5011 92.7959 59.6148C92.9662 58.7285 93.2806 57.9088 93.7147 57.219C94.1487 56.5293 94.6908 55.9881 95.2989 55.6372C95.907 55.2864 96.5649 55.1354 97.2216 55.1959C97.8783 55.2564 98.5163 55.5268 99.086 55.9861V55.9861C99.5826 56.3879 100.017 56.924 100.362 57.5631V57.5631C100.926 58.5993 101.23 59.8643 101.229 61.1647Z" fill="black"/>
<path opacity="0.1" d="M95.8857 57.3715C95.664 57.5045 95.4502 57.6615 95.2462 57.8412C95.1099 57.945 94.9928 58.0913 94.9039 58.2686C94.8598 58.358 94.8356 58.4634 94.8342 58.5719C94.8328 58.6803 94.8543 58.7869 94.896 58.8784C95.0004 59.0774 95.2012 59.1069 95.3783 59.1216C95.5642 59.1546 95.7531 59.1282 95.9306 59.0442C96.0505 58.9616 96.1595 58.8513 96.253 58.7181L96.6217 58.2521C96.7538 58.0899 96.886 57.867 96.8344 57.6386C96.8039 57.557 96.7593 57.4873 96.7046 57.4358C96.65 57.3844 96.5869 57.3527 96.5213 57.3438C96.2035 57.2575 95.874 57.3382 95.5963 57.5704" fill="black"/>
<g opacity="0.1">
<path opacity="0.1" d="M94.3462 63.8396C94.471 63.8396 94.5722 63.6986 94.5722 63.5246C94.5722 63.3506 94.471 63.2096 94.3462 63.2096C94.2214 63.2096 94.1202 63.3506 94.1202 63.5246C94.1202 63.6986 94.2214 63.8396 94.3462 63.8396Z" fill="black"/>
</g>
<g opacity="0.1">
<path opacity="0.1" d="M98.9341 62.6845C99.3909 62.6845 99.7613 62.1682 99.7613 61.5313C99.7613 60.8944 99.3909 60.378 98.9341 60.378C98.4773 60.378 98.1069 60.8944 98.1069 61.5313C98.1069 62.1682 98.4773 62.6845 98.9341 62.6845Z" fill="black"/>
</g>
<g opacity="0.1">
<path opacity="0.1" d="M100.37 57.5631C100.368 57.8646 100.304 58.1588 100.185 58.4106C100.066 58.6625 99.8974 58.8614 99.6997 58.9837C99.502 59.1059 99.2833 59.1464 99.0695 59.1003C98.8558 59.0542 98.6561 58.9234 98.4941 58.7236C98.3322 58.5237 98.2149 58.2632 98.1561 57.973C98.0973 57.6828 98.0996 57.3752 98.1627 57.0868C98.2258 56.7983 98.347 56.5412 98.5118 56.3461C98.6767 56.151 98.8784 56.026 99.0927 55.9861V55.9861C99.5898 56.3877 100.024 56.9238 100.37 57.5631Z" fill="black"/>
</g>
<g opacity="0.1">
<path opacity="0.1" d="M100.447 64.606C100.078 65.338 99.5959 65.945 99.0359 66.3819C98.476 66.8188 97.8527 67.0744 97.2123 67.1299C97.2123 67.047 97.2043 66.9641 97.2043 66.8793C97.2047 66.3547 97.3095 65.8405 97.5072 65.394C97.7048 64.9476 97.9874 64.5864 98.3236 64.3507C98.6598 64.115 99.0363 64.0141 99.4112 64.0591C99.7862 64.1042 100.145 64.2935 100.447 64.606V64.606Z" fill="black"/>
</g>
<path d="M41.9881 91.4826C41.7322 91.011 41.4115 90.6152 41.0446 90.3183V90.3183C40.6236 89.9739 40.1511 89.7697 39.6642 89.7216C39.1772 89.6734 38.6889 89.7827 38.2372 90.0408C37.7855 90.2989 37.3826 90.6989 37.0599 91.2097C36.7373 91.7205 36.5036 92.3282 36.377 92.9855C36.2504 93.6429 36.2344 94.3321 36.3302 94.9994C36.426 95.6668 36.631 96.2944 36.9293 96.8332C37.2275 97.372 37.611 97.8075 38.0498 98.1059C38.4885 98.4042 38.9708 98.5573 39.459 98.5532C39.5264 98.5532 39.5911 98.5532 39.6598 98.544C40.2292 98.4906 40.7776 98.2239 41.2474 97.7723C41.7171 97.3206 42.0907 96.7005 42.3288 95.9775C42.567 95.2546 42.6607 94.4554 42.6003 93.6643C42.5399 92.8732 42.3274 92.1195 41.9854 91.4826H41.9881Z" fill="url(#paint7_linear)"/>
<path opacity="0.2" d="M42.4532 94.141C42.453 95.2014 42.1631 96.222 41.6425 96.995C41.1219 97.7681 40.4096 98.2357 39.6505 98.3027C39.5884 98.3027 39.5184 98.3027 39.4616 98.3027C39.0028 98.3025 38.5501 98.1552 38.1387 97.8722C37.7272 97.5892 37.368 97.178 37.0887 96.6705C36.8094 96.163 36.6176 95.5727 36.5282 94.9453C36.4387 94.3179 36.4539 93.6703 36.5726 93.0524C36.6914 92.4345 36.9104 91.863 37.2129 91.382C37.5154 90.9011 37.8932 90.5236 38.317 90.2787C38.7409 90.0338 39.1995 89.9281 39.6573 89.9698C40.1151 90.0115 40.56 90.1995 40.9574 90.5191V90.5191C41.3044 90.8007 41.6072 91.1766 41.848 91.6245C42.2419 92.3483 42.4545 93.2324 42.4532 94.141V94.141Z" fill="black"/>
<path opacity="0.1" d="M38.7242 91.4955C38.5697 91.5872 38.4208 91.6963 38.2789 91.8216C38.1843 91.8952 38.1026 91.9971 38.0397 92.1201C38.0104 92.1835 37.9948 92.2574 37.9948 92.3329C37.9948 92.4083 38.0104 92.4822 38.0397 92.5456C38.0836 92.606 38.1363 92.6524 38.1942 92.6817C38.2522 92.7109 38.3139 92.7223 38.3754 92.7151C38.5052 92.7385 38.6372 92.7202 38.7612 92.6617C38.8452 92.6039 38.9216 92.5266 38.9871 92.4333L39.2435 92.109C39.3333 91.9948 39.4311 91.84 39.3915 91.6816C39.3713 91.6236 39.3405 91.574 39.3022 91.5378C39.264 91.5016 39.2196 91.48 39.1735 91.4752C38.9523 91.4149 38.7229 91.4713 38.53 91.6337" fill="black"/>
<g opacity="0.1">
<path opacity="0.1" d="M37.6499 96.0054C37.7368 96.0054 37.8072 95.9072 37.8072 95.7862C37.8072 95.6651 37.7368 95.5669 37.6499 95.5669C37.5631 95.5669 37.4927 95.6651 37.4927 95.7862C37.4927 95.9072 37.5631 96.0054 37.6499 96.0054Z" fill="black"/>
</g>
<g opacity="0.1">
<path opacity="0.1" d="M40.8516 95.2022C41.1705 95.2022 41.4291 94.8417 41.4291 94.3971C41.4291 93.9525 41.1705 93.5921 40.8516 93.5921C40.5327 93.5921 40.2742 93.9525 40.2742 94.3971C40.2742 94.8417 40.5327 95.2022 40.8516 95.2022Z" fill="black"/>
</g>
<g opacity="0.1">
<path opacity="0.1" d="M41.8493 91.6282C41.8481 91.8405 41.803 92.0479 41.7195 92.2255C41.636 92.4031 41.5176 92.5434 41.3784 92.6297C41.2392 92.7159 41.0852 92.7444 40.9347 92.7118C40.7842 92.6791 40.6436 92.5868 40.5298 92.4457C40.4159 92.3046 40.3337 92.1208 40.2928 91.9162C40.2519 91.7117 40.2541 91.495 40.2992 91.2922C40.3443 91.0893 40.4304 90.9089 40.5471 90.7725C40.6638 90.636 40.8062 90.5493 40.9574 90.5228C41.3048 90.8041 41.6081 91.18 41.8493 91.6282V91.6282Z" fill="black"/>
</g>
<g opacity="0.1">
<path opacity="0.1" d="M41.9074 96.5415C41.65 97.0522 41.3135 97.4757 40.9229 97.7806C40.5322 98.0854 40.0974 98.2639 39.6505 98.3027C39.6505 98.2455 39.6505 98.1866 39.6505 98.1184C39.6508 97.7524 39.7239 97.3937 39.8617 97.0822C39.9996 96.7707 40.1968 96.5187 40.4313 96.3543C40.6658 96.1898 40.9285 96.1194 41.1901 96.1508C41.4516 96.1822 41.7018 96.3143 41.9127 96.5323L41.9074 96.5415Z" fill="black"/>
</g>
<path d="M126.178 79.2298C126.312 79.2298 126.421 79.0781 126.421 78.8909C126.421 78.7036 126.312 78.5519 126.178 78.5519C126.044 78.5519 125.935 78.7036 125.935 78.8909C125.935 79.0781 126.044 79.2298 126.178 79.2298Z" fill="white"/>
<defs>
<linearGradient id="paint0_linear" x1="36.6629" y1="128.425" x2="36.6629" y2="123.343" gradientUnits="userSpaceOnUse">
<stop stop-color="#808080" stop-opacity="0.25"/>
<stop offset="0.54" stop-color="#808080" stop-opacity="0.12"/>
<stop offset="1" stop-color="#808080" stop-opacity="0.1"/>
</linearGradient>
<linearGradient id="paint1_linear" x1="2375.05" y1="2507.58" x2="2375.05" y2="2409.83" gradientUnits="userSpaceOnUse">
<stop stop-color="#808080" stop-opacity="0.25"/>
<stop offset="0.54" stop-color="#808080" stop-opacity="0.12"/>
<stop offset="1" stop-color="#808080" stop-opacity="0.1"/>
</linearGradient>
<linearGradient id="paint2_linear" x1="56.0976" y1="107.818" x2="56.0976" y2="119.682" gradientUnits="userSpaceOnUse">
<stop stop-color="#E0E0E0"/>
<stop offset="0.31" stop-color="#FCCC63"/>
<stop offset="0.77" stop-color="#F55F44"/>
</linearGradient>
<linearGradient id="paint3_linear" x1="65.5685" y1="108.308" x2="65.5685" y2="120.172" gradientUnits="userSpaceOnUse">
<stop stop-color="#E0E0E0"/>
<stop offset="0.31" stop-color="#FCCC63"/>
<stop offset="0.77" stop-color="#F55F44"/>
</linearGradient>
<linearGradient id="paint4_linear" x1="72.5685" y1="108.308" x2="72.5685" y2="120.172" gradientUnits="userSpaceOnUse">
<stop stop-color="#E0E0E0"/>
<stop offset="0.31" stop-color="#FCCC63"/>
<stop offset="0.77" stop-color="#F55F44"/>
</linearGradient>
<linearGradient id="paint5_linear" x1="82.5685" y1="108.308" x2="82.5685" y2="120.172" gradientUnits="userSpaceOnUse">
<stop stop-color="#E0E0E0"/>
<stop offset="0.31" stop-color="#FCCC63"/>
<stop offset="0.77" stop-color="#F55F44"/>
</linearGradient>
<linearGradient id="paint6_linear" x1="7040.14" y1="5231.17" x2="7040.14" y2="4362.69" gradientUnits="userSpaceOnUse">
<stop stop-color="#808080" stop-opacity="0.25"/>
<stop offset="0.54" stop-color="#808080" stop-opacity="0.12"/>
<stop offset="1" stop-color="#808080" stop-opacity="0.1"/>
</linearGradient>
<linearGradient id="paint7_linear" x1="2138.3" y1="5199.52" x2="2138.3" y2="4775.87" gradientUnits="userSpaceOnUse">
<stop stop-color="#808080" stop-opacity="0.25"/>
<stop offset="0.54" stop-color="#808080" stop-opacity="0.12"/>
<stop offset="1" stop-color="#808080" stop-opacity="0.1"/>
</linearGradient>
</defs>
</svg>
