<svg width="150" height="150" viewBox="0 0 150 150" fill="none" xmlns="http://www.w3.org/2000/svg">
<g clip-path="url(#clip0)">
<g opacity="0.7">
<path opacity="0.7" d="M38.1453 141.476C39.2984 141.476 40.2332 140.218 40.2332 138.667C40.2332 137.115 39.2984 135.858 38.1453 135.858C36.9923 135.858 36.0575 137.115 36.0575 138.667C36.0575 140.218 36.9923 141.476 38.1453 141.476Z" fill="url(#paint0_linear)"/>
</g>
<path opacity="0.2" d="M38.2266 140.84C39.1974 140.84 39.9844 139.814 39.9844 138.55C39.9844 137.285 39.1974 136.26 38.2266 136.26C37.2557 136.26 36.4688 137.285 36.4688 138.55C36.4688 139.814 37.2557 140.84 38.2266 140.84Z" fill="black"/>
<path d="M26.5078 84.7328C26.8314 84.7328 27.0938 84.2202 27.0938 83.5878C27.0938 82.9554 26.8314 82.4427 26.5078 82.4427C26.1842 82.4427 25.9219 82.9554 25.9219 83.5878C25.9219 84.2202 26.1842 84.7328 26.5078 84.7328Z" fill="white"/>
<path d="M81.5859 145.42C81.9095 145.42 82.1719 144.907 82.1719 144.275C82.1719 143.642 81.9095 143.13 81.5859 143.13C81.2623 143.13 81 143.642 81 144.275C81 144.907 81.2623 145.42 81.5859 145.42Z" fill="white"/>
<path d="M144.867 121.374C145.191 121.374 145.453 121.118 145.453 120.802C145.453 120.485 145.191 120.229 144.867 120.229C144.544 120.229 144.281 120.485 144.281 120.802C144.281 121.118 144.544 121.374 144.867 121.374Z" fill="white"/>
<path d="M120.258 69.8473C120.581 69.8473 120.844 69.591 120.844 69.2748C120.844 68.9586 120.581 68.7023 120.258 68.7023C119.934 68.7023 119.672 68.9586 119.672 69.2748C119.672 69.591 119.934 69.8473 120.258 69.8473Z" fill="white"/>
<path d="M40.5703 50.3817C40.8939 50.3817 41.1562 50.1254 41.1562 49.8092C41.1562 49.493 40.8939 49.2366 40.5703 49.2366C40.2467 49.2366 39.9844 49.493 39.9844 49.8092C39.9844 50.1254 40.2467 50.3817 40.5703 50.3817Z" fill="white"/>
<path d="M18.8906 120.036H18.4039V119.084H18.2055V120.036H17.7188V120.424H18.2055V121.374H18.4039V120.424H18.8906V120.036Z" fill="white"/>
<path d="M36.4687 120.036H35.982V119.084H35.7836V120.036H35.2969V120.424H35.7836V121.374H35.982V120.424H36.4687V120.036Z" fill="white"/>
<path d="M61.0781 138.357H60.5914V137.405H60.393V138.357H59.9062V138.745H60.393V139.695H60.5914V138.745H61.0781V138.357Z" fill="white"/>
<path d="M140.766 64.5981H140.279V64.1221H140.081V64.5981H139.594V64.7912H140.081V65.2672H140.279V64.7912H140.766V64.5981Z" fill="white"/>
<path d="M113.812 89.7889H113.325V89.313H113.128V89.7889H112.641V89.9821H113.128V90.458H113.325V89.9821H113.812V89.7889Z" fill="white"/>
<path d="M7.17188 105.819H6.68477V105.344H6.4871V105.819H6V106.013H6.4871V106.489H6.68477V106.013H7.17188V105.819Z" fill="white"/>
<path d="M20.0625 140.171H19.5754V139.695H19.3777V140.171H18.8906V140.364H19.3777V140.84H19.5754V140.364H20.0625V140.171Z" fill="white"/>
<path d="M59.9062 31.392H59.4191V30.916H59.2215V31.392H58.7344V31.5851H59.2215V32.0611H59.4191V31.5851H59.9062V31.392Z" fill="white"/>
<path d="M41.1562 92.079H40.6691V91.6031H40.4715V92.079H39.9844V92.2721H40.4715V92.7481H40.6691V92.2721H41.1562V92.079Z" fill="white"/>
<g opacity="0.7">
<path opacity="0.7" d="M109.358 115.027C110.321 115.027 111.101 113.978 111.101 112.683C111.101 111.388 110.321 110.338 109.358 110.338C108.395 110.338 107.615 111.388 107.615 112.683C107.615 113.978 108.395 115.027 109.358 115.027Z" fill="url(#paint1_linear)"/>
</g>
<path opacity="0.2" d="M109.711 114.504C110.682 114.504 111.469 113.735 111.469 112.786C111.469 111.838 110.682 111.069 109.711 111.069C108.74 111.069 107.953 111.838 107.953 112.786C107.953 113.735 108.74 114.504 109.711 114.504Z" fill="black"/>
<path opacity="0.2" d="M113.227 130.534C114.197 130.534 114.984 129.509 114.984 128.244C114.984 126.979 114.197 125.954 113.227 125.954C112.256 125.954 111.469 126.979 111.469 128.244C111.469 129.509 112.256 130.534 113.227 130.534Z" fill="black"/>
<path d="M62.25 119.084H58.7344L59.3625 113.359H61.6218L62.25 119.084Z" fill="#23D997"/>
<g opacity="0.1">
<path opacity="0.1" d="M59.0648 115.172H61.7291L61.5506 113.533H59.2433L59.0648 115.172Z" fill="black"/>
</g>
<g opacity="0.1">
<path opacity="0.1" d="M89.8304 115.172H92.4962L92.3177 113.533H90.009L89.8304 115.172Z" fill="black"/>
</g>
<g opacity="0.1">
<path opacity="0.1" d="M70.7297 115.172H73.3955L73.217 113.533H70.9083L70.7297 115.172Z" fill="black"/>
</g>
<g opacity="0.1">
<path opacity="0.1" d="M78.0371 115.172H80.7029L80.5229 113.533H78.2156L78.0371 115.172Z" fill="black"/>
</g>
<path d="M88.0312 64.1221H62.25V65.2672H88.0312V64.1221Z" fill="#23D997"/>
<path d="M59.46 43.0036C59.5859 42.803 59.7395 42.6426 59.911 42.5329C60.0825 42.4231 60.268 42.3664 60.4556 42.3664C60.6432 42.3664 60.8287 42.4231 61.0002 42.5329C61.1717 42.6426 61.3253 42.803 61.4512 43.0036C62.1458 44.0707 62.7716 45.4807 63.32 46.9799C64.942 51.4919 65.7811 56.5041 65.7654 61.5867V114.504H55.2189V61.3635C55.2057 56.4215 56.0042 51.5452 57.549 47.1341C58.2802 45.0729 58.9467 43.7826 59.46 43.0036Z" fill="#E0E0E0"/>
<path d="M55.2188 61.8321L57.5625 61.8508V66.4122H55.2188V61.8321Z" fill="#23D997"/>
<path d="M63.4219 61.8321L65.7656 61.8508V66.4122H63.4219V61.8321Z" fill="#23D997"/>
<path d="M84.5156 61.8321L88.0312 61.8508V66.4122H84.5156V61.8321Z" fill="#23D997"/>
<path d="M93.8906 61.8321L96.2344 61.8508V66.4122H93.8906V61.8321Z" fill="#23D997"/>
<g opacity="0.1">
<path opacity="0.1" d="M63.4069 46.5068C62.8168 45.0027 62.1436 43.588 61.3962 42.5174C61.1852 42.2026 60.9032 41.9897 60.5935 41.9113C60.2838 41.833 59.9636 41.8936 59.682 42.0839C59.8442 42.1927 59.9907 42.3395 60.1147 42.5174C60.8606 43.588 61.5354 45.0027 62.1239 46.5068C63.8698 51.0333 64.7726 56.0624 64.7549 61.1619V114.25H66.0379V61.1639C66.0551 56.0638 65.1522 51.0343 63.4069 46.5068V46.5068Z" fill="black"/>
</g>
<g opacity="0.1">
<path opacity="0.1" d="M88.6671 46.6534C89.2556 45.1492 89.9304 43.7346 90.6763 42.6639C90.8157 42.4612 90.9846 42.2991 91.1725 42.1876C90.8952 42.0244 90.5868 41.9825 90.2909 42.068C89.9949 42.1535 89.7264 42.3619 89.5234 42.6639C88.776 43.7346 88.1012 45.1492 87.5127 46.6534C85.7676 51.1802 84.8648 56.209 84.8817 61.3084V114.404H86.0361V61.3125C86.018 56.2116 86.9208 51.1811 88.6671 46.6534V46.6534Z" fill="black"/>
</g>
<path d="M60.5403 131.679H60.444C59.9906 131.679 59.5558 131.442 59.2351 131.018C58.9145 130.595 58.7344 130.021 58.7344 129.422V119.084H62.25V129.422C62.25 130.021 62.0699 130.595 61.7493 131.018C61.4286 131.442 60.9938 131.679 60.5403 131.679Z" fill="url(#paint2_linear)"/>
<path d="M72.7969 119.084H69.2812L69.9094 113.359H72.1687L72.7969 119.084Z" fill="#23D997"/>
<path d="M71.0872 132.824H70.9909C70.5375 132.824 70.1026 132.565 69.782 132.103C69.4614 131.642 69.2812 131.015 69.2812 130.362V119.084H72.7969V130.362C72.7969 131.015 72.6168 131.642 72.2961 132.103C71.9755 132.565 71.5406 132.824 71.0872 132.824Z" fill="url(#paint3_linear)"/>
<path d="M81 119.084H77.4844L78.1125 113.359H80.3718L81 119.084Z" fill="#23D997"/>
<path d="M79.2903 132.824H79.194C78.7406 132.824 78.3058 132.565 77.9851 132.103C77.6645 131.642 77.4844 131.015 77.4844 130.362V119.084H81V130.362C81 131.015 80.8199 131.642 80.4993 132.103C80.1786 132.565 79.7438 132.824 79.2903 132.824Z" fill="url(#paint4_linear)"/>
<path d="M92.7187 119.084H89.2031L89.8313 113.359H92.0906L92.7187 119.084Z" fill="#23D997"/>
<path d="M91.5203 43.0036C91.3804 42.803 91.2097 42.6426 91.0192 42.5329C90.8287 42.4231 90.6225 42.3664 90.4141 42.3664C90.2057 42.3664 89.9995 42.4231 89.809 42.5329C89.6185 42.6426 89.4478 42.803 89.3079 43.0036C88.5376 44.0707 87.8408 45.4807 87.233 46.9799C85.4301 51.4915 84.4977 56.504 84.5159 61.5867V114.504H96.2342V61.3635C96.2489 56.4215 95.3617 51.5452 93.6452 47.1341C92.8312 45.0729 92.0906 43.7826 91.5203 43.0036Z" fill="#E0E0E0"/>
<path d="M91.0091 132.824H90.9128C90.4594 132.824 90.0245 132.565 89.7039 132.103C89.3833 131.642 89.2031 131.015 89.2031 130.362V119.084H92.7188V130.362C92.7188 131.015 92.5386 131.642 92.218 132.103C91.8974 132.565 91.4625 132.824 91.0091 132.824Z" fill="url(#paint5_linear)"/>
<path d="M76.7552 0.961428C76.5652 0.660322 76.3281 0.418234 76.0604 0.252148C75.7928 0.0860618 75.5011 0 75.2058 0C74.9105 0 74.6188 0.0860618 74.3512 0.252148C74.0835 0.418234 73.8464 0.660322 73.6564 0.961428C72.5831 2.57092 71.6018 4.69716 70.7431 6.96024C68.2193 13.6678 66.9375 21.2822 66.9375 29.0029V114.504H83.3437V28.6597C83.3437 21.1576 82.1171 13.7495 79.719 7.19309C78.5921 4.08236 77.554 2.14812 76.7552 0.961428Z" fill="#EEEEEE"/>
<path d="M77.9813 10.3054H72.2999C71.28 10.3054 70.4531 11.4072 70.4531 12.7664V13.5695C70.4531 14.9287 71.28 16.0306 72.2999 16.0306H77.9813C79.0013 16.0306 79.8281 14.9287 79.8281 13.5695V12.7664C79.8281 11.4072 79.0013 10.3054 77.9813 10.3054Z" fill="#23D997"/>
<g opacity="0.1">
<path opacity="0.1" d="M83.3717 31.8151H67.3481V32.6517H83.3717V31.8151Z" fill="black"/>
</g>
<path d="M102.199 23.557C101.773 22.7663 101.239 22.1031 100.629 21.6058V21.6058C99.9283 21.0357 99.144 20.7006 98.3368 20.6264C97.5296 20.5522 96.7212 20.7409 95.974 21.178C95.2267 21.615 94.5607 22.2886 94.0275 23.1467C93.4942 24.0048 93.1079 25.0245 92.8986 26.1269C92.6892 27.2292 92.6623 28.3847 92.8199 29.5041C92.9776 30.6235 93.3156 31.6767 93.8078 32.5824C94.3 33.488 94.9332 34.2218 95.6585 34.7271C96.3838 35.2323 97.1818 35.4955 97.9906 35.4962C98.1028 35.4962 98.215 35.4962 98.3241 35.4788C99.2748 35.3942 100.191 34.9478 100.977 34.1872C101.762 33.4265 102.387 32.38 102.784 31.1586C103.182 29.9373 103.338 28.5869 103.235 27.2507C103.132 25.9146 102.775 24.6427 102.201 23.57L102.199 23.557Z" fill="url(#paint6_linear)"/>
<path opacity="0.2" d="M105.609 25.7653C105.609 27.366 105.098 28.9065 104.181 30.0735C103.264 31.2405 102.009 31.9464 100.671 32.0475C100.562 32.0475 100.45 32.0611 100.338 32.0611C99.5293 32.0616 98.731 31.8398 98.0052 31.4128C97.2794 30.9858 96.6457 30.365 96.153 29.5985C95.6603 28.832 95.3219 27.9404 95.1639 26.9927C95.006 26.0449 95.0328 25.0665 95.2422 24.1331C95.4517 23.1997 95.8381 22.3364 96.3717 21.61C96.9053 20.8836 97.5716 20.3136 98.3192 19.9441C99.0668 19.5747 99.8755 19.4156 100.683 19.4793C101.49 19.5431 102.274 19.8278 102.975 20.3115V20.3115C103.585 20.7346 104.119 21.2993 104.544 21.9723V21.9723C105.236 23.0636 105.611 24.3959 105.609 25.7653Z" fill="black"/>
<path opacity="0.1" d="M81.0533 48.1686C80.795 48.3355 80.5459 48.5325 80.3082 48.758C80.1495 48.8881 80.013 49.0717 79.9095 49.2942C79.8581 49.4063 79.8298 49.5386 79.8282 49.6747C79.8266 49.8107 79.8516 49.9445 79.9002 50.0593C80.0218 50.3089 80.2558 50.3459 80.4621 50.3644C80.6787 50.4058 80.8988 50.3726 81.1056 50.2673C81.2452 50.1636 81.3722 50.0253 81.4812 49.8582L81.9107 49.2734C82.0647 49.07 82.2186 48.7903 82.1586 48.5037C82.1231 48.4014 82.0711 48.3139 82.0074 48.2494C81.9437 48.1848 81.8702 48.1451 81.7937 48.1339C81.4235 48.0256 81.0396 48.1269 80.7161 48.4182" fill="black"/>
<g opacity="0.1">
<path opacity="0.1" d="M79.6745 55.0656C79.8174 55.0656 79.9332 54.9098 79.9332 54.7175C79.9332 54.5253 79.8174 54.3695 79.6745 54.3695C79.5316 54.3695 79.4158 54.5253 79.4158 54.7175C79.4158 54.9098 79.5316 55.0656 79.6745 55.0656Z" fill="black"/>
</g>
<g opacity="0.1">
<path opacity="0.1" d="M84.9278 53.7894C85.4509 53.7894 85.8749 53.2189 85.8749 52.5152C85.8749 51.8115 85.4509 51.241 84.9278 51.241C84.4047 51.241 83.9807 51.8115 83.9807 52.5152C83.9807 53.2189 84.4047 53.7894 84.9278 53.7894Z" fill="black"/>
</g>
<g opacity="0.1">
<path opacity="0.1" d="M86.5722 48.1309C86.5694 48.464 86.4956 48.7891 86.3594 49.0673C86.2232 49.3456 86.0305 49.5653 85.8042 49.7004C85.5778 49.8355 85.3273 49.8803 85.0826 49.8293C84.8379 49.7784 84.6092 49.6339 84.4238 49.4131C84.2384 49.1923 84.104 48.9044 84.0368 48.5838C83.9695 48.2632 83.9721 47.9233 84.0443 47.6046C84.1165 47.286 84.2553 47.0019 84.4441 46.7863C84.6329 46.5707 84.8637 46.4327 85.1092 46.3886V46.3886C85.6784 46.8322 86.1758 47.4246 86.5722 48.1309Z" fill="black"/>
</g>
<g opacity="0.1">
<path opacity="0.1" d="M86.6598 55.9123C86.2374 56.7211 85.6853 57.3917 85.0441 57.8744C84.403 58.3571 83.6894 58.6395 82.9561 58.7008C82.9561 58.6092 82.947 58.5177 82.947 58.424C82.9474 57.8444 83.0675 57.2763 83.2937 56.783C83.52 56.2897 83.8436 55.8906 84.2286 55.6302C84.6135 55.3698 85.0446 55.2583 85.4739 55.3081C85.9031 55.3579 86.3137 55.5671 86.6598 55.9123V55.9123Z" fill="black"/>
</g>
<path d="M19.3648 85.653C19.0815 85.1034 18.7263 84.6421 18.3201 84.2962V84.2962C17.8538 83.8948 17.3307 83.6568 16.7914 83.6007C16.2522 83.5446 15.7114 83.6719 15.2112 83.9727C14.711 84.2735 14.2649 84.7397 13.9076 85.3349C13.5503 85.9302 13.2915 86.6384 13.1513 87.4045C13.0112 88.1705 12.9934 88.9737 13.0995 89.7515C13.2056 90.5293 13.4326 91.2606 13.7629 91.8885C14.0932 92.5165 14.5178 93.024 15.0037 93.3717C15.4896 93.7194 16.0236 93.8978 16.5642 93.893C16.6388 93.893 16.7105 93.893 16.7866 93.8823C17.4171 93.82 18.0244 93.5093 18.5446 92.9829C19.0647 92.4565 19.4785 91.7339 19.7421 90.8914C20.0058 90.0488 20.1097 89.1174 20.0427 88.1955C19.9758 87.2736 19.7406 86.3952 19.3619 85.653H19.3648Z" fill="url(#paint7_linear)"/>
<path opacity="0.2" d="M20.0625 88.178C20.0623 89.3425 19.7216 90.4632 19.1097 91.3121C18.4978 92.1611 17.6607 92.6745 16.7685 92.7481C16.6955 92.7481 16.6132 92.7481 16.5464 92.7481C16.0072 92.7479 15.4752 92.5862 14.9916 92.2754C14.508 91.9646 14.0858 91.5131 13.7576 90.9557C13.4294 90.3984 13.204 89.7502 13.0988 89.0613C12.9936 88.3723 13.0115 87.6611 13.151 86.9826C13.2906 86.3041 13.5481 85.6765 13.9036 85.1483C14.2591 84.6201 14.7031 84.2056 15.2013 83.9367C15.6994 83.6678 16.2384 83.5517 16.7765 83.5975C17.3146 83.6433 17.8374 83.8497 18.3045 84.2007V84.2007C18.7123 84.5099 19.0683 84.9227 19.3512 85.4146C19.8142 86.2094 20.0641 87.1803 20.0625 88.178V88.178Z" fill="black"/>
<path opacity="0.1" d="M15.9831 85.9173C15.8543 85.9998 15.7301 86.0979 15.6119 86.2105C15.533 86.2767 15.4649 86.3684 15.4125 86.4789C15.388 86.536 15.375 86.6024 15.375 86.6703C15.375 86.7382 15.388 86.8046 15.4125 86.8616C15.449 86.9159 15.493 86.9576 15.5413 86.9839C15.5896 87.0102 15.6411 87.0205 15.6923 87.014C15.8005 87.035 15.9105 87.0186 16.0139 86.966C16.0839 86.914 16.1476 86.8445 16.2023 86.7606L16.4159 86.469C16.4908 86.3663 16.5724 86.2271 16.5393 86.0846C16.5225 86.0325 16.4968 85.9879 16.4649 85.9554C16.433 85.9228 16.396 85.9034 16.3576 85.8991C16.1732 85.8448 15.982 85.8956 15.8211 86.0416" fill="black"/>
<g opacity="0.1">
<path opacity="0.1" d="M14.759 90.6041C14.8585 90.6041 14.9391 90.4956 14.9391 90.3619C14.9391 90.2281 14.8585 90.1196 14.759 90.1196C14.6596 90.1196 14.579 90.2281 14.579 90.3619C14.579 90.4956 14.6596 90.6041 14.759 90.6041Z" fill="black"/>
</g>
<g opacity="0.1">
<path opacity="0.1" d="M18.4248 89.7166C18.79 89.7166 19.086 89.3184 19.086 88.8272C19.086 88.3359 18.79 87.9377 18.4248 87.9377C18.0597 87.9377 17.7637 88.3359 17.7637 88.8272C17.7637 89.3184 18.0597 89.7166 18.4248 89.7166Z" fill="black"/>
</g>
<g opacity="0.1">
<path opacity="0.1" d="M19.5672 85.7679C19.5658 86.0025 19.5142 86.2316 19.4186 86.4279C19.323 86.6241 19.1874 86.7791 19.0281 86.8744C18.8687 86.9697 18.6923 87.0011 18.52 86.9651C18.3477 86.9291 18.1867 86.827 18.0564 86.6711C17.926 86.5152 17.8318 86.3122 17.785 86.0861C17.7382 85.8601 17.7408 85.6208 17.7924 85.3966C17.8441 85.1725 17.9426 84.9732 18.0762 84.8225C18.2099 84.6717 18.3729 84.576 18.546 84.5466C18.9438 84.8574 19.2911 85.2728 19.5672 85.7679V85.7679Z" fill="black"/>
</g>
<g opacity="0.1">
<path opacity="0.1" d="M19.6336 91.1964C19.3389 91.7607 18.9537 92.2286 18.5064 92.5654C18.0591 92.9022 17.5612 93.0994 17.0496 93.1422C17.0496 93.0791 17.0496 93.014 17.0496 92.9387C17.0498 92.5343 17.1336 92.138 17.2914 91.7938C17.4492 91.4497 17.675 91.1712 17.9435 90.9895C18.2121 90.8079 18.5128 90.73 18.8123 90.7647C19.1118 90.7995 19.3982 90.9454 19.6397 91.1862L19.6336 91.1964Z" fill="black"/>
</g>
</g>
<defs>
<linearGradient id="paint0_linear" x1="38.1454" y1="141.476" x2="38.1454" y2="135.86" gradientUnits="userSpaceOnUse">
<stop stop-color="#808080" stop-opacity="0.25"/>
<stop offset="0.54" stop-color="#808080" stop-opacity="0.12"/>
<stop offset="1" stop-color="#808080" stop-opacity="0.1"/>
</linearGradient>
<linearGradient id="paint1_linear" x1="2715.53" y1="2770.1" x2="2715.53" y2="2662.1" gradientUnits="userSpaceOnUse">
<stop stop-color="#808080" stop-opacity="0.25"/>
<stop offset="0.54" stop-color="#808080" stop-opacity="0.12"/>
<stop offset="1" stop-color="#808080" stop-opacity="0.1"/>
</linearGradient>
<linearGradient id="paint2_linear" x1="60.4929" y1="119.084" x2="60.4929" y2="131.679" gradientUnits="userSpaceOnUse">
<stop stop-color="#E0E0E0"/>
<stop offset="0.31" stop-color="#FCCC63"/>
<stop offset="0.77" stop-color="#F55F44"/>
</linearGradient>
<linearGradient id="paint3_linear" x1="71.0398" y1="119.084" x2="71.0398" y2="132.824" gradientUnits="userSpaceOnUse">
<stop stop-color="#E0E0E0"/>
<stop offset="0.31" stop-color="#FCCC63"/>
<stop offset="0.77" stop-color="#F55F44"/>
</linearGradient>
<linearGradient id="paint4_linear" x1="79.2429" y1="119.084" x2="79.2429" y2="132.824" gradientUnits="userSpaceOnUse">
<stop stop-color="#E0E0E0"/>
<stop offset="0.31" stop-color="#FCCC63"/>
<stop offset="0.77" stop-color="#F55F44"/>
</linearGradient>
<linearGradient id="paint5_linear" x1="90.9617" y1="119.084" x2="90.9617" y2="132.824" gradientUnits="userSpaceOnUse">
<stop stop-color="#E0E0E0"/>
<stop offset="0.31" stop-color="#FCCC63"/>
<stop offset="0.77" stop-color="#F55F44"/>
</linearGradient>
<linearGradient id="paint6_linear" x1="8172.15" y1="6112.2" x2="8172.15" y2="5090.16" gradientUnits="userSpaceOnUse">
<stop stop-color="#808080" stop-opacity="0.25"/>
<stop offset="0.54" stop-color="#808080" stop-opacity="0.12"/>
<stop offset="1" stop-color="#808080" stop-opacity="0.1"/>
</linearGradient>
<linearGradient id="paint7_linear" x1="2340.73" y1="6038.53" x2="2340.73" y2="5544.8" gradientUnits="userSpaceOnUse">
<stop stop-color="#808080" stop-opacity="0.25"/>
<stop offset="0.54" stop-color="#808080" stop-opacity="0.12"/>
<stop offset="1" stop-color="#808080" stop-opacity="0.1"/>
</linearGradient>
<clipPath id="clip0">
<rect width="150" height="150" fill="white"/>
</clipPath>
</defs>
</svg>
