<svg xmlns="http://www.w3.org/2000/svg" width="3191" height="3683" viewBox="0 0 3191 3683">
  <defs>
    <style>
      .cls-1 {
        fill: #fff;
      }

      .cls-1, .cls-2 {
        fill-rule: evenodd;
      }
    </style>
  </defs>
  <path id="Color_Fill_2" data-name="Color Fill 2" class="cls-1" d="M832,0H960V5c4.151,2.595,8.322,3.156,16,3,6.912,4.879,22.376,3.319,32,6,17.7,4.929,38.04,8.4,56,14,92.89,28.974,176.28,70.119,189,180,9.88,2.86,20.22,8.976,30,12,71.64,22.159,138.21,47.195,185,94,11.17,11.178,23.66,24.313,31,39,2.36,4.722,1.73,8.614,4,13,1.7,3.285,5.84,7.369,7,11V616c0,171.878,2,340.656,2,514v167c0,26.61-3.59,60.96,2,84v214c1.08,3.17,5.41,6.95,7,10,19.98,38.35,52.28,58.68,95,74,21.11,7.57,46.99,7.4,70,13h24c11.39,2.79,29.27,3.98,42,4h30c25.16,6.16,58.28,1.74,84,8h28c21.82,5.37,53.11,2.42,76,8h16c18.25,4.49,45.59,3.51,64,8h20c12.31,3.03,29.83,3.03,42,6h18c4.41,1.09,13.58,2.92,18,4h20c32.88,8.09,72.94,5.93,106,14,11.67,2.85,20.75-.78,32,2,30.53,7.53,67.65,6.52,98,14,9.43,2.32,16.32-.38,26,2,10.59,2.6,25.74,3.5,36,6h14c8.3,2.03,16.22,3.82,24,2,5.56-10.23,5.33-22.38,9-36,7.32-27.19,11.25-58.9,18-86v-12c20.74-82.59,28.16-173.8,50-256,1.75-6.6.17-11.07,2-18,6.04-22.86,11.24-50.37,19-72,3.09-8.6,6.4-30.57,13-34,1.9-1.2,7.86-1.3,10-2,7.28-17.42,18.78-27.78,31-40q4.995-5.505,10-11c7.25-5.26,16.28-8.13,23-14,2.41-2.1,1.55-8,4-10,0.41-.34,9.48-3.76,10-4,15.56-7.19,35.91-7,58-7,54.4,0,87.89,11.9,122,31,10.83,6.06,20.42,16.41,29,25,43.44,43.45,66.29,98.79,85,167v9c5.3,19.61,8.68,44.68,14,65v15c2.59,9.9,3.22,26.32,6,37v29c2.02,7.76-.59,22.04,2,32,2.8,10.77,2,28.1,2,42,0,31.45,1.56,62.26-9,83-9.84,19.32-29.56,27.9-49,38-17.42,9.05-36.99,19.9-55,28-11.02,4.95-20.24,6.66-31,12-14.33,7.11-31.05,18.81-48,22v4c1,0.33,2,.67,3,1,2.88,2.4,5.24.79,10,2,9.83,2.51,30.21,3.91,41,4h23c13.24,3.25,30.57,4,46,4h24c39.01,9.61,91.11.4,130,10,19.91,4.92,45.44,1.29,64,6,10.79,2.74,18.36-.8,19,12-7.04,3.71-16.82.51-27,3-11.15,2.72-27.63,3.48-38,6h-34c-22.01,5.37-51.83,2.62-74,8-13.15,3.19-31.13-.64-42,2-8.37,2.03-19.77.49-26,2-14.46,3.51-36.18-1.35-50,2h-19c-16.27.01-46.45-1.55-60,3v1h1c5.35,8.49,43.32,20.29,55,26,28.24,13.79,59.28,27.56,87,42,11.04,5.75,22.23,9.02,32,16,8.53,6.1,21.35,26.99,26,37,5.25,11.31-.74,41-1,52-0.87,36.37,3.97,80.56-4,111-2.14,8.18-.42,19.96-2,26v19c-4.51,16.99-5.56,38.39-10,55v9c-5.29,18.97-10.51,41.94-17,60q-1.005,5.505-2,11c-5.24,11.22-8.25,24.19-14,36-22.93,47.1-51.8,92.3-97,117-8.4,4.59-15.77,5.95-25,10-27.28,11.96-48.76,13-89,13h-35c-34.53-8.96-57.61-21.6-79-43q-6-5.505-12-11c-21.83-29.4-33.11-67.25-44-108-2.69-10.06-1.2-17.16-4-28-18.56-71.75-25.57-151.23-44-224q-1.005-10.005-2-20c-10.25-39.66-13.34-84.7-25-124-3.57-12.05-1.49-38.1-12-42-3.05-2.67-38.15,1.98-46,4-31.05,7.99-68.61,6.22-100,14-11.24,2.78-20.36-.89-32,2-44.04,10.94-98.04,7.19-142,18h-22c-4.02,1-11.98,3.01-16,4h-20c-16.74,4.13-40.19,4.1-56,8h-24c-13.16,3.25-32.43,2.67-46,6h-20c-27.42,6.76-64.48,3.25-92,10h-18c-32.78,8.06-76.28,2-108,10-2.86,4.97-5.1,13.78-12,15-3.12,1.99-11.16,1-16,1-13.85,0-30.86,1.46-43-1-0.85-3.98-2.37-7.61-6-9-2.97-2.61-16.89-3.52-23-2-19.35,4.82-39.28,10.45-56,17-40.07,15.7-63.96,31.15-83,68-1.82,3.52-5.84,7.92-7,12v50c0,28.07-2,57.49-2,88v658c-4.87,20.14-2,50.4-2,74v342c-1.66,6.46-6.7,12.1-9,18-20.87,53.5-70.01,83.72-120,108-16.37,7.95-34.06,12.41-50,20-21.6,10.28-48.5,12.63-69,24-15.54,8.62-9,22.99-15,40-7.32,20.74-16.97,39.78-29,56-9,12.14-22.55,21.09-35,30-44.69,32-95.69,47.81-156,65-23.88,6.81-54.381,15.63-83,16v4H855c-0.372-2.08-.242-1.92-1-3-3.571-2.14-10.112.3-15-1-8.381-2.23-25.115-5.33-33-9-39.911-18.56-74.495-39.47-95-77-27.918-51.1-19-148.29-19-226v-74c-5.818-22.47-2-56.9-2-83V2325c0-26.85,3.675-62.48-1-87-5.861-3.2-16.36-4.01-22-8-14.927-10.56-18-40.18-6-57q6-5.505,12-11c8.141-4.04,14.439,2.03,16-9,3.727-5.96,1-23.69,1-32,0-28.05.98-58.6-1-85-2-1.67-4-3.33-6-5-2.841-1.08-6.072.77-8-1-4.654-4.26-1.239-8.92-10-10-4.337-2.83-42.792-1.25-46,1-2.688,1.88-5.822,7.45-8,10H587c-5.286-1.55-5.8-5.4-13-6-1.46,2.48-3.193,3.98-5,6-7.225.16-22.987,2.24-28-1-6.412-2.5-5.633-8.98-14-10-3.3-2.09-11.942-1-17-1-14.335,0-30.2-.03-43,1-2.685,3.96-6.816,7.43-10,11H431c-3.053-.89-6.1-5.48-10-5-1.439.18-3.9,3.48-5,4-2.521,1.19-25.009,2.43-29,1-3.866-1.38-6.456-7.24-10-9-8-3.97-23.293-2.87-32-5-22.806-5.57-39.32,10.98-60,3-5.984-2.31-14.5-15.66-22-20-5.033-2.91-9.88-3.22-15-6a413.3,413.3,0,0,1-35-22c-19.6-13.53-36.92-29.64-60-40-7.764-3.48-15.064-2.54-24-5-8.879-2.44-18.645-5.45-28-9-25.653-9.74-48.967-23.85-70-38-10.732-7.22-18.209-13.96-26-24l-5-3v-32H1c1.752,2.52,1.838,2.64,6,3,20.522-29.89,66.663-49.53,104-63,13.817-4.99,28.774-4.03,42-10,27.82-12.56,51.234-34.4,78-50,5.477-3.19,11.358-8.94,17-12,6.41-3.47,12.711-4.33,19-8,2.563-1.49,8.347-6.5,10-9,0.667-2.33,1.333-4.67,2-7,5.115-5.5,19.863-6.94,30-7,1.408,2.47,3.313,6.65,6,8,3.429,2.09,11.183.01,17,0,14.978-.01,31.571.09,45-1,1.456-2.12,2.839-2.5,4-5,2.07-3.52.159-6.97,4-9,3.55-2.41,24.444-2.39,28,0,5.2,1.92,4.736,6.48,10,8,5.749-10.19,15.872-12.07,31-10,0.968,1.35,8.563,12.69,9,13,6.459,4.63,54.934,7.18,66,3,6.968-2.63,9.517-9.92,14-15h28c1.89,3.07,3.652,5.22,8,6,5.591-8.22,18.322-8.7,31-7,3.233,4.46,10.663,15.35,17,16,5.366,3.46,31.34.57,38,0,6.163-8.94,13.656-15,24-20,2.634-35.49,4.75-90.07-3-121-1.711-1.02-3.247-3.32-5-4-2.666-.33-5.334-0.67-8-1-9.439-4.82-24.725-26.38-19-46a44.782,44.782,0,0,1,5-10c2.953-4.14,10.732-11.49,16-13,4.591-1.32,10.639.98,14-1,2.835-4.59,1-17.39,1-24V285c4.812-6.514,2-42.214,2-54,0-8.975.408-18.86,2-25V192c0-12.726-.5-28.345,2-38V135c1.537-5.921,1.9-15.439,4-22,13.214-41.211,52.966-76.071,90-94l9-2c3.907-1.858,9.78-5.648,14-7,6.668-2.137,12.975-1.433,18-5C831.877,3.705,831.894,2.533,832,0Z"/>
  <path id="Color_Fill_1" data-name="Color Fill 1" class="cls-2" d="M1254,210c5.84,0.652,10.32,3.447,15,5,19.74,6.556,38.9,11.574,57,19,73.73,30.247,137.33,53.2,173,122,3.15,6.069,8.94,13.529,11,20q1.5,473.453,3,947,0.495,135.48,1,271c1.92,6.04,7.76,12.76,11,18,22.55,36.47,57.7,56.46,103,70,18.14,5.42,38.78,4.79,58,9l105,6q122.985,10.005,246,20,77.985,7.995,156,16c24.39,5.51,52.71,4.53,77,10q13.005,1.005,26,2c25.65,5.83,54.54,3.92,81,10,22.64,5.2,47.37,3.52,71,9,17.62,4.09,40.16,7.3,57,10,1.69-7.33,4.9-16.47,7-24,6.17-22.09,7.52-45.54,13-67,6.9-27.04,8.38-55.03,15-81,6.5-25.51,7.8-51.61,14-76,2.94-11.57,2.04-21.48,5-33,7.77-30.19,11.35-63.97,19-94,4-15.73,3.69-29.57,8-45,15.24-54.53,21.5-102.79,56-138,20.67-21.11,45.03-35.94,78-45,9.17-2.52,16.92-.83,27-3,10.46-2.25,34.13-2.42,45,0,31.4,6.98,59.47,11.67,83,26,72.81,44.34,99.51,116.34,125,208q6.495,37.5,13,75,1.005,12.495,2,25c2.94,13.17.82,28.37,4,43,2,9.21-.29,20.42,2,31,6.46,29.84,3.16,100.15-6,122-10.62,25.32-32.28,33.69-56,46-30.51,15.84-62.55,29.77-95,44-13.78,6.04-27.81,15.81-43,20v2h15c3.52,2.11,10.07-.08,15,1,14.6,3.2,33.27.78,48,4h17c10.88,2.39,23.92-.65,36,2,10.25,2.25,22.56-.52,34,2,10.28,2.26,22.64-.5,34,2,28.45,6.27,61.95.82,90,7h12c14.82,3.29,32.94,2.57,47,6,7.43,1.81,16.84.08,20,6,1.14,1.69,1.07,4.9,1,8q-31.995,3.495-64,7h-13c-24.95,5.49-54.84,1.48-80,7h-15c-14.3,3.12-32.64.86-47,4h-17c-11.48,2.5-25.23-.78-38,2-15.56,3.38-35.48-1.59-52,2-14.53,3.16-33.05,1.94-49,2v1h2c8.62,7.39,26.8,12.07,38,17,29.55,13.01,59.6,29.08,89,42,15.84,6.96,47.18,19.34,57,31,5.09,6.04,7.7,13.05,12,20,2.36,3.82,7.37,8.82,9,13,3.06,7.87-.83,40.52-1,49-0.84,41.43,2.86,90.32-5,126q-1.005,14.505-2,29-6,36.99-12,74c-26.98,96.53-51.95,170.12-129,217-19.33,11.76-42.76,17.21-68,23-8.78,2.01-19.78.23-28,2-7.75,1.67-28.93-.46-36-2-12.38-2.69-22.5-.61-33-4-21.44-6.92-37.99-18.98-54-31-32.43-24.34-47.57-66.59-60-111-3.55-12.69-3.38-24.07-7-37-6.28-22.46-7.84-47.02-14-71-15.11-58.79-19.98-123.01-35-182-2.95-11.57-2.04-21.49-5-33-7.85-30.47-10.9-64.64-19-95-2.99-11.19-.51-35.59-13-37-4.4-2.13-30.59,3.47-37,5q-18.495,1.995-37,4c-22.81,5.31-49.56,6.42-73,10q-141.99,15.495-284,31-15.495,1.005-31,2c-33.85,7.6-72.94,3.44-107,11q-66,4.995-132,10c-12.4,2.74-38.21-2-43,7-1.38,2.59-1.18,6.73-2,9-14.48,6.64-47.11,7.1-65,3-1.29-3.09-2.49-7.02-5-9-4.38-3.4-18.05-2.6-25-1-20.42,4.69-38.87,9.31-56,16-39.76,15.53-62.91,30.57-82,67-2.11,4.02-6.6,8.59-8,13q-0.495,73.995-1,148-1.5,532.95-3,1066c-1.83,6.64-7.36,12.95-10,19-28.75,65.82-93.95,94.55-161,122-24.24,9.93-60.07,15.24-80,29-10.62,7.34-6.78,20.79-11,35-6.75,22.76-18.22,43.82-31,61-10.36,13.93-27.05,24.53-42,34-47.82,30.3-105.03,47.83-167,65-10.978,3.04-20.608,2.23-32,5-34.594,8.42-106.516,13.07-143,3-45.848-12.66-84.37-31.38-109-65a177,177,0,0,1-29-64q-0.5-13.005-1-26c-1.75-8.13,1.017-20.62-1-30-3.844-17.88-.591-42.23-1-62-1.443-69.71-1-143.63-1-215,0-324.43-1-652.93-1-979-27.889-1.94-46.363-24.64-33-56,2.693-6.32,9.748-15.23,16-18,3.939-1.74,12.836-.57,15-4,3.353-5.32,2-23.32,2-32,0-25.15,4.134-74.55-3-93l-11-3c-2.846-2.04-1.565-6.08-5-8-6.688-5.94-46.139-3.21-54,0-1.748,4.76-3.034,5.88-6,9-9.975.85-21.909,1.76-29-3-3.3-2.22-3.886-6.26-8-8a19.418,19.418,0,0,1-2,10,133.966,133.966,0,0,1-33,0c-1.443-2.58-3.016-6.73-6-8-9.192-7.09-58.933-2.6-70,0-1.082,2.86-1.781,5.25-4,7-7.38,6.26-31.942,3.85-35-4-0.693-1.01-1.287-4-2-5-1.32,9.95-17.515,15.56-31,12-6.885-1.82-7.649-7.83-13-10-9.5-3.86-22.617-2.7-33-5-24-5.31-36.446,10.06-55,4-10.934-3.57-9.129-8.9-16-14-3.35-2.49-7.709-4.99-11-7-10.309-6.31-21.008-9.7-31-16-20.8-13.11-39.153-30.08-60-43-15-9.29-33.384-10.84-52-17-33.827-11.2-63.954-26.27-90-45-10.717-7.7-23.749-16.13-29-29-3.461-8.48,1.124-16.89,4-22,8.353-14.84,22.859-27.07,37-36,21.753-13.73,47.529-24.37,74-33,16.68-5.44,34.175-5.93,48-14,19.622-11.45,36.149-27.08,55-39,15.377-9.72,32.256-16.21,48-26,2.261-1.41,8.421-4.83,10-7,3.286-4.52.187-7.67,6-10,5.653-4.5,19.9-6.57,28-5,0.429,3.03.621,7.55,3,9,2.987,1.56,11.541-1.34,16-2,17.715-2.62,36.156.54,51-3,0.9-6.69.44-12.37,8-13,5.713-3.81,21.149-.22,26,1a43.908,43.908,0,0,1,6,15h1c1.017-11.36,17.5-25.48,30-16,7.688,2.21,6.222,8.91,12,12,4.663,4.19,15.3,2.89,24,3,15.314,0.19,34.674.52,48-3,0.961-4.67,2.632-9.47,7-11,5.5-4.09,28.188-3.37,31,2,1.672,3.2.354,8.2,2,11v-2c11.072-14.47,15.062-16.98,37-11,2.136,3.7,4.591,10.39,9,12,7.025,5.46,39.436,2.05,48,0,1.492-3.13,3.245-10.02,6-12,4.115-2.96,11.035-.81,13-6,3.482-9.2,1-25.02,1-36,0-28,1.064-60.54-4-85-13.186-7.02-24.064-9.92-30-24-11.214-26.6,6.925-51.56,34-51V477c0-11.563-1.123-26.139,1-36V297c0-11.252-1.062-25.442,1-35,3.671-17.02-2.4-38.229,1-54q0.5-24,1-48,1.5-15,3-30c3.943-16.586,8.181-31.168,16-44C743.456,36.015,802.926,1.009,884,1c16.869,0,33.584-1.422,49,2l52,7c21.61,5.346,44.12,7.266,65,14C1150.53,56.424,1239.64,90.9,1254,210ZM879,9c-4,2.351-11.536-.211-17,1-9.22,2.044-19.445,1.44-29,4-10.739,2.877-22.934,5.619-33,10-9.88,4.3-19,11.914-30,15v1h247c3.96-2.444,37.98-1.679,45-3V36l-49-12c-9.08-2.568-16.674-1.6-26-4C955.171,11.813,918.134,9.279,879,9ZM760,45c-8.312,12.519-22.635,22.593-32,35-2.593,3.436-6.309,4.326-8,9h91c4.224,2.62,15.832,1,22,1h54c68.382,0,139.27-.161,206-1h62c6.6,0,19.42,1.839,24-1-7.42-1.8-13.79-6.749-20-10-14.02-7.342-27.96-12.7-42-20-6.1-3.174-13.51-8.857-20-11Zm81,50c-5.015,3.069-28.926,1-37,1-29.8,0-61.376-1.064-87,4-5.275,11.672-10.762,22.642-14,37,45.148,3.03,93.15,3,141,3h68c18.31,3.925,43.768,1,64,1,16.822,0,38.02,2.223,53-1h67c43.8,0,87.24-1.237,128-3v-1c-6.59-6.833-12.29-15.439-18-23-5.03-6.659-13.27-10.9-18-18H841ZM699,149v54h412V149H699Zm421,0v54h124c-0.47-19.341-9.37-35.955-12-54H1120ZM699,208v70h412V208H699Zm421,70h125q-1.005-33.5-2-67c-3.61-1.24-9.88-1.071-15-1-5.58-3.516-22.15-1-30-1-24.98,0-53.12-2.772-75,2a28.222,28.222,0,0,0-3,12c2.25,2.686,2.99,5.008,6,7,4.29,3.066,13.5,1.1,17,5,3.71,4.522,2,16.276,0,21-5.25,1.882-14.77,1.8-21,3-0.33,1-.67,2-1,3C1119.04,264.981,1119.87,273.279,1120,278Zm133,0h154v-1c-21.24-9.416-42.97-19.936-65-29-15.33-6.307-30.48-8.633-46-15-11.85-4.862-26-10.838-40-13v2C1250.54,230.386,1252.91,263.972,1253,278Zm-129-37c-1.44,2.056-1.55,1.3-2,5,4.01,1.218,5.39,2.72,11,3,1.02-.8.27-0.355,2-1a15.649,15.649,0,0,0,1-5h-2C1131.73,240.907,1128.66,240.887,1124,241Zm129,41q1.005,26,2,52l224,2v-1c-15.38-10.147-26.98-25.849-42-37-4.37-3.246-8.44-9.028-14-11-15.8-5.607-45.4-1.2-65-3C1324.32,280.91,1287.81,282.064,1253,282Zm-554,1v70h412V283H699Zm421,70h125V283h-78c-15.27,0-33.09-1.22-45,3C1120.66,306.23,1120.05,330.07,1120,353Zm133-12v66c86.01-.3,169.47.157,251,6a134.328,134.328,0,0,0-15-57c-1.81-3.484-3.74-13.241-7-15H1253ZM699,358v70h412V358H699Zm421,70h125V358h-78c-15.27,0-33.09-1.22-45,3C1120.66,381.23,1120.05,405.07,1120,428Zm133-12v66h105c17.13,0,38.71-2.289,54,1h24c22.97,0,49.29-1.278,67,5V416H1253ZM699,433v70h412V433H699Zm421,70h125V433h-78c-15.27,0-33.09-1.22-45,3C1120.66,456.23,1120.05,480.07,1120,503Zm133-16v70h250V492c-16.99.046-38.81,1.264-54-2-9.06-1.947-21.19.679-29-1-9.38-2.016-21.87.747-30-1ZM699,508v70h412V508H699Zm421,70h125V508h-78c-15.27,0-33.09-1.22-45,3C1120.66,531.23,1120.05,555.07,1120,578Zm133-16v66c86.03-.225,166.01,4.782,250,5V567l-37-4h-39c-16.49-3.55-39.63-1-58-1H1253ZM699,583v70h412V583H699Zm421,70h125V583h-91c-10.54,0-28.33-1.032-32,6-1.63,2.2-1.92,5.178-2,9,2.25,2.686,2.99,5.008,6,7,4.29,3.066,13.5,1.1,17,5,3.71,4.522,2,16.276,0,21-5.25,1.882-14.77,1.795-21,3-0.33,1-.67,2-1,3C1119.04,639.981,1119.87,648.279,1120,653Zm4-37c-1.44,2.056-1.55,1.3-2,5,4.01,1.218,5.39,2.72,11,3,1.02-.8.27-0.355,2-1a15.649,15.649,0,0,0,1-5h-1v-1Zm129,21v66l187,1c5.59,1.2,15.17-.473,22,1,12.32,2.657,27.08,2.952,41,3V637H1253ZM699,658v70h412c0.09-5.953-.08-12.477-1-17-7.46-3.976-25.95-5.565-29-14-7.36-13.05,25.56-14.984,29-24,1.85-2.811,1.13-10.487,1-15H699Zm421,0a101.591,101.591,0,0,0,4,29c4.61,1.127,15.93,2.909,18,7,0.25,0.968.78,0.379,0,1-3.34,4.538-14.87,4.7-21,6v4c-2.22,3.771.69,15.135,1,21l123,2V658H1120Zm-17,29-9,3a18.3,18.3,0,0,0-1,6c5.14,1.83,13.63,5.925,17-1,0.88-1.295.89-2.467,1-5-1.77-.961-1.68-1.257-4-2C1105.82,687.2,1105.32,687.227,1103,687Zm150,21c-0.25,22.848.04,45.943,4,64,14.42,8.081,54.1,6,76,6h170V713c-15.78.042-34.54,1.107-49-2-9.38-2.016-21.87.747-30-1-9.06-1.947-21.19.679-29-1ZM699,733v70h412V733H699Zm421,0q1.005,34,2,68l123,2V733H1120Zm133,95h37v-1c-6.29-6.214-10.7-14.841-16-22-6.06-8.192-15.11-14.653-20-24h-1v47Zm250,26V788l-33-4-68-1H1266v1c9.25,7.114,16.93,19.63,24,29,4.99,6.611,14.98,10.632,18,19-1.77.961-1.68,1.257-4,2-9.45,6.519-37.09,2.589-49,5-1.12,2.091-1.43,1.832-2,5,1.55,1.133.84,1.085,3,2,10.14,6.991,57.63,2.78,75,3ZM699,808v70h412V808H699Zm421,0c-0.22,7.867-1.59,21.425,2,26,4.04,3.389,17.41,2.961,22,5,0.93,6.9,1.32,15.317-1,21-5.05,1.944-14.85,1.819-21,3a25.259,25.259,0,0,0-1,8c11.12,6.263,21.14,1.812,36,5,10.31,2.212,25.01.592,37,1,15.35,0.522,34.08,1,51,1V808H1120Zm8,37a11.688,11.688,0,0,1-5,2,15.649,15.649,0,0,0-1,5h2c3.75,2.579,8.74-.061,12-1v-4l-3-1C1131.71,845.123,1130.53,845.106,1128,845Zm125,13v66h155c10.36,2.231,25.39-1.5,37,1,15.6,3.359,41.08,3.919,58,4V858H1253ZM699,883v70h412V883H699Zm421,0q1.005,34,2,68l123,2V883H1120Zm133,46v70h250V934c-16.1.04-36.92,1.241-52-2-11.29-2.426-25.96,1.158-36-1-10.34-2.221-23.91.952-33-1ZM699,958v70h412V958H699Zm421,0q1.005,34,2,68,61.5,1.005,123,2V958H1120Zm133,46v64c6.68,2.26,18.58,1.08,27,1,7.39,4.54,40.43-.48,52,2,19.53,4.18,46.04,1.72,68,2,32.51,0.41,68.87,1.02,103,1v-65q-43.995-2.5-88-5H1253Zm-554,29v70h412v-70H699Zm421,0q1.005,33.99,2,68h120v-2c2.68-4.31.87-15.75,1-22q1.005-22.005,2-44H1120Zm133,46v66q87.495,0.495,175,1c5.59,1.2,15.17-.47,22,1,15.76,3.39,35.93,2.94,53,3v-71H1253Zm-554,29v70h412v-70H699Zm421,0q1.005,33.99,2,68h120v-2c2.68-4.31.87-15.75,1-22q1.005-22.005,2-44H1120Zm133,40v72h250v-66C1418.15,1154.27,1335.95,1148.3,1253,1148Zm1454,35v78c48.4-.23,102.74.37,151,2h43c5.09,0,13.66-1.07,17,1q-104.49,1.995-209,4-1.005,38.49-2,77c16.47-.1,37.37-2.15,52,1,10.97,2.36,25.28-1.1,35,1,10.33,2.23,23.91-.96,33,1h17c14.06,0.01,32.81-.84,46,2,11.07,2.39,31.45.92,42,1,5.54,0.04,15.29-1.31,19,1q-45.495.495-91,1c-18.27,0-40.53-2.16-57,1v82q61.5,1.005,123,2c9.84,0,43.02-2.72,49,1q-85.995,1.005-172,2v83q45.99,0.495,92,1c17.44,0,39.41-2.36,55,1,11.29,2.43,36.92-4.02,45,1q-95.49.495-191,1c-2.08,6.16-1.08,17.14-1,25,0.53,0.84,6.91,21.14,7,22-8.98,3.29-7.3,23.57-7,36q66,1.005,132,2c10.31,0,45.75-2.89,52,1q-91.995,1.005-184,2v83q42.99,0.495,86,1c16.51,0,37.32-2.16,52,1,10.44,2.25,33.51-3.66,41,1q-88.995.495-178,1c-2.86,8.52-1.08,23.62-1,34,2.17,3.51.58,9.63,2,14,1.24,3.82,4.04,4.35,5,9-9.04,9.26-5.21,29.83-5,46h2c4.77-4.18,11.76-5.24,18-8,11.33-5.01,22.89-10.66,35-16,31.85-14.05,64.2-30.63,95-46,20.67-10.32,42.88-17.32,52-39,7.26-17.26,5-44.52,5-68,0-29.76,2.7-68.54-3-94-3.27-14.6-.89-30.57-4-44q-1.005-12-2-24-5.505-30.99-11-62c-13.28-46.87-25.02-92.05-48-129-5.42-8.72-13-16.91-19-25-7.66-10.33-16.81-22.34-27-30-11.25-8.46-22.41-14.44-35-22-17.31-10.4-37.84-14.47-61-20q-9-.495-18-1c-9.71-2.12-27.34-4.6-39-2-5.03,1.12-12.42.57-18,2C2720.68,1179.62,2714.02,1182.09,2707,1183Zm-2008,0v66q205.98,1.005,412,2v-68H699Zm421,0c-0.1,7.96,1.53,13.93,3,20,5.26,2.33,13.35,3.69,19,6a17.817,17.817,0,0,0,3,4c0.14,5.71-.51,9.4-2,13-4.96,2.25-11.69,3.69-18,5a17.817,17.817,0,0,1-3,4c-0.21,5.24-.22,10.25,2,13,6.34,3.94,25.25,1,34,1h87v-66H1120Zm1450,300q-3.495,18.495-7,37h2c7.07,5.25,35.37,4,48,4,34.77,0.01,75.41.08,110,2,10.33,0.57,40.43-3.06,47,1q-66,.495-132,1c-24.23,0-53.7-3.27-76,1v2c-4.65,6.47-4.98,22.57-4,31h2c10.25,8.8,51.3,2.4,68,6,5.68,1.22,13.87-1.57,18,1q-45.99.495-92,1c-0.22,11.62-4.26,30.94-8,41h14c5.95,3.64,37.36,1,47,1q59.49,0.495,119,1c9.6,0,41.11-2.63,47,1q-113.985,1.005-228,2c-0.74,10.93-3.87,19.36-4,33,0.67,0.33,1.33.67,2,1,5.48,4.09,17.75,3,27,3,19.73,0,39.99-.24,56,3v2h-1c-12.23,8.21-54.99.87-73,5-7.75,1.77-12.96-.2-16,6-4.82,5.28-4.13,20.25-4,30q57.99,0.495,116,1c20.84,0,47.1-3.07,66,1,11.99,2.58,46.23-3.82,54,1q-118.995.495-238,1v1h-1c-0.83,13.6-11.01,33.04-3,45,7.04,10.51,33.9,19.43,47,25,23.13,9.84,52.15,13.34,80,20q16.995,1.995,34,4c15.82,3.73,32.95,3.06,50,7,17.58,4.06,36.02,5.83,57,6,0.08-152.54-1.9-304.23-2-455l-93-3c0.15-56.22-.68-113.49-3-166-13.09,2.02-22.04,13.36-31,20-30.39,22.53-42.74,52.92-57,92-2.72,7.46-14.77,42.62-12,49,4.33,2.63,15.74.92,22,1q22.005,1.005,44,2c6.22,0.08,17.72-1.65,22,1-28.1-.24-62.13-1.52-86,4-1.7,2.7-4.72,4.97-6,8q-6,33.99-12,68c2.42,1.3,2.83,1.8,7,2,7.33,4.51,20.11-.13,30,2,12.3,2.65,29.94.93,44,1,20.52,0.1,43.97,1,66,1,8.96,0,37.5-2.4,43,1q-39.495.495-79,1c-15.58,0-35.22-1.97-49,1h-17c-16.77,0-34.96-.82-47,4-2.84,5.99-7.75,22.3-2,27,4.89,3.62,17.87,2,26,2,19.53,0,43.94-2.19,58,4v1h-1c-6.29,4.78-16.33.94-26,3C2615.02,1485.83,2589.9,1483.08,2570,1483ZM1122,1217c2.15,2.47,6.2,2.19,11,2v-1h1v-1h-12Zm131,7v65c80.98,3.13,164.02,5.76,250,6v-65q-43.5-2.505-87-5Q1334.505,1224.505,1253,1224Zm-554,34v45q205.98,1.005,412,2v-47H699Zm421,0q1.005,23.505,2,47h120c1.66-4.87,1.08-13.52,1-20,3.04-4.78,2.03-20.78,2-27H1120Zm1525,5h33v1h-1C2672.56,1267.02,2647.88,1266.18,2645,1263Zm-1392,36v67h144q52.995,2.505,106,5v-72H1253Zm-554,13v41h546q-1.005-19.005-2-38c-7.82-2.59-21.39-1-31-1h-65c-6.38-3.93-25.22-1-34-1h-89Q861.517,1312.505,699,1312Zm0,46v41h546v-41H699Zm554,11v72h250v-67H1364Q1308.5,1371.5,1253,1369Zm-554,39v41h546v-41H699Zm554,37v50h164c8.77,1.89,21.98-1.16,32,1q27,1.995,54,4v-49h-2c-4.84-2.97-15.35,0-22-1-13.16-1.98-31.65.86-45-2-20.72-4.44-47.74-1.21-71-2C1328.22,1444.82,1289.41,1445,1253,1445Zm-554,9v24h546v-24H699Zm-11,61c1.94-15.83,3.573-40.37,0-56-2.667-.92-6.931-1.05-11-1-1.384,1.11-2.873,1.49-5,2-3.321,4.78-8.153,8.66-10,15C656.415,1494.16,672.288,1513.81,688,1515Zm11-32v24h546v-24H699Zm554,16v50q99.99,0.495,200,1,24.99,1.995,50,4v-49C1420.48,1504.48,1338.46,1499.25,1253,1499Zm-554,13v54h546v-54H699Zm554,42v74c49.72-.87,96.88,1.35,138,11,24.73,5.8,49.87,6.14,73,12,40.06,10.14,81,12.12,117,26v-2c-5.71-1.98-10.17-7-15-10-37.51-23.31-57.59-51.14-64-106-14.22.03-32.73,0.85-46-2-10.34-2.22-23.91.95-33-1-9.06-1.95-21.19.68-29-1Q1323.5,1554.505,1253,1554Zm-554,16v54h546q-1.005-25.5-2-51c-13.41-4.42-36.44-1-52-1H1077c-5.48-3.38-21.3-1-29-1H974Q836.513,1570.505,699,1570Zm0,63v49h546v-49H699Zm554,0v45h46v-45h-46Zm50,4v40c68.22,0.97,137.18,6.1,208,7,17.12,0.22,37.34,1,56,1,6.19,0,17.75,1.61,22-1-7.52-.86-15.25-4.11-22-6-16.74-4.7-34.08-6.58-50-11-18.71-5.2-35.99-5.13-55-10C1413.48,1644.58,1362.27,1637.83,1303,1637Zm-908,21c-0.771.68-2.232,1.31-3,2-0.752,1.07-.6.95-1,3,1,0.33,2,.67,3,1,3.557,2.53,8.165,1.11,13,0,1-1.33,2-2.67,3-4C406.4,1658.08,401.2,1657.88,395,1658Zm41,0c-1.448,3.18-1.2,1.2-1,5,3.076,0.89,2.958,1.58,7,2a7.151,7.151,0,0,0,9-6h-2C446.523,1657.36,440.1,1657.88,436,1658Zm113,0c-1.34,1.9-1.283.87-2,4,1,0.33,2,.67,3,1,3.55,3.24,7.636,2.29,13,2,1.121-2.09,1.434-1.83,2-5-1-.33-2-0.67-3-1C559.523,1657.36,553.1,1657.88,549,1658Zm41,0c-1.719,4.59-.556,3.24,3,7,6.523,0.16,7.54.17,13-1a14.134,14.134,0,0,0,1-4,2.826,2.826,0,0,1-1-1A140.743,140.743,0,0,0,590,1658Zm94,0a18.289,18.289,0,0,0-1,6c1,0.33,2,.67,3,1,2.533-.06,4-0.24,4-6A18.3,18.3,0,0,0,684,1658Zm-385,9c-2.491,2.29-7.383,4.07-11,5v1h9c1.021-.8.274-0.35,2-1,1.283-2.07,2.077-2.3,3-5h-3Zm136,4c-4.279,2.6-15.791,1-22,1q-21,.495-42,1c-7.159.01-18.132-1.04-23,2,79.942,0.13,163.425,2,246,2,19.915,0,45,2.87,63-1,10.146-2.18,23.558,2.68,31-2a369.367,369.367,0,0,0-41-2H625c-18-3.87-43.081-1-63-1H435Zm255,328V1683H283c-9.23,2.9-19.454,9.56-28,14-7.32,3.81-19.094,5.92-22,14-6.686,10.68,12.8,28.5,6,40-1.245,4.6-3.329,7.55-9,8-5.138-8.34-11.693-17.94-15-28h-1v3c3.406,4.63,7.161,31.27,3,37-1.18.8-1.681,0.77-4,1-1.021-.8-0.274-0.35-2-1-2.906-6.05-12.166-24.31-17-28a2.909,2.909,0,0,0-1-1v2c3.974,5.72,8.935,22.04,10,30-3.138,3.93-3.634,8.14-9,10-1.18.8-1.681,0.77-4,1-2.882-6.65-11.378-28.35-17-31v2c-5.761,9.14.567,26.85-2,39-1.768,8.37-1,20.97-1,31,0,19.5.013,41.11,1,59,0.634,11.49-1.993,36.41,3,43,4.143-6.79,14.481-28.12,23-29l2,3c8.606,10.84-5.905,31.95-7,42h2v-1c7.281-7.6,8-27.68,20-30,0.333,0.67.667,1.33,1,2,7.019,8.86.516,27.26-1,37h1v-2c4.112-3.39,5.074-9.36,8-14,2.636-4.18,6.68-7.48,10-11,1.754,0.63.971,0.19,2,1,2.873,1.12,1.842.17,3,3,9.867,13.67-11.308,33.44-8,42,2.849,7.8,11.925,10.31,19,14,6.609,3.45,14.063,7.89,22,10l31,3h48c10.165,2.18,25.126,1,37,1H690Zm563-312v141q22.005-1.005,44-2,1.005-69.495,2-139h-46Zm53,2c-4.78,13.62-3.03,34.47-3,52h2c6.39-10.56,24.26-28.04,36-33,30.68-12.96,105.17-10,148-10h55c7.83,0,18.93,1.23,24-2q-45.495-2.505-91-5-31.5-.495-63-1C1379.81,1689.74,1341.8,1689.12,1306,1689Zm-607,2v50h546v-50H699Zm983,8v284c19.02,0.21,40.71.74,58-3,12.78-2.76,26.52.49,38-2,14.57-3.15,30.43,1.11,42-4,9.16-80.89,3.89-178.78,4-266-10.22-.07-21.22.35-30,1v1h2c6.45,5.7,13.17,4.04,13,17-3.8,2.94-6.77,7.42-11,10-18.75,11.45-44.87,10.62-70,16-13.51,2.9-34.85.63-38-8-6.48-8.1-3.28-24.65-1-34,3.39-2.14,4.68-3.05,11-3,3.54-2.17,12.68-1,18-1h46c5.53,0,15.29,1.28,19-1-11.87-2.19-27.07-1.43-39-4h-16C1714.32,1699.04,1696.86,1699.12,1682,1699Zm-267,279V1708c-49.17-.52-81.96,5.16-100,35-8.25,13.65-6,42.63-6,63v19c-2.61,12.29-1,29.95-1,44,0,24.9-1.9,54.05,7,71,2.67,5.09,8.05,9.05,12,13C1347.41,1973.4,1372.9,1978.25,1415,1978Zm9-270v270h250V1708H1424Zm413,1c-1.76,1.15-6.77,1.59-9,2v1h1c8.11,7.26,22.98,3.21,36,6,13,2.78,28.58-1.08,43,2,11.36,2.43,27.84,1.99,40,2,8.86,0.01,32.92,3.14,38,0Q1911.51,1715.505,1837,1709Zm-407,49q-1.005-16.995-2-34c-0.01-3.65-.57-11.5,0-12,3.52-2.18,12.69-1,18-1h215c4.08,12.24,1.09,33.67,1,48-9.05,3.04-25.06,1.08-36,1-4.66-2.88-45.6-1-55-1Q1500.5,1758.505,1430,1758Zm276-44-9,3c-1.88,6.52-3.61,18.5,2,23,5.17,4.1,21.39,3.29,30,3,20.55-.7,42.29-3.86,57-11,5.86-2.85,11.14-1.98,12-10C1780.24,1712.03,1733.03,1714.04,1706,1714Zm-299,2v254c-49.95.55-80.85-16.4-92-54-6.2-20.9-3-55.48-3-81,0-33.34.07-69.24,13-90C1339.98,1720.94,1367.05,1715.65,1407,1716Zm29,4q1.5,15.495,3,31,106.995,1.005,214,2v-33H1436Zm-37,241V1724c-32.25-.34-54.31,7.23-67,26-12.73,18.82-11,56.23-11,87C1320.99,1911.07,1319.4,1961.73,1399,1961Zm441-237c-1.9,1.23-7.64,1.57-10,2v1h-1a36.12,36.12,0,0,0,1,15c5.23,2.93,11.83,4.43,19,6h20c10.76,2.33,26.51,1,39,1,18.49,0,37.97.92,55,1h28c16.37,3.54,37.49.54,54,3h22c12.6,2.73,29.4.28,42,3h19c11.03,2.39,26.01.63,37,3h17c9.96,2.16,21.9-.4,33,2,36.08,7.81,79.28,1.25,115,9q12,0.495,24,1c24.18,5.24,51.96,2.8,76,8,7.24,1.57,33.46,2.47,36-2h-2c-8.99-5.55-29.06-3.16-41-6-29.41-6.98-63.25-6.25-93-13q-12.495-1.005-25-2c-35.56-8.18-76.55-4.95-113-13-12.2-2.69-24.96-.57-36-3q-21-1.005-42-2c-26.42-5.78-58.24-.13-85-6h-19c-11.62-2.53-27.34-.44-39-3h-20c-12.8-2.79-28,1.05-42-2C1888.4,1722.52,1862.39,1724.08,1840,1724ZM204,1737c-1.565,4.97.2,8.47,5,10v-4C207.013,1740.54,207.149,1738.5,204,1737Zm495,12v54h546v-54H699Zm1129,3v25q28.5,1.995,57,4c9.06,1.96,21.19-.69,29,1,10.97,2.37,25.28-1.1,35,1h22q18,0.495,36,1c10.94,0,24.74-1,34,1h22c19.14,0,48.89-1.69,66,2l134,3c25.34,5.47,57.76-1.44,83,4h25c12.83,2.76,28.04-1.01,42,2,13.78,2.97,36.4,3.74,51,1a15.607,15.607,0,0,0,1-5c-12.45-5.62-30.39-5.53-46-9h-10c-33.55-7.48-72.91-2.54-107-10q-13.995-.495-28-1c-33.73-7.38-75-.58-109-8q-19.005-.495-38-1c-20.29-4.41-45.52.46-66-4h-26c-17.06-3.7-40.46,1.8-58-2-14.68-3.18-34.1-2-50-2h-18Zm692,5q-1.5,6.495-3,13c12.24,6.91,31.92,10.59,50,11v-1C2552.56,1773.02,2538.18,1758.9,2520,1757Zm-2383,5v158c8,1.02,15.088,4.34,23,3v-29c2.922-4.68,1.161-29.25,1-37-0.644-30.94-1.8-65.69-2-97Q148,1761.005,137,1762Zm-13,4-25,9v135h1v1c9.569,0.5,19.987,4.63,28,8V1803c-2.334-3.69-2.033-30.11-2-36C125.333,1766.67,124.667,1766.33,124,1766Zm1304,0h234v154H1428V1766Zm9,8v137h216V1774H1437ZM93,1907c0.241-28.88,1.586-59.52,1-88-0.251-12.22,2.458-31.22-3-39-1.549-1.05-4.085-1.03-7-1-4.877,3.82-11.563,4.69-17,8-5.928,3.61-12.116,7.86-18,12-16.35,11.51-27.183,26.34-41,40,0.27,13.1,7.44,16.45,14,23,15.752,15.74,33.008,26.12,54,37C81.33,1901.76,86.025,1905.9,93,1907Zm2381,0c11.4-.23,23.9-2.61,34-5,13.86-3.28,28.09-2.95,41-6q10.5-1.005,21-2c25.82-6.17,55.34-6.85,81-13,12.83-3.08,25.38-3.12,37-6,5.77-1.43,13.24.3,16-4h-17c-5.73-3.39-32.96-1-42-1-32.38-.01-67.24-2.17-93-10-9.06-2.75-20.85-3.58-24-12-1.99-2.16-2.07-4.58-2-9,2.9-2.9,4.58-7.68,8-10,23.43-15.9,72.23-7.9,105-15,14.19-3.07,31.44-.04,45-3,5.21-1.14,10.45,1.75,13-2h-5c-3.28-2.03-7.46-.87-12-2-16.71-4.17-34.99-3.73-53-8-22.62-5.37-47.19-4.37-71-10-22-5.2-53.34-9.72-78-10v1h-1C2472.61,1817.93,2474.07,1864.58,2474,1907Zm-646-121v25q133.98,0.495,268,1,68.49,0.495,137,1c19.25,4.13,45.93-3.3,66,1,18.93,4.05,45.14.98,66,1,31.7,0.03,69.97,3.75,99-2a14.168,14.168,0,0,0,1-4c-1-.33-2-0.67-3-1-10.41-7.74-31.09-1.78-46-5-28.61-6.19-65.09,1.23-94-5h-27c-26.77-5.78-61.15,1.78-88-4-10.65-2.29-24.6,1.03-34-1h-36l-88-3h-33c-12.91-2.78-30.84,2.05-45-1-14.18-3.05-33.57,2.32-49-1-10.47-2.25-25.81-.99-38-1C1866.25,1786.98,1847.06,1786.04,1828,1786ZM699,1808v70h546v-70H699Zm1129,7q1.005,11.505,2,23,212.475,1.005,425,2h108c17.44,0,39.42,2.36,55-1h29c4.94-1.07,12.42-2.03,17-3a21.583,21.583,0,0,0,1-7c-16.25-9.17-46.62-6.69-71-7-40.16-.51-81.25-1.8-123-2C2124.8,1819.31,1975.27,1815.16,1828,1815Zm954,4v21h224c19.15,0,48.88,1.69,66-2,7.55-1.62,15.82,1.45,21-2-13.14-1.42-29.71-2.12-43-5-9.82-2.13-20.31-.12-29-2-16.14-3.49-36.32.39-52-3q-30-1.005-60-2c-14.03-3.04-30.68,1.32-46-2-8.45-1.83-21.31,1.1-31-1C2817.22,1817.8,2798.08,1819.09,2782,1819Zm-2373,1c17.327-.4,18.274,4.68,26,13,0.5,5.03,1.745,9.3-1,13-4.08,14.49-31.8,14.25-36,0C388.73,1834.61,403.547,1824.14,409,1820Zm2365,21v-21c-77.67-.62-168.93-1.16-233,14v2h1c7.71,5.34,52.03,4,67,4Q2691.485,1840.5,2774,1841ZM261,1824c3.333,0.33,6.667.67,10,1,4.539,5.84,7.156,7.53,7,19-2.694,2.75-5.251,5.31-8,8a68.667,68.667,0,0,1-14-1c-2.138-7.96-3.062-15.27-1-24C256.5,1826.23,259.565,1825.11,261,1824Zm150,1c-5.535,5.11-9.143,5.63-9,17,3.076,3.41,3.027,7.24,8,9,2.038,1.88,3.835,2,8,2,2.44-2.52,4.66-3.16,6-7,4.094-4.83,1.925-16-2-19C419.478,1824.98,415.79,1824.9,411,1825Zm-148,4c-3.148,3.8-4.924,5.69-5,13,0.8,1.02.355,0.27,1,2,2.556,1.48,3.147,2.4,7,3,2.557-2.39,4.6-2.16,6-6,0.961-1.42.976-3.27,1-6-1.949-1.93-2.245-3.7-5-5C266.705,1829.12,265.533,1829.11,263,1829Zm995,4a36.918,36.918,0,0,0-3,3c-2.98,3.67-1.73,10-1,15h2c6.27,4.98,31.97-.26,39-2,2.01-4.21,3.04-7.02,3-14-1-.33-2-0.67-3-1C1290.38,1831.06,1265.73,1832.89,1258,1833Zm570,12v21q148.98-.495,298-1,48.495-.495,97-1c18.36,0,41.52,2.56,58-1h36c18.58,0,50.15,1.64,67-2,11.6-2.51,26.64,1.24,37-1,15.37-3.32,30.34,1,43-4a18.263,18.263,0,0,0,1-6h-2c-7.36-5.09-39.41-4-52-4q-60-.495-120-1H1828Zm775,0c-3.87,2.4-14.27,1-20,1-14.98,0-28.36,1.49-42,2v1h2c10.62,9.44,39.74,5.28,57,9,11.99,2.59,26.53-.89,40,2,11.98,2.57,29.27,1,43,1,29.43,0,61.59-.18,88-2,0.96-1.77,1.26-1.68,2-4,1.86-2.81.75-4.68-2-6-7.41-5.59-20.85-.62-32-3-13.19-2.82-32.03-1-47-1h-89Zm179,0v18c11.51-.7,29.79.43,41-2,11.92-2.58,27.32,1.31,38-1,11.6-2.51,26.64,1.24,37-1,16.69-3.61,38.82,1.5,55-2h20c12.41-1.14,28.98-.39,41-3h16c11.61-2.54,26.79-1.54,38-4,8.63-1.89,18.84,1.15,25-3C2990.08,1847.09,2886.2,1845.08,2782,1845Zm-1529,13v137h46V1858h-46Zm575,16c-0.06,7.81.51,15.49,1,22a17.817,17.817,0,0,1,4,3q17.505-.495,35-1c10.95-.03,24.73,1,34-1,12.56-2.71,28.69,1.44,40-1h19c17.46,0,39.64,1.53,56-2h19c16.53,0,37.55,1.34,53-2h35c7.81-1.69,19.56-.8,29-1,10.83-.22,28.52.26,39-2,10.33-2.23,23.92.96,33-1q31.5-.495,63-1c12.35-2.68,29.72-1.99,43-2h16c7.17-1.56,18.58.83,27-1,12.84-2.79,28.13,1.02,42-2,8.05-1.75,18.1-.02,27-2,6.94-1.54,14.97-3.43,21-5a15.607,15.607,0,0,0,1-5c-2.28-1.22-2.25-1.64-6-2-5.83-3.62-37.44-1-47-1q-61.5,1.005-123,2C2135.09,1869,1983.21,1873.85,1828,1874Zm717,191q85.485,0.495,171,1c11.57,0,54.55-.39,58,5h-5c-11.82,7.34-42.61-.51-59,3-17.1,3.66-41,1-60,1q-51.495.495-103,1,3,17.505,6,35c27.68-.26,70.86-3.87,92,4v1h-1c-4.71,4.03-11.32,1.34-19,3-21.36,4.61-50.53-.1-70,4v4c3.89,5.09,5.67,18.33,6,26h108c17.44,0,39.41-2.35,55,1,17.16,3.69,35.73-1.91,50,3-1.02.8-.27,0.35-2,1-11.84,7.49-41.51-.53-58,3-14.39,3.08-34.79,1-51,1H2563q4.005,20.505,8,41c21.19-.23,41.87,1.75,62,2,7.71,0.1,23.52-2.45,29,1-29.11-.24-63.61-1.29-89,4a15.607,15.607,0,0,0-1,5c3.68,5.28,5.11,17.96,6,25q72.99,0.495,146,1c10.83,0,46.67-.47,50,5-60.67,4.08-130.73,2.91-196,3v1c4.04,6.27,2.86,15.95,5,24,4.21,15.83,8.55,34.85,10,52,17.75-.19,42.86-1.49,59,2,12.18,2.64,24.05-.48,34,3v1h-1c-5.68,3.52-18.56,2-27,2-20.42,0-43.54-1.32-61,2v9c3.53,5.47,2.95,14.32,5,21,4.18,13.63,7.51,28.55,13,42,17.12,41.92,43.73,72.32,84,91V2328h95c0.11-96.54-1-193.89-1-289v-59c0-10.02.8-22.65-1-31v-27c0-17.45-.83-35-4-49-3.61-1.24-9.88-1.07-15-1-4.23,2.51-10.33.69-16,2-13.37,3.1-27.87,2.58-42,6-27.79,6.73-57.56,6.72-86,14-16.49,4.22-35.4,8.36-51,12-3.55.83-7.89-.66-10-1-12.41-1.98-46.27,2.11-49,8v9c3.42,5.64,1.28,14.81,3,22q3.495,16.995,7,34h188c3.9,2.39,14.25,1,20,1,13.07,0,26.07.85,37,3-1.02.8-.27,0.35-2,1-11.58,7.18-48.25-.6-65,3-12.87,2.77-31.34,1-46,1-40.93,0-90.4-3.82-125,4-2.41,3.85-3.14,6.82-3,14,3.12,4.65,1.8,13.35,5,18,4.62,2.94,29.27,1.11,37,1,10.75,6.55,44.33-4.59,55,2-28.47-.28-62.33-0.37-87,5-2.01,3.77-2.12,9.57-2,16C2543.57,2050.93,2544.63,2059.75,2545,2065Zm258-87h92c15.27,0,34.52-1.9,48,1,15.02,3.23,30.81-1.31,43,3v1h-1c-10.52,6.77-35.28-.15-50,3-12.58,2.69-30.65,1-45,1h-87v78c35.11-.14,72.52.31,106,1,27.68,0.57,57.23-1.65,81,3v2c-56.79,6.39-124.47,2.93-186,3v79h128c19.54,0,50.2-1.82,65,4v1c-59.12,6.74-129.11,3.89-194,4v78c57.46-.22,118.55-2.25,171,4v3c-10.67,5.45-35.5,2-50,2H2803v79c49.77-.04,100.71.96,149,1v1h-2c-3.71,2.28-10.82-.11-16,1-16.49,3.54-38.98-1.65-56,2-10.36,2.22-25.39-1.49-37,1-12.91,2.77-30.84-2.04-45,1-10.47,2.25-25.82,1-38,1q-25.5.495-51,1v78c20.32,2.21,45.01,1,67,1q41.49,0.495,83,1h43c5.09,0,13.66-1.07,17,1q-103.995,1.995-208,4c-0.24,26.25-1.39,56.19,4,77,12.88,8.22,46.68,11.65,68,7h15q15-2.505,30-5a196.459,196.459,0,0,0,83-49c37.55-36.93,57.79-87.35,76-144,7.46-23.21,9.24-48.8,15-73l9-75q0.495-12.495,1-25c2.08-9.57-.36-21.13,2-32,6.28-28.99,3.38-97.35-6-118-8.67-19.07-30.64-26.44-49-36-32.81-17.09-66.87-32.6-102-48-15.4-6.75-31.98-19.3-50-22v1h-1c-0.68,12.85-2.39,28.66,1,41,1.34,4.86,4.26,6.34,5,12C2800.41,1938.59,2802.76,1962.9,2803,1978ZM699,1883v53h546v-53H699Zm1129,22v27c16.85,0.1,39.81,1.32,55-2,9.37-2.05,21.87.77,30-1,16.92-3.69,39.54,1.6,56-2h22c16.02-.54,37.58.37,53-3h23c26.93-5.89,59.24.85,86-5q19.5-.495,39-1c10.88-2.39,23.93.66,36-2,29.36-6.46,63.92-.61,93-7q13.5-.495,27-1c25.93-5.76,55.96-3.14,81-9,11.24-2.63,31.37-.05,36-9h-4c-8.28-5.21-23.84.37-35-2-14.49-3.08-43.34-.97-57,2q-39.495,1.005-79,2c-20.2,1.85-47.56-1.2-67,3-10.65,2.3-24.6-1.03-34,1-10.97,2.37-25.28-1.1-35,1h-37c-10.36,2.24-25.39-1.51-37,1-13.07,2.82-33.36,1.96-47,2h-31Q1915.015,1902.505,1828,1905Zm0,32a106.837,106.837,0,0,0,2,24h22c7.83-4.72,30.21.36,41-2,24.05-5.25,53.01.26,77-5h19c28.85-6.32,63.13.34,92-6h18c15.89-3.5,36.11-.51,52-4h16c13.75-3.04,28.58-.75,43-4,37.9-8.55,80.44-6.36,118-15q12-1.005,24-2c23.74-5.56,51.37-5.4,75-11,8.61-2.04,30.51-1.14,34-7h-6c-2.94-1.86-37.83-.37-44,1-13.77,3.06-29.37.73-44,4-21.15,4.73-54.17,6.19-77,7q-61.5,4.005-123,8-57.99,2.505-116,5c-14.21,3.1-34.2,2.5-49,3h-21c-16.75,3.65-39.75-1.75-57,2-10.99,2.39-26.76-1.66-39,1C1868.82,1939.52,1846.06,1936.97,1828,1937Zm732-29h6v1c-9.65,6.27-19.15,12.27-30,18-2.94,1.55-9.29,6.64-12,5-0.71-1.55-.13-0.14,0-3,5.59-3.41,10.39-8.57,16-12C2546.12,1913.26,2554.46,1912.44,2560,1908Zm-1132,16h234v46H1428v-46Zm260,52c-0.17-12.82-3.23-29.38,1-40,26.06-15.81,82.1.41,103,10,8.63,3.96,17.53,8.09,18,20C1788.77,1979.15,1723.1,1975.95,1688,1976Zm-251-43v28h216v-28H1437Zm258,37c19.15,0.18,40.28,1.62,57-2h13q16.005-2.505,32-5a6.165,6.165,0,0,1,2-2v-1h-1c-2.4-5.9-9.07-6.52-15-9-16.56-6.93-37.89-8.64-58-13-10.52-2.28-25.47-.84-28,6C1693.39,1948.64,1694.85,1962.07,1695,1970Zm-996-29v54h546v-54H699Zm604,54c26.6,0.15,56.09,1.27,81-1,16.86-1.53,36.83,2.27,52-1h17c15.29,0,33.09,1,47-2,16.37-3.53,59.25,3.73,70-3-22.19.17-45.26-.96-66-1-14.35-.02-32.42,1.72-45-1-14.15-3.06-32.1,1.79-45-1h-19c-13.41-.04-29.64-0.32-41-4a90.462,90.462,0,0,1-34-21c-5.19-5.19-8.11-11.37-15-15C1303.99,1960.31,1303.05,1977.36,1303,1995ZM224,1954c-1.243,3.93-2.692,4.46-3,10h2v-1C225.348,1960.77,227.3,1956.11,224,1954Zm1770,4c-8.56,5.17-35.15-.57-47,2-27.59,5.98-60,.16-87,6-11.21,2.42-22.67-.23-32,3,0.63,1.75.19,0.97,1,2,8.43,5.49,38.89.19,51,0,20.05-.31,50.37-1.94,69-6h12c16.69-3.68,36.4-2.64,53-6v-1h-20Zm-283,33c-2.94,1.86-10.67,2.31-14,3v2h1c9.89,7.64,36.59,1.69,49,1a6.165,6.165,0,0,1,2-2c-1.02-.8-0.27-0.35-2-1C1740.35,1988.89,1722.17,1990.87,1711,1991Zm-406,15q-1.005,22.005-2,44h2q42.495-4.995,85-10c30.26-7.32,62.43-8.17,93-16q39.495-8.505,79-17c9.2-2.97,19.18-7.53,28-10v-1q-28.5,1.995-57,4c-8.74,1.88-20.51-.61-28,1h-19c-17.18,0-39.79-1.49-56,2h-40c-8.06,1.74-20.29.99-30,1C1343.05,2004.02,1321.56,2004.06,1305,2006Zm-606-7v54h546v-54H699Zm554,4c-0.16,16.23-.72,33.25,2,47h25c3.49-2.24,14.31-1.96,19-2v-45h-46Zm0,55v70h248c4.44-40.09,18.14-71.27,41-93,7.93-7.53,31.42-17.54,35-27h-4c-5.86,3.89-14.83,3.63-22,6-22.43,7.4-46.94,9.54-72,16-19.93,5.14-43.51,7.01-64,12l-28,3c-14.77,3.51-32.93,3.57-48,7h-10C1306.3,2057.09,1278.31,2057.86,1253,2058Zm-965-48a14.134,14.134,0,0,0-1,4h2c2.477,1.64,8.9,1.12,13,1v-2h-1v-1C296.185,2011.38,293.981,2010.13,288,2010Zm169,0c4.69,2.97,18.232,1,25,1h60c6.558,0,19.478,1.86,24-1H457Zm-62,11c2.432,2.76,8.72,2.21,14,2v-1C405.634,2020.84,399.85,2020.93,395,2021Zm41,0c2.432,2.76,8.72,2.21,14,2v-2H436Zm113,0c2.432,2.76,8.72,2.21,14,2v-2H549Zm41,0c2.527,2.85,9.562,2.21,15,2v-1C601.391,2020.76,595.117,2020.93,590,2021Zm109,37v53h546v-53H699Zm0,58v54h546v-54H699Zm554,21v45q123.99-1.005,248-2,1.005-23.505,2-47-82.995.495-166,1c-14.18,3.05-33.57-2.32-49,1C1277.7,2137.22,1264.55,2136.97,1253,2137Zm-572,33c-7.147,5.39-13.656,7.82-17,17-7.213,19.81,5.383,40.85,22,41q0.5-1.5,1-3c7.187-9.28,2.694-38.94,2-52C686.081,2171.16,686.1,2170.26,681,2170Zm18,8v21h546v-21H699Zm554,13v45h250v-49q-88.485.495-177,1c-12.59,2.71-30.16-1.98-44,1C1273.42,2190.85,1262.97,2190.97,1253,2191Zm-554,17v20h546v-20H699Zm0,29v41h546v-41H699Zm554,8v66c82.74,0.26,175.03,4.27,250-5v-65Q1378.005,2243,1253,2245Zm-554,38v41h546v-41H699Zm554,33v70q75.495-.495,151-1c7.18-1.55,18.58.81,27-1,7.49-1.61,19.26.88,28-1,12.98-2.8,29.75-1.96,44-2v-65H1253Zm-554,17v41H931c9.708,0,21.945.73,30-1h22c23.94,0,57.48,3.63,79-1h58c11.31-2.44,27.44,1.71,40-1,10-2.15,24.33-.6,36-1,14.52-.49,34.5-0.98,49-2v-35H699Zm0,45v50h412v-50H699Zm421,0q1.005,24,2,48,61.5,1.005,123,2v-50H1120Zm133,13v71c9.34-.22,27.39-1.94,37-4q106.485-.495,213-1v-70C1421.71,2386.89,1336.17,2390.83,1253,2391Zm1392,26h33v1h-1C2673.03,2420.71,2647.65,2419.93,2645,2417ZM699,2433v70h412v-70H699Zm421,0c-0.09,5.95.08,12.48,1,17,13.08,6.56,24.99-3.48,24,19-0.15,3.39-.5,5.14-2,7-3.73,3.2-16.79,3.01-22,4-0.65,6.41.62,13.47,1,21q61.5,1.005,123,2v-70H1120Zm3,29c-1.88,2.17-2.22,1.2-3,5,1,0.33,2,.67,3,1,3.31,2.65,6.17,1.47,11,1,1.12-2.09,1.43-1.83,2-5-1-.33-2-0.67-3-1C1131.01,2461.66,1126.49,2461.9,1123,2462Zm130,4v66c82.79,0.26,174.92,4.3,250-5v-65Q1378.005,2464,1253,2466Zm-554,42v70h412v-70H699Zm421,0q1.005,33.99,2,68,61.5,1.005,123,2v-70H1120Zm133,99q76.995-.495,154-1c7.18-1.55,18.58.81,27-1,19.47-4.19,47.61-2.94,69-3v-65H1300c-12.56,2.7-30.62,1.97-44,2v2c-3.67,5.65-.29,14.95-2,23C1251.46,2575.96,1252.92,2593.29,1253,2607Zm-554-24v70h412v-70H699Zm421,0q1.005,33.99,2,68,61.5,1.005,123,2v-70H1120Zm133,29v71a213.064,213.064,0,0,0,37-4h41c16.19-3.49,38.94-1,57-1h115c0.09-17.05,2.36-38.81-1-54-1.22-5.52,1.32-13.93-3-16-1.52-.72-14.2,1-18,1q-24.495.495-49,1Q1342.51,2611.005,1253,2612Zm-554,46v70h412v-70H699Zm421,0q1.005,33.99,2,68h120v-2c2.68-4.31.87-15.75,1-22q1.005-22.005,2-44H1120Zm133,29v66h250v-70Q1378.005,2685,1253,2687Zm-554,46v70h412v-70H699Zm421,0q1.005,33.99,2,68h120v-2c2.68-4.31.87-15.75,1-22q1.005-22.005,2-44H1120Zm133,29v66q82.485-.495,165-1c6.86-1.48,17.89.75,26-1,17.76-3.83,39.44-2.95,59-3v-65q-91.485.495-183,1c-10.68,2.3-26.07-1.57-38,1C1273.48,2761.83,1262.77,2761.97,1253,2762Zm-554,46v66q205.98,1.005,412,2v-68H699Zm546,66v-66h-74c-16.61,0-35.29-.7-49,2a18.263,18.263,0,0,0-1,6c0.8,1.02.35,0.27,1,2,5.6,3.24,12.26,5.33,20,7,3.02,6.07,2.87,11.04,1,18-4.97,1.07-16.23,3.19-19,7-4.28,5.32-1.37,18.05,0,24h121Zm258,24c0.24-21.91,3.41-51.8-3-69-11.05,2.04-26.77-1.64-39,1-11.36,2.46-27.89,1-41,1-21.46,0-44.02.94-64,1-16.84.05-37.99-2.23-53,1-17.12,3.68-34.25-1.84-49,4-0.4,2.27-.92,1.08,0,3,4.59,8.62,24.06,3.53,35,6,4.5,1.02,9.77,2.94,14,4v5c-4.06,4.02-6.53,9.35-10,14-8.31,11.13-18.6,20.61-26,33h61c7.25-4.46,41.6-.36,53-1C1420.85,2898.78,1461.71,2897.94,1503,2898Zm-377-65c-0.86.65-3.14,1.34-4,2,4.58,0.67,8.66,1.69,12-1C1131.33,2833.67,1128.67,2833.33,1126,2833Zm127,20q0.495,23.505,1,47h1v-1c7-6.55,33.47-34.97,35-44A338.2,338.2,0,0,0,1253,2853Zm-554,30v66h412v-66H699Zm421,0v66h125v-66H1120Zm135,27q-1.005,31.995-2,64h250v-71h-2Q1378.015,2906.5,1255,2910Zm-556,48v66h412c0.3-7.31.98-15.8-3-19-10.24-6.59-28.15.21-29-17,3.71-2.75,6.38-7.03,11-9,11.11-4.74,11.22-.69,20-9q0.495-6,1-12H699Zm421,0c-0.41,28.54,4.28,22.08,21,32-4.73,8.29-13.73,1.81-19,8-3.61,4.64-2.15,18.07-2,26h125v-66H1120Zm133,25v66h78c12.49,0,28.23,1.32,39-1,15.11-3.25,34.14,1.98,48-1h27c17.92-3.87,39.87-.5,58-4v-65c-37.83,1.48-82.17.72-120,2h-60c-11.95,2.57-28.8-1.84-42,1C1272.93,2982.74,1262.08,2982.95,1253,2983Zm-144,0c-3.7,2.57-12.65,3.9-17,5-0.63,1.75-.19.97-1,2,0.63,1.75.19,0.97,1,2,4,3.73,9.9,2.59,16,2,2.14-3.39,3.05-4.68,3-11h-2Zm-410,50v66h412v-66H699Zm421,0c-0.09,5.95.08,12.48,1,17,5.13,2.72,18.64,1.94,22,6,3.05,3.65,2.99,16.35,0,20-3.52,3.02-16.14,3.05-21,4-0.33,1-.67,2-1,3-1.96,2.98-1.13,11.28-1,16h125v-66H1120Zm133,20v72c14.81,0.04,33.29.95,47-2,9.38-2.02,21.87.75,30-1,8.74-1.88,20.51.61,28-1q72.495-.495,145-1v-67H1253Zm-130,9a14.168,14.168,0,0,0-1,4c4.31,2.88,12.98,7.34,14-2-1-.33-2-0.67-3-1C1131.01,3061.66,1126.49,3061.9,1123,3062Zm-424,46v66h412v-66H699Zm421,0v66h125v-66H1120Zm133,20v67h250v-71C1421.72,3124.6,1337.07,3127.83,1253,3128Zm-554,55v66h412v-66H699Zm421,0v66h125v-66H1120Zm133,21v66c84.23,0.31,173.06,2.99,250-6v-65Q1378.005,3201.505,1253,3204Zm-554,54v66h412v-66H699Zm421,0v66h125v-66H1120Zm133,16v71c79.92,0.27,156.3-5.3,233-6,7.62-19.52,15.79-40.01,18-65H1253Zm-554,59v66h412c0.12-17.1,3.44-56.66-1-70-16.9,3.19-39.31.76-58,1-28.22.36-60.174,1-90,1Q830.513,3332.005,699,3333Zm422-1c-0.01,21.15-.96,44.44-1,67h125q-1.5-33.495-3-67h-48c-3.84-2.41-14.29-1-20-1C1155.95,3331,1137.72,3331.78,1121,3332Zm132,17v50h169c11.54-14.6,50.81-32.26,54-52-5.64-1.91-15.69-1.08-23-1-9.01,5.56-38.41-1.69-51,1-15.9,3.4-38.24,1-56,1Q1299.5,3348.5,1253,3349Zm-554,54v71h412v-71H699Zm421,71h125l-3-69h-47c-3.81-2.43-14.31-1-20-1-18.12,0-37.25-1.17-53,2v2c-2.94,3.91-2.13,12.87-1,18,5.04,1.08,18.95,1.26,22,5,3.05,3.65,2.99,16.35,0,20-3.52,3.02-16.14,3.05-21,4-0.33,1-.67,2-1,3C1119.04,3460.98,1119.87,3469.28,1120,3474Zm133-66v57h2c4.6-3.3,10.98-2.98,17-5,10.9-3.65,22.7-6.72,34-11,34.24-12.98,71.15-25.25,101-43v-1h-11c-5.05-3.16-30.73-1-39-1C1321.61,3404,1286.33,3407.22,1253,3408Zm-130,29a14.168,14.168,0,0,0-1,4c4.31,2.88,12.98,7.34,14-2-1-.33-2-0.67-3-1C1131.01,3436.66,1126.49,3436.9,1123,3437Zm-424,41v58h412v-58H699Zm423,56,106,3c7.41-16.76,13.69-32.72,14-57q-43.5-.495-87-1c-12.14,0-28.17-1.33-33,6C1116.49,3493.35,1121.81,3522.04,1122,3534Zm-378,7c-13.143,7.51-39.949-7.07-40,15,3.132,4.12,10.12,28.63,12,30h475c5.18-7.91,14.41-12.61,20-20,3.06-4.05,5.49-8.42,9-12-0.63-1.75-.19-0.97-1-2-1.29-2.47.43-.68-2-2-6.63-5.76-18.39-1.72-29-4-7.18-1.54-18.57.81-27-1-8.77-1.88-21.98,1.15-32-1-11.44-2.46-27.83-.83-41-1C975.762,3541.58,859.025,3541.01,744,3541Zm58,50c-4.816,2.93-18.138,1-25,1-17.724,0-39.494-1.3-53,4,5.863,12.39,15.906,19.91,25,29q5,5.505,10,11h339c5.59-5.03,13.6-6.74,21-10,12.51-5.51,26.15-13.54,38-20,6.4-3.49,13.99-5.23,18-11a25.246,25.246,0,0,0-8-1c-4.58-2.82-13.8.33-20-1-9.87-2.11-24.43-1-36-1q-22.5-.495-45-1H802Zm40,50c-4.043,2.51-15.051,1-21,1q-23.5,1.005-47,2v1c18.375,11.89,40.455,19.84,65,26,18.342,4.6,40.461,3,62,3,64.31,0.01,114.32-16.4,164-30v-1c-11.82-1.33-29.09,1.77-42-1-17.1-3.67-41.008-1-60-1H842Z"/>
</svg>
