<svg xmlns="http://www.w3.org/2000/svg" width="4723" height="3150" viewBox="0 0 4723 3150">
  <defs>
    <style>
      .cls-1 {
        fill: #fff;
      }

      .cls-1, .cls-2, .cls-3, .cls-4, .cls-5, .cls-6 {
        fill-rule: evenodd;
      }

      .cls-2 {
        fill: #fffc00;
      }

      .cls-3 {
        fill: #666367;
      }

      .cls-4 {
        fill: #fd7f19;
      }

      .cls-6 {
        fill: #8c868e;
      }
    </style>
  </defs>
  <path id="BodyFill" class="cls-1" d="M2937-317q4.995,2.5,10,5-5.505,3.5-11,7c-0.67-1.333-1.33-2.667-2-4ZM2467,36c48.9,13.509,24.56,368.3,24,450l18,1c-43.94-274.549,615.69-73.67,641,26,30.16,118.763-482.16,216.48-589,245,85.97,286.39,117.2,705.84,120,1051l957-15c379.61,41.49,680.88,124.58,937,286,39.95,25.18,151.41,88.33,137,159-40.42,198.21-525.66,213.83-769,239q-176.985,1.995-354,4c-238.09,36.2-494.73,101.16-713,170-21.6,101.72,43.87,300.44-72,324-96.7,19.67-58.78-202.47-75-237-65.86,167.25-170.23,280.86-410,267q-84.99-17.505-170-35c-69.83,11.79-273.63,215.51-344,156v-18q130.98-88.995,262-178c-44.57-29.16-73.83-62.41-106-104-12.9,30.87-47.06,137.09-99,113-79.57-36.9-53.78-231.44-35-314q0.495-7.005,1-14c-216.33-78.8-471.3-172.71-708-217C860.366,2346.42-34.9,2333.21,18,2060c13.206-68.21,126.033-121.41,185-148,203.055-91.55,423.682-157.47,687-192,203.16-26.64,417.91-3.01,611,20q290.97,24,582,48c42.16-371.61,166.53-708.57,247-1038-0.67-.333-1.33-0.667-2-1-93.9-20.089-568.14-172.176-556-262,16.7-123.538,551.62-209.953,651-88C2452.21,269.766,2406.42,124.593,2467,36Z"/>
  <path id="Color_Fill_2" data-name="Color Fill 2" class="cls-2" d="M2270,339c57.11-.247,124.28,12.506,144,50C2405.98,385.086,2270,339,2270,339Zm343,13h8c-63.78,20.989-119.58,34.815-114,121C2475.09,388.166,2557.64,367.245,2613,352Zm-330,2c54.83,5.712,148.71,20.206,126,90C2353.34,448.736,2280.11,415.569,2283,354Zm367,12c93.44,25.242-97.66,81.409-130,82-0.33-.667-0.67-1.333-1-2C2503.95,368.938,2596.5,384.239,2650,366Zm17,44v0ZM2248,1621c12.66,20.5-56.72,136.66-27,199q-66.495,9.495-133,19C2101.65,1727.84,2177.08,1675.61,2248,1621Zm259,7c46.64,22.39,204.06,188.25,164,262-68.22-9.44-111.72-30.92-156-61C2541.81,1774.84,2526.28,1678.9,2507,1628Zm-1412,94h33q-5.505,39.99-11,80-348.965,19.5-698,39,174.982-45.99,350-92Zm47,1q200.475,16.5,401,33-3.495,19.005-7,38c-131.09,10.46-280.79,2.74-411-3Q1133.505,1757.01,1142,1723Zm-360,12h0Zm-8,1h0Zm-7,1c1.333,0.33,2.667.67,4,1C769.667,1737.67,768.333,1737.33,767,1737Zm-5,1h0Zm-5,1h0Zm-5,1h0Zm-5,1h0Zm-5,1h0Zm-6,1h0Zm-5,1h0Zm-5,1h0Zm-5,1h0Zm-5,1h0Zm-5,1h0Zm-5,1h0Zm-6,1h0Zm-5,1h0Zm-5,1h0Zm-5,1h0Zm-5,1h0Zm-5,1h0Zm-5,1c1.333,0.33,2.667.67,4,1C672.667,1756.67,671.333,1756.33,670,1756Zm-6,1h6q-21.5,4.995-43,10Q645.5,1762.005,664,1757Zm-42,10h0Zm-4,1h0Zm-4,1h0Zm-4,1h0Zm-4,1h0Zm-4,1h0Zm-4,1h0Zm-4,1h0Zm-3,1h0Zm-4,1h0Zm-4,1h0Zm-4,1h0Zm-4,1h0Zm-4,1h0Zm-4,1h0Zm-4,1h0Zm-4,1h0Zm-4,1h0Zm-3,1h0Zm-4,1h0Zm-4,1h0Zm-4,1h0Zm-4,1-6,3Zm-10,3h0Zm-3,1h0Zm-4,1h0Zm-3,1h0Zm-3,1h0Zm-3,1h0Zm3188,3c1.33,0.33,2.67.67,4,1C3700.67,1800.67,3699.33,1800.33,3698,1800Zm8,1h0Zm8,1c127.97-1.94,257.21,36.77,363,67q27.495,7.995,55,16C4003.8,1859.28,3851.78,1841.44,3714,1802Zm-89,5q4.005,34.995,8,70c-147.34.56-279.68-19.17-411-25q-0.495-19.5-1-39Zm15,1c282.56,15.37,476.93,113.21,696,166l-1,1q-346.965-42.99-694-86Q3640.505,1848.5,3640,1808Zm-2131,4h0Zm721,32q5.505,1.995,11,4l-1,1Q2235.005,1846.5,2230,1844Zm-1875,4h0Zm-3,1h0Zm-3,1h0Zm-3,1h0Zm-3,1h0Zm-2,1h0Zm1822,0c1.67,0.33,3.33.67,5,1-34.3,26.88-83.85,64.7-97,111l-1-1C2074.4,1870.96,2086.18,1876.13,2163,1853Zm-1825,1h0Zm177,0q-0.5,4.5-1,9Q514.5,1858.5,515,1854Zm-180,1h0Zm-2,1h0Zm-3,1h0Zm-2,1h0Zm-3,1h0Zm-2,1h0Zm-3,1h0Zm192,2h0Zm-1,3h0Zm2700,2q9,1.005,18,2Q3220,1869,3211,1868Zm-2701,1h0Zm2720,1h10v1C3236.67,1870.67,3233.33,1870.33,3230,1870Zm11,1h0Zm-2732,1h0Zm2743,0h0Zm12,1h0Zm-1199,1h0Zm1210,0h7v1C3279.67,1874.67,3277.33,1874.33,3275,1874Zm-2767,1h0Zm2779,0h0Zm11,1h0Zm12,1h0Zm-2915,1h0Zm112,0h0Zm2814,0h0Zm11,1h0Zm-2938,1h0Zm10,0-6,18Zm2940,0h0Zm-2838,1h0Zm2849,0h0Zm-2962,1h0Zm112,2h0Zm-113,1h0Zm326,0q3.5,4.005,7,8Q721.5,1889,718,1885Zm3415,0h0Zm3,1h0Zm-3632,1h0Zm3635,0h0Zm-3749,3h0Zm113,0h0Zm-115,5h0Zm3181,5h0Zm11,1h10v1C3586.67,1901.67,3583.33,1901.33,3580,1901Zm11,1h7v1C3595.67,1902.67,3593.33,1902.33,3591,1902Zm11,1h0Zm196,20,52,6Zm104,34h0Zm-1833,8h0Zm1834,0q1.005,12,2,24Q3904,1977,3903,1965Zm252,0q19.995,2.505,40,5l-1,1Zm182,10h0Zm-317,31h0Zm233,5h0Zm93,2q1.5,12.495,3,25Q4347.5,2025.505,4346,2013Zm8,1h0Zm-210,1h0Zm110,1h0Zm101,0h0Zm-100,5h0Zm101,0h0Zm1,4h0Zm1,5h0Zm1,4h0Zm-10,5h0Zm11,0h0Zm1,4h0Z"/>
  <path id="PropEngine" class="cls-3" d="M2317,2346c89.61,1.35,164.91,20.01,206,70-78.77-13.12-153.31-51.03-256-40q-63.99,12-128,24C2187.77,2359.75,2246.94,2370.01,2317,2346Zm-2,43c149.68,5.24,283.89,49.87,348,141-144.16-69.66-197.18-164.34-448-118q-87.99,27-176,54C2111.48,2407.72,2214.4,2427.68,2315,2389Zm0,22c0.67,0.33,1.33.67,2,1h7q-0.495,13.995-1,28c3-.67,6-1.33,9-2q-2.505-13.005-5-26,50.49,7.005,101,14-1.5,15.495-3,31c-60.84-10.13-197.61,24.17-206-39Q2267,2414.505,2315,2411Zm-105,22q1.995,15.495,4,31h48c-145.77,55.92-241.77,66.6-325,180C1910.87,2504.88,2124.05,2474.99,2210,2433Zm229,8c80.17,22.72,143.34,64.24,205,104v1q-10.995,6.495-22,13c-65.7-31.68-125.6-80.23-218-87h31Q2437,2456.505,2439,2441Zm-149,22h0Zm18,1q17.505,1.005,35,2Q2325.5,2465,2308,2464Zm36,2c3.67,0.33,7.33.67,11,1C2351.33,2466.67,2347.67,2466.33,2344,2466Zm18,1h0Zm-43,7c82.25,0.74,197.86,31.56,254,67q10.995,8.505,22,17c-175.66-86.5-344.79-77.94-538-23C2122.91,2486.64,2231.11,2504.84,2319,2474Zm163,8q5.505,2.505,11,5Q2487.5,2484.5,2482,2482Zm-156,7h0Zm-29,1h6q-63.99,10.5-128,21Q2235.99,2500.5,2297,2490Zm-17,15h25q-81.99,15.495-164,31Q2210.5,2520.505,2280,2505Zm56,0c1.33,0.33,2.67.67,4,1C2338.67,2505.67,2337.33,2505.33,2336,2505Zm12,1h7v1C2352.67,2506.67,2350.33,2506.33,2348,2506Zm9,1h0Zm8,1c72.78-.55,149.18,29.93,195,61l18,15C2507.47,2553.35,2446.27,2532.6,2365,2508Zm-193,4h0Zm-23,6h0Zm-5,1q-76.995,42.99-154,86C2026.61,2552.84,2078.62,2544.07,2144,2519Zm352,11h0Zm2,1h0Zm2,1h0Zm2,1q45.99,20.505,92,41Q2548.01,2553.5,2502,2533Zm-447,2h0Zm192,7h4c0.33,1.67.67,3.33,1,5l-31,3Q2234.005,2546,2247,2542Zm-129,2h0Zm-4,1c-0.33,1-.67,2-1,3-54.81,44.41-110.14,69.63-151,128C1965.48,2602.23,2054.99,2570.95,2114,2545Zm303,9h0Zm2,1,9,3-1,1C2424.33,2557.67,2421.67,2556.33,2419,2555Zm177,3h0Zm-346,2q10.5,23.505,21,47h20q-3,16.995-6,34c-30.23,9.56-44.19-3.47-62-19q7.005-3.495,14-7-5.505-24.495-11-49Zm142,5q15,4.005,30,8-6.495,24-13,48,7.005,3.495,14,7c-12.61,18.23-34.56,17.98-65,17l-3-36q10.005,0.495,20,1Q2383.505,2587.5,2392,2565Zm-117,12q7.005,3,14,6v1q-6,1.005-12,2C2276.33,2583,2275.67,2580,2275,2577Zm360,0h0Zm1,2q5.505,13.995,11,28Q2641.5,2593.005,2636,2579Zm-266,3v7h-1l-9-3Q2365,2584.005,2370,2582Zm-263,2q6.495,7.005,13,14Q2113.505,2591,2107,2584Zm409,4h0Zm-426,1c1,2.67,2,5.33,3,8q-7.5-1.005-15-2Zm230,3q7.005,0.495,14,1v7q-9.495.495-19,1Q2317.505,2596.5,2320,2592Zm220,9q-5.505,6-11,12Q2534.505,2607,2540,2601Zm-479,6h9q-2.505,20.505-5,41-15.495-7.5-31-15Q2047.5,2620,2061,2607Zm280,6v18q-18.495-.495-37-1v-18Q2322.5,2612.5,2341,2613Zm-194,8q8.505,7.995,17,16l-2,2-15-9v-9Zm48,0c-1,1.67-2,3.33-3,5C2193,2624.33,2194,2622.67,2195,2621Zm-76,3c17.27,12.86,26.55,31.33,55,25q13.5,14.505,27,29c-15.64,12.9-42.49,25.21-64,8,16.16-17.06-18.83-39.87-30-47,0.33-1,.67-2,1-3Q2113.505,2630,2119,2624Zm330,5,8,8Zm-239,1q9,7.995,18,16l-27,12-13-13Q2199,2637.5,2210,2630Zm222,9q12,8.505,24,17-8.505,6-17,12-10.005-7.995-20-16Zm135,2h0Zm143,1q3.495,33.99,7,68-9-29.49-18-59Q2704.505,2646.5,2710,2642Zm-142,1h0Zm1,3c0.67,2.33,1.33,4.67,2,7C2570.33,2650.67,2569.67,2648.33,2569,2646Zm-552,9q13.5,5.505,27,11-16.005-1.995-32-4C2013.67,2659.67,2015.33,2657.33,2017,2655Zm256,0q10.005,2.505,20,5-12-1.005-24-2C2270.33,2657,2271.67,2656,2273,2655Zm85,3q9.495,1.995,19,4v2q-10.995-2.505-22-5C2356,2658.67,2357,2658.33,2358,2658Zm286,3h0Zm-158,1h0Zm-180,1c23.35,3.92,94.62,18.11,98,29l-38,35c-58.62-30.47-88.52-3.37-100,63h-2q-23.505-11.505-47-23,4.005-10.995,8-22-9.495-7.5-19-15,1.5-7.995,3-16c30.66,0.44,35.98-22.35,48-40C2272.17,2675.21,2301.69,2689.92,2306,2663Zm335,0q-24.99,19.5-50,39l-1-1c0.33-1.67.67-3.33,1-5Q2615.99,2679.5,2641,2663Zm-159,2-14,11Zm55,10h0Zm-3,2h0Zm-2,1h0Zm-2,1h0Zm-504,1h0Zm4,1q8.505,1.995,17,4Q2038.5,2683.005,2030,2681Zm497,0h0Zm-4,2h0Zm-531,6q32.49,10.5,65,21l3,15-45,24C1997.49,2737.56,1983.79,2717.14,1992,2689Zm220,0q7.005,1.995,14,4l-1,1h-20c1.67-1,3.33-2,5-3Zm424,3c1.67,2.33,3.33,4.67,5,7q-9.495,1.995-19,4Zm-197,3h0Zm-3,2q-4.005,3.495-8,7Q2432.005,2700.505,2436,2697Zm-303,4,29,6q-1.995,9-4,18l-28-6Zm585,10h0Zm-71,4c27.67,11.04,1.53,56.14-11,63-2.35-22.14-26.4-28.25-45-34l2-2Zm-95,5q4.5,1.995,9,4-37.995,18.495-76,37Q2518.5,2740.5,2552,2720Zm-244,2q21.495,5.505,43,11v2q-30.495,9.495-61,19Q2299,2738,2308,2722Zm87,4c-1.67,2-3.33,4-5,6l-1-1C2391,2729.33,2393,2727.67,2395,2726Zm-412,8q16.5,23.505,33,47C2000.74,2772.13,1983.18,2757.78,1983,2734Zm105,0,89,9q0.495,9.495,1,19C2147.94,2780.92,2095.67,2762.85,2088,2734Zm-27,4q6.495,16.995,13,34h-45q0.495-10.995,1-22Q2045.5,2744,2061,2738Zm667,4-12,54Zm-532,2q9,2.505,18,5-10.005.495-20,1v-5C2194.67,2744.67,2195.33,2744.33,2196,2744Zm163,7Q2340,2765,2321,2779,2340.005,2765.005,2359,2751Zm198,0v10q-27.495,14.505-55,29-6.495-1.995-13-4c-0.33-.67-0.67-1.33-1-2,0.67-.33,1.33-0.67,2-1Q2523.5,2767,2557,2751Zm28,6q19.005,8.505,38,17-1.005,9.495-2,19-21.495-.495-43-1Q2581.5,2774.5,2585,2757Zm-102,4h0Zm-2,1h0Zm-2,1h0Zm-493,11,165,107c-0.67.33-1.33,0.67-2,1C2099.26,2904.08,1999.18,2821.22,1986,2774Zm674,2c2.15,22.25-34.46,43.87-51,52Q2634.5,2802.005,2660,2776Zm-341,3h0Zm-15,1h0Zm11,2h0Zm-150,2q9,7.995,18,16-12.495,2.505-25,5l-11-14Q2156,2787.505,2165,2784Zm147,0h0Zm-283,7,17,3q-0.495,6.495-1,13Zm208,3,14,3h-18C2234.33,2796,2235.67,2795,2237,2794Zm-169,1q7.005,0.495,14,1l-18,9Q2066,2800.005,2068,2795Zm405,0q12.495,4.005,25,8l-12,15-25-6,1-1Q2467.505,2803.005,2473,2795Zm242,1h0Zm-501,9q13.005,6.495,26,13-1.005,5.505-2,11c-20.29,8.28-46.27,13.96-68,2Q2192.005,2818,2214,2805Zm-125,2c1,0.67,2,1.33,3,2q-4.995,1.5-10,3C2084.33,2810.33,2086.67,2808.67,2089,2807Zm191,0c-0.33,2-.67,4-1,6C2279.33,2811,2279.67,2809,2280,2807Zm98,3h5l1,1Q2374,2816,2364,2821Zm274,1c9.84,62.62-138.51,97.53-195,104q13.5-5.505,27-11C2540.26,2881.65,2615.63,2854.34,2652,2811Zm-97,1,33,6q-1.5,8.505-3,17-20.505-5.505-41-11l2-2Q2550.5,2817.005,2555,2812Zm-244,3h7v1C2315.67,2815.67,2313.33,2815.33,2311,2815Zm124,0q19.5,13.995,39,28c-23.29,19.45-57.27-.42-71-11Q2419.005,2823.5,2435,2815Zm-107,2h0Zm-200,7q4.005,3.495,8,7Q2132,2827.505,2128,2824Zm-29,7q21,8.505,42,17,4.005-6,8-12,9.495,4.995,19,10v1c-17.21,34.14-59.82-5.18-80-12l1-1Q2094,2832.5,2099,2831Zm423,10c1.33,0.33,2.67.67,4,1-1.33,1-2.67,2-4,3v-4Zm-16,3c15.09,24.69,25.34,10.04,54,11-19.4,8.11-66.67,40-78,3,0.33-.67.67-1.33,1-2Q2494.505,2850,2506,2844Zm-113,3q4.995,6.495,10,13-16.995-.495-34-1Zm-213,7c1.33,0.33,2.67.67,4,1l2,2q-6,4.005-12,8Q2177,2859.5,2180,2854Zm86,9c1.67,2.33,3.33,4.67,5,7C2269.33,2867.67,2267.67,2865.33,2266,2863Zm198,2q6.495,10.5,13,21c-0.33,1-.67,2-1,3-0.67.33-1.33,0.67-2,1q-11.505-4.5-23-9Zm-413,13q27,13.995,54,28-6,3.495-12,7Q2072,2895.5,2051,2878Zm304,0c27.43,31.5-41.1,18.51-74,17C2294.75,2869.61,2340.81,2900.02,2355,2878Zm41,12q7.005,1.005,14,2v1q-2.505,7.995-5,16Q2400.5,2899.505,2396,2890Zm182,17q-5.505,6-11,12c-31.9,24.11-83.84,49.17-136,50q0.495-8.505,1-17Q2504.99,2929.5,2578,2907Zm-359,1h0Zm-3,2h0Zm45,0q61.995,7.005,124,14v1q-76.485-3.495-153-7Q2246.505,2914,2261,2910Zm-48,2q-27.99,19.5-56,39c-0.33-.67-0.67-1.33-1-2Q2184.5,2930.505,2213,2912Zm240,3h0Zm-334,5q-5.505,3-11,6Q2113.505,2923,2119,2920Zm305,1h0Zm-7,1h0Zm-9,1h0Zm88,0h0Zm-96,1h7v1C2404.67,2924.67,2402.33,2924.33,2400,2924Zm92,0h0Zm-4,1h0Zm-4,1h0Zm-378,1h0Zm374,0h0Zm-376,1h0Zm372,0h0Zm-4,1h0Zm-255,1,222,6q-8.505,2.505-17,5c-2.08,41.19-53.04,27-92,26q0.495-9,1-18c-2.33-1.33-4.67-2.67-7-4h-2q-2.505,10.5-5,21-44.49-2.505-89-5-1.005-13.995-2-28Zm222,5h0Zm160,4c-1.67,10-47.11,44.14-69,36Zm-402,1,18,3v20q-17.505-4.995-35-10l1-1Q2189,2946,2197,2940Zm122,27c3.33,0.33,6.67.67,10,1C2325.67,2967.67,2322.33,2967.33,2319,2967Z"/>
  <path id="Color_Fill_3" data-name="Color Fill 3" class="cls-4" d="M2460,632l-3,15Zm-48,1-18,12Zm29,6,7,1Zm2,561q-30.99-1.005-62-2,21.495-238.98,43-478c-0.67-.333-1.33-0.667-2-1l-36,9c16.49-36.4-11.49-59.714,33-83q-0.495,23-1,46l52,3q1.995-24.5,4-49c21.11,10.055,34.76,25.082,35,56-13.51.83-10.02,18.609-9,32q-19.005-6.5-38-13l-3,3Q2451.005,961.476,2443,1200Zm13-552h0Zm65,47h0Zm1,8q1.005,11,2,22Q2523,714,2522,703Zm26,14q3.495,7,7,14h-2Q2550.5,724,2548,717Zm-182,3h2c0.67,0.667,1.33,1.333,2,2C2368.67,721.333,2367.33,720.667,2366,720Zm130,26,15,5Zm-140,5h5c1.33,1.667,2.67,3.333,4,5q-1.995,10.5-4,21h-1l-6-23C2354.67,753,2355.33,752,2356,751Zm164,7q3,57.995,6,116Q2523,816.006,2520,758Zm-197,13h0Zm-1,3q-43.5,158.984-87,318c-1-.33-2-0.67-3-1Q2277,932.516,2322,774Zm37,4h0Zm-13,1c24.1,91.118-49.51,238.42-92,279C2267.8,955.628,2308.4,858.662,2346,779Zm187,4c40.42,36.277,106.33,345.2,88,435-6.62-124.19-44.47-126.97-72-197Q2541.005,902.012,2533,783Zm-6,91v0Zm1,17v0Zm1,17v0Zm1,17h0Zm1,17h0Zm-67,9h0Zm-1,23v0Zm-1,27v0Zm-1,26v0Zm-1,27v0Zm-1,26v0Zm-207,7c-0.67,3-1.33,6-2,9l-1-1C2250,1092.33,2251,1089.67,2252,1087Zm206,20v0Zm-1,26v0Zm-1,27v0Zm-1,26v0Zm-70,22h0Zm53,4h0Zm7,1h0Zm-40,5q2.505,7.5,5,15-4.005-2.505-8-5Q2403.5,1223.005,2405,1218Zm217,2h0Zm1,11h0ZM1020,2282q420.96,33.99,842,68-1.995,39-4,78-423.465-33.99-847-68Zm312,16q93.99,6.495,188,13-98.985-5.505-198-11C1325.33,2299.33,1328.67,2298.67,1332,2298Zm-329,17h0Zm686,2h0Zm-3,1h0Zm-684,8c0.33,2.33.67,4.67,1,7h-1v-7Zm-1,11v0Zm-1,11v0Zm894,4q-1.995,24-4,48Q1892,2376,1894,2352Zm967,16q72.99,0.495,146,1Q2934.01,2368.505,2861,2368Zm223,0c1.33,0.33,2.67.67,4,1C3086.67,2368.67,3085.33,2368.33,3084,2368Zm55,0q176.985,0.495,354,1c-130.45.27-272.5,6.61-401,1Q3115.505,2369,3139,2368Zm-283,1h0Zm1076,6q0.495,37.995,1,76-57.99,1.005-116,2c1.11-15.36,4.72-50.29-8-50q-1.5,24.99-3,50-485.445,4.995-971,10,0.495-39.495,1-79l835-9q2.505,19.005,5,38c2,0.33,4,.67,6,1h1q1.005-19.5,2-39h247Zm-2043,25h0Zm-113,50,61,6C1816.56,2463.71,1790.56,2463.74,1776,2450Z"/>
  <path id="Color_Fill_1" data-name="Color Fill 1" class="cls-5" d="M2937-317q4.995,2.5,10,5-5.505,3.5-11,7c-0.67-1.333-1.33-2.667-2-4ZM2467,36c48.9,13.509,24.56,368.3,24,450l18,1c-43.94-274.549,615.69-73.67,641,26,30.16,118.763-482.16,216.48-589,245,85.97,286.39,117.2,705.84,120,1051l957-15c379.61,41.49,680.88,124.58,937,286,39.95,25.18,151.41,88.33,137,159-40.42,198.21-525.66,213.83-769,239q-176.985,1.995-354,4c-238.09,36.2-494.73,101.16-713,170-16.2,99.15,39.89,305.21-72,324-88.86,14.92-67.06-189.27-75-242-19.93,178.61-201.31,284.08-410,272q-84.99-17.505-170-35c-69.82,11.78-273.64,215.52-344,156v-18q130.98-88.995,262-178c-45.64-29.91-71.84-65.09-107-105-7.43,72.84-88.97,162.14-130,69-42.93-97.45,16.08-230.39-2-283-216.33-78.8-471.3-172.71-708-217C860.366,2346.42-34.9,2333.21,18,2060c13.206-68.21,126.033-121.41,185-148,203.055-91.55,423.682-157.47,687-192,203.16-26.64,417.91-3.01,611,20q290.97,24,582,48c42.16-371.61,166.53-708.57,247-1038-0.67-.333-1.33-0.667-2-1-93.78-19.95-568.23-172.3-556-262,17.73-130.057,546.2-202.932,652-87C2422.96,275.126,2415.21,111.473,2467,36Zm-15,73q-1.995,28-4,56h1q2.505-14,5-28l19,1q1.005,15,2,30,4.005-22,8-44-13.995,4.5-28,9Q2453.5,121,2452,109Zm25,0c0.67,2.666,1.33,5.334,2,8l3,4Q2479.5,115,2477,109Zm-15,56v0Zm21,17q-1.005,6-2,12Q2482.005,188,2483,182Zm-41,1h0Zm19,8q-1.995,72.993-4,146Q2459,264.007,2461,191Zm-19,155q0.495,13.5,1,27Q2442.505,359.5,2442,346Zm29,0q-2.505,84.492-5,169Q2468.505,430.508,2471,346Zm-282,6c-104.58,29.394-206.67,26.156-295,57l-14,5q0.495,11,1,22c-1.33.667-2.67,1.333-4,2l-5-1V416l-27,10q-1.005,10-2,20-16.005,4-32,8c-3.59,16.638,1.84,12.166,14,16l6-14,562,22,9-19-136-47q1.995-30,4-60h-81Zm94,1q-1.995,25.5-4,51,63.99,21,128,42l3-3C2431.74,370.03,2337.22,365.15,2283,353Zm387,11q-1.995,30.5-4,61l-142,36v1l6,20,474,3,3-16,5-1c1.33,1,2.67,2,4,3q0.495,7,1,14l80,13q0.495,6,1,12l18-1V494c-22.75-5.385-30.78-7.1-31-30C2961.26,422.16,2839.37,366.463,2670,364Zm-17,1c-49.78,14.4-161.13,8.086-133,84C2536.69,447.212,2721.26,414.644,2653,365Zm-461,5c13.2,2.784,8.08,23.131,5,36-2.67,1-5.33,2-8,3-0.33-.333-0.67-0.667-1-1l-3-5Q2188.5,386.5,2192,370Zm-89,4q4.005,2.5,8,5-1.995,14-4,28c-2.33.667-4.67,1.333-7,2-1.33-.667-2.67-1.333-4-2Q2099.5,390.5,2103,374Zm-61,6,4,1-3,32h-5c-1.33-1-2.67-2-4-3Q2038.005,395,2042,380Zm399,1q0.495,12.5,1,25Q2441.505,393.5,2441,381Zm299,6,9,4q-1.005,16.5-2,33c-1.33.667-2.67,1.333-4,2l-6-2Q2738.5,405.5,2740,387Zm-762,3,9,3q-1.5,12.5-3,25l-7,1Q1977.5,404.5,1978,390Zm851,7h6c6.09,9.654,6.86,33.555-7,35Q2828.5,414.5,2829,397Zm-909,5h5q0.495,12,1,24C1910.15,434.705,1912.62,409.512,1920,402Zm970,5,9,3q-0.495,14-1,28c-1.33.667-2.67,1.333-4,2l-5-1Q2889.5,423,2890,407Zm-436,9q-3.495,66.494-7,133l-9-3q-1.005,15-2,30l25-3c0.67,0.667,1.33,1.333,2,2l-3,12-25-8q1.5,31,3,62h12v9l-9,3,3,15c0.67,0.667,1.33,1.333,2,2,25.71-36.919,21.42-72.271,21-124l-13,3c-0.67-.667-1.33-1.333-2-2Q2453.005,481.507,2454,416Zm-14,1q0.495,11,1,22Q2440.505,428,2440,417Zm510,3h6l3,27c-1.67,1-3.33,2-5,3-2.33-1-4.67-2-7-3Zm57,16,9,3-6,24Zm-568,17q0.495,9.5,1,19Q2439.505,462.5,2439,453Zm-18,18q-1.995,6.5-4,13l5-1Q2421.505,477,2421,471Zm-445,6q-2.505,12-5,24c-0.33.333-.67,0.667-1,1l-8-1c-0.33-3.666-.67-7.334-1-11l-62,6,70,12q-1.005,15.5-2,31l-3,2-127-40c-12.43,34.4,14.99,25.219,29,40l3,24q185.475,68.993,371,138l3-10,97,33c36.27-52.859,81.13-150.826,81-229Zm-171,7q-5.505,18-11,36,6.495,7.5,13,15,7.5-24,15-48v-1Zm220,1,9,3-3,22h-9c-0.67-.667-1.33-1.333-2-2Q2022.505,496.5,2025,485Zm-235,2c-0.33,3.333-.67,6.667-1,10C1789.33,493.667,1789.67,490.333,1790,487Zm648,1q0.495,8.5,1,17Q2438.505,496.5,2438,488Zm-350,5c2.33,1,4.67,2,7,3q-1.995,12.5-4,25h-5c-1.33-.667-2.67-1.333-4-2Zm-195,1h0Zm597,5q30.495,116.488,61,233l102-26,3,10c53.55-8.265,384.88-109.919,394-141l33-8q-0.495-13.5-1-27l-133,31-3-4,3-29,71-8-61-9-3,12-7-1q-1.005-12.5-2-25Zm-602,8q33.99,10,68,20c0.33-.333.67-0.667,1-1v-8l-3-1Zm289,1q3,14,6,28h-11Q2174.505,522,2177,508Zm712,4,9,3c3.09,11.625,2.46,24.344-10,22-0.67-.667-1.33-1.333-2-2Zm-61,4q4.005,2.5,8,5c1.36,14.557,1.15,23.607-11,23-0.67-1-1.33-2-2-3Q2825.505,528.5,2828,516Zm-571,8c12.65,2.912,9.77,22.347,4,32l-9-2Q2254.505,539,2257,524Zm850,0-3,2c-1.67-.333-3.33-0.667-5-1q4.995,25.5,10,51,7.995-7,16-14-4.005-18.5-8-37Zm-370,1,6,2q-1.005,14.5-2,29C2726.27,554.288,2729.46,532.2,2737,525Zm392,4,3,10V529h-3Zm-476,8,9,4q-1.995,14-4,28c-2.67-1-5.33-2-8-3Zm-820,4q0.495,11,1,22l18,6q-0.495-11.5-1-23Zm1195,1-69,7v9Zm-540,32q-7.005,28.5-14,57,19.995,14,40,28Q2501,616.5,2488,574Zm-70,2q-15,37-30,74l36-21Q2421,602.5,2418,576Zm662,4q-9.495,2.5-19,5-0.495,11-1,22l21-5Q3080.505,591,3080,580Zm-659,63c-24.14,12.887-32.26,23.37-39,54,15.38,1.8,6.87,23.148,3,33l37-11,3,5q-26.49,236.976-53,474l71,3q8.505-238.98,17-478c1.33-1,2.67-2,4-3l36,14q0.495-16.5,1-33l9,1c-2.83-35.3-11.43-45.1-36-58q-2.505,25-5,50l-49-2-3-4Q2419,665.5,2421,643Zm140,4,12,18c-0.67.667-1.33,1.333-2,2-1.67.333-3.33,0.667-5,1Q2563.5,657.5,2561,647Zm-42,25q1.995,27.5,4,55l-11-2q0.495,13,1,26-20.505-7.5-41-15-9,238.476-18,477l-35-3q39,197.985,78,396c56.44,68.71,143.02,87.64,170,191l1-1q-16.5-232.98-33-466-15-41.49-30-83-7.5-78.495-15-157-26.49-31.995-53-64-7.995-134.986-16-270h6q13.995,16.5,28,33Q2537,730.506,2519,672Zm-87,2,3,5Zm27,0-3,6Zm-89,14q-16.005,40.5-32,81c22.44-29.061,24.38-.1,18,32q-22.995,108.489-46,217-27.495,30.99-55,62c-60.13,131.47-87.65,338.04-120,492Q2119,1662.5,2103,1753c32.21-84.32,109.16-95.67,162-155q64.5-193.98,129-388c-62.05,2.29,7.58-397.813,17-476l-37,14c-1.33-.667-2.67-1.333-4-2q1.995-12,4-24-5.505-2-11-4Q2366.5,703,2370,688Zm-23,89c-47.71,74.116-71.27,188.542-95,285C2299.47,1008.78,2352.51,871.428,2347,777Zm185,3q8.505,120.488,17,241,27,33.495,54,67,12,86.985,24,174C2615.02,1142.76,2595.66,841.889,2532,780Zm-126,435q-9.495,26.49-19,53,16.005-.495,32-1Q2412.505,1241.005,2406,1215Zm15,65q-4.995,12-10,24-14.505-.495-29-1l-1-1-3-15q-36,117.495-72,235c19.59-28.81,30.28-102.61,72-111q1.005-11.505,2-23h12q-1.005,12-2,24c37.4,8.62,66.19,106.61,78,142C2473.03,1481.1,2455.94,1330.88,2421,1280Zm-51,147q-26.49,64.995-53,130l-12-3c-20.15,65.57-76.83,142.05-63,228,23.78,2.62,41.77-71.94,52-90l149,6q18.495,45.99,37,92c56.18,3.87-20-222-20-222-0.67-1.67-1.33-3.33-2-5-0.33-1.33-.67-2.67-1-4q-6.495,1.005-13,2-24.99-66.99-50-134-4.5,16.995-9,34h-5c-1.33-.67-2.67-1.33-4-2Q2373,1443,2370,1427Zm-6,147q17.505,1.005,35,2c1,1.33,2,2.67,3,4q-0.495,16.005-1,32C2367.12,1641.93,2344.01,1592.98,2364,1574Zm-112,44c-78.26,49.8-146.63,112.6-165,222q66.99-10.005,134-20v-1C2190.11,1758.33,2245.41,1666.64,2252,1618Zm254,8c16.02,46.54,38.19,152.05,8,203l10,7q4.995,4.005,10,8,4.005,3,8,6c2,1.33,4,2.67,6,4,27.72,20.48,65.13,24.66,107,33q7.995,1.995,16,4C2721.19,1818.26,2536.98,1642.27,2506,1626Zm-252,19c-13.11,44.73-38.26,119.18-22,169,1.67-.33,3.33-0.67,5-1C2219.33,1756.21,2252.4,1695.72,2254,1645Zm246,2c7.36,53.19-3.76,137.27-1,176,0.67,0.33,1.33.67,2,1h1C2524.25,1786.99,2518.67,1684.32,2500,1647Zm-196,58q3,57.99,6,116,52.5,10.005,105,20l1-1C2421.02,1712.19,2465.93,1702.38,2304,1705Zm-1209,17-326,27c-127.022,23.42-240.607,66.32-355,92,0.333,0.33.667,0.67,1,1q350.966-19.995,702-40,6-39.99,12-80h-34Zm47,0q-8.505,33.99-17,68v1c110.69,15.39,288.25,25.8,411,3q4.005-19.005,8-38Q1343.015,1739.005,1142,1722Zm1149,5q-18,44.49-36,89C2271.03,1801.12,2330.55,1804.27,2291,1727Zm150,2q-6.495,57.495-13,115l35,3C2484.19,1818.78,2466.5,1759.87,2441,1729Zm-881,28q-5.505,27-11,54-138.99,3.495-278,7,206.985,39,414,78,117.99-16.005,236-32,5.505-37.995,11-76Q1746.015,1772.505,1560,1757Zm385,32q-4.995,36.495-10,73Q1940,1825.505,1945,1789Zm13,1q-4.995,34.995-10,70,62.49-8.505,125-17,4.005-21.495,8-43Q2019.5,1795.005,1958,1790Zm285,5,4,4Zm243,8c0.67,2,1.33,4,2,6,0.67,0.33,1.33.67,2,1,1.33-2.33,2.67-4.67,4-7h-8Zm735,10q0.495,19.5,1,39c135.17,17,277.3,30.27,412,25q-3.495-34.995-7-70Zm419-6q0.495,40.995,1,82l704,88c-112.63-36.73-222.42-87.76-348-118Q3818.515,1833.005,3640,1807Zm-795,12v106c178.83,19.41,453.93,25.46,640-32q-138.48-13.005-277-26l-3-54Zm-1669,0q-29.49,1.005-59,2-7.995,30.495-16,61c-2,.33-4,0.67-6,1-1.67-1.33-3.33-2.67-5-4q7.005-28.995,14-58-57.495,1.995-115,4-7.5,27.99-15,56-5.5-1.005-11-2,6.5-26.49,13-53-54.995,1.995-110,4-8,27.495-16,55h-8c-1-1.33-2-2.67-3-4q7-24.99,14-50-53.495,2.505-107,5-8.5,27.99-17,56c-20.847,2.24-.241-43.64,4-56-67.834,2.06-91.653-.74-117,45-3-.67-6-1.33-9-2-0.333-.67-0.667-1.33-1-2q5.5-16.5,11-33-50.495,3.495-101,7-11.5,33.99-23,68h-7c-1-1.33-2-2.67-3-4q11-31.995,22-64h-1c-158.634,15.17-252.091,47.65-359,105,9.728,9.87-.866,28.38-10,37h-4l-3-3q5.5-15,11-30-13.5,8.505-27,17-5.5,15.495-11,31H97l-4-3q2.5-7.995,5-16-27,27-54,54c0.333,0.33.667,0.67,1,1q51.495-11.505,103-23l3,3q-10,28.5-20,57-13.5-1.005-27-2-5,30-10,60-12-4.005-24-8-0.5,7.005-1,14,79.992,48,160,96,2-24,4-48h7c1,1.33,2,2.67,3,4q-1,18-2,36l53,18q2.5-18.495,5-37c16.064-.23,8.319,25.96,7,41q44,11.505,88,23c0.333-.67.667-1.33,1-2q3-30.495,6-61c-94.106-11.45-190.528-66.57-258-72q-7-15.495-14-31,0.5-3,1-6,207.98-24.495,416-49,550.946-77.49,1102-155Q1412.02,1860.51,1176,1819Zm1641,0-135,3q1.995,36,4,72,33.99-1.995,68-4,1.995,9,4,18,28.995,5.505,58,11l1-1v-99Zm14,0q-0.495,51.495-1,103Q2830.5,1870.505,2831,1819Zm-342,13q-6,9.495-12,19Q2483,1841.505,2489,1832Zm-218,4c1.15,70.55,18.98,287.01-70,244q3.495-116.49,7-233c-66.27,11.19-120.13,105.57-143,164l118-21c0.67,2.33,1.33,4.67,2,7-0.33,1-.67,2-1,3l-20,6h26c6.5,13.92-9.17,11.48-20,16l9,12q-61.5,9.495-123,19-3.495,165.99-7,332c-2.33-.33-4.67-0.67-7-1-25.7-47.89,4.65-120.98-11-173q-3-7.995-6-16-9.495,5.505-19,11-4.5-4.005-9-8-1.995,4.995-4,10-10.005-22.5-20-45l2-2q12-1.005,24-2l-9-33-3,12q-37.5-1.995-75-4-13.5,155.985-27,312,32.49,2.505,65,5,2.505-32.49,5-65h8v41l86-3q-3-13.995-6-28c1.67-1,3.33-2,5-3,2,0.67,4,1.33,6,2q2.505,9.495,5,19h1l19-16c-3.08-25.24-30.94-124.11-12-132l39,117h1l72-39q13.995,1.005,28,2v-19c2.67-.33,5.33-0.67,8-1q3.495,7.995,7,16,11.505-1.995,23-4v-24l2-2h7q4.5,12.495,9,25,12-1.005,24-2,1.5-15.495,3-31h7q4.995,15,10,30c49.44,1.05,54.82,5.18,74-27,13.98,2.36,8.76,19.87,7,33q11.505,1.005,23,2,6.495-12,13-24c2.67,1,5.33,2,8,3q0.495,13.005,1,26,10.005,2.505,20,5l14-17c12.72,12.41-4.73,22.06,21,29q6.495-4.005,13-8l1,1q34.995,24,70,48,27.99-59.49,56-119c2.33,0.33,4.67.67,7,1q-18,69.495-36,139c16.24,12.78,17.85,17.9,37,20q-0.495,7.005-1,14,84.99,1.995,170,4,4.005-149.49,8-299c-22.67.75-70.64,6.88-77-10q-6.495,14.505-13,29,12.495,2.505,25,5-8.505,22.005-17,44c-2.33.33-4.67,0.67-7,1q-2.505-5.505-5-11-4.995,3.495-10,7-1.5-5.505-3-11c-6.94,7.74-10.65,6.52-15-3q-6.495,13.995-13,28c-18.99-3.49-6-136.19-5-166q-71.49-16.995-143-34c0.33-2.33.67-4.67,1-7l11-3q-10.995-3.495-22-7c0.33-2.67.67-5.33,1-8q14.505,0.495,29,1-10.005-4.005-20-8c-0.33-1-.67-2-1-3,0.33-1.67.67-3.33,1-5,0.67-.33,1.33-0.67,2-1l135,33v-4c-40.32-80.31-51.54-116.84-145-147h-1q-10.005,103.485-20,207-27-11.505-54-23c-0.03-84.68,28.77-132.47,44-190l-22-3c-26.81,32.23-66.1,68.12-113,79l-59-37q-1.005,63.495-2,127c-2.67-.67-5.33-1.33-8-2q-1.995-103.485-4-207h-12Zm233,4q-7.005,7.5-14,15,6.495,1.005,13,2Q2503.5,1848.5,2504,1840Zm-209,2q1.995,19.5,4,39Q2297.005,1861.5,2295,1842Zm-61,1c-2,.33-4,0.67-6,1Q2242,1891,2256,1938C2266.11,1900.47,2257,1853.15,2234,1843Zm76,1,3,57c47.81,28.31,83.53,33.97,100-37Q2361.505,1854,2310,1844Zm213,7v11l18,3Q2532,1858,2523,1851Zm-360,2-80,12q-7.5,53.49-15,107c20.21-51.29,63.23-85.71,102-119h-7Zm57,12q-3.495,100.995-7,202,16.005-6,32-12C2245.89,1976.99,2245.4,1918.24,2220,1865Zm-158,2q-22.995,39.495-46,79,21-1.005,42-2C2062.02,1930.04,2074.81,1867.75,2062,1867Zm363,0q-0.495,10.005-1,20,7.5-8.505,15-17Zm29,5q-3,4.005-6,8Q2451,1876,2454,1872Zm-2056,3c2.333,0.67,4.667,1.33,7,2q-10.5,30-21,60c-3-.67-6-1.33-9-2Q386.5,1905,398,1875Zm1607,0c-107.85,27.71-65.23,92.92-15,147Zm15,2q-2.505,22.5-5,45,13.5-22.005,27-44Q2031.005,1877.505,2020,1877Zm484,5c-14.9,49.98-55.82,105.09-43,181q15,7.005,30,14Q2497.5,1979.515,2504,1882Zm-574,4q-9.495,75.99-19,152Q1920.5,1962.01,1930,1886Zm-18,2q-74.985,10.995-150,22c49.45,7.26,148.19,9.16,148,28Q1911.005,1913.01,1912,1888Zm-1590,6,9,3q-10,25.5-20,51-5-1.005-10-2Zm3224,5q-259.98,30-520,60,781.425,151.98,1563,304c0.33,1,.67,2,1,3q-8.505,16.005-17,32c-71.76,9.64-170.71,46.09-271,55q0.495,31.995,1,64,46.5-8.505,93-17v-39c1.67-1,3.33-2,5-3,2.33,1,4.67,2,7,3v36l57-15q3.495-20.505,7-41l3,51,176-85v-15q-13.005,3.495-26,7c-1-1.33-2-2.67-3-4q-1.005-28.995-2-58-15-1.005-30-2-4.995-28.995-10-58c0.67-.33,1.33-0.67,2-1q53.49,14.505,107,29c-0.33-1.67-.67-3.33-1-5q-12-8.505-24-17c-18.8-103.41-279.52-186.34-415-203h-1q3.495,23.505,7,47c-3,.33-6,0.67-9,1-26.68-51.54-32.8-64-110-64l9,60c-16.82,7.48-19.33-45.34-22-62q-51.495-6.495-103-13,3.495,27.495,7,55l-2,2h-8c-23.92-68.55-35.67-63.48-117-71q1.995,27.495,4,55l-1,1c-2.67-.67-5.33-1.33-8-2-12.22-67.75-45.11-64.82-117-67q0.495,13.5,1,27c-2.67.67-5.33,1.33-8,2l-3-3c-4.87-28.77-84.64-56.03-118-39q1.5,30.495,3,61c-2.33.33-4.67,0.67-7,1l-3-3C3640.43,1897.43,3612.79,1901.38,3546,1899Zm-945,2q36,56.49,72,113-1.005-49.995-2-100Q2636.005,1907.505,2601,1901Zm131,1q6,1.005,12,2Q2738,1903,2732,1902ZM250,1915q4.5,2.505,9,5l-13,30h-7l-3-3Q243,1931,250,1915Zm1469,0Q983.07,2018.485,247,2122c232.735,43.26,514.437,59.11,779,37q4.005-19.5,8-39l187,12c235.6-39.61,434.64-119.15,628-192v-1Zm965,2c4.69,37.56,5.64,67.52,54,53q-10.005-22.995-20-46Q2701.005,1920.505,2684,1917ZM216,1927l7,6q-9.5,19.005-19,38h-4l-4-3Q206,1947.5,216,1927Zm2517,0q4.005,10.005,8,20h1C2745.67,1936.14,2744.6,1927.65,2733,1927Zm23,4-3,117C2789.59,2009.58,2860.74,1945.79,2756,1931Zm-861,1h0ZM177,1942h7l3,3q-12,17.505-24,35c-0.333-.67-0.667-1.33-1-2Q169.5,1960,177,1942Zm1694,1c-152.65,93.81-401.41,173.37-610,193v1c155.42,9.47,471.79-54.17,622-95q5.505-47.49,11-95Q1882.5,1945.005,1871,1943Zm958,2q-0.495,64.995-1,130Q2828.5,2010.005,2829,1945Zm14,3c14.97,13.96,36.35,20.6,63,12Zm-935,2-12,90Zm146,7q-22.005,1.005-44,2-4.005,31.5-8,63C2033.21,2018.39,2075.36,1997.85,2054,1957Zm-120,6q-4.005,32.49-8,65,24.99-1.005,50-2Zm909,1c1.67,0.67,3.33,1.33,5,2C2846.33,1965.33,2844.67,1964.67,2843,1964Zm105,4q-29.49,3.495-59,7c153.17,112.31,391.75,191.15,601,237q92.985,0.495,186,1,1.995,19.5,4,39c208.27,52.2,584.4,79.91,806,15Q3717.07,2117.51,2948,1968Zm-262,9q0.495,31.995,1,64,26.49,6,53,12,1.005-34.5,2-69Q2714.01,1980.505,2686,1977Zm175,1q-9,1.005-18,2-0.495,48.99-1,98c105.97,24.43,518.14,157.1,606,135-1-.33-2-0.67-3-1-152.96-27.12-298.38-95.4-427-153Q2939.505,2018.5,2861,1978Zm-47,17q-26.49,31.995-53,64h53v-64Zm1533,17h6q4.995,21.495,10,43c-0.33.67-.67,1.33-1,2-3.33-.33-6.67-0.67-10-1Q4349.5,2034,4347,2012ZM127,2035q-42,12.495-84,25,2,17.505,4,35-5,1.005-10,2,9.5,12.495,19,25c0.333,0.33.667,0.67,1,1l6-9q10.5,4.995,21,10,5.5-28.5,11-57,14.5,0.495,29,1,5-16.5,10-33h-7Zm4294,0q9,27.495,18,55l-2,2h-7Zm-2379,20q-20.505,3.495-41,7,6.495,49.995,13,100,6.495-4.005,13-8,3,10.995,6,22l1-1Q2038.005,2115,2042,2055Zm-64,11-26,6,27,42q2.505-24,5-48h-6Zm-47,8q-5.505,1.005-11,2-2.505,22.5-5,45,27.495,1.995,55,4Zm2594,3q8.505,21.495,17,43c-3.33-.33-6.67-0.67-10-1Q4528.505,2098,4525,2077Zm-28,1q4.995,16.005,10,32h-7q-4.005-13.5-8-27Zm-2592,1q-16.995,184.98-34,370Q1888,2264.02,1905,2079Zm-15,2q-10.005,53.49-20,107c3-.33,6-0.67,9-1Q1884.505,2134.005,1890,2081Zm796,1q-0.495,59.49-1,119,9.495-12.495,19-25,1.995,4.995,4,10l27-93Q2710.505,2087.5,2686,2082Zm-813,2q-200.985,34.995-402,70,192.48,16.005,385,32Q1864.505,2135,1873,2084ZM63,2088q5,2.505,10,5-5,6.495-10,13c-1.333-1.67-2.667-3.33-4-5Q61,2094.505,63,2088Zm4496,6q8.505,19.005,17,38C4561.97,2136.95,4553.63,2103.87,4559,2094Zm-1808,4v42q14.505-18,29-36Zm62,54q0.495-19.995,1-40-10.995-1.005-22-2-17.505,21-35,42h56ZM118,2110q4,2.505,8,5-1,7.995-2,16c-1.333.67-2.667,1.33-4,2-1.667-.33-3.333-0.67-5-1-0.667-.67-1.333-1.33-2-2Q115.5,2120,118,2110Zm102,1q-34,3.495-68,7v2q9,7.995,18,16,6.5-2.505,13-5,2,7.5,4,15,22.5,7.995,45,16h2q2.5-10.5,5-21h8q-0.5,13.005-1,26l55,15q2-12,4-24,5,1.005,10,2-1,12.495-2,25c0.667,0.33,1.333.67,2,1q43.5,8.505,87,17c0.333-.33.667-0.67,1-1q2.5-13.5,5-27Q586.982,2195,766,2215c1,1.33,2,2.67,3,4l-5,31q56.994,4.005,114,8,2.5-16.995,5-34c2.333-.33,4.667-0.67,7-1v36q59.495,4.005,119,8,6-34.995,12-70l100-24-392,15c-180.549-19.54-340.894-25.34-494-56q-16.5-4.995-33-10,13-1.995,26-4c-0.333-2.33-.667-4.67-1-7h-7Zm4375,1q7.5,16.995,15,34l-2,2h-7Zm-1769,4q-3,173.49-6,347Q2823,2289.51,2826,2116Zm15,3,6,102q196.485-2.505,393-5Zm-1797,13q-1.995,10.995-4,22,57.99-6.495,116-13Zm162,14q-42.495,7.005-85,14c47.13,12.25,93.71-2.79,137-10Q1232.005,2148.005,1206,2146Zm206,17q-40.5,7.005-81,14v1c81.16,2.65,496.8,56.25,517,21Q1630.02,2181,1412,2163Zm-134,23q-59.49,10.5-119,21l1,1c146.88,1.51,578.61,89.31,662,24Q1550.02,2209.005,1278,2186Zm-861,2-2,17c28.03,5.3,98.1,29.38,101-3-0.667-.33-1.333-0.67-2-1Q465.505,2194.505,417,2188Zm4177,2q3,16.995,6,34,14.505,0.495,29,1,3.495,29.49,7,59,12.495-4.005,25-8,1.995,4.995,4,10l2-2q5.505-21,11-42,5.505-1.005,11-2-1.5-10.005-3-20Q4640.01,2205,4594,2190Zm-3521,2q-12,2.505-24,5v1q15-1.995,30-4C1077,2193.33,1075,2192.67,1073,2192Zm789,8q-6.495,9.495-13,19v2q12.495,1.005,25,2h1q1.005-10.995,2-22Q1869.5,2200.505,1862,2200Zm-1333,4q-1.5,9.495-3,19c1,0.33,2,.67,3,1q50,6.495,100,13,2-10.5,4-21c-0.667-.33-1.333-0.67-2-1Q580,2209.5,529,2204Zm537,6q-19.005,4.005-38,8-3.495,24.99-7,50c238.63,18.99,554.51,87.02,748,4v-1q-345.96-24.99-692-50Zm-420,7q-1.5,10.995-3,22,54.5,4.995,109,10,1.5-11.505,3-23Zm-233,1-6,63q106.989,20.505,214,41,3-23.505,6-47c3,0.67,6,1.33,9,2q-2,23.505-4,47,54.995,6.495,110,13,4-37.5,8-75Q581.517,2240,413,2218Zm3176,6q-19.005.495-38,1l115,21q-0.495-10.995-1-22h-76Zm-134,2q65.49,10.5,131,21Q3520.51,2236.5,3455,2226Zm-184,2q-208.485,3.495-417,7c0.33,1,.67,2,1,3q5.505,9,11,18,255.48-3.495,511-7Zm-1434,5q-14.505,13.5-29,27v1q30.99,2.505,62,5,1.5-15.495,3-31Q1855,2234,1837,2233Zm1002,2v21q6-.495,12-1Q2845,2245,2839,2235Zm1815,14,9,3v20c-2.67.67-5.33,1.33-8,2l-3-3Q4653.005,2260.005,4654,2249Zm-150,8c-0.67,2.67-1.33,5.33-2,8q13.995-1.995,28-4Q4517,2259.005,4504,2257Zm-820,105h120v-34q6,1.005,12,2,0.495,16.005,1,32h115v-34q183.48-7.995,367-16,1.5,13.995,3,28,46.5-5.505,93-11,1.005-13.995,2-28h6l3,3q0.495,11.505,1,23,28.995-6.495,58-13v-24c2.33-.33,4.67-0.67,7-1,1.33,0.67,2.67,1.33,4,2q0.495,10.5,1,21,25.995-7.005,52-14,1.995-7.005,4-14,4.995,3,10,6,11.505-7.995,23-16-12.495-4.995-25-10h-1c-0.41,15.07-16.69,10.76-32,13-166.66,24.43-372.45,44.79-561,24q-175.485-20.505-351-41l1,1q34.995,7.995,70,16c-0.33,2.67-.67,5.33-1,8-1.33.67-2.67,1.33-4,2l-26-3,43,6Q3681.505,2326,3684,2362Zm913-103q4.005,2.505,8,5-0.495,12-1,24c-3.33.33-6.67,0.67-10,1Zm-1242,3q-239.97,3.495-480,7c71.77,63.94,529.98,22.39,675,22C3493.01,2268.41,3433.72,2261.92,3355,2262Zm-2592,1q-4,37.5-8,75,56.994,4.995,114,10,3-24.99,6-50c2.666,0.33,5.334.67,8,1q-2,24.99-4,50,60.995,4.995,122,10,3-39.495,6-79Q885.012,2271.5,763,2263Zm2075,37q24-1.005,48-2c-15.28-13.09-17.22-29.5-47-29Q2838.505,2284.5,2838,2300Zm-1048-27q-57,24.495-114,49,93.99,7.995,188,16,2.505-29.49,5-59Zm-770,8q-5,39.495-10,79,423.96,34.5,848,69,2.505-39.495,5-79Q1441.545,2315.5,1020,2281Zm1633,6c2.33,1.67,4.67,3.33,7,5,3.94,37.41,11.98,75.31-8,114-3-.67-6-1.33-9-2Q2648,2345.5,2653,2287Zm988,13q-2.505,5.505-5,11c-2,.33-4,0.67-6,1-68.11-36.07-583.54-1.22-708-1,134.79,111.33,524.58,51.21,750,51q-1.005-27.495-2-55Q3655.5,2303.505,3641,2300Zm-1679,8q4.5,1.995,9,4c0.57,15.84,1.28,45.52-13,45-1-1.33-2-2.67-3-4Q1958.5,2330.5,1962,2308Zm876,4q-0.495,29.49-1,59,86.49-1.005,173-2C2950.33,2343.45,2922.43,2311.75,2838,2312Zm1696,9c13.96,1.93,14.68,41.88-2,39Q4533.005,2340.5,4534,2321Zm-253,3q-46.995,3.495-94,7,0.495,10.005,1,20l101-9Q4285,2333,4281,2324Zm-120,8q-46.5,2.505-93,5c-1.04,36.61,74.79,17.4,107,15q-0.495-10.005-1-20h-13Zm-1423,3c1.67,0.67,3.33,1.33,5,2v46l-2,2c-3-.67-6-1.33-9-2Zm1297,2q-45.99,1.005-92,2,0.495,11.505,1,23l112-3q-0.495-10.995-1-22h-20Zm-1718,9c-84.29,18.16-133.77,4.64-180,56l90-21c115.59-16.55,213.09,13.31,299,37C2479.9,2367.13,2414.69,2345.43,2317,2346Zm1970,8q-170.49,10.005-341,20l-1,1q0.495,37.995,1,76l113-6q-0.495-23.505-1-47c3.67,0.33,7.33.67,11,1q0.495,22.5,1,45,54-4.995,108-10,1.005-23.505,2-47c2.33,0.33,4.67.67,7,1q1.005,22.5,2,45,51-7.005,102-14Q4289.005,2386.51,4287,2354Zm-2200,13q2.505,11.505,5,23l1-1Q2090,2378.005,2087,2367Zm749,17q-1.005,39.99-2,80,486.45-5.505,973-11c-4.11-14.2-7.33-58.55,10-49v49q57.99-1.005,116-2-0.495-37.995-1-76H3685l-3,39c-14.37-2.18-11.23-23.02-10-39Zm-237-8q-7.995,18-16,36l6,3Q2594,2395.5,2599,2376Zm-467,8q-28.995,17.505-58,35Q2103,2401.5,2132,2384Zm183,5c-111.97,24.33-216.98,11.79-280,81,133.05-66.04,343.27-97.73,501-27,51.14,22.93,87.15,66.99,132,91C2596.63,2449.08,2469.1,2388.59,2315,2389Zm2155,4h0Zm-1942,2q36.99,24.99,74,50Q2565.01,2420.01,2528,2395Zm-1216,16q49.5,14.505,99,29c0.33-.67.67-1.33,1-2q1.005-9,2-18Zm1003,0q-48.495,3.495-97,7,4.005,16.995,8,34,99.495,2.505,199,5l3-30c1.33-.67,2.67-1.33,4-2l99,30C2465.51,2436.71,2400.03,2411.23,2315,2411Zm10,1q4.005,2.505,8,5-1.005,10.5-2,21c-2.67.67-5.33,1.33-8,2Q2324.005,2426.005,2325,2412Zm-112,6h0Zm-4,1h0Zm-4,1h0Zm-4,1h0Zm-765,1q-1.5,12.495-3,25,150.99,42.495,302,85C1634.31,2487.61,1594.96,2423.93,1436,2422Zm761,0h0Zm-4,1h0Zm-4,1h0Zm-4,1h0Zm-4,1h0Zm-4,1h0Zm-4,1h0Zm-4,1h0Zm-4,1h0Zm-4,1h0Zm-4,1h0Zm55,0c-119.65,45.54-263.91,67.42-277,215,98.91-119.84,150.28-141.03,336-184q-27.99.495-56,1Q2213.5,2448,2212,2432Zm-60,1h0Zm-4,1h0Zm-4,1h0Zm-4,1h0Zm-4,1h0Zm-107,1q-33.495,1.005-67,2,0.495,6,1,12C1991.15,2456.46,2023.99,2458.14,2029,2438Zm103,0h0Zm-483,1c55.17,42.96,113.19,83.73,198,96q4.005-39.495,8-79Q1752.01,2447.5,1649,2439Zm479,0h0Zm-4,1h0Zm315,0q-2.505,16.005-5,32l-162-9c150.05-2.11,260.53,33.11,349,97q12-7.005,24-14l-2-2C2583.15,2494.05,2522.11,2470.76,2439,2440Zm-554,19-15,3q2.505,61.5,5,123h12q13.005-61.995,26-124h-1q-4.5,17.505-9,35c-1,.33-2,0.67-3,1-2-.67-4-1.33-6-2v-36h-9Zm44,3c-1.3,37.17-7.62,81.19,10,103l4-4Q1936,2511.5,1929,2462Zm19,2q4.5,34.995,9,70,21.495-33,43-66Q1974.005,2466.005,1948,2464Zm375,9c-114.23,24.97-206.15,11.07-280,70,181.74-89.29,397.19-66.2,562,21C2535.44,2500.43,2434.41,2497.61,2323,2473Zm489,1q-84.495,44.49-169,89l43,80C2704.01,2633.01,2933.51,2492.55,2812,2474Zm-76,3q-41.49,1.005-83,2,61.995-1.005,124-2h-41Zm564,8v22h1q51.99-11.505,104-23Q3352.5,2484.5,3300,2485Zm-103,1c-93.86,21.35-154.97,41.07-217,92q148.485-33,297-66-0.495-13.005-1-26h-79Zm-880,2c-147.16,32.29-258.4,22.4-332,122,105.13-74.46,250.48-153.16,441-106,63.31,15.67,115.23,57.98,170,71-0.67-1-1.33-2-2-3C2510.65,2537.59,2437.93,2492.57,2317,2488Zm697,0q-80.49,1.005-161,2,5.505,41.49,11,83c97.47-17.14,136.16-54.08,211-84Q3044.505,2488.505,3014,2488Zm-282,3q-34.5.495-69,1,9.495,16.995,19,34,33-16.995,66-34Q2740.005,2491.505,2732,2491Zm-417,13c-165.58,36.19-308.22,31.47-357,178,89.04-118.64,242.74-216.47,464-162q78.495,32.49,157,65c0.67-.33,1.33-0.67,2-1C2523.67,2535.12,2415.63,2505.42,2315,2504Zm-531,30q-3.495,19.995-7,40,27,13.005,54,26,6.495-26.49,13-53Q1814,2540.505,1784,2534Zm467,7q-15,3.495-30,7v4l1,1,31-6C2252.33,2545,2251.67,2543,2251,2541Zm147,6q15,6.495,30,13c0.33-1,.67-2,1-3Q2413.505,2552.005,2398,2547Zm432,5c-19.39,18.96-47.72,31.45-24,67q6.495-.495,13-1Q2824.505,2585,2830,2552Zm18,3q2.505,19.5,5,39Q2850.5,2574.5,2848,2555Zm-594,4q-14.505,3.495-29,7,6,24.99,12,50-7.995,2.505-16,5c23.29,20.14,33.04,34,67,19q1.995-16.995,4-34-10.005.495-20,1Zm-341,5c-11.38,25.57-23.91,91.47-15,130Q1905.5,2629.005,1913,2564Zm479,0q-9,22.995-18,46-10.005-1.005-20-2,1.995,18.495,4,37c39.54-.15,35.72,7.87,67-16q-8.505-4.995-17-10,7.5-22.995,15-46Zm215,1h0Zm23,4q-34.995,25.5-70,51,5.505,18,11,36l-50,28-15-36q-98.49,69-197,138-3.495-5.505-7-11l1-1,15-12c-49.64,1.56-25.01,37.06-47,58,2.33,1.67,4.67,3.33,7,5,22.64-15.3,54.42-8.68,76,2q106.485-52.5,213-105,51.495-39,103-78v-1l-3-3-42,24c-1.33-1-2.67-2-4-3v-7C2652.44,2630.35,2660.17,2605.6,2630,2569Zm-705,3q1.995,15,4,30Q1927.005,2587,1925,2572Zm349,3,3,12,14-3Q2282.5,2579.5,2274,2575Zm650,1-58,9q3.495,27,7,54,30.99-12,62-24-2.505-19.5-5-39h-6Zm-552,5-15,6,13,3C2370.67,2587,2371.33,2584,2372,2581Zm136,0,9,9h4Q2514.505,2585.5,2508,2581Zm-401,2c-0.33,2.33-.67,4.67-1,7q10.5,7.005,21,14Q2117,2593.5,2107,2583Zm-16,5q-6.495,3.495-13,7l-1,1q8.505,1.005,17,2Q2092.5,2593.005,2091,2588Zm229,3q-3,4.995-6,10l1,1q9.495-1.005,19-2v-7Q2327,2592,2320,2591Zm221,9q-7.005,6-14,12c1.33,0.67,2.67,1.33,4,2q8.505-5.505,17-11l-2-2C2544.33,2600.67,2542.67,2600.33,2541,2600Zm-696,7c-11.08,56.88-37.68,147.74-7,203q3.495-4.005,7-8,10.5,27.99,21,56h5q10.995-27,22-54h7q1.995,7.005,4,14c30.22-49.38,13.95-76.34,13-142-4.91,14.58-16.57,64.53-33,50q1.5-59.49,3-119-6.495.495-13,1-4.995,60-10,120c-2.33.67-4.67,1.33-7,2C1834.44,2700.02,1852.05,2646.84,1845,2607Zm216,0q-14.505,13.5-29,27,16.005,7.5,32,15l2-2q2.505-19.995,5-40h-10Zm47,2q-4.995,10.005-10,20Q2103,2619,2108,2609Zm650,0h0Zm14,2c-23.93,60.49-39.87,177.36-1,236h1q1.995-5.505,4-11h6l3,3q7.5,26.49,15,53c19.84,0.66,20.66-35.63,25-53q7.5,4.005,15,8c29.01-58.45,30.19-156.12,11-222-10.32,49.82,4.64,112.83-27,140-2-.67-4-1.33-6-2V2641h-14l-12,123c-2-.67-4-1.33-6-2C2772.29,2717.9,2771.61,2663.4,2772,2611Zm-468,1v18q18.495,1.005,37,2v-19Q2322.505,2612.505,2304,2612Zm483,2v111h1Q2787.505,2669.5,2787,2614Zm-591,5q-4.005,4.995-8,10,5.505-2.505,11-5C2198,2622.33,2197,2620.67,2196,2619Zm-49,1c-0.33,3.33-.67,6.67-1,10q7.5,4.995,15,10l4-4v-1Zm398,0c-25.57,16.65-29.17,16.17-19,48h2q14.505-9.495,29-19Q2551,2634.5,2545,2620Zm-426,3q-6.495,7.5-13,15c11.53,12.98,48.74,31.23,30,49,32.46,16.83,46.32,6.98,66-9q-14.505-15-29-30C2148.31,2659.72,2138.45,2635.89,2119,2623Zm713,0q-1.995,50.49-4,101Q2830,2673.51,2832,2623Zm-100,3-4,4Zm-873,1q-1.005,26.49-2,53Q1858.005,2653.51,1859,2627Zm591,0c-1,1.33-2,2.67-3,4l12,9,1-1Q2455.005,2633,2450,2627Zm-239,2q-12,7.995-24,16,7.995,7.5,16,15,13.005-6.495,26-13Zm222,9q-8.505,7.995-17,16l24,15q9-6.495,18-13Q2445.505,2647,2433,2638Zm278,3-13,10q10.995,34.5,22,69Q2715.5,2680.505,2711,2641Zm17,3,6,42h1C2737.45,2668.2,2744.47,2649.84,2728,2644Zm-707,10c-3,.67-6,1.33-9,2-5.96,15.19,21.41,10.14,36,12Q2034.5,2661,2021,2654Zm254,0c-1.67.67-3.33,1.33-5,2-0.67,1-1.33,2-2,3q12.495,1.005,25,2v-2c-1.33-1-2.67-2-4-3Q2282,2655,2275,2654Zm85,3c-1.67.67-3.33,1.33-5,2v6q10.995-.495,22-1v-2l-2-2Zm-112,3-1,1c1-.33,2-0.67,3-1h-2Zm58,3c-4.37,22.11-32.71,18.69-47,9-19.34,15.8-14.42,42.63-50,42q-1.995,7.995-4,16c21.3,7.56,28.92,22.76,10,38q25.5,11.505,51,23c16.29-59.53,35.11-111.36,99-63q21-19.005,42-38-10.005-6.495-20-13c-17.88,7.42-42.92,10.41-48-13Q2322.5,2663.505,2306,2663Zm89,3,3,3Zm283,0c1.33,2,2.67,4,4,6C2680.67,2670,2679.33,2668,2678,2666Zm-12,6q10.005,19.005,20,38Q2676,2691,2666,2672Zm16,1c1,1.33,2,2.67,3,4C2684,2675.67,2683,2674.33,2682,2673Zm3,5c1.33,2,2.67,4,4,6C2687.67,2682,2686.33,2680,2685,2678Zm-666,1q13.995,4.005,28,8v-5Zm670,6c1.33,2,2.67,4,4,6C2691.67,2689,2690.33,2687,2689,2685Zm-697,3c-10.67,26.48,3.84,49.28,23,62q22.5-12.495,45-25v-4q-1.5-5.505-3-11Q2024.51,2699.005,1992,2688Zm221,0-9,6,2,2q11.505-1.005,23-2Q2221.005,2691,2213,2688Zm424,3q-10.005,7.005-20,14l25-6Q2639.5,2695,2637,2691Zm-504,9q-1.995,10.005-4,20l30,6q1.995-9.495,4-19Q2148,2703.505,2133,2700Zm55,8c2.67,1.33,5.33,2.67,8,4C2193.33,2710.67,2190.67,2709.33,2188,2708Zm498,4h0Zm-39,3q-28.995,14.505-58,29c15.08,4.94,47.23,13.97,47,35,22.84-14.51,27.57-31.86,16-64h-5Zm40,3h0Zm-377,3c-16.35,7.92-18.56,11.67-21,34,22.43-5.62,57.7-1.6,63-22Zm378,3h0Zm1,7h0Zm-706,1c-4.94,23.09,23.11,43.38,38,54Q2002,2759,1983,2732Zm104,1c5.74,33.14,73.98,49.02,94,27q-1.995-8.505-4-17Q2132,2738.005,2087,2733Zm-24,4q-18,7.005-36,14,1.005,10.5,2,21,22.995,0.495,46,1Zm627,0h0Zm-492,6c-2.67,1.33-5.33,2.67-8,4,1.67,1.33,3.33,2.67,5,4q9.495-.495,19-1v-2Q2206.005,2745.5,2198,2743Zm361,7q-36.99,17.505-74,35,10.005,3,20,6C2511.28,2765.66,2566.7,2775.33,2559,2750Zm26,6q-4.005,18-8,36,21.495,1.005,43,2l1-1q1.5-9.495,3-19Zm109,6h0Zm-709,10c13.93,60.99,96.74,94.1,148,119q10.005-5.505,20-11C2097.29,2838.21,2036.51,2813.41,1985,2772Zm207,0c2.67,0.33,5.33.67,8,1C2197.33,2772.67,2194.67,2772.33,2192,2772Zm469,3-60,60c1-.33,2-0.67,3-1C2617.87,2819.96,2664.35,2799.52,2661,2775Zm-493,8q-10.995,3.495-22,7,6.495,8.505,13,17,12.495-2.505,25-5c-0.33-.67-0.67-1.33-1-2Q2175.5,2791.5,2168,2783Zm-142,7q10.005,9,20,18v-14Q2036,2792.005,2026,2790Zm-86,3q-17.505,36-35,72h-8q-1.5-7.995-3-16c-5.27,19.46,10.53,51.22-11,59-1.33-1-2.67-2-4-3q-0.495-6.495-1-13-9,.495-18,1c-6.91,20.25-7.81,21.1,10,35C1899.42,2914.87,1968.46,2834.63,1940,2793Zm299,0c-1.67.67-3.33,1.33-5,2-0.67,1-1.33,2-2,3l3,3q10.005-1.995,20-4Q2247.005,2795.005,2239,2793Zm497,0c0.33,3.67.67,7.33,1,11C2736.67,2800.33,2736.33,2796.67,2736,2793Zm-668,1q-2.505,4.5-5,9c0.33,1,.67,2,1,3q10.005-5.505,20-11Q2076.005,2794.505,2068,2794Zm405,0q-6.495,9-13,18,13.005,3.495,26,7,6.495-8.505,13-17Q2486,2798,2473,2794Zm-611,5,17,3q-1.005,19.5-2,39l-1,1-18-3Q1860,2819.005,1862,2799Zm355,5q-17.505,5.505-35,11-6,7.995-12,16v1c25.12,11.76,51.64,8.91,71-5-0.33-3-.67-6-1-9Q2228.5,2811,2217,2804Zm-127,2q-7.005,4.005-14,8,9.495-1.995,19-4C2093.33,2808.67,2091.67,2807.33,2090,2806Zm563,4c-41.21,39.02-201.26,121.15-260,115-44.43-4.65-125.67-28.99-163-6C2342.64,2951.65,2659.96,2898.39,2653,2810Zm-98,2q-6,6.495-12,13,21,5.505,42,11C2600.74,2814.44,2579.58,2812.11,2555,2812Zm-118,2q-17.505,9-35,18c12.46,20.7,44.97,22.68,74,12Zm303,1c-1.42,67.61,21.03,118.24,59,147,29.36-11.94,71.39-78.44,63-121q-12.495,28.995-25,58-4.995-1.5-10-3l-6,45c-2,.33-4,0.67-6,1q-1.995-7.5-4-15c-20,4.96-12.33.11-24,14-2-.67-4-1.33-6-2q-1.5-24.99-3-50-4.005,4.5-8,9c-1-.67-2-1.33-3-2Zm-588,3v0Zm-21,5c-2.33.67-4.67,1.33-7,2l1,1q5.505,3,11,6c0.33-1,.67-2,1-3Zm-29,7q-7.005,1.995-14,4v1c28.76,11.8,59.97,45.71,81,13-0.33-.67-0.67-1.33-1-2q-10.005-5.505-20-11-3.495,6.495-7,13Zm386,1c2.67,0.67,5.33,1.33,8,2C2493.33,2832.33,2490.67,2831.67,2488,2831Zm310,2,16,3v38q-9,1.005-18,2Q2797.005,2854.505,2798,2833Zm-493,5q-10.5,6.495-21,13c-7.01,30.34,61.85,36.19,63,5C2340.54,2841.9,2326.48,2837.02,2305,2838Zm217,3v5c2-.67,4-1.33,6-2l-3-3h-3Zm-695,2q7.5,23.505,15,47,1.5-13.995,3-28Q1836,2852.505,1827,2843Zm681,0q-13.5,7.005-27,14c0.33,1.33.67,2.67,1,4,16.16,33.82,54.42,4.2,81-7v-1q-24.495,4.005-49,8c-1-1.33-2-2.67-3-4Q2509.5,2850,2508,2843Zm-113,3q-13.995,7.005-28,14,18.495,0.495,37,1v-1Q2399.5,2853,2395,2846Zm-137,1q-88.485,46.5-177,93,13.005,8.505,26,17c-0.33,2.33-.67,4.67-1,7q-22.995,13.5-46,27-12.495-7.995-25-16-36,19.005-72,38l2,2c78.65,52.66,240.89-101.55,308-143Q2265.5,2859.505,2258,2847Zm-78,6q-4.995,7.995-10,16l18-12C2185.33,2855.67,2182.67,2854.33,2180,2853Zm285,10q-7.5,8.505-15,17l1,1q12,4.995,24,10c1.33-2.33,2.67-4.67,4-7Q2472,2873.5,2465,2863Zm-423,9q25.995,21,52,42,6.495-4.005,13-8Zm313,4q-1.995,4.995-4,10-31.995-1.995-64-4-3.495,6.495-7,13l88,3v-1Q2361.505,2886.5,2355,2876Zm43,13c-1.33.67-2.67,1.33-4,2q5.505,9,11,18h1q2.505-8.505,5-17Zm26,3h0Zm164,9c-43.03,27.06-99.14,37.32-156,51q-1.005,9-2,18c53.13-5.21,110.41-28.49,144-56Q2581.005,2907.505,2588,2901Zm-67,16h0Zm-5,1c-91.56,35.88-204.71,8.64-302,12q7.005,2.505,14,5v26c61.37,5.5,122.18,7.66,190,7q2.505-13.5,5-27Q2469.5,2929.5,2516,2918Zm-318,21q-9,6.495-18,13l-1,1q18.495,5.505,37,11-0.495-10.5-1-21Q2206.5,2941.005,2198,2939Zm125,6q4.005,2.505,8,5-1.005,9.495-2,19c-2.67.67-5.33,1.33-8,2-1.33-1.67-2.67-3.33-4-5Zm-257,1q-13.005,8.505-26,17v1q10.5,6.495,21,13,13.5-7.995,27-16v-1Q2077.005,2953,2066,2946Zm-116,75q-65.49,51-131,102c36.19,26.38,154.29-56.51,181-77Z"/>
  <path id="Prop" class="cls-6" d="M2812,2474c121.73,18.45-108.17,159.05-126,169l-43-80Q2727.5,2518.51,2812,2474Zm-182,95q12.495,27,25,54-17.505,16.995-35,34c0.33,1.67.67,3.33,1,5,2.33,0.67,4.67,1.33,7,2l39-24,3,3v1q-51.495,39-103,78-106.485,52.5-213,105c-23.84-11.67-51.79-14.83-77-2-2-1.67-4-3.33-6-5,21.97-21.01-2.61-56.37,47-58l-16,13q4.995,5.505,10,11,96.99-69,194-138,8.505,18,17,36,24.495-14.505,49-29-6-17.505-12-35Q2595,2594.5,2630,2569Zm-85,51q6,14.505,12,29-15,9.495-30,19h-1q-4.995-15-10-30Q2530.505,2629,2545,2620Zm-240,218c21.63-1.34,40.7,3.75,42,23-9.97,21.75-62.91,21.83-64-8Q2294,2845.5,2305,2838Zm-47,9q7.5,12.495,15,25c-61.27,37.53-246.88,193.63-310,141q36-19.005,72-38,13.995,7.995,28,16,22.005-15,44-30c-0.33-1.67-.67-3.33-1-5q-12.495-7.995-25-16Q2169.485,2893.5,2258,2847Zm-192,99q10.995,7.5,22,15-14.505,7.5-29,15-9.495-6-19-12c0.67-1,1.33-2,2-3Zm-116,75,50,25c-26.64,20.22-145.08,103.65-181,77-0.67-2.33-1.33-4.67-2-7Q1883.5,3068.51,1950,3021Z"/>
</svg>
