<svg xmlns="http://www.w3.org/2000/svg" xmlns:xlink="http://www.w3.org/1999/xlink" width="831" height="959" viewBox="0 0 831 959">
  <defs>
    <style>
      .cls-1 {
        fill: #fff;
      }

      .cls-1, .cls-2, .cls-3, .cls-4, .cls-5 {
        fill-rule: evenodd;
      }

      .cls-2 {
        fill: #cac9c9;
      }

      .cls-3 {
        fill: url(#linear-gradient);
      }

      .cls-5 {
        fill: url(#linear-gradient-2);
      }
    </style>
    <linearGradient id="linear-gradient" y1="479.844" x2="178.063" y2="479.844" gradientUnits="userSpaceOnUse">
      <stop offset="0"/>
      <stop offset="1" stop-opacity="0"/>
    </linearGradient>
    <linearGradient id="linear-gradient-2" x1="350.036" y1="519.375" x2="457.715" y2="426.625" xlink:href="#linear-gradient"/>
  </defs>
  <path id="Color_Fill_1" data-name="Color Fill 1" class="cls-1" d="M250,0V1.312l20,3.937c19.72,4.734,38.6,12.848,48.75,27.309a47.133,47.133,0,0,1,6.437,14.435q0.75,3.655,1.5,7.312l18.875,6.749c20.375,7.785,39.39,16.286,47.5,36.245q0.625,158.933,1.25,317.9l6.813,9.749c8.721,10.23,22.714,13.615,39.937,15.5l23,1.124,43.563,3.375,91.75,9.436,34.5,4.25c5.332,0.855,12.312,3.169,18.25,2.249,3.843-10.816,4.8-22.686,7-35.058,3.8-21.342,7.883-45.728,13.062-66.553,2.676-10.756,2.826-22.271,7.75-31.059,7.7-13.734,20.578-27.2,44.125-24.5,51.427,5.907,56.568,52.367,62.375,104.237,1.245,11.114,2.735,28.3-2.437,36.558-4.5,7.195-37.4,22.212-47.25,25.559,0.021,0.166.042,0.333,0.062,0.5,8.722,2.047,19.682,1.1,30,2.249,19.285,2.155,41.027,1.309,59.25,4.875,2.877,0.563,4.726-.028,4.688,3.5L765.437,486.5l-31.312,1.062c2.774,2.525,7.072,3.491,10.75,5.125,13.364,5.935,36.787,13.479,42.125,26.934q-0.124,6.03-.25,12.061c-1.222,11.312.308,23.617-1.313,33.5-6.747,41.132-12.337,78.471-50,88.239-8.305,2.154-21.252,2.842-30.062.25a41.343,41.343,0,0,1-20.688-14.686c-6.479-9.272-8.313-20.26-11.312-33.37l-14.563-75.8-6.187-30.871c-0.73-1.017-2.472-1.057-4.125-.812-17.749,2.626-36.373,4.51-55.063,7.061l-91,9.436-42,2.938c-3.914.59-2.348,4.1-8,4.936l-12.312-.375c-1.66-1-.621-2.659-3.563-3-10.578-1.224-30,8.562-34.625,13.935q-3.812,5.625-7.625,11.249-0.186,39.8-.375,79.615-0.343,118.347-.687,236.719c-3.531,17.94-30.953,32.643-48.188,38-5.485,1.7-15.18,2.946-18.25,7.186L325,914.131a51.577,51.577,0,0,1-7.438,14.935c-10.065,14.126-48.254,28.3-71.625,29.247q-0.03.344-.062,0.687c-27.484.177-46.254-2.777-57.5-18.373-10.582-14.675-8.438-41.942-8.438-66.866V856.138q-0.125-91.353-.25-182.726-0.249-45.365-.5-90.738l-5.562-2c-4.95-3.52-4.346-12.641,0-16.373,0.93-.8,4.8-1.475,5.437-2.437,1.5-2.251,1.072-29.977-.25-32.246-2.748-.856-3.414-3.021-5.687-3.5-2.657-.559-10.692-0.939-12.438.625l-1.562,2.374c-3.932,1.812-7.227-1.577-9.625-1.812q-0.25.781-.5,1.563h-8.625c-2.142-3.711-13.913-4.459-19.188-2.25-1.682.7-1.553,2.532-4.187,2.874-3.582.466-5.075-1.733-7.375-1.937l-0.188.125c-1.443.974-3.134,2.286-5.812,2-3.111-.333-3.288-2.118-5.312-3l-9.562-1.437c-5.149-.779-8.793,3.006-13.562,1.187-2.563-.977-3.4-3.167-5.375-4.624l-9.687-5.062-16.75-11.873-11.875-3.5C22.257,498.367,3.82,490.2,0,482.5v-8.374H0.25l1.562,0.812c5.642-8.172,17.35-13.5,27.813-16.685,4.516-1.377,9.478-1.679,13.125-3.75l13.75-9.749c4.2-2.663,8.54-4.331,13-7,4.1-2.45,3.171-5.672,10.188-6.061h0.625L81,431.944c0.253,2.19,14.83,2.819,17.563,1.187l1.125-2.625,0.624-.625,2.25-.687c4.364-.636,5.221,1.858,7.563,2.75l1.625-1.813,4.125-1.249,2.5,0.749,2.75,3.375c3.062,1.659,14.1,1.169,17.5,0,1.082-.372,6.894-7.734,10.812-2.687l0.875,0.75,0.5,0.125c4.508-7.593,13.371,6.828,22.563,2.062l2.687-3.437,3.375-1.5q0.126-6,.25-12c0-5.825,1.239-14.991-1-19.373-0.758-1.484-5.2-2.531-6.437-4-4.072-4.842-1.988-12.318,2.562-15l4.75-.875q0.063-40.8.125-81.615V129.546c0-20.033-1.994-43.141.688-62.117l0.312-25.809C183.238,19.445,194.506,6.033,214.562,2c1.286-.258,2.055-0.405,2.063-2H250Z"/>
  <path id="Color_Fill_2" data-name="Color Fill 2" class="cls-2" d="M328.937,55.118c24.627,7.129,53.274,17.859,63.188,39.932,2.906,6.471.091,17.882,1,26.059q0.156,39.117.312,78.24,0.438,107.945.875,215.909,1.438,2,2.875,4v24.684c-22.4-3.736-46.149-2.942-68.25.25V55.118Zm0,461.19c22.1,3.124,45.844,4.044,68.25.25v23.559l-2.875,4.125q-0.062,10-.125,20-0.187,45.99-.375,91.988-0.156,53.8-.312,107.611-0.094,37.71-.188,75.428c0,8.394,1.164,19.929-1.5,26.059-7.072,16.278-26.362,25.924-43.437,32.245-6.215,2.3-14.216,2.973-19.438,6.312V516.308Z"/>
  <path id="Gradient_Fill_2" data-name="Gradient Fill 2" class="cls-3" d="M177.75,377.388q0.125,9.561.25,19.123C169.577,392.483,165.093,380.072,177.75,377.388Zm-62.938,51.431c5.074,0.011,4.222,4.164,8.813,4.749l15.187-.624q1.282-1.656,2.563-3.313c3.861-1.783,7.083.939,9.437,1.563q0.313-.344.625-0.688c7.217-5.993,11.92,7.923,21.938,2.75,1.848-.954,2.35-3.137,4.687-4.187v100.3c-3.263-.526-2.744-3.014-6.375-3.437l-11,.813-1.562,2.374c-3.932,1.811-7.227-1.576-9.625-1.812q-0.25.781-.5,1.563h-8.625c-2.142-3.711-13.913-4.459-19.188-2.25-1.682.7-1.553,2.532-4.187,2.874-3.582.466-5.075-1.733-7.375-1.937l-0.188.125c-1.443.974-3.134,2.286-5.812,2-3.111-.333-3.288-2.118-5.312-3l-9.562-1.437c-5.149-.779-8.793,3.006-13.562,1.187-2.563-.977-3.4-3.167-5.375-4.624l-9.687-5.062-16.75-11.873-11.875-3.5C22.257,498.367,3.82,490.2,0,482.5v-8.374H0.25l1.562,0.812c5.642-8.172,17.35-13.5,27.813-16.685,4.516-1.377,9.478-1.679,13.125-3.75l13.75-9.749c4.2-2.663,8.54-4.331,13-7,4.1-2.45,3.171-5.672,10.188-6.061h0.625L81,431.944c0.253,2.19,14.83,2.819,17.563,1.187l1.125-2.625,0.624-.625,2.25-.687c4.364-.636,5.221,1.858,7.563,2.75A8.393,8.393,0,0,1,114.812,428.819Zm63.125,133.608q0.063,9.934.125,19.872C167.373,579.478,167.109,564.722,177.937,562.427Z"/>
  <path id="Color_Fill_3" data-name="Color Fill 3" class="cls-4" d="M215.25,0h36.125L271.25,4.187c25.411,7.151,54.632,18.947,56.5,49.119,23.455,5.862,52.928,18.965,63.562,37.683q1.657,3.405,3.313,6.812,0.125,40.428.25,80.864,0.407,118.254.812,236.532c2.362,10.425,18.215,18.571,28.75,21.56,11.943,3.387,25.986,1.178,39.625,3.437L554.687,448l96.625,11.561c8.711-31.958,11.492-68.1,19.5-100.3,2.676-10.757,2.827-22.271,7.75-31.059,7.923-14.139,21.252-28.657,45.5-25.871,49.243,5.656,56.979,48.313,63.125,97.424,1.573,12.564,4.114,31.7-.75,42.745-5.4,12.269-33.565,21.178-46.312,27.371v0.063l69.5,4.624,20.125,2.375c1.3,0.778,1.639,3.208,1.187,5.437l-20.25,2-45.25,3.5c-8.883.963-18.412-.88-26.812,1.062L765.5,501.122l14.75,7.374a31.008,31.008,0,0,1,8.125,11.124q-0.124,6.03-.25,12.061c-1.237,11.307.309,23.619-1.313,33.5-1.586,9.663-1.506,18.149-3.625,27-7.222,30.171-24.96,69.291-65.562,64.366-16.158-1.959-25.473-6.422-33.375-16.247-7.31-9.09-9.148-21.145-12.25-34.683l-14.563-75.8q-2.905-15.09-5.812-30.184l-45.563,5.562L503.187,515.933l-44.125,3.312c-2.215,5.019-19.116,8.118-20.875,1.562-5.912-1.919-14.654,2.072-19.125,3.75-9.6,3.6-20.794,9.5-23.375,19.747q-0.156,26.994-.312,53.993-0.375,131.157-.75,262.341c-3.664,18.427-30.1,32.107-47,38.5l-18.688,6.374-0.187.125-0.375.25-0.5.437q-0.687,3.687-1.375,7.374a49.924,49.924,0,0,1-6,13.061c-10.862,17.2-35.821,24-57.625,30.184-7.563,2.144-16.432,2.062-26.188,2.062-28.979,0-42.605-5.053-53-23.5-8.106-14.384-5.125-42.613-5.125-63.929V856.138q-0.187-136.218-.375-272.464c-7.247-1.169-13.091-10.468-7.562-17.748l4.625-4.374,2.75-.5c1.166-1.392.475-27.538-.125-30.309-2.5-.8-3.141-3.026-5.563-3.374l-10.75.5-2.437,2.624c-3.449,1.586-6.941-1.1-8.813-1.624l-0.062.125-1.188,1.187-0.625.125c-7.749,1.055-8.631-3.1-14.875-3.125l-12,.75c-1.893.808-1.921,2.821-5,2.937l-0.812.063c-2.867-.108-4.146-1.793-6.125-2l-0.188.125c-1.442.97-3.135,2.291-5.812,2-3.091-.336-3.338-2-5.312-3l-9.562-1.437c-5.148-.78-8.793,3.008-13.562,1.187-2.521-.962-3.534-3.042-5.375-4.624l-9.687-5.062-16.75-11.874-12.437-3.687C20,498.843,6.39,493.009.25,484.374L0,472.751l0.312,0.062L1.5,473.5c7.507-7.519,16.175-12.4,27.375-16.373,4.586-1.627,10.033-1.816,13.875-4L56.5,443.38c4.2-2.662,8.54-4.332,13-7,4.381-2.621,1.715-5.274,10.063-6.062h0.563l2.438,2.312L98,431.881c0.216-5.271,9.924-5.094,11.812-1.375l0.188-.062,0.187-.188,0.188-.187,0.125-.125,2.062-1.625a5.2,5.2,0,0,1,4.125-.625c3.009,0.979,3.177,3.807,6.125,4.375l15.688-.438,2.875-3.374c3.9-1.721,7,1.057,9.375,1.5,5.251-6.18,8.962.845,11.75,2.188l7.75,0.312c4.181-.494,4.543-3.091,7.812-4.562,0.666-4.292,1.253-27.469-.625-30.121-0.848-1.2-5.367-3.058-6.875-5-5.538-7.134.659-15.4,7.75-16.623V95.613c0-9.364-.543-19.859.688-28.184,1.8-12.187-.671-25.574,1.562-36.745C183.147,17.759,200.438,3,213.812.75Zm2.437,1.375c-2.342,2.755-8.639,3.58-12.187,5A39.066,39.066,0,0,0,184,28.309c-4.076,10.9-.461,26.162-2.25,39.12-2.993,21.682-.688,47.561-0.688,70.366V376.7c-0.758,3.292-8.356.934-9.625,7.749-1.914,10.286,6.73,8.031,8.625,12.5,1.362,3.209,2.327,27.677.75,31.371l-4.125,2.625-3.312,3.687c-10.284,4.708-16.493-9.3-22.563-2.062l-0.562-.125-0.375-.188c-7.675-4.364-6.684.572-11.25,2.125l-15,.562c-4.195-.539-4.136-4.217-7.75-4.749h-1.063c-2.35.338-3.26,2.805-4.875,3.062-2.257-1.167-5.134-4.163-9.125-2.125-0.717,7.54-23.346,1.913-26.937,2.937-0.722,2.243-29.7,21.4-33.437,23L30.063,459.5,13.75,466.439c-1.8,1.018-12.375,9.811-12.375,9.811,0.017,4.284-.019,6.8,2.187,8.749,7.263,6.424,16.668,10.875,26.625,14.561L43.375,503.5l16.75,11.873,9.688,5.062c2.263,1.673,3.137,4.185,6.438,4.937l11.875-1.562,10.188,1.5c1.8,0.783,2.073,2.575,4.624,2.938,3.089,0.439,5.576-2.44,7.188-2.063,1.738,0.407,2.9,2.116,5.812,2,3.372-.134,3.2-2.107,5.25-2.937l11.5-.812c5.682,0,12.365,6.783,16.75,1.5,2.8,0.2,5.229,3.14,9.5,1.75,1.1-3.044,5.2-3.173,9.25-3.187,13.386-.044,12.879,8.744,12.875,22v13.561c-1.316,5.8-8.6,2.664-9.75,12.061-1.139,9.316,7.171,5.861,9.5,10.624q0.126,9.747.25,19.5v227.72q0.188,28.4.375,56.805c0,16.128-1.19,34.145,3.688,45.932,6.7,16.182,20.176,19.3,37.687,24.934h11.375c26.159,0,68.971-13.1,80.438-26.559a47.872,47.872,0,0,0,9-16.935l1.812-8.312c3.732-5.171,12.881-6.468,19.625-8.561,16.739-5.2,43.45-19.1,46.813-36.62q0.343-118.317.687-236.657,0.188-39.834.375-79.677,3.813-5.624,7.625-11.249c5.193-6.027,24.195-16.668,36-15.31,2.9,0.333,2.689,2.313,4.5,3.187l11.813,0.125c4.072-.688,3.466-4.125,7.125-4.812l42.437-3,91-9.437,57.438-7.186L654,498.935l6.187,30.871,14.563,75.8c3.06,13.433,4.9,25.343,12.062,34.433,3.2,4.062,8.3,7.28,12.938,9.873,6.282,3.515,16.419,3.913,25.437,3.625,45.567-1.457,52.081-47.079,58.875-88.364,1.627-9.88.116-22.175,1.313-33.5q0.124-6.03.25-12.061c-4.953-12.466-29.276-20.564-41.875-26.059-3.429-1.5-9.726-2.592-11-6.125,3.934-3.321,41.715-2.368,50.687-3.374L829.375,480l-0.063-.5c-19.257-3.532-41.986-3.018-62.5-5.312l-27-1.625c-1.848-.33-3.962-0.521-4.437-2.062q0.687-.874,1.375-1.75c13.707-9.895,44.794-12.881,48.375-31.621,2.26-11.826.728-25.809-.688-37.37-4.46-36.438-8.975-70.835-34-86.363-7.447-4.622-40.455-14.39-49.687-4.312l0.687,0.687-3.875,2.937-1.25-1.312c-24.637,10.985-27.953,81.846-35.437,112.86-1.618,6.7-5,36.71-8.938,38.058l-97.25-11.561-90.625-7.812c-13.805-2.212-28.105.019-40.062-3.562-13.32-3.989-25.7-11.686-30.875-23.684q-0.625-158.933-1.25-317.9c-4.663-19.627-31.856-30.127-50.25-36.933-4.149-1.535-14.723-2.912-16.5-6.687q-0.656-3.593-1.313-7.187a46.967,46.967,0,0,0-6.437-14.435C300.866,8.962,258.615,1.34,217.687,1.375Z"/>
  <path id="Gradient_Fill_1" data-name="Gradient Fill 1" class="cls-5" d="M328.875,426.632q0.032,8.78.062,17.56c46.248-5.331,122.2-4.576,144.375,22.06,3.46,4.155,7.38,10.4,5.5,18.435-5.086,21.727-38.059,29.635-63.062,32.558-12.83,1.5-25.993.235-38,1.5-11.713,1.233-25.075.474-36-.875l-12.688-1.5c-0.041.125-.083,0.25-0.125,0.375q-0.218-.344-0.437-0.687,0.219-14.809.437-29.621-0.249-23.465-.5-46.932Q328.656,433.07,328.875,426.632Z"/>
</svg>
