<?xml version="1.0" encoding="utf-8"?>
<!-- Svg Vector Icons : http://www.onlinewebfonts.com/icon -->
<!DOCTYPE svg PUBLIC "-//W3C//DTD SVG 1.1//EN" "http://www.w3.org/Graphics/SVG/1.1/DTD/svg11.dtd">
<svg version="1.1" xmlns="http://www.w3.org/2000/svg" xmlns:xlink="http://www.w3.org/1999/xlink" x="0px" y="0px" viewBox="0 0 1000 1000" enable-background="new 0 0 1000 1000" xml:space="preserve">
<metadata> Svg Vector Icons : http://www.onlinewebfonts.com/icon </metadata>
<g><g transform="translate(500.000000,1000.000000) scale(0.100000,-0.100000) rotate(90 90 90)"><path d="M4751.2,4978.7c-203.6-71.6-389.4-252.9-729.5-707.1c-483.4-649-828-1322.5-1024.9-2005.1c-49.2-170.1-123.1-543.8-158.9-807.9c-9-62.7-31.3-82.8-145.5-143.2c-167.8-89.5-416.2-317.8-543.8-499C1830.8,371,1721.2-74.3,1723.4-897.8c0-655.7,78.3-1022.7,311-1474.7c114.1-221.5,349.1-496.8,487.8-570.6c136.5-73.8,172.3-47,329,248.4c143.2,268.5,335.7,579.6,452,727.3l64.9,82.8l89.5-98.5c87.3-94,290.9-212.6,364.8-212.6c44.8,0,44.8-2.2-11.2-214.8c-71.6-268.5-73.8-743-2.2-971.2c143.2-454.3,485.6-930.9,917.5-1277.8c163.4-132,174.6-136.5,277.5-127.6c127.6,13.4,223.8,85,521.4,387.1c322.2,326.7,557.2,709.4,653.4,1063c58.2,210.4,51.5,684.8-13.4,926.5c-26.9,98.4-47,183.5-47,192.4c0,9,38,26.9,85,40.3c120.8,35.8,288.7,154.4,351.3,243.9l51.5,78.3l89.5-114.1c127.6-161.1,284.2-411.7,452-725c156.6-295.4,183.5-315.5,315.5-261.8c35.8,15.7,138.7,105.2,228.3,201.4c266.3,282,452,696,543.8,1197.2c49.2,277.5,55.9,991.3,11.2,1309.1C8141.5,503.1,7774.5,1080.4,7224,1357.9l-89.5,47l-29.1,219.3c-127.5,984.6-662.4,2090.1-1454.6,3012.1C5402.4,4925,5250.2,5010,4979.4,5010C4898.9,5007.8,4795.9,4994.3,4751.2,4978.7z M5232.3,4658.7c105.2-73.8,396.1-416.2,597.5-700.4c143.2-203.6,445.3-689.2,445.3-718.3c0-9-579.6-15.7-1286.7-15.7c-973.4,0-1286.7,6.7-1286.7,26.8c0,13.4,67.1,136.5,147.7,270.8c331.2,552.7,803.4,1123.4,982.4,1188.3C4959.3,4754.9,5122.7,4734.8,5232.3,4658.7z M6521.3,2711.8c123.1-308.8,210.4-599.7,275.2-910.8c42.5-217.1,49.2-317.8,49.2-774.3c0-438.6-9-579.6-51.5-850.4c-71.6-445.3-190.2-1011.5-306.6-1474.7c-107.4-425.2-149.9-508-302.1-584.1c-85-42.5-134.3-44.8-1197.2-44.8c-1230.8,0-1195-4.5-1333.7,149.9c-73.8,80.5-87.3,123.1-205.9,602c-425.2,1729.8-452,2578-116.4,3578.3c53.7,161.1,123.1,349.1,154.4,420.7l58.2,127.6h1438.9h1441.2L6521.3,2711.8z M2884.8,232.3c49.2-362.5,125.3-754.2,259.6-1338.2l111.9-485.6l-109.6-129.8c-132-152.2-344.6-472.2-478.9-720.6c-53.7-98.5-102.9-179-111.9-179c-31.3,0-223.8,266.3-295.4,414c-152.2,311.1-232.7,635.5-255.1,1040.6c-17.9,297.6,2.2,794.4,40.3,1007c85,490.1,331.2,915.3,675.8,1163.7l96.2,71.6l15.7-288.7C2840.1,630.6,2862.5,380,2884.8,232.3z M7268.7,1004.3C7443.3,885.7,7649.2,639.6,7761,418c188-378.2,250.6-760.8,230.5-1436.7c-15.7-546-78.3-830.2-257.3-1188.3c-76.1-152.2-259.6-414-290.9-414c-9,0-60.4,82.8-116.4,185.7c-132,243.9-375.9,606.5-505.7,751.9L6716-1566.9l114.1,496.8c188,819.1,277.5,1360.6,308.8,1879.8c9,143.2,20.2,261.8,24.6,261.8C7168,1071.5,7217.2,1042.4,7268.7,1004.3z M4328.2-2233.8c0-11.2-15.7-67.1-35.8-129.8c-49.2-167.8-44.8-465.5,11.2-626.6c58.2-165.6,174.6-340.1,335.7-510.2c284.2-299.9,398.3-297.6,704.9,17.9c154.4,158.9,275.3,353.6,331.2,532.6c38,127.5,44.8,190.2,33.6,349.1c-6.7,105.2-29.1,235-47,288.7l-33.6,94h87.3c80.6,0,91.8-6.7,123.1-80.6c96.2-232.7,129.8-709.4,67.1-960c-51.5-203.6-194.7-476.6-367-698.2c-152.2-196.9-503.5-543.8-552.8-543.8c-42.5,0-382.7,333.4-534.8,521.4c-163.4,203.7-331.2,521.4-380.4,720.6c-62.7,248.4-29.1,736.2,67.1,969c26.9,62.7,42.5,71.6,109.7,71.6C4292.4-2218.1,4328.2-2224.8,4328.2-2233.8z M5355.4-2305.4c114.1-223.8,107.4-510.2-20.1-734c-76.1-132-304.3-387.1-346.9-387.1c-51.5,0-317.8,304.3-382.7,438.6c-58.2,116.4-64.9,156.7-64.9,333.4c0,163.4,11.2,223.8,53.7,320l51.5,116.4h333.4h333.4L5355.4-2305.4z"/><path d="M4688.5,2423.1C4229.8,2300,3903,1868.1,3903,1387c2.2-313.3,85-528.1,295.4-754.1c418.5-447.6,1114.4-458.8,1548.5-22.4c431.9,434.1,431.9,1096.5-2.2,1539.6C5489.6,2409.7,5055.5,2521.6,4688.5,2423.1z M5203.2,2154.6c389.4-111.9,633.3-485.6,577.3-888.4c-22.4-170.1-89.5-308.8-212.6-440.9c-389.4-416.2-1067.4-306.6-1320.3,214.8c-55.9,114.1-62.7,156.7-64.9,333.4c0,170.1,8.9,221.5,60.4,326.7C4417.7,2078.5,4816.1,2266.4,5203.2,2154.6z"/><path d="M4878.7,2031.5c-20.1-29.1-35.8-67.1-35.8-87.3c0-58.2,67.1-134.3,118.6-134.3c223.8,0,440.9-196.9,440.9-400.6c0-147.7,163.4-221.5,252.9-111.9c33.6,42.5,40.3,73.8,29.1,165.6c-42.5,324.5-308.8,584.1-631.1,610.9C4928,2082.9,4912.3,2078.5,4878.7,2031.5z"/></g></g>
</svg>