<svg xmlns="http://www.w3.org/2000/svg" xmlns:xlink="http://www.w3.org/1999/xlink" width="5088" height="4735" viewBox="0 0 8088 4735">
  <defs>
    <style>
      .cls-1 {
        fill: #fff;
      }

      .cls-1, .cls-2, .cls-3, .cls-4, .cls-5, .cls-6 {
        fill-rule: evenodd;
      }

      .cls-3 {
        fill: #2b2727;
      }

      .cls-4 {
        fill: #dbd300;
      }

      .cls-5 {
        fill: #e18503;
      }

      .cls-6 {
        fill: url(#linear-gradient);
      }
    </style>
    <linearGradient id="linear-gradient" x1="2021.5" y1="2617.72" x2="2021.5" y2="119.813" gradientUnits="userSpaceOnUse">
      <stop offset="0"/>
      <stop offset="1" stop-color="#fff"/>
    </linearGradient>
  </defs>
<g transform="translate(0.000000,200.000000) scale(2 2) ">
  <path id="windowGlare" class="cls-1" d="M1492,1080c12.66-.14,28.19-1.57,38,2,29.01,10.55,56.56,49.52,34,86-10.34,16.73-26.97,26.84-49,32h-18q-13.005,1.995-26,4c-25.27,8-45.11,19.85-64,34-27.81,20.82-52.06,60.29-64,97-8.51,26.16-2.71,54.62-18,75-19.23,25.63-52.67,28.87-81,10-5.71-3.8-13.84-10.75-17-17-4.47-8.84-3.02-24.2-3-37a255.063,255.063,0,0,1,13-79c28.22-85.58,83.17-148.53,162-183,18.39-8.04,38.38-13.31,59-19Q1475,1082.495,1492,1080Z"/>
  <path id="windowOutline" class="cls-2" d="M1494,921c123.24-2.431,207.28,32.2,278,82,72.76,51.24,125.32,114.31,163,201,10.07,23.18,17.48,49.42,25,76q4.005,25.995,8,52c3.02,13.17,2.93,60.06,0,73-3.91,17.28-.86,33.04-5,49-8.4,32.36-14.7,63.64-27,92-50.76,117.07-140.15,203.99-259,253-25.89,10.67-55.55,13.9-85,21-12.82,3.09-26.62,1.18-39,4h-19c-10.89,2.34-32.12,2.45-43,0h-16l-45-6c-34.95-9.08-67.43-18.05-97-31-102.38-44.85-186.17-123.05-231-225-8.84-20.09-13.75-39.73-21-62-5.87-18.03-8.24-39.8-13-60-2.82-12,.72-23.33-2-36-3.52-16.41-2.5-44.58,1-60,2.8-12.34.11-23.24,3-35,8.61-35.03,13.33-69.33,26-100,51.5-124.73,136.48-207.61,261-259,27.78-11.465,58.43-16.081,90-24Zm17,118-41,3c-24.35,5.82-48.59,8.16-70,17-93.21,38.48-157.83,99.65-197,192-8.79,20.73-12.97,43.85-19,67q-1.005,10.5-2,21c-9.51,42.35,1.08,103.02,13,135,8.14,21.82,13.69,42.41,25,61,44.83,73.69,109.6,133.45,198,163,29,9.69,66.46,8.99,105,9q24.495-.495,49-1l37-6c98.95-32.45,174.99-100.5,215-192,32.67-74.71,36.43-183.81,3-261C1777.98,1133.81,1671.21,1041.67,1511,1039Z"/>
  <path id="Color_Fill_5" data-name="Color Fill 5" class="cls-1" d="M740,837c3.841,34.77,4,75.285,4,112v56c1.862,8.66,1,21.67,1,32v86c4.472,20.82,1,57.38,1,81v418c0,10.32.87,23.35-1,32v46c0,21.68-.988,43.66-1,64-0.008,13.41,1.526,30.34-1,42-2.306,10.65,1.037,24.6-1,34-4.17,19.24,3.67,54.33-6,67-1.073.75-.946,0.6-3,1-6.046-4.57-14.089-6.4-21-10-14.521-7.56-29.738-15.28-44-24-42.063-25.72-84.437-50.75-126-77-75.178-47.48-144.238-103.04-215-155-20.018-14.7-37.265-34.13-57-49-12.668-9.55-23.4-20.47-36-30q-6-6.495-12-13a246.885,246.885,0,0,1-46-46q-4.5-4.005-9-8c-13.34-17.67-29.931-34.46-39-56-25.768-61.2-1.439-140.02,27-178,5.247-7.01,13.77-12.09,19-19,9.07-11.99,21.016-22.95,33-32,7.274-5.49,12.708-14.49,20-20,15.986-12.08,29.913-25.91,46-38,9.752-7.33,18.2-17.68,28-25,25.88-19.35,50.1-40.96,76-60,63.568-46.73,129.122-90.156,197-133,36.789-23.221,74.386-45.651,112-69C697.819,858.663,725.447,838.521,740,837Z"/>
  <path id="Color_Fill_4" data-name="Color Fill 4" class="cls-3" d="M1501,1039c171.6-3.62,278.15,96.51,328,215,27.1,64.42,30.84,167.3,3,235-44.81,108.99-122.66,186.63-247,216-16.66,3.93-36.47-1.82-54,2-9.35,2.04-27.65,2.14-37,0h-26c-15.12-3.46-31.17-2.44-45-7-111.43-36.76-192.1-116.04-229-228-9.83-29.82-22.38-86.62-13-127q1.005-11.505,2-23c5.87-23.17,9.45-46.36,18-67,38.48-92.87,102.03-156.61,195-195,21.78-8.99,46.3-12.02,71-18C1475.31,1039.99,1494.91,1042.79,1501,1039Zm-5,41c-7.72,4.59-21.82,1.67-31,4-20.02,5.09-39.94,9.39-58,17-82.18,34.64-136.47,95.14-168,181-9.96,27.11-28.82,112.32-1,133,24.84,18.46,49.95,24.11,77,4,8.82-6.55,17.99-18.87,21-31v-17c2.45-11.35,2.54-23.26,6-34,11.64-36.11,36-77.63,63-98,19.76-14.91,40.83-28.43,68-36,12.01-3.35,26.1-.05,39-3,22.62-5.18,40.44-13.99,51-31q3.495-8.505,7-17c10.92-36.68-21.96-64.67-46-71C1516,1078.89,1505.39,1079.91,1496,1080Z"/>
  <path id="Color_Fill_3" data-name="Color Fill 3" class="cls-4" d="M3014,1105c0.09-21.98-3.96-54.62,5-69,10.87-17.46,50.4-24.73,73-32,28.02-9.01,60.9-11.794,92-19,12.07-2.8,24.79-1.5,36-4l43-3h20c15.05-3.134,43.97-3.275,59,0h21q24.99,2.5,50,5c19.22,4.673,38.93,6.981,57,13,112.86,37.59,202.11,97.86,288,162,26.77,19.99,48.33,46.84,75,67q12.495,13.005,25,26a138.124,138.124,0,0,1,27,27q9.495,9,19,18a369.239,369.239,0,0,1,33,38c8.79,11.67,26.3,23.24,28,41-6.36,6.83-10.43,16.54-16,24-11.93,15.99-27.89,28.98-40,45q-11.505,10.995-23,22a201.11,201.11,0,0,1-38,38q-4.995,5.505-10,11c-9.75,9.75-19.93,19.63-31,28-7.27,5.5-12.71,14.48-20,20-22.61,17.11-42.72,37.57-66,54-73.34,51.78-155.95,100.19-249,131-19.63,6.5-40.78,9.06-62,14q-27.99,2.505-56,5h-31c-5.87,1.24-16.13.86-22,0-17.75-2.61-36.33,1.44-52-2l-47-3c-33.67-7.69-68.89-9.17-100-18-23.58-6.7-70.43-15.88-82-32-10.01-13.95-5.83-45.9-2-63a25.246,25.246,0,0,1,8-1c8.05,5.19,20.47,4.85,30,8,16.97,5.61,35.8,10.31,55,15,11.17,2.73,21.27.45,33,3,10.49,2.28,23.81-.59,36,2,7.92,1.68,23.08,1.76,31,0h23c14.9-3.36,33.12-2.62,47-6,23.61-5.75,43.91-6.71,64-15,84.06-34.68,152.56-86.55,212-146,27.7-27.7,54.05-53.19,73-90,5.71-11.09,15.44-31.69,11-51-8.77-38.17-25.3-60.72-45-87-4.1-5.46-10.91-9.59-15-15-11.24-14.85-25.13-29.76-40-41q-7.5-7.995-15-16c-18.47-13.98-35.05-30.62-54-44-44.73-31.58-93.97-60.05-151-79-24.85-8.26-50.02-9.7-78-16h-17c-16.09,0-33.28-1.07-47,2q-13.005.495-26,1c-23.72,5.38-49.02,4.79-72,11q-15.495,4.005-31,8C3039.14,1096.44,3026.54,1103.13,3014,1105Z"/>
  <path id="Color_Fill_2" data-name="Color Fill 2" class="cls-5" d="M3175,1186c90.7-1.95,154.82,21.4,207,58,18.61,13.05,35.8,28.31,54,42,4.3,3.24,7.7,8.76,12,12,18.73,14.15,37.86,31.27,52,50,6.52,8.64,16.76,12.87,17,28-2.74,2.85-3.66,6.66-6,10-4.41,6.28-10.26,11.73-15,18-6.6,8.73-17.2,17.35-26,24q-5.505,6-11,12c-6.24,4.73-11.72,9.27-18,14-9.75,7.34-18.16,17.7-28,25-32.28,23.95-62.34,45.77-102,63-26.18,11.37-55.61,15.98-95,16-9.43.01-18.1,1.76-26,0h-16c-15.46,0-31.05,1.27-45-2l-31-6c-16.71-5.5-32.88-13.35-48-20-4.78-2.1-34.65-13.1-36-15V1237c10.95-2.6,20.31-10.71,30-15a692.316,692.316,0,0,1,67-26q21-4.005,42-8C3159.72,1186.41,3169.76,1189.31,3175,1186Z"/>
  <path id="Color_Fill_1" data-name="Color Fill 1" class="cls-2" d="M2384,2h78c12.48,0,28.25-1.341,39,1,13.19,2.873,30.06-1.6,42,1h21c15.17,0.069,34.84-.1,49,3l31,1,86,9c63.57,15.483,124.57,25.512,183,45,82.87,27.641,159.09,63.149,227,106,17.87,11.275,34.29,25.617,51,38,45.22,33.513,88.14,74.174,121,120,8.29,11.56,26.08,39.637,19,62-5.42,17.108-18.71,25.664-32,35-22.12,15.537-47.37,28.633-71,43-8.82,5.366-18.19,7.651-27,13-23.93,14.529-49.79,26.216-74,41-49.95,30.5-100.77,59.719-149,92-23.91,16-46.8,33.966-70,51-14.88,10.923-27.93,25.3-44,35v1c10.95,3.086,20.17,13.106,29,19,38.4,25.64,67.14,67.026,89,109,8.46,16.244,13.72,35.343,21,53,3.3,8,4.07,19.815,14,21,2.82-1.782,6.06-.879,10-2,12.73-3.616,26.6-5.927,40-10,23.33-7.1,48.67-11.84,74-18,15.19-3.694,31.29-2.659,46-6,15.82-3.6,32.82-.607,48-4h20c8.77-1.88,21.97,1.132,32-1,11.44-2.432,33.57-2.527,45,0l49,1c13.92,3.128,29.5.635,44,4,23.48,5.451,47.5,8.193,68,15,28.94,9.611,55.41,16.46,82,28,142.12,61.683,258.08,150.07,360,252,48.66,48.67,102.9,95.1,136,159,9.02,17.42,22.04,59.22,13,87-8.23,25.3-27.63,42.63-42,62-29.45,39.68-62.45,75.46-97,110-123.08,123.05-265.07,226.75-450,288-27.69,9.17-59.38,9.08-90,16l-44,3h-19c-13.48,2.89-58.57,2.98-72,0q-19.995-.495-40-1c-11.13-2.48-24.07-.29-36-3-25.85-5.86-53.2-5.31-78-12-23.73-6.4-47.8-10.72-72-18-10.28-3.1-25.57-8.38-37-4-4.47,12.42-3.36,27.78-8,39-20.59,49.74-54.85,104.67-95,135-9.97,7.53-17.35,19-28,26v1c10.65,3.48,27.52,22.02,37,29,23.22,17.1,47.02,33.99,71,50,55.2,36.85,113.88,69.14,171,104,20.25,12.36,42.07,21.87,62,34,8.19,4.98,16.85,7.05,25,12,18.11,11.01,37.05,22.06,54,34,14.57,10.27,30.14,20.22,35,40,5.73,23.3-16.93,52.92-25,65-34.75,51.98-88.9,96.1-140,132-14.76,10.37-29.54,22.24-45,32-25.44,16.07-52.38,29.4-81,42-44.27,19.49-89.2,40.84-138,57-39.3,13.02-81.03,20.34-123,31-21,5.34-43.27,5.21-64,10q-8.505.495-17,1c-19.34,4.36-43.02,2.62-63,7h-15c-12.09,2.61-29.09,2.84-42,3h-20c-10.68,2.29-26.06-1.55-38,1-14.7,3.14-35.48,1-52,1-22.99,0-52.01,3.55-73-1-12.87-2.79-29.37,1.52-41-1h-21c-13.39-.28-31.37-0.25-44-3h-16c-18.7-4.14-39.61-.61-59-5-20.55-4.65-43.04-2.91-64-8-47.77-11.61-95.93-15.36-140-30-74.1-24.62-142.51-51.93-203-90-39.64-24.95-74.55-53.46-111-81q-4.005-4.5-8-9c-14.16-10.71-28.29-23.82-39-38-7.47-9.89-19.49-17.07-27-27-20.86-27.6-44.54-52.78-64-82-16.93-25.43-32.58-74.04-61-86-11.22-4.72-24.81-2.87-38-6-26.2-6.23-54.27-6.15-81-13-19.16-4.91-39.9-5.82-60-11-66.15-17.06-134.96-25.32-197-46-56-18.66-112.59-34.85-166-57-45.012-18.67-90.468-38.84-134-58-20.419-8.99-39.532-19.43-59-28-12.789-5.63-25.295-9.89-37-17-18.755-11.4-39.884-19.39-59-31-41.092-24.97-84.36-46.42-125-72q-99.688-62.745-195-130c-23.557-16.59-45.887-36.01-69-53-34.759-25.54-66.785-53.27-101-79-15.429-11.6-27.7-28.44-43-40a223.9,223.9,0,0,1-42-42c-5.926-7.84-15.068-14.06-21-22-20.753-27.77-39.861-56.43-54-91-4.265-10.43-4.053-20.83-7-33-11.748-48.53-9.366-120.51,5-164,18.025-54.57,50.729-93.74,87-130,12.086-12.08,23.2-24.58,37-35,10.286-7.77,18.66-19.22,29-27,27.4-20.62,52.207-43.6,80-64,7.588-5.57,14.4-13.41,22-19,30.507-22.432,60.165-46.234,91-68,72-50.822,146.885-98.214,223-145,25.113-15.437,51.619-26.578,77-42,72.272-43.915,157.582-81.151,238-116,37.066-16.062,75.655-28.688,113-44,15.65-6.418,31.03-9.067,47-15,59.85-22.228,125.28-36.817,190-55l94-19,111-16c12.32-2.818,42.89-1.619,51-7,3.49-3.88,4.16-9.322,7-14,9.42-15.5,16.33-33.12,26-49,20.44-33.554,42.02-65.225,65-96,6.62-8.866,16.37-16.236,23-25,12.9-17.064,28.94-34.109,46-47q4.995-5.5,10-11c14.55-11.008,27.42-24.276,42-35,48.07-35.353,100.65-70.746,158-96,31.33-13.795,63.72-25.763,96-39,8.48-3.479,16.05-4.019,25-7,32.94-10.973,69.73-19.145,105-29,19.37-5.412,39.93-6.4,59-11l72-9,106-6C2355.32,0.5,2375.08,7.56,2384,2Zm-3,118c-5.07,3.011-18.86,1-26,1l-57,2c-16.34,3.61-34.91.169-52,4-8.81,1.974-19.18.749-29,3-32.52,7.454-66.71,7.207-98,16-23.24,6.53-47.17,10.409-70,18-64.23,21.359-126.15,45.74-179,79-29.28,18.429-56.62,39.558-84,60-12.86,9.606-23.31,23.4-36,33-29.98,22.668-54.24,54.008-76,85-10.17,14.489-21.97,28.16-30,45h2c8.82,5.4,23.55,1.463,35,4,20.34,4.506,45.26,1.488,66,6h16c20.88,4.593,45.5.229,67,5,13.09,2.906,27.92.844,42,4l133,16c23.49,5.492,48.74,5.114,73,11,47.98,11.639,100.09,15.056,147,27,12.99,3.308,24.02,2.656,37,6,42.37,10.915,88.3,16.391,130,28,14.44,4.021,27.62,3.943,42,8,36.02,10.16,74.19,14.587,111,25,31.05,8.783,63.88,12.934,96,22,32.83,9.265,68.04,16.618,102,24,6.74-9.883,19.45-18.783,29-26,6.53-4.938,11.47-13.057,18-18,12.25-9.275,23.48-18.813,36-28,21.01-15.417,41.52-32.906,63-48,53.93-37.9,110.33-73.192,167-108,31.09-19.1,64.5-35.015,95-54,7.55-4.7,28.05-13.316,30-22-6.31-5.83-11.09-13.777-18-19-44.77-33.827-91.85-64.058-141-94-11.69-7.123-24.22-11.369-37-17-27.98-12.328-57.56-25.919-87-38-35.28-14.475-74.55-21.26-113-32-32.55-9.092-68.07-8.3-102-16l-30-2c-21.49-4.752-47.9-1.116-70-6h-20c-16.44-3.587-39.05,1.693-56-2-13.54-2.948-32.22,2.218-47-1C2438.53,116.326,2404.91,120.031,2381,120ZM1562,599c-9.33,5.534-37.34-1.794-50,1-14.09,3.11-31.02-1.32-46,2-26.98,5.978-55.86,2.647-82,9-34.32,8.343-69.39,11.452-103,21-30.39,8.636-62.58,14.079-93,24-69.85,22.78-140.09,43.156-205,70-30.4,12.574-60.616,23.576-90,36-5.364,2.268-29.759,8.837-32,12V1973c29.683,12.85,59.483,27.33,90,40,32.588,13.52,66.75,22.75,99,36,12.01,4.93,23.82,6.47,36,11,45.45,16.9,95.15,28.52,143,44,11.29,3.65,21.36,3.7,33,7,39.36,11.15,83.34,15.67,125,26,15.9,3.94,32.76,3.46,48,7,20.82,4.84,42.65,1.32,64,6,11.47,2.51,26.38,1.43,38,4h17c13.57,2.93,29.94-1.23,45,2,17.1,3.67,41.01,1,60,1,17.41,0,39.45,2.41,55-1,8.73-1.91,20.51.64,28-1,6.51-1.43,15.73.16,21-1,11.15-2.45,23.09.18,33-2q19.995-1.005,40-2c10.01-2.23,21.95-.51,33-3,28.54-6.44,61.11-4.59,89-11q11.505-1.005,23-2Q2046,2124,2111,2114c26.74-6.88,55.43-7.87,83-15,76.74-19.83,157.41-28.96,232-50,15.12-4.26,28.89-4.7,44-9,70.69-20.11,145.9-31.63,215-54,33.56-10.87,67.17-14.99,98-28,28.97-12.23,68.41-43.79,84-69,11.96-19.34,13.15-44.94,19-71,1.76-7.85.51-16.22,2-23q0.495-18.495,1-37c3.75-17.25,2-41.58,2-61v-21c4.5-20.73,1-57.44,1-81V1190c0-42.72,2.72-89.05-1-130v-60c-4.63-21.092,1.7-45.608-3-67q-2.505-18-5-36a166.642,166.642,0,0,0-18-40c-28.14-44.736-72.93-60.67-128-79-48.75-16.228-103.28-26.617-154-42-12.93-3.922-24.86-4.264-38-8-53.81-15.3-112.44-23.753-167-39-23.7-6.623-48.25-8.646-71-15l-25-4c-23.98-6.465-50.94-9.846-75-16-43-11-88.39-13.412-131-24l-130-20c-16.04-3.65-32.76-1.626-48-5l-66-4h-28c-15.13-3.285-35.62,2.553-52-1-17.98-3.9-43.1-1-63-1H1562ZM738,837c-4.372,3.312-10.161,4.059-15,7-16.992,10.326-34.843,19.34-52,30q-73.62,45.743-147,92c-63.11,39.85-121.634,85.41-181,129-23.663,17.37-44.656,39.43-68,57-23.254,17.5-42.922,38.56-66,56l-14,15c-21.007,15.88-47.956,44.76-59,70-15.2,34.75-25.382,92.8-11,137,5.7,17.53,16,32.37,26,46,6.576,8.96,16.373,16.24,23,25,8.52,11.27,18.72,22.48,30,31q10.5,10.995,21,22c21.385,16.17,39.4,35.82,61,52,25.674,19.23,49,42.89,75,62,61.773,45.4,123.162,90.44,189,132,19.183,12.11,38.7,25.83,58,38,21.927,13.82,44.729,24.42,67,38,18.189,11.09,38.964,26.09,61,32v-2c3.331-4.81,1.442-10.91,3-18,2.247-10.23,2.858-24.78,3-36v-20c2.1-9.76.364-23.6,1-35,0.672-12.04,1-27.4,1-41,0-45.64-.6-93.99,1-141,2.91-85.59,1-175.72,1-263,0-173.02-1.4-347.95-6-515h-2ZM3293,977l-80,5c-15.01,3.384-31.47,2.246-47,6-34.22,8.271-69.01,12.9-99,24-15.6,5.77-38.42,10.29-47,23-8.49,12.58-6.26,48.8-6,70h1c6.94-5.19,17.48-5.51,26-9,20.82-8.53,46.48-11.84,71-18q10.5-1.005,21-2c50.65-11.45,129.13-8.08,172,6,22.25,7.31,41.9,12.17,62,21,76.13,33.46,137.12,84.11,192,139,27.38,27.38,55.48,54.84,72,93,5.25,12.14,14.87,32.18,10,53-7.89,33.73-23.42,54.63-41,78-4.4,5.84-11.62,10.22-16,16a184.159,184.159,0,0,1-35,35q-6.495,7.005-13,14c-12.68,9.59-23.43,21.6-36,31-44.93,33.61-90.72,66.61-146,90-21.37,9.04-45.37,13-70,19-10.93,2.66-22.65,1.66-33,4q-16.005.495-32,1c-11.9,2.56-35.11,2.66-47,0h-19c-24.68-5.53-50.54-3.77-73-11-18.39-5.92-38.52-15.82-60-17a45.3,45.3,0,0,0-5,18c-3.25,55.83,14.94,55.51,56,69,25.1,8.24,54.06,13.36,82,20,17.21,4.09,35.23,3.3,52,7,16.11,3.55,33.51.67,49,4h20c14.4,2.99,61.68,3.13,76,0q15-.495,30-1c29.16-6.51,58.07-6.39,84-15,160.27-53.21,283.2-145.19,390-252,29.29-29.29,60.94-57.61,86-91,7.95-10.59,23.4-19.8,24-37-6.37-6.8-10.47-16.53-16-24-10.47-14.15-24.3-25.84-35-40q-9.495-9-19-18a247.066,247.066,0,0,0-46-46q-10.005-10.5-20-21c-19.12-14.46-34.74-32.5-54-47-4.3-3.24-7.7-8.77-12-12-17.85-13.4-34.83-28.21-53-41-77.67-54.7-163-103.21-266-132C3400.59,977.146,3345.5,977.264,3293,977Zm-112,209q-22.5,2.505-45,5c-18.73,4.87-37.91,7.94-55,15-11.93,4.92-23.73,12.03-35,17-5.39,2.38-30.11,11.56-32,15v276c30.54,13.59,59.57,28.18,94,38,18.08,5.16,40.66,5.99,62,6,34.17,0.02,77.71,3.71,106-4,53.77-14.66,91.78-42.2,131-71,10.87-7.98,20.27-18.93,31-27,21.48-16.16,43.82-35.56,60-57,6.65-8.81,17.86-14.71,19-29-5.8-5.93-10.01-14.39-15-21q-8.505-7.995-17-16c-16.91-16.9-33.66-33.49-53-48-8.27-6.21-15.64-14.85-24-21-17.8-13.09-35.97-26.39-55-38C3309.96,1199.74,3249.72,1186.63,3181,1186Zm-432,909c-5.95,3.7-14.64,2.77-22,5-18.2,5.51-37.77,7.52-57,13-51.93,14.81-107.97,23.31-160,38-18.41,5.2-35.6,5.79-54,11-62.16,17.6-129.6,25.75-193,42-21.4,5.49-41.53,5.47-63,11-36.28,9.35-76.98,12.06-114,21l-46,6c-32.91,7.96-70.1,7.31-104,15l-38,3c-21.39,4.78-47.22,2.18-69,7q-14.505.495-29,1c-10.56,2.32-25.26.63-36,3h-19c-11.18,2.45-24.58-.72-37,2-17.19,3.76-46.15,3.86-65,4v1c9.31,7.3,17.82,24.01,25,34,14.28,19.87,31.32,37.57,46,57q6.495,6,13,12c9.25,9.25,17.43,19.01,28,27,14.37,10.86,27.19,26.11,42,37,30.23,22.22,62.33,42.09,95,62,31.67,19.3,67.01,31.16,103,46,45.57,18.79,96.6,29.64,149,43,25.89,6.6,54.35,5.07,81,11q60,4.005,120,8h25c9.73,2.09,24.02-1.35,35,1,18.02,3.85,43.07,1,63,1,18.96,0,42.94,2.72,60-1h28q51.99-4.005,104-8l82-12c53.11-13.7,105.79-23.17,153-41,10.81-4.08,20.5-5.65,31-10,21.01-8.71,42.74-19.08,63-28,12.79-5.63,25.3-9.89,37-17,32.07-19.49,63.07-39.91,93-61,11.99-8.45,23.33-16.36,35-25,3.61-2.67,6.46-7.32,10-10,6.17-4.66,15.35-10.13,17-19-11.66-7.2-23.1-16.67-35-24-15.95-9.82-32.85-16.18-49-26-33.04-20.09-67.27-38.36-100-59-44.92-28.33-88.2-59.79-131-90-17.27-12.19-33.25-24.44-50-37-10.91-8.18-20.11-19.79-31-28-9.07-6.83-24.91-16.85-31-26h-5Z"/>
  <path id="Gradient_Fill_1" data-name="Gradient Fill 1" class="cls-6" d="M2367,120h69c13.37,0,29.28-.79,41,1,23.16,3.537,47.74-3.007,69,2h23c15.7,3.532,35.58.359,51,4l26,1,79,9c34.86,8.547,71.16,10.292,104,21,73.64,24.012,143.74,47.028,204,84,15.82,9.705,31.48,17.217,47,27,25.01,15.767,48.44,34.866,72,52a181.378,181.378,0,0,1,23,20c1.94,1.954,8.14,6.451,6,9-7.55,10.738-22.66,15.952-34,23-24.98,15.522-52.43,28.319-78,44-79.25,48.6-155.9,98.674-230,152-23.56,16.953-47.05,37.064-68,57-6.63,6.313-21.96,25.245-32,26-4.99-3.106-11.61-2.177-18-4-12.3-3.509-25.66-5.2-39-9-42.09-12-87.92-19.124-130-31-9.52-2.688-17.43-2.28-27-5-75.84-21.554-157.65-31.273-235-52-27.16-7.278-55.63-9.258-82-16-31.83-8.139-64.8-9.257-96-17l-37-5c-39.92-9.67-84.94-9.559-126-19l-123-13c-12.75-2.822-26.32-.428-38-3-19.77-4.355-41.4.1-60-4h-14c-14.53-3.216-32.75-1.793-47-5-7.68-1.728-16.51.706-22-3-0.8-1.021-.35-0.274-1-2,9.15-9.677,14.3-24.031,22-35,15.07-21.465,33.35-40.294,49-61,7.21-9.545,21.29-21.666,31-29q4.995-5.5,10-11c12.04-9.11,22.76-18.943,35-28,23.01-17.028,45.31-36.382,70-52,53.38-33.77,114.89-60.441,180-82,32.34-10.708,66.74-16.277,101-25,14.02-3.571,28.68-3.812,42-7l69-8,81-5C2343.5,118.924,2359.64,124.615,2367,120ZM1544,599h151c22.73,0,54.64-3.419,75,1h35l84,4c13.15,2.917,28.07.834,42,4l124,18c34.18,8.547,72.21,11.388,106,20l22,3c32.73,8.44,67.55,10.977,101,20,20.27,5.468,41.9,7.063,63,13,59.85,16.84,123.97,25.375,183,42,17.51,4.932,33.53,6.039,51,11,55.49,15.754,114.23,28.463,167,46,50.12,16.655,91.57,34.024,117,75,11.54,18.6,16.33,37.637,22,63q1.995,35,4,70v51c2.58,11.97,1,29.28,1,43v84q0.495,124.485,1,249-0.495,104.49-1,209c0,21.74,3.3,49.23-1,69-3.01,13.83,1.74,31.42-1,44q-0.495,22.995-1,46c-3.1,14.23-.66,30.4-4,45-6.69,29.23-11.11,52.16-26,72-5.3,7.06-13.89,13.63-21,19-11.97,9.04-21.65,20.85-35,29-28.71,17.53-66.01,21.65-101,33-61.56,19.97-128.98,31.26-192,49-13.52,3.81-25.49,4.16-39,8-81.76,23.21-169.74,34.52-254,56-27.04,6.89-54.79,8.35-81,15q-65.49,10.5-131,21-71.49,8.505-143,17l-48,3c-28.04,6.08-62.07-.33-91,6h-44c-11.74,2.49-34.27,2.54-46,0-13.19-2.86-30.05,1.59-42-1h-24q-45.99-3.495-92-7c-39.29-8.89-81.76-7.17-120-17-24.01-6.18-49.71-8.1-74-15-48.44-13.76-98.23-24.81-144-40-71.24-23.64-140.855-44.99-207-73-18.217-7.71-35.217-14.42-52-23-3.105-1.59-15.556-4.94-17-7V774c93.743-40.01,190.06-74.373,291-108,53.85-17.941,111.06-27.228,167-43,31.5-8.882,65.3-9.414,98-17,14.74-3.42,30.82-.8,45-4Zm-43,322c-4.25,2.471-12.27-.307-18,1-10.74,2.449-22.8,1.24-34,4-30.73,7.572-60.84,11.784-88,23-129.77,53.59-212.5,133.84-266,264-11.64,28.32-16.17,60.11-24,92q-1.5,15.495-3,31c-9.78,44.5.17,119.6,11,155,7.99,26.1,13.85,48.89,24,72,41.45,94.33,123.56,176.49,218,218a711.4,711.4,0,0,0,92,33c17.92,5.09,35.32,3.66,55,8,10.11,2.23,44.83,5.75,57,3l48-3c30.58-7.06,60.61-8.86,88-18,85.66-28.6,162.28-87.14,211-153,20.07-27.14,41.54-55.18,56-88,14.52-32.96,24.04-67.59,34-106,3.7-14.27,1.67-27.68,5-43,3.2-14.72,4.57-49.2,1-65-3.44-15.25-.37-30.64-4-45-8.51-33.71-14.87-65.46-27-94-37.46-88.12-89.47-153.36-163-205C1703.21,955.282,1622.06,921.326,1501,921ZM2751,2094c11.19,3.08,31.07,26.51,41,34,28.71,21.66,55.44,46.17,85,67,57.15,40.27,116.69,77.97,177,115,30.23,18.56,62.69,32.43,93,51,11.96,7.33,23.52,16.38,35,24-9.01,20.02-46.61,43.08-65,56-28.98,20.36-59.04,40.14-90,59-6.42,3.91-13.32,5.53-20,9-22.65,11.77-47.75,22.97-72,33-10.27,4.25-19.61,5.73-30,10-33.26,13.66-71.35,22.68-108,33-21.07,5.93-43.17,7.7-64,13l-89,12-82,6h-25c-14.72,3.17-35.46.92-52,1-7.92.04-15.85,1.57-23,0h-24c-14.02,0-31.76,1.68-44-1-9.69-2.12-22.56.85-31-1q-31.5-1.005-63-2c-17.94-3.99-38.2.22-57-4-12.83-2.88-27.25-.85-41-4-26.52-6.08-54.38-5.78-80-13-47.49-13.39-94.15-23.22-137-41-145.22-60.24-263.08-148.71-343-274q67.995-4.005,136-8h18c28.02-6.17,60.6-1.94,88-8l40-3c41.32-9.39,86.85-8.38,127-18,15.54-3.72,29.54-2.25,45-6,40.07-9.73,83.74-12.99,123-23,19.42-4.95,37.74-4.8,57-10,64.2-17.35,132.76-25.3,196-43,12.53-3.51,23.49-3.45,36-7,54.94-15.57,114.08-24.59,169-40,17.63-4.95,35.41-7.35,52-12C2736.27,2096.96,2745.52,2097.96,2751,2094Z"/></g>
</svg>
