<svg width="150" height="150" viewBox="0 0 150 150" fill="none" xmlns="http://www.w3.org/2000/svg">
<path d="M112.26 36.5142C101.053 34.7007 88.2909 33.733 75.0001 33.733C62.8366 33.733 51.1178 34.5423 40.6299 36.0681C40.6323 35.9048 40.6347 35.7415 40.6419 35.5782C40.9199 26.0988 44.8437 17.1057 51.5746 10.521C58.3054 3.93639 67.3094 0.282556 76.662 0.340492C86.0146 0.398428 94.9739 4.16354 101.625 10.8311C108.276 17.4986 112.091 26.5397 112.255 36.0218C112.257 36.1875 112.26 36.3509 112.26 36.5142Z" fill="#23D997"/>
<g opacity="0.1">
<path opacity="0.1" d="M81.1418 0.326913C76.1675 -0.354372 71.1075 0.0317603 66.2898 1.46028C61.4721 2.88881 57.0041 5.32784 53.1756 8.61931C49.347 11.9108 46.2432 15.9812 44.0653 20.5669C41.8874 25.1525 40.6841 30.151 40.5333 35.2384C40.5261 35.4017 40.5237 35.565 40.5214 35.7283C43.6372 35.275 46.8639 34.8865 50.1764 34.5621C50.5816 26.0868 53.9002 18.0227 59.5564 11.7692C65.2126 5.51574 72.8495 1.46748 81.1418 0.326913V0.326913Z" fill="white"/>
</g>
<path d="M127.928 39.3953C122.769 37.9772 117.537 36.851 112.255 36.0218C103.598 34.6615 94.8698 33.811 86.1154 33.4747C82.4687 33.3235 78.7548 33.2455 75 33.2455C72.0241 33.2455 69.0721 33.2943 66.161 33.3918C57.6216 33.6476 49.1025 34.3775 40.6418 35.5782C34.3788 36.4527 28.1765 37.7276 22.0721 39.3953C7.8389 43.3854 0 48.7332 0 54.4515C0 60.1698 7.83891 65.5176 22.0721 69.5077C32.0817 72.3156 44.423 74.2291 57.8702 75.1065C63.4207 75.4722 69.1587 75.6574 75 75.6574C80.8605 75.6574 86.6178 75.4697 92.1851 75.1041C104.423 74.3022 115.745 72.6423 125.221 70.2292C125.272 70.2145 125.32 70.2024 125.37 70.1902C126.01 70.0293 126.639 69.8611 127.262 69.6929C127.486 69.6296 127.707 69.5686 127.928 69.5077C127.94 69.5025 127.953 69.4984 127.966 69.4955C128.178 69.437 128.387 69.3761 128.596 69.3176C129.014 69.1957 129.428 69.0763 129.834 68.9519C129.853 68.9471 129.87 68.9422 129.887 68.9373C130.24 68.8301 130.587 68.7228 130.93 68.6156C131.211 68.5254 131.49 68.4376 131.767 68.3475C131.969 68.2816 132.168 68.2158 132.365 68.15C132.51 68.1013 132.651 68.055 132.791 68.0062C132.981 67.9428 133.171 67.877 133.358 67.8112C133.438 67.7844 133.517 67.7576 133.594 67.7283C133.774 67.6674 133.95 67.604 134.125 67.5407C134.315 67.4724 134.505 67.4017 134.692 67.3335C134.849 67.2774 135.005 67.2189 135.159 67.1604C135.288 67.1092 135.416 67.0605 135.546 67.0117C135.899 66.8777 136.245 66.7387 136.587 66.6022C136.757 66.5315 136.928 66.4633 137.096 66.3926C137.262 66.3244 137.43 66.2537 137.594 66.183C137.863 66.0684 138.127 65.9539 138.387 65.8393C138.512 65.7808 138.639 65.7247 138.762 65.6711C138.856 65.6273 138.947 65.5858 139.041 65.5419C139.108 65.5127 139.176 65.481 139.24 65.4493C139.483 65.3372 139.724 65.2226 139.959 65.1081C140.863 64.6693 141.707 64.2208 142.49 63.7626C147.406 60.9083 150 57.7421 150 54.4515C150 48.7332 142.161 43.3854 127.928 39.3953ZM127.798 69.0397C117.776 71.8501 105.402 73.7635 91.9182 74.6337C86.4351 74.9871 80.7669 75.1699 75 75.1699C69.2524 75.1699 63.6033 74.9895 58.137 74.6361C44.6322 73.7684 32.2379 71.855 22.2019 69.0397C8.19468 65.1105 0.480769 59.9309 0.480769 54.4515C0.481552 53.9673 0.541317 53.4851 0.65871 53.0158C1.88458 48.0726 9.42547 43.4463 22.2019 39.8633C28.2602 38.2085 34.4149 36.941 40.6298 36.0681C49.1414 34.8606 57.712 34.1283 66.3028 33.8744C69.1683 33.7793 72.0674 33.7322 75 33.733C78.7044 33.733 82.3678 33.8086 85.9687 33.9548C94.774 34.2882 103.553 35.1428 112.26 36.5142C117.496 37.3397 122.683 38.4578 127.798 39.8633C140.572 43.4463 148.111 48.0702 149.339 53.0109C149.458 53.4816 149.519 53.9655 149.519 54.4515C149.519 59.9309 141.805 65.1105 127.798 69.0397V69.0397Z" fill="#23D997"/>
<path d="M149.863 54.6733C149.863 57.9297 147.216 61.0107 142.49 63.7626C141.704 64.2208 140.858 64.6693 139.959 65.108C139.724 65.2226 139.483 65.3371 139.24 65.4493C139.175 65.481 139.108 65.5126 139.041 65.5419C138.947 65.5858 138.856 65.6272 138.762 65.6711C138.639 65.7247 138.512 65.7808 138.387 65.8393C138.127 65.9538 137.863 66.0684 137.594 66.1829C137.43 66.2536 137.262 66.3243 137.096 66.3926C136.928 66.4632 136.757 66.5315 136.587 66.6022C136.245 66.7387 135.899 66.8776 135.546 67.0117C135.416 67.0604 135.288 67.1092 135.159 67.1604C135.005 67.2189 134.849 67.2774 134.692 67.3334C134.505 67.4017 134.315 67.4724 134.125 67.5406C133.949 67.604 133.774 67.6673 133.594 67.7283C133.517 67.7575 133.437 67.7843 133.358 67.8112C133.171 67.877 132.981 67.9428 132.791 68.0062C132.651 68.0549 132.51 68.1012 132.365 68.15C132.168 68.2158 131.969 68.2816 131.767 68.3474C131.49 68.4376 131.211 68.5253 130.93 68.6155C130.587 68.7228 130.24 68.83 129.887 68.9373C129.87 68.9421 129.853 68.947 129.834 68.9519C129.428 69.0762 129.014 69.1956 128.596 69.3175C128.387 69.376 128.178 69.4369 127.966 69.4954C127.953 69.4984 127.94 69.5025 127.928 69.5076C127.707 69.5686 127.485 69.6295 127.262 69.6929C126.642 69.8586 126.01 70.0268 125.37 70.1901C125.32 70.2023 125.272 70.2145 125.221 70.2291C116.002 72.5642 104.692 74.2656 92.1755 75.087C86.6923 75.4453 80.9759 75.6354 75.1034 75.6354C69.1779 75.6354 63.4134 75.4429 57.887 75.0772C24.8965 72.8957 0.34375 64.5888 0.34375 54.6732C0.346347 54.0699 0.437045 53.4703 0.612892 52.8939C0.627329 52.9353 0.641764 52.9743 0.658668 53.0158C4.08884 62.1514 28.4327 69.5344 60.0192 71.3357C64.8581 71.6136 69.8702 71.7574 75 71.7574C80.1514 71.7574 85.1826 71.6112 90.0408 71.3333C121.601 69.5247 145.921 62.1392 149.339 53.0109C149.397 52.8646 149.447 52.7184 149.49 52.5721C149.734 53.2452 149.86 53.9562 149.863 54.6733V54.6733Z" fill="#23D997"/>
<path d="M22.0359 52.0496C18.0352 52.0496 13.7833 51.1768 13.7833 49.5593C13.7833 47.9417 18.0353 47.069 22.0359 47.069C26.0365 47.069 30.2885 47.9417 30.2885 49.5593C30.2885 51.1768 26.0365 52.0496 22.0359 52.0496ZM22.0359 47.5565C17.4558 47.5565 14.2641 48.612 14.2641 49.5593C14.2641 50.5065 17.4559 51.5621 22.0359 51.5621C26.6159 51.5621 29.8077 50.5065 29.8077 49.5593C29.8077 48.612 26.6159 47.5565 22.0359 47.5565V47.5565Z" fill="#23D997"/>
<path d="M39.1031 63.5057C35.1025 63.5057 30.8506 62.6329 30.8506 61.0154C30.8506 59.3978 35.1025 58.5251 39.1031 58.5251C43.1038 58.5251 47.3557 59.3978 47.3557 61.0154C47.3557 62.6329 43.1038 63.5057 39.1031 63.5057ZM39.1031 59.0125C34.5231 59.0125 31.3314 60.0681 31.3314 61.0154C31.3314 61.9626 34.5231 63.0182 39.1031 63.0182C43.6831 63.0182 46.875 61.9626 46.875 61.0154C46.875 60.0681 43.6832 59.0125 39.1031 59.0125V59.0125Z" fill="#23D997"/>
<path d="M127.805 52.0496C123.804 52.0496 119.552 51.1768 119.552 49.5593C119.552 47.9417 123.804 47.069 127.805 47.069C131.806 47.069 136.058 47.9417 136.058 49.5593C136.058 51.1768 131.806 52.0496 127.805 52.0496ZM127.805 47.5565C123.225 47.5565 120.033 48.612 120.033 49.5593C120.033 50.5065 123.225 51.5621 127.805 51.5621C132.385 51.5621 135.577 50.5065 135.577 49.5593C135.577 48.612 132.385 47.5565 127.805 47.5565V47.5565Z" fill="#23D997"/>
<path d="M110.738 63.5057C106.737 63.5057 102.485 62.6329 102.485 61.0154C102.485 59.3978 106.737 58.5251 110.738 58.5251C114.739 58.5251 118.99 59.3978 118.99 61.0154C118.99 62.6329 114.739 63.5057 110.738 63.5057ZM110.738 59.0125C106.158 59.0125 102.966 60.0681 102.966 61.0154C102.966 61.9626 106.158 63.0182 110.738 63.0182C115.318 63.0182 118.51 61.9626 118.51 61.0154C118.51 60.0681 115.318 59.0125 110.738 59.0125V59.0125Z" fill="#23D997"/>
<path d="M74.9205 68.868C70.9199 68.868 66.668 67.9953 66.668 66.3777C66.668 64.7602 70.9199 63.8874 74.9205 63.8874C78.9212 63.8874 83.1731 64.7602 83.1731 66.3777C83.1731 67.9953 78.9212 68.868 74.9205 68.868ZM74.9205 64.3749C70.3405 64.3749 67.1487 65.4305 67.1487 66.3777C67.1487 67.325 70.3405 68.3806 74.9205 68.3806C79.5006 68.3806 82.6923 67.325 82.6923 66.3777C82.6923 65.4305 79.5006 64.3749 74.9205 64.3749V64.3749Z" fill="#23D997"/>
<path d="M63.9423 120.75C63.8148 120.75 63.6925 120.699 63.6024 120.608C63.5122 120.516 63.4616 120.392 63.4615 120.263V91.5009C63.4615 91.3716 63.5122 91.2476 63.6024 91.1562C63.6925 91.0648 63.8148 91.0134 63.9423 91.0134C64.0698 91.0134 64.1921 91.0648 64.2823 91.1562C64.3724 91.2476 64.4231 91.3716 64.4231 91.5009V120.263C64.4231 120.392 64.3724 120.516 64.2823 120.608C64.1921 120.699 64.0698 120.75 63.9423 120.75Z" fill="#CCCCCC"/>
<path d="M56.7308 146.588C56.6033 146.588 56.481 146.536 56.3908 146.445C56.3007 146.353 56.25 146.229 56.25 146.1V125.138C56.25 125.009 56.3007 124.885 56.3908 124.793C56.481 124.702 56.6033 124.65 56.7308 124.65C56.8583 124.65 56.9806 124.702 57.0707 124.793C57.1609 124.885 57.2115 125.009 57.2115 125.138V146.1C57.2115 146.229 57.1609 146.353 57.0707 146.445C56.9806 146.536 56.8583 146.588 56.7308 146.588V146.588Z" fill="#CCCCCC"/>
<path d="M75.2403 129.282C75.1128 129.282 74.9905 129.23 74.9003 129.139C74.8102 129.047 74.7595 128.923 74.7595 128.794V100.032C74.7595 99.9027 74.8102 99.7787 74.9003 99.6873C74.9905 99.5959 75.1128 99.5445 75.2403 99.5445C75.3678 99.5445 75.4901 99.5959 75.5802 99.6873C75.6704 99.7787 75.7211 99.9027 75.7211 100.032V128.794C75.7211 128.923 75.6704 129.047 75.5802 129.139C75.4901 129.23 75.3678 129.282 75.2403 129.282Z" fill="#CCCCCC"/>
<path d="M68.2692 150C68.1417 150 68.0194 149.949 67.9293 149.857C67.8391 149.766 67.7885 149.642 67.7885 149.512V137.813C67.7885 137.683 67.8391 137.559 67.9293 137.468C68.0194 137.377 68.1417 137.325 68.2692 137.325C68.3967 137.325 68.519 137.377 68.6092 137.468C68.6993 137.559 68.75 137.683 68.75 137.813V149.512C68.75 149.642 68.6993 149.766 68.6092 149.857C68.519 149.949 68.3967 150 68.2692 150V150Z" fill="#CCCCCC"/>
<path d="M78.1251 90.0384C77.9976 90.0384 77.8753 89.987 77.7851 89.8956C77.6949 89.8042 77.6443 89.6802 77.6443 89.5509V77.8511C77.6443 77.7218 77.6949 77.5978 77.7851 77.5064C77.8753 77.4149 77.9975 77.3636 78.1251 77.3636C78.2526 77.3636 78.3748 77.4149 78.465 77.5064C78.5552 77.5978 78.6058 77.7218 78.6058 77.8511V89.5509C78.6058 89.6802 78.5552 89.8042 78.465 89.8956C78.3748 89.987 78.2526 90.0384 78.1251 90.0384V90.0384Z" fill="#CCCCCC"/>
<path d="M54.0865 95.157C53.959 95.157 53.8367 95.1057 53.7465 95.0142C53.6564 94.9228 53.6057 94.7988 53.6057 94.6695V82.9698C53.6057 82.8405 53.6564 82.7165 53.7465 82.6251C53.8367 82.5336 53.959 82.4823 54.0865 82.4823C54.214 82.4823 54.3363 82.5336 54.4264 82.6251C54.5166 82.7165 54.5673 82.8405 54.5673 82.9698V94.6695C54.5672 94.7988 54.5166 94.9228 54.4264 95.0142C54.3363 95.1057 54.214 95.157 54.0865 95.157V95.157Z" fill="#CCCCCC"/>
<path d="M95.9134 96.3758C95.7859 96.3758 95.6636 96.3244 95.5734 96.233C95.4833 96.1416 95.4326 96.0176 95.4326 95.8883V84.1885C95.4326 84.0592 95.4833 83.9352 95.5734 83.8438C95.6636 83.7523 95.7859 83.701 95.9134 83.701C96.0409 83.701 96.1632 83.7523 96.2533 83.8438C96.3435 83.9352 96.3941 84.0592 96.3941 84.1885V95.8883C96.3941 96.0176 96.3435 96.1416 96.2533 96.233C96.1632 96.3244 96.0409 96.3758 95.9134 96.3758Z" fill="#CCCCCC"/>
<path d="M94.952 132.938C94.8245 132.938 94.7022 132.886 94.612 132.795C94.5219 132.704 94.4712 132.58 94.4712 132.45V118.313C94.4712 118.184 94.5218 118.06 94.612 117.968C94.7022 117.877 94.8245 117.825 94.952 117.825C95.0795 117.825 95.2018 117.877 95.2919 117.968C95.3821 118.06 95.4327 118.184 95.4327 118.313V132.45C95.4327 132.58 95.3821 132.704 95.2919 132.795C95.2018 132.886 95.0795 132.938 94.952 132.938Z" fill="#CCCCCC"/>
<path d="M85.3366 145.369C85.2091 145.369 85.0868 145.317 84.9967 145.226C84.9065 145.135 84.8558 145.011 84.8558 144.881V123.919C84.8558 123.79 84.9065 123.666 84.9966 123.574C85.0868 123.483 85.2091 123.432 85.3366 123.432C85.4641 123.432 85.5864 123.483 85.6765 123.574C85.7667 123.666 85.8174 123.79 85.8174 123.919V144.881C85.8174 145.011 85.7667 145.135 85.6765 145.226C85.5864 145.317 85.4641 145.369 85.3366 145.369Z" fill="#CCCCCC"/>
<path d="M87.2597 109.538C87.1322 109.538 87.0099 109.487 86.9198 109.395C86.8296 109.304 86.7789 109.18 86.7789 109.051V80.2885C86.7789 80.1593 86.8296 80.0353 86.9197 79.9438C87.0099 79.8524 87.1322 79.8011 87.2597 79.8011C87.3872 79.8011 87.5095 79.8524 87.5996 79.9438C87.6898 80.0353 87.7405 80.1593 87.7405 80.2885V109.051C87.7405 109.18 87.6898 109.304 87.5996 109.395C87.5095 109.487 87.3872 109.538 87.2597 109.538Z" fill="#CCCCCC"/>
</svg>
