<svg width="150" height="150" viewBox="0 0 150 150" fill="none" xmlns="http://www.w3.org/2000/svg">
<g clip-path="url(#clip0)">
<path d="M104.159 30.4317C93.7607 28.9203 81.9196 28.1139 69.5878 28.1139C58.3021 28.1139 47.429 28.7883 37.6979 30.06C37.7002 29.9238 37.7023 29.7878 37.709 29.6516C37.967 21.7513 41.6076 14.2563 47.8528 8.76847C54.0979 3.28067 62.4521 0.235483 71.1298 0.283769C79.8075 0.332054 88.1203 3.46998 94.2914 9.02687C100.462 14.5838 104.002 22.1188 104.154 30.0214C104.157 30.1595 104.159 30.2956 104.159 30.4317Z" fill="#23D997"/>
<g opacity="0.1">
<path opacity="0.1" d="M75.2865 0.272451C70.6711 -0.295347 65.9763 0.0264647 61.5062 1.21703C57.0362 2.40759 52.8906 4.44034 49.3383 7.18352C45.786 9.92671 42.9062 13.3191 40.8855 17.1409C38.8648 20.9627 37.7483 25.1285 37.6084 29.3684C37.6016 29.5045 37.5995 29.6406 37.5973 29.7768C40.4883 29.3989 43.4821 29.0752 46.5556 28.8049C46.9315 21.7413 50.0107 15.0205 55.2587 9.80874C60.5068 4.59694 67.5925 1.22302 75.2865 0.272451V0.272451Z" fill="white"/>
</g>
<path d="M118.696 32.8329C113.91 31.6511 109.055 30.7125 104.154 30.0214C96.1217 28.8877 88.0237 28.1789 79.9011 27.8985C76.5176 27.7726 73.0717 27.7076 69.5878 27.7076C66.8266 27.7076 64.0877 27.7482 61.3867 27.8295C53.4635 28.0427 45.5591 28.651 37.709 29.6517C31.8979 30.3805 26.1432 31.443 20.4793 32.8329C7.27323 36.1584 0 40.6153 0 45.3811C0 50.1468 7.27323 54.6038 20.4793 57.9293C29.7666 60.2695 41.2174 61.8642 53.6942 62.5955C58.8441 62.9002 64.168 63.0546 69.5878 63.0546C75.0254 63.0546 80.3673 62.8982 85.5328 62.5934C96.8876 61.9251 107.393 60.5417 116.185 58.5306C116.232 58.5184 116.276 58.5082 116.323 58.4981C116.917 58.364 117.501 58.2238 118.079 58.0836C118.286 58.0308 118.491 57.98 118.696 57.9293C118.708 57.925 118.72 57.9216 118.732 57.9191C118.928 57.8703 119.122 57.8196 119.316 57.7708C119.704 57.6692 120.088 57.5697 120.465 57.4661C120.483 57.462 120.498 57.458 120.514 57.4539C120.842 57.3645 121.163 57.2751 121.482 57.1858C121.743 57.1106 122.002 57.0375 122.258 56.9623C122.446 56.9074 122.631 56.8526 122.814 56.7978C122.947 56.7571 123.079 56.7185 123.208 56.6779C123.385 56.6251 123.561 56.5702 123.735 56.5154C123.808 56.493 123.882 56.4707 123.953 56.4463C124.121 56.3955 124.283 56.3427 124.446 56.2899C124.622 56.233 124.799 56.1741 124.973 56.1172C125.118 56.0705 125.263 56.0217 125.405 55.973C125.526 55.9303 125.644 55.8897 125.764 55.8491C126.092 55.7373 126.413 55.6215 126.73 55.5078C126.889 55.4489 127.047 55.392 127.203 55.3331C127.357 55.2762 127.513 55.2173 127.665 55.1584C127.914 55.0629 128.16 54.9674 128.401 54.8719C128.517 54.8232 128.635 54.7765 128.749 54.7318C128.836 54.6952 128.92 54.6607 129.007 54.6241C129.07 54.5997 129.132 54.5733 129.193 54.5469C129.418 54.4535 129.641 54.358 129.859 54.2625C130.698 53.8969 131.481 53.5231 132.208 53.1412C136.769 50.7624 139.176 48.1235 139.176 45.3811C139.176 40.6153 131.902 36.1584 118.696 32.8329ZM118.576 57.5392C109.277 59.8815 97.7955 61.4762 85.2852 62.2014C80.1977 62.4959 74.9386 62.6483 69.5878 62.6483C64.255 62.6483 59.0136 62.498 53.9417 62.2034C41.4114 61.4802 29.9116 59.8855 20.5997 57.5392C7.60333 54.2645 0.446076 49.9477 0.446076 45.3811C0.446802 44.9776 0.502255 44.5757 0.611176 44.1846C1.74858 40.0648 8.74531 36.2091 20.5997 33.2229C26.2209 31.8439 31.9315 30.7875 37.6979 30.06C45.5952 29.0536 53.5474 28.4433 61.5183 28.2317C64.177 28.1525 66.8668 28.1132 69.5878 28.1139C73.0249 28.1139 76.4239 28.1768 79.765 28.2987C87.9349 28.5766 96.08 29.2888 104.159 30.4317C109.017 31.1197 113.83 32.0516 118.576 33.2229C130.428 36.2091 137.423 40.0628 138.562 44.1805C138.673 44.5727 138.729 44.9761 138.73 45.3811C138.73 49.9477 131.572 54.2645 118.576 57.5392V57.5392Z" fill="#23D997"/>
<path d="M139.049 45.5659C139.049 48.2799 136.593 50.8476 132.208 53.1411C131.479 53.5231 130.694 53.8968 129.859 54.2625C129.641 54.358 129.418 54.4534 129.193 54.5469C129.132 54.5733 129.07 54.5997 129.007 54.6241C128.92 54.6607 128.836 54.6952 128.749 54.7318C128.635 54.7764 128.517 54.8232 128.401 54.8719C128.16 54.9674 127.914 55.0629 127.665 55.1583C127.513 55.2173 127.357 55.2762 127.203 55.333C127.047 55.392 126.889 55.4488 126.73 55.5077C126.413 55.6215 126.092 55.7373 125.764 55.849C125.644 55.8897 125.526 55.9303 125.405 55.973C125.263 56.0217 125.118 56.0705 124.973 56.1172C124.799 56.1741 124.622 56.233 124.446 56.2899C124.283 56.3427 124.121 56.3955 123.953 56.4463C123.882 56.4707 123.808 56.493 123.735 56.5153C123.561 56.5702 123.385 56.625 123.208 56.6779C123.079 56.7185 122.947 56.7571 122.814 56.7977C122.631 56.8526 122.446 56.9074 122.258 56.9623C122.002 57.0374 121.743 57.1106 121.482 57.1857C121.163 57.2751 120.842 57.3645 120.514 57.4539C120.498 57.4579 120.483 57.462 120.465 57.4661C120.088 57.5697 119.704 57.6692 119.316 57.7708C119.122 57.8195 118.928 57.8703 118.732 57.9191C118.72 57.9215 118.708 57.9249 118.696 57.9292C118.491 57.98 118.286 58.0308 118.079 58.0836C117.503 58.2217 116.916 58.3619 116.323 58.498C116.276 58.5082 116.232 58.5183 116.185 58.5305C107.631 60.4766 97.1374 61.8946 85.5239 62.5792C80.4364 62.8778 75.1325 63.0363 69.6838 63.0363C64.1859 63.0363 58.8373 62.8758 53.7098 62.5711C23.1 60.7529 0.31897 53.8298 0.31897 45.5659C0.32138 45.0631 0.405532 44.5633 0.568689 44.083C0.582085 44.1175 0.595478 44.15 0.611162 44.1845C3.79381 51.7983 26.381 57.9516 55.6881 59.4528C60.1779 59.6844 64.8282 59.8042 69.5878 59.8042C74.3676 59.8042 79.0357 59.6824 83.5433 59.4508C112.826 57.9434 135.391 51.7882 138.562 44.1805C138.616 44.0586 138.663 43.9367 138.703 43.8148C138.929 44.3758 139.046 44.9683 139.049 45.5659V45.5659Z" fill="#23D997"/>
<path d="M20.4457 43.3793C16.7338 43.3793 12.7887 42.6519 12.7887 41.3038C12.7887 39.9557 16.7338 39.2283 20.4457 39.2283C24.1577 39.2283 28.1028 39.9557 28.1028 41.3038C28.1028 42.6519 24.1577 43.3793 20.4457 43.3793ZM20.4457 39.6346C16.1962 39.6346 13.2348 40.5143 13.2348 41.3038C13.2348 42.0933 16.1962 42.973 20.4457 42.973C24.6953 42.973 27.6567 42.0933 27.6567 41.3038C27.6567 40.5143 24.6953 39.6346 20.4457 39.6346V39.6346Z" fill="#23D997"/>
<path d="M36.2814 52.927C32.5695 52.927 28.6244 52.1997 28.6244 50.8516C28.6244 49.5035 32.5695 48.7761 36.2814 48.7761C39.9934 48.7761 43.9385 49.5035 43.9385 50.8516C43.9385 52.1997 39.9934 52.927 36.2814 52.927ZM36.2814 49.1824C32.0319 49.1824 29.0705 50.0621 29.0705 50.8516C29.0705 51.641 32.0319 52.5207 36.2814 52.5207C40.5309 52.5207 43.4924 51.641 43.4924 50.8516C43.4924 50.0621 40.5309 49.1824 36.2814 49.1824V49.1824Z" fill="#23D997"/>
<path d="M118.582 43.3793C114.87 43.3793 110.925 42.6519 110.925 41.3038C110.925 39.9557 114.87 39.2283 118.582 39.2283C122.294 39.2283 126.239 39.9557 126.239 41.3038C126.239 42.6519 122.294 43.3793 118.582 43.3793ZM118.582 39.6346C114.333 39.6346 111.371 40.5143 111.371 41.3038C111.371 42.0933 114.333 42.973 118.582 42.973C122.832 42.973 125.793 42.0933 125.793 41.3038C125.793 40.5143 122.832 39.6346 118.582 39.6346V39.6346Z" fill="#23D997"/>
<path d="M102.747 52.927C99.0348 52.927 95.0897 52.1997 95.0897 50.8516C95.0897 49.5035 99.0348 48.7761 102.747 48.7761C106.459 48.7761 110.404 49.5035 110.404 50.8516C110.404 52.1997 106.459 52.927 102.747 52.927ZM102.747 49.1824C98.4972 49.1824 95.5358 50.0621 95.5358 50.8516C95.5358 51.641 98.4972 52.5207 102.747 52.5207C106.996 52.5207 109.958 51.641 109.958 50.8516C109.958 50.0621 106.996 49.1824 102.747 49.1824V49.1824Z" fill="#23D997"/>
<path d="M69.5141 57.3962C65.8021 57.3962 61.8571 56.6688 61.8571 55.3207C61.8571 53.9726 65.8022 53.2452 69.5141 53.2452C73.2261 53.2452 77.1711 53.9726 77.1711 55.3207C77.1711 56.6688 73.2261 57.3962 69.5141 57.3962ZM69.5141 53.6515C65.2645 53.6515 62.3031 54.5312 62.3031 55.3207C62.3031 56.1102 65.2645 56.9899 69.5141 56.9899C73.7636 56.9899 76.7251 56.1102 76.7251 55.3207C76.7251 54.5312 73.7636 53.6515 69.5141 53.6515V53.6515Z" fill="#23D997"/>
<path d="M59.328 100.636C59.2097 100.636 59.0963 100.593 59.0126 100.517C58.929 100.441 58.882 100.338 58.882 100.23V76.2589C58.882 76.1511 58.9289 76.0478 59.0126 75.9716C59.0963 75.8954 59.2097 75.8526 59.328 75.8526C59.4463 75.8526 59.5598 75.8954 59.6434 75.9716C59.7271 76.0478 59.7741 76.1511 59.7741 76.2589V100.23C59.7741 100.338 59.7271 100.441 59.6434 100.517C59.5598 100.593 59.4463 100.636 59.328 100.636Z" fill="#CCCCCC"/>
<path d="M52.637 122.169C52.5187 122.169 52.4052 122.127 52.3216 122.05C52.2379 121.974 52.1909 121.871 52.1909 121.763V104.293C52.1909 104.185 52.2379 104.082 52.3216 104.005C52.4052 103.929 52.5187 103.886 52.637 103.886C52.7553 103.886 52.8688 103.929 52.9524 104.005C53.0361 104.082 53.0831 104.185 53.0831 104.293V121.763C53.0831 121.871 53.0361 121.974 52.9524 122.05C52.8688 122.127 52.7553 122.169 52.637 122.169V122.169Z" fill="#CCCCCC"/>
<path d="M69.8108 107.746C69.6925 107.746 69.5791 107.703 69.4954 107.627C69.4118 107.551 69.3648 107.448 69.3647 107.34V83.3689C69.3647 83.2611 69.4117 83.1578 69.4954 83.0816C69.579 83.0054 69.6925 82.9626 69.8108 82.9626C69.9291 82.9626 70.0426 83.0054 70.1262 83.0816C70.2099 83.1578 70.2569 83.2611 70.2569 83.3689V107.34C70.2569 107.448 70.2099 107.551 70.1262 107.627C70.0426 107.703 69.9291 107.746 69.8108 107.746Z" fill="#CCCCCC"/>
<path d="M63.3428 125.013C63.2245 125.013 63.111 124.971 63.0274 124.894C62.9437 124.818 62.8967 124.715 62.8967 124.607V114.856C62.8967 114.748 62.9437 114.645 63.0274 114.569C63.111 114.493 63.2245 114.45 63.3428 114.45C63.4611 114.45 63.5746 114.493 63.6582 114.569C63.7419 114.645 63.7889 114.748 63.7889 114.856V124.607C63.7889 124.715 63.7419 124.818 63.6582 124.894C63.5746 124.971 63.4611 125.013 63.3428 125.013V125.013Z" fill="#CCCCCC"/>
<path d="M72.4873 75.04C72.369 75.04 72.2556 74.9972 72.1719 74.921C72.0883 74.8448 72.0413 74.7415 72.0413 74.6337V64.8828C72.0413 64.7751 72.0882 64.6717 72.1719 64.5955C72.2556 64.5194 72.369 64.4765 72.4873 64.4765C72.6056 64.4765 72.7191 64.5194 72.8028 64.5955C72.8864 64.6717 72.9334 64.7751 72.9334 64.8828V74.6337C72.9334 74.7415 72.8864 74.8448 72.8028 74.921C72.7191 74.9972 72.6056 75.04 72.4873 75.04V75.04Z" fill="#CCCCCC"/>
<path d="M50.1835 79.306C50.0652 79.306 49.9517 79.2632 49.8681 79.187C49.7844 79.1108 49.7374 79.0075 49.7374 78.8997V69.1489C49.7374 69.0411 49.7844 68.9378 49.8681 68.8616C49.9517 68.7854 50.0652 68.7426 50.1835 68.7426C50.3018 68.7426 50.4153 68.7854 50.4989 68.8616C50.5826 68.9378 50.6296 69.0411 50.6296 69.1489V78.8997C50.6296 79.0075 50.5826 79.1108 50.4989 79.187C50.4153 79.2632 50.3018 79.306 50.1835 79.306V79.306Z" fill="#CCCCCC"/>
<path d="M88.9921 80.3218C88.8738 80.3217 88.7603 80.2789 88.6767 80.2027C88.593 80.1266 88.546 80.0232 88.546 79.9155V70.1646C88.546 70.0568 88.593 69.9535 88.6767 69.8773C88.7603 69.8011 88.8738 69.7583 88.9921 69.7583C89.1104 69.7583 89.2239 69.8011 89.3075 69.8773C89.3912 69.9535 89.4382 70.0568 89.4382 70.1646V79.9155C89.4382 80.0232 89.3912 80.1266 89.3075 80.2027C89.2239 80.2789 89.1104 80.3217 88.9921 80.3218Z" fill="#CCCCCC"/>
<path d="M88.1 110.793C87.9817 110.793 87.8682 110.75 87.7846 110.674C87.7009 110.598 87.6539 110.495 87.6539 110.387V98.6047C87.6539 98.4969 87.7009 98.3936 87.7846 98.3174C87.8682 98.2412 87.9817 98.1984 88.1 98.1984C88.2183 98.1984 88.3318 98.2412 88.4154 98.3174C88.4991 98.3936 88.5461 98.4969 88.5461 98.6047V110.387C88.5461 110.495 88.4991 110.598 88.4154 110.674C88.3318 110.75 88.2183 110.793 88.1 110.793Z" fill="#CCCCCC"/>
<path d="M79.1785 121.154C79.0602 121.154 78.9467 121.111 78.8631 121.035C78.7794 120.958 78.7324 120.855 78.7324 120.747V103.277C78.7324 103.169 78.7794 103.066 78.8631 102.99C78.9467 102.914 79.0602 102.871 79.1785 102.871C79.2968 102.871 79.4103 102.914 79.4939 102.99C79.5776 103.066 79.6246 103.169 79.6246 103.277V120.747C79.6246 120.855 79.5776 120.958 79.4939 121.035C79.4103 121.111 79.2968 121.154 79.1785 121.154Z" fill="#CCCCCC"/>
<path d="M80.9628 91.2915C80.8445 91.2915 80.731 91.2487 80.6474 91.1725C80.5637 91.0963 80.5167 90.993 80.5167 90.8852V66.9143C80.5167 66.8065 80.5637 66.7032 80.6474 66.627C80.731 66.5508 80.8445 66.508 80.9628 66.508C81.0811 66.508 81.1946 66.5508 81.2782 66.627C81.3619 66.7032 81.4089 66.8065 81.4089 66.9143V90.8852C81.4089 90.993 81.3619 91.0963 81.2782 91.1725C81.1946 91.2487 81.0811 91.2915 80.9628 91.2915Z" fill="#CCCCCC"/>
</g>
<defs>
<clipPath id="clip0">
<rect width="150" height="150" fill="white"/>
</clipPath>
</defs>
</svg>
