<svg width="241" height="54" viewBox="0 0 241 54" fill="none" xmlns="http://www.w3.org/2000/svg">
<path d="M9.16727 0.419999C12.4073 0.419999 15.7673 0.459998 19.2473 0.539997C22.7273 0.579997 25.9073 0.739997 28.7873 1.02L28.3673 7.68H12.4673C10.4673 7.68 9.46727 8.7 9.46727 10.74V17.22H26.1473V23.7H9.46727V31.86C9.46727 33.9 10.4673 34.92 12.4673 34.92H28.3673L28.7873 41.58C25.9073 41.86 22.7273 42.02 19.2473 42.06C15.7673 42.1 12.4073 42.12 9.16727 42.12C6.52727 42.12 4.38727 41.38 2.74727 39.9C1.10727 38.38 0.287266 36.36 0.287266 33.84V8.76C0.287266 6.24 1.10727 4.22 2.74727 2.7C4.38727 1.18 6.52727 0.419999 9.16727 0.419999ZM41.3948 12.36L47.8748 23.94H48.4148L54.8948 12.36H63.8948L55.3148 26.82L64.5548 42H55.5548L48.2948 29.46H47.9948L40.7948 42H31.7348L40.9748 26.82L32.4548 12.36H41.3948ZM75.9777 12.36L76.6377 16.8C77.8777 15.32 79.5377 14.1 81.6177 13.14C83.7377 12.14 85.9577 11.64 88.2777 11.64C91.9977 11.64 94.6577 13 96.2577 15.72C97.8577 18.44 98.6577 22.34 98.6577 27.42C98.6577 31.38 98.2377 34.48 97.3977 36.72C96.5977 38.92 95.3577 40.48 93.6777 41.4C92.0377 42.32 89.9777 42.78 87.4977 42.78C85.6177 42.78 83.8177 42.54 82.0977 42.06C80.4177 41.62 78.8777 40.88 77.4777 39.84C77.5577 40.88 77.5977 41.94 77.5977 43.02C77.6377 44.1 77.6577 45.16 77.6577 46.2V53.4H68.8377V12.36H75.9777ZM84.7377 18.42C83.3777 18.42 82.1577 18.66 81.0777 19.14C80.0377 19.62 78.8977 20.3 77.6577 21.18V35.16C78.8177 35.48 79.8977 35.78 80.8977 36.06C81.8977 36.3 83.0377 36.42 84.3177 36.42C85.5977 36.42 86.6177 36.2 87.3777 35.76C88.1377 35.32 88.6977 34.46 89.0577 33.18C89.4177 31.9 89.5977 30 89.5977 27.48C89.5977 25.04 89.4177 23.16 89.0577 21.84C88.7377 20.52 88.2177 19.62 87.4977 19.14C86.7777 18.66 85.8577 18.42 84.7377 18.42ZM113.694 -2.86102e-06L113.634 32.52C113.634 34.52 114.814 35.52 117.174 35.52H119.574L120.594 41.52C120.074 41.8 119.374 42.02 118.494 42.18C117.614 42.34 116.714 42.46 115.794 42.54C114.874 42.62 114.114 42.66 113.514 42.66C110.834 42.66 108.714 41.98 107.154 40.62C105.634 39.22 104.874 37.26 104.874 34.74V-2.86102e-06H113.694ZM138.483 11.58C142.203 11.58 145.183 12.1 147.423 13.14C149.663 14.14 151.263 15.8 152.223 18.12C153.223 20.4 153.723 23.44 153.723 27.24C153.723 31.04 153.223 34.08 152.223 36.36C151.263 38.6 149.663 40.22 147.423 41.22C145.183 42.22 142.203 42.72 138.483 42.72C134.763 42.72 131.783 42.22 129.543 41.22C127.303 40.22 125.683 38.6 124.683 36.36C123.723 34.08 123.243 31.04 123.243 27.24C123.243 23.44 123.723 20.4 124.683 18.12C125.683 15.8 127.303 14.14 129.543 13.14C131.783 12.1 134.763 11.58 138.483 11.58ZM138.483 18C136.923 18 135.703 18.26 134.823 18.78C133.983 19.3 133.383 20.24 133.023 21.6C132.663 22.92 132.483 24.8 132.483 27.24C132.483 29.64 132.663 31.5 133.023 32.82C133.383 34.14 133.983 35.06 134.823 35.58C135.703 36.06 136.923 36.3 138.483 36.3C140.043 36.3 141.243 36.06 142.083 35.58C142.963 35.06 143.583 34.14 143.943 32.82C144.303 31.5 144.483 29.64 144.483 27.24C144.483 24.8 144.303 22.92 143.943 21.6C143.583 20.24 142.963 19.3 142.083 18.78C141.243 18.26 140.043 18 138.483 18ZM166.734 12.36L167.574 16.86C171.654 13.34 175.674 11.58 179.634 11.58H181.194L180.354 19.74H177.894C176.614 19.74 175.254 19.92 173.814 20.28C172.414 20.64 170.694 21.18 168.654 21.9V42H159.834V12.36H166.734ZM198.892 11.58C203.892 11.58 207.472 12.44 209.632 14.16C211.832 15.88 212.932 18.4 212.932 21.72C212.972 24.4 212.292 26.42 210.892 27.78C209.492 29.14 207.072 29.82 203.632 29.82H193.072C193.312 32.14 193.972 33.7 195.052 34.5C196.172 35.3 197.892 35.7 200.212 35.7C201.572 35.7 203.252 35.66 205.252 35.58C207.292 35.46 209.332 35.28 211.372 35.04L212.212 40.5C210.452 41.34 208.372 41.92 205.972 42.24C203.612 42.56 201.352 42.72 199.192 42.72C193.512 42.72 189.492 41.48 187.132 39C184.812 36.52 183.652 32.6 183.652 27.24C183.652 23.36 184.152 20.28 185.152 18C186.192 15.72 187.832 14.08 190.072 13.08C192.312 12.08 195.252 11.58 198.892 11.58ZM199.192 17.82C197.672 17.82 196.452 18 195.532 18.36C194.652 18.72 194.012 19.42 193.612 20.46C193.212 21.46 192.972 22.92 192.892 24.84H201.232C202.552 24.84 203.392 24.56 203.752 24C204.152 23.44 204.352 22.62 204.352 21.54C204.352 20.14 203.952 19.18 203.152 18.66C202.352 18.1 201.032 17.82 199.192 17.82ZM225.679 12.36L226.519 16.86C230.599 13.34 234.619 11.58 238.579 11.58H240.139L239.299 19.74H236.839C235.559 19.74 234.199 19.92 232.759 20.28C231.359 20.64 229.639 21.18 227.599 21.9V42H218.779V12.36H225.679Z" fill="url(#paint0_linear)"/>
<defs>
<linearGradient id="paint0_linear" x1="118" y1="-18" x2="118" y2="54" gradientUnits="userSpaceOnUse">
<stop stop-color="#0300A0"/>
<stop offset="1" stop-color="#2B9529"/>
</linearGradient>
</defs>
</svg>
