
<svg width="75" height="72" viewBox="0 0 75 72" fill="none" xmlns="http://www.w3.org/2000/svg">
<rect y="5" width="75" height="63" fill="#0300A0"/>
<path d="M32.8763 18.42C36.1163 18.42 39.4763 18.46 42.9563 18.54C46.4363 18.58 49.6163 18.74 52.4963 19.02L52.0763 25.68H36.1763C34.1763 25.68 33.1763 26.7 33.1763 28.74V35.22H49.8563V41.7H33.1763V49.86C33.1763 51.9 34.1763 52.92 36.1763 52.92H52.0763L52.4963 59.58C49.6163 59.86 46.4363 60.02 42.9563 60.06C39.4763 60.1 36.1163 60.12 32.8763 60.12C30.2363 60.12 28.0963 59.38 26.4563 57.9C24.8163 56.38 23.9963 54.36 23.9963 51.84V26.76C23.9963 24.24 24.8163 22.22 26.4563 20.7C28.0963 19.18 30.2363 18.42 32.8763 18.42Z" fill="white"/>
<mask id="mask0" mask-type="alpha" maskUnits="userSpaceOnUse" x="23" y="18" width="30" height="43">
<path d="M32.8763 18.42C36.1163 18.42 39.4763 18.46 42.9563 18.54C46.4363 18.58 49.6163 18.74 52.4963 19.02L52.0763 25.68H36.1763C34.1763 25.68 33.1763 26.7 33.1763 28.74V35.22H49.8563V41.7H33.1763V49.86C33.1763 51.9 34.1763 52.92 36.1763 52.92H52.0763L52.4963 59.58C49.6163 59.86 46.4363 60.02 42.9563 60.06C39.4763 60.1 36.1163 60.12 32.8763 60.12C30.2363 60.12 28.0963 59.38 26.4563 57.9C24.8163 56.38 23.9963 54.36 23.9963 51.84V26.76C23.9963 24.24 24.8163 22.22 26.4563 20.7C28.0963 19.18 30.2363 18.42 32.8763 18.42Z" fill="white"/>
</mask>
<g mask="url(#mask0)">
<path d="M35.5 36C30.5 38.6667 18 48.1 8 64.5L67 62L35.5 36Z" fill="url(#paint0_linear)"/>
</g>
<defs>
<linearGradient id="paint0_linear" x1="37.5" y1="36" x2="37.5" y2="64.5" gradientUnits="userSpaceOnUse">
<stop stop-color="#138810"/>
<stop offset="1" stop-color="#138810" stop-opacity="0"/>
</linearGradient>
</defs>
</svg>
