<svg xmlns="http://www.w3.org/2000/svg" width="3213" height="1382" viewBox="0 0 3213 1382">
  <defs>
    <style>
      .cls-1 {
        fill: #fff;
      }

      .cls-1, .cls-2 {
        fill-rule: evenodd;
      }
    </style>
  </defs>
  <path id="Color_Fill_2" data-name="Color Fill 2" class="cls-1" d="M2861,0h96V4c7.85,4.666,18.63,4.847,28,9,15.41,6.828,31.71,13.682,46,22,16.79,9.775,29.67,24.658,43,38,6.94,6.95,15.38,12.761,22,20,2.65,2.9,3.42,6.988,6,10,25.73,29.986,46.74,66.769,64,105,13.92,30.834,24,67.453,33,102q1.005,10,2,20c0.79,3.02,3.23,6.976,4,10,1.89,7.368-.5,13.751,3,19,1.29,0.877,2.47.894,5,1V480h-5v1h-1c0,19.448-9.98,37.436-17,51-1.51,2.913-.4,4.9-2,8-1.32,2.557-5.38,5.571-7,8-7.07,10.588-13.83,20.623-23,29-37.47,34.242-115.3,46.9-169,66l-18,3c-19.67,6.091-44.2,9.9-64,17-11.04,3.961-23.19,2.034-27,13-1.51,2.387-1.48,10.149-2,13-6.08,2.955-16.53,3.75-25,2-5.74-10.077-3.02-13.6-20-13-13.77,9.088-45.22,1.234-51,18-4.23,5.28-8.27,34.085-5,46,4.52,16.491,16.55,34.309,31,41l31,2c2.64,3.933,4.05,4.612,4,12-0.8,1.021-.35.274-1,2-3.08,1.593-6.07,4.739-9,6-13.79,5.929-36.83-4.97-44-10-22.78-15.972-40.57-39.458-57-62-7.22-9.9-17.69-18.068-26-27-22.53-.435-43.08,3.548-61,8h-14c-14.01,3.766-33.63,6.423-47,10h-15c-20.59,5.5-45.94,6.437-67,12-12.29,3.247-22.54-1.328-35,2-37.29,9.957-83.3,8.053-121,18h-15c-10,2.653-25,3.364-35,6h-17c-14.9,3.948-33.87,4.015-49,8h-23c-4.72,1.249-16.28,2.756-21,4h-21c-21.35,5.665-52.85,4.171-75,10h-19c-6.83,1.8-22.17,2.205-29,4h-25c-16.15,4.254-39.29,1.874-55,6h-33c-14.72,3.875-33.99,1.88-50,5-2.14,6.732-4.99,18.346-7,26l-4,1V803c-12.61-4.189-48.86-1.074-65-1-7.84,5.584-25.51-2.143-30,7-6.04,7.417.5,19.241-9,26-4.36,3.1-42.6,9.627-51,4-5.15-3.451-6.69-20.083-8-27a24.823,24.823,0,0,1-5-4c-69.78-.16-133.67,3.842-204,4v-9c-5.64-1.913-15.69-1.079-23-1-4.7,3.489-18.55,1.875-24,4-1.22,3.756-1.53,7.309-5,9-2.43,1.53-7,.937-10,2-10.8,3.825-23.35,6.845-34,12-32.88,15.922-64.42,38.748-84,68-9.39,14.029-17.01,31.115-23,48-3.24,9.124-3.22,24.572-8,32-3.32,2.031-9.37-.2-14,1-26.3,6.828-62.51-.248-90,5-1.29,8.975-1.39,19.13-11,20-1.02-.8-0.27-0.35-2-1a25.019,25.019,0,0,0-4-5V984h-79c-4.19,1.449-7.65,6.582-11,9-14.49,10.44-27.83,21.79-42,32-7.59,5.47-31.33,17.77-32,28,6.38,3.65,13.32,8.74,20,12,7.49,3.65,14.05,4.18,21,8,27.53,15.11,53.59,33.59,75,55,11.31,11.31,25.49,25.46,30,43,6.98,27.16-24.54,51.29-38,60-5.66,3.66-11.9,4.67-18,8-13.88,7.58-30.23,16.85-45,24-6.04,2.93-12.58,2.45-18,6-6.24,4.09-8.27,13.17-12,20a332.48,332.48,0,0,1-22,35c-18.266,25.03-51.884,42.31-83,55v3H828c-0.694-.42-1.072-3.47-2-4-3.794-2.15-8.061-1.08-12-3-4.043-1.97-9-5.92-13-8-3.92-2.04-7.133-1.87-11-4-14.756-8.11-27.2-20.33-43-28-9.535-4.63-21.687-3.45-31-8-12.86-6.28-28.548-18.28-35-31-11.6-22.88-12.588-73.13-5-102,2.823-10.74,2.2-33.85,10-38,0.726-.29,2.889-0.09,6,0,8.584-14.23,13.536-31.53,23-45,11.542-16.43,27.312-20.4,32-44,15.835-9.74,29.553-18.78,49-26,7.341-2.73,20.165-3.92,23-11,1.988-3.12,1-11.16,1-16,0-14.16,1.515-31.562-1-44-5.837-3.789-8.38-6.093-19-6V833c-8.786-2.951-24.337-1.083-35-1-8.745-8.592-26.349.608-40-4-1.577-.532-3.423-3.47-5-4H697c-9.487-2.488-23.685-3.568-33-6H639c-29.639-7.776-70.983-.691-101-8H498c-20.963-5.142-49.8-3.073-70-8H406c-10.715-2.633-26.805-3.269-38-6H352c-26.515-6.519-54.132-7.477-82-13-9.8-21.214-21.13-42.623-29-65-4.442-12.631,6.839-18.642,3-32-1.811-6.3-11.087-15.353-16-19-6.381-4.737-13.364-7.464-20-12-16.472-11.26-29.46-26.227-50-34-12.572-4.758-24.737-5.233-38-10C81.554,597.18,30.754,578.451,7,550c-4.5.379-4.3,1.306-7,3V511H1c1.667,1.938,1.439,1.668,5,2,24.692-32.255,83.615-50.9,126-66,13.794-4.913,27.022-5.067,40-10,7.146-2.716,17.934-7.368,24-12,3.651-2.787,3.353-7.971,8-10,4.228-2.574,14.111,1.019,20,0l1-3c0.961-1.418.976-3.273,1-6,6.861,0.146,15.806,3.558,20,1,5.487-2.3,4.541-7.1,12-8,8.318-5,25.564,1.546,36-1,26.614-6.492,60.515-3.338,88-10h30c21.676-5.289,53.779-2.615,76-8h34c9.31-2.269,27.027-3.774,37-4h23c10.2-2.666,33.392-3.976,45-4h23c7.76-2.027,22.046.6,32-2,7.76-2.027,22.046.6,32-2,7.76-2.027,22.046.6,32-2,17.184-4.489,39.932-1.479,58-5,0.968-2.4,1.716-5.675,4-7,4.549,4.77,13.384,4.224,23,4a18.324,18.324,0,0,0,1-6c-3-3.8-2.62-8.119-5-13-9.1-18.667-16.676-39.037-25-59-1.248-.422-6.19-0.025-8-1-5.3-2.857-2.821-17.757-5-24-5.749-16.469-12.442-33.846-22-47-5.814-8-18.38-15.1-29-18-16.38-4.479-31.974-.126-32-21,0.8-1.021.355-.274,1-2,13.46-8.575,30.813-18.577,52-19a18.324,18.324,0,0,1,1,6c15.834,0.01,30.233-4.64,43-8h15c3.791-.987,13.208-3.015,17-4,11.161-2.9,27.06.318,36-2h27c20.128,0,46.269-2.329,63,2h55c7.76,2.012,22.04-.583,32,2,15.71,4.074,38.79,5.959,57,6a18.3,18.3,0,0,0,1-6c17-.332,39.3-1.588,53,2,9.09,2.38,17.51-.945,25,2,3.03,1.192,5.18,5.537,8,7,6.08,3.154,20.63,7.05,27,9,18.8,5.751,36.87,6.331,50,17-0.63,1.754-.19.971-1,2-1.29,2.467.43,0.681-2,2-7.55,4.573-24.92.375-35,3-24.67,6.427-58.32,1.6-83,8-12.51,3.243-29.51-1.228-41,1v2c-3.11,4.732,5.68,28.292,8,33,11.84,24.034,21.79,51.48,34,75,5.36,10.331,6.66,19.233,14,27,1.75-.631.97-0.193,2-1,2.17-3.478-.06-10.088,1-15,2.78-12.846,2.09-31.188,2-47a14.134,14.134,0,0,1,4-1c4.78,10.577,4,27.947,4,44,0,7.289-1.23,17.75,2,22,2.82,2.473,16.09,3.566,22,2,26.18-6.937,64.47-1.067,91-8,5.9-1.542,14.62,1.8,19-1,9.25-3.245,20.69-19.912,29-26,32.58-23.862,47.8-44.773,94-57h31c9.93-2.592,25.99-2,39-2h162c16.83,0,38.44-1.571,52,2,13.54,3.566,34.89-1.456,48,2h23a146.715,146.715,0,0,1,29,4h27c16.67,4.391,40.33,3.6,57,8h19c18.31,4.808,47.76,9.173,70,5v-2c4.39-7.668-2.01-16.679,7-20,3.03-2.084,9.79-.733,13,0,1.93,6.681,3.08,20.458,5,28,15.71,4.392,38.27,6.788,54,11,10.48,2.806,18.53-.834,29,2,48.26,13.063,105.98,13,155,26h13c11.08,2.965,27.91,5.06,39,8h13c11.26,3.006,27.49,4.912,39,8,8.4,2.253,14.33-.311,23,2,11.91,3.175,29.32,4.914,41,8h15a356.738,356.738,0,0,0,92,12c15.69,0,38,2.666,49-3,14.34-7.385,25.1-36.819,33-52,19.73-37.919,41.53-73.568,62-110,5.02-8.931,14.01-17.67,20-26,20.53-28.527,42.6-52.606,67-77,14.67-14.665,28.59-32.3,46-44,9.78-6.567,20.65-13.855,31-19,8.88-4.417,17.49-5.9,25-11V0Z"/>
  <path id="Color_Fill_1" data-name="Color Fill 1" class="cls-2" d="M1772,806a97.13,97.13,0,0,1-3,26c-10.9,6.578-39.78,12.844-57,6-2.99-7.418-3.88-26.6-11-30-3.59-2.26-23.99-.393-31,0-14.63.819-34.22,1.888-49,2-12.51.1-28.21-1.346-39,1h-33l-93,3-28,5c-43.33,14.08-82.91,38.485-107,72a216.182,216.182,0,0,0-27,52c-3.72,10.284-2.97,25.442-9,34-7.58,4.638-20.87-.185-31,2-22.87,4.933-50.45.659-73,5-2.04,6.708-1.63,16.49-8,19-1.62,1.49-2.02,1.55-5,2-4.88-5.151-5.26-10.155-5-21h-78c-7.22,2.541-18.36,15.221-25,20-21.37,15.39-41.6,33.43-64,47v1c13.37,3.38,26.3,12.91,38,19,36.03,18.75,70.96,38.4,94,70,10.76,14.76,26.83,36.38,13,59-15.6,25.52-58.03,46.37-87,59-8.4,3.66-18.35,5.01-26,10-11.65,7.6-19.49,33.87-28,46-24.658,35.15-66.989,66.99-127,67q-18.5-.495-37-1c-20.651-4.97-38.892-13.86-55-24-11.112-7-21.162-16.58-34-22-5.9-2.49-11.439-1.87-18-4-18-5.84-35.585-16.55-45-31-23.821-36.55-9.527-121.34,5-156,4.142-9.88,6.649-18.49,12-27,18.123-28.81,44.027-51.98,75-68q12.5-4.995,25-10c6.748-2.21,14-2.13,19-6,1.976-3.14,1-11.15,1-16V976c-1.051-1.521-1.586-4.915-2-7a41.653,41.653,0,0,0-19-6q0.5-65.493,1-131l-32,1c-4.563-1.124-8.135-3.863-13-5H732c-17.877-3.991-41.884-4.98-60-9-18.968-4.209-39.824-.052-58-4l-55-2c-10.916-2.393-23.99.635-36-2-9.014-1.978-19.922.216-30-2-29.737-6.54-64.091-2.581-93-9l-27-2c-22.88-5.2-48.809-5.708-71-11-10.045-2.4-24.233.142-32-5-3.194-4.031-3.76-8.872-6-14-7.154-16.376-17.627-32.925-23-51-2.958-9.951,2.3-15.645,4-23,2.176-9.437-7.383-19.529-12-23-9.689-7.284-20-12.958-30-20-14.761-10.392-26.708-22.493-45-30l-33-9c-31.15-11.464-61.967-22.793-88-39-13.937-8.677-30-17.716-36-34-7.732-20.974,16.2-37.9,27-45,26.567-17.462,59.271-32.19,92-43,15.026-4.963,30.242-6.578,45-12,9.787-3.6,21.956-7.145,30-13,6.792-4.943,2.458-11.669,15-12,3.1,2.167,8.721,2.1,14,2a2.834,2.834,0,0,1,1-1,34.041,34.041,0,0,1,1-8c2.667-.924,6.931-1.051,11-1,3.368,2.441,8.922,1.887,13,1,0.2-4.108.107-4.569,3-6,8.964-7.561,32.7-1.092,46-4,22.73-4.97,48.729-2.951,72-8l26-1c22.184-4.841,48.728-1.18,71-6h15c18.915-4.118,42.007-.893,61-5h16l244-16v-2c2.215-3.854-.757-12.514,3-15,0.1,6.153,1.141,11.315,6,13,4.25,3.408,14.277,1.813,20,1-0.994-9.419-6.749-17.516-10-25-5.076-11.685-9.32-22.986-14-34-2.782-6.547-3.845-20.065-11-22-1.063,3.276-1.486,3.075-3,3-5.956-6.719-4.928-22.771-8-32-4.758-14.293-15.214-37.518-25-47-11.3-10.947-50.756-9.96-56-24-1.049-1.549-1.031-4.085-1-7,3.453-2.568,6.239-6.67,10-9,26.82-16.613,71.052-17.017,107-25l54-2c14.723-3.159,34.52-.088,51-1,6.8-.376,17.256-1.476,24,0h52c11.55,2.555,25.54-.771,38,2l67,8,64,3c15.26,3.568,24.36,10.494,38,15,24.43,8.074,41.47,8.037,61,21v2h-2c-10.15,6.923-29.08,1.961-43,5-37.6,8.207-81.48,1.475-120,9a18.3,18.3,0,0,0-1,6c7.41,10.1,12.49,33.326,18,46,8.86,20.378,17.84,41.174,27,62,3.65,8.308,10.36,16.923,13,26a2.909,2.909,0,0,0,1-1c7.54-11.072.21-54.806,7-70a2.909,2.909,0,0,1,1,1c10,13.6-2.62,55.339,7,69,1.69,1.142,4.9,1.066,8,1,7.27-4.424,20.67.016,30-2,13.14-2.839,28.94.038,43-3,15.17-3.277,35.06-3.282,51-4,6.58-9.49,22.5-19.843,32-27,22.89-17.237,40.76-40.979,71-51,11.03-3.654,24.12-3.386,36-6h17c11-2.368,26.75,1.63,39-1,20.12-4.319,47.91-1,70-1h65c10.93,0,24.75-1.016,34,1,10.64,2.32,24.6-1.05,34,1h20c13.07,0.269,30.65.3,43,3l68,4c19.1,4.209,40.12,1.515,60,6,26.15,5.9,60.96,9.007,89,8,2.78-4.462,3.16-9.855,3-18,1.21-1.406,1.52-2.79,3-4,2.09-1.69,4.89-2.24,9-2,11.88,0.693,9.23,18.163,11,28,9.95,4.355,22.51,3.883,35,7,28.74,7.171,60.28,6.8,90,14,22.69,5.5,47.23,5.251,71,11,16.43,3.972,34.45,3.763,52,8,56.73,13.7,119.16,14.436,176,28l27,3c25.35,5.975,93.82,16.045,116,1,8.78-5.958,12.36-19.713,18-29,16.38-26.976,28.4-57.8,45-85,20.35-33.335,42.3-65.088,65-96,8.96-12.2,21.96-22.05,31-34a183.677,183.677,0,0,1,35-35c10.46-7.9,19.08-19.309,30-27,24.52-17.279,50.09-27.294,85-35,10.87-2.4,29.41-1.131,39,1,9.62,2.137,17.13.539,26,3,24.98,6.933,48.48,14.929,68,27,81.02,50.1,130.55,132.6,163,231,6.82,20.679,10.3,42.464,16,64,4.11,15.52,2.37,30.5,6,47,14.07,63.959-2.9,141.852-29,179-39.1,55.648-126.68,69.981-199,92-24.02,7.313-49.36,10.857-73,18-9.36,2.827-23.57,2.464-27,11-4.87,8.728,3.06,17.827-11,18-2.44,1.7-6.72.566-9,0-11.98-2.976-10.16-2.355-12-15h-9c-13.73,8.579-51.61,3.358-57,19-3.06,3.989-2.48,9.234-4,15-7.6,28.766,9.07,63.145,28,71,12.66,5.253,37.07-4.286,38,13-0.8,1.021-.35.274-1,2-21.19,14.012-37.74,9.516-57-4-23.99-16.835-41.51-41.556-59-65-6.41-8.6-15.73-15.184-23-23-15.58.322-33.03,3.622-47,7-19.9,4.813-40.29,4.482-59,9l-27,3c-30.72,7.456-65.88,7.761-97,15l-30,3c-40.11,9.377-85.45,7.778-126,17l-52,5c-31.86,7.265-68.78,4.8-101,12l-30,2c-23.41,5.232-51.4,2.772-75,8l-24,1c-15.96,3.519-35.88,1.449-52,5h-14l-91,7c-3.59,6.517-3.95,18.418-7,26a14.134,14.134,0,0,1-4,1,43.845,43.845,0,0,1,1-25h-44ZM2792,134h121c0.15,9.834-.32,19.859-2,27-2.97,1.68-7.61,3.537-9,7-4.47,5.8-3,21.439-3,31,0,17.481-1.51,43.813,2,60,2.52,11.622-1.95,24.372,4,32,3.04,2.167,4.49.96,6,5,3.81,4.808,1.61,16.53,1,23-2.04,1.122-9.63,3.022-11,5-3.9,5.639-2,20.364-2,29q0.495,35,1,70h1v1a173.909,173.909,0,0,1,38,4c16.47,3.633,33.59,1.594,49,5,21.78,4.814,43.92,1.61,62,9v2c-12.23,1.378-28.2,3.208-41,6-18.53,4.041-38.41.178-56,4-10.65,2.314-33.26-1.069-39,5l-3,11c-2.56,3.283-8.19,2.6-10,7-3.85,9.38-2.01,30.584-2,43,0.02,31.868-1.11,72.177,5,100,4.36,2.643,14.03,6.991,16,12,0.8,1.18.77,1.681,1,4-7.93,4.513-21.96,6.466-23,18a14.134,14.134,0,0,0,4,1l82-20c91.99-30.055,179.42-36.85,210-130,20.57-62.68,7.22-166.74-11-222-5.43-16.46-7.67-31.666-14-47-30.66-74.223-70.47-142.708-132-186-9.61-6.76-19.62-10.722-30-17-32.65-19.752-94.88-32.654-142-17-29.13,9.68-49.39,25.793-73,40v78Zm-12-66c-16,24.218-47.7,43.454-64,68h15c5.32,3.361,42.93,1.165,51,1,3.39-10.11,1.08-27.928,1-40C2778.8,89.994,2785.08,73.921,2780,68Zm68,1h96c7.84,0,31.18-2,36,1-30.03.347-63.41,1-95,1C2874.23,71,2855.32,73.63,2848,69ZM900,140c-8.342,4.893-31.8-1.492-43,1-10.348,2.3-22.288.485-33,3-22.613,5.309-47.875,7.074-69,13-12.434,3.488-36.458,4.251-38,18,21.661,13.538,75.448,9.734,110,10,74.291,0.571,151.294,2,228,2,25.25,0,52.33-.82,76-1,8.14-.062,24.58,2.041,28-3h-5c-5.81-3.565-15.12-.294-23-2-13.47-2.916-32.61-2.819-47-3h-21c-7.95-1.718-19.52-.13-29-1-20.67-1.9-50.427,1.219-70-3-11.607-2.5-26.641,1.233-37-1-11.925-2.571-27.323,1.3-38-1-12.244-2.64-28,1.372-39-1H831c-17.435,0-42.049,1.443-58-2-6.193-1.337-15.437,1.836-20-1H957l150,5,93,4c8.12,0.277,28.63,4.518,36,0l-22-7c-14.89-4.257-30.63-5.276-45-9l-93-14c-14.93-3.472-32.72.387-48-3-14.48-3.209-32.027,1.535-48-2-9.531-2.109-23.768-1-35-1Zm2060,0h83c8.31,0,26.03-2.725,32,1-26.31.181-54.33,1-82,1C2984.97,142,2964.88,143.043,2960,140Zm-81,255c-19.31.237-37.84-3.91-54-8-20.06-5.078-40.89-5.43-60-10l-26-3c-30.74-7.349-65.59-7.754-97-15l-15-1c-14.07-3.154-57.93-10.113-62,4h2c7.01,4.11,18.6,1.827,27,4,22.17,5.737,45.88,7.015,69,13,30.61,7.925,64.47,11.784,95,20l26,4c18.44,4.955,38.35,5.974,58,11,15.52,3.969,30.36,6.846,50,7q-1.005-137.986-2-276l-180-2c-4.37,13.166-17.93,21.087-22,35h11c7.01,4.289,21.95-.944,31,1,23.49,5.049,55.45-.365,77,4v1h-1c-6.97,5.261-25.74,4-37,4h-89c-6.6,11.484-17.23,22.422-21,36h12c8.12,4.959,25.66-1.225,36,1,13.18,2.834,32.03,1,47,1l76,1c9.59,0,41.12-2.627,47,1l-224,4c-3.1,6.509-19.85,31.059-18,36,7.07,4.41,29,2.384,40,3,24.81,1.389,50.61,2,77,2,8.17,0,32.97-2.115,38,1l-161,2c-3.11,12.664-12.38,22.146-16,35h5c4.08,2.5,15.02,1,21,1l47,1h86c14.04,0,31.72-1.636,44,1,19.34,4.153,42.13-2.679,59,3-1.02.8-.27,0.355-2,1-5.29,3.285-16.22,1.734-24,2-12.3.42-38.67-1.64-51,1-18.31,3.921-43.77,1-64,1H2606c-3.2,7-7.74,13.527-9,22h1v1l52,9c25.1,6.114,51.05,6.184,75,12,15.25,3.7,28.76,2.293,44,6,35.36,8.6,75.44,11.008,110,20v3Zm22-252c-1.71,2.725-2.54,2.5-3,7,0.8,1.021.35,0.274,1,2a14.134,14.134,0,0,0,4,1,28.9,28.9,0,0,0,1-9Zm-75,12c13.35-.6,31.49-1.513,32,11-9.49,6-40.09,16.73-40-6a11.67,11.67,0,0,0,2-3C2822.84,156.707,2824.36,156.334,2826,155Zm6,9v2l7,1c1.13-1.546,1.08-.843,2-3h-9ZM1057,713q1.5-107.488,3-215c0.02-26.884.99-54.535,1-80,0.01-15.894-2.03-35.92,1-50V345c0-12.725.91-25.6,1-37,0.08-10.97-1-24.711,1-34,2.08-9.625-.86-20.72,2-28,1.75,0.631.97,0.193,2,1,6.39,3.607,12.51,26.026,16,34,13.09,29.876,25.63,60.4,39,91,32.52,74.406,64.59,150.787,97,225,17.37,39.779,32.52,79.635,51,118,6.42,0.964,23.17,4.37,27-2-7.75-10.443-10.58-25.633-16-38-11.76-26.853-22.96-54.465-35-82-38.3-87.57-75.71-177.292-114-265-13.7-31.384-25.86-62.986-39-94-2.76-6.515-9.13-32.941-14-35-5.49-4.211-33.89-2.128-44-2,0.05,48.719,1,100.724,1,151v67c-3.37,15.574-1,37.569-1,55q-1.005,41.5-2,83c-0.12,15.931-.52,33.628-1,48-0.38,11.352,1.1,25.313-1,35-1.82,8.422.56,19.824-1,27-2.39,11.017,1.58,22.736-4,30-0.74.872-1.26,1.128-2,2-1.75-.631-0.97-0.193-2-1-10.78-7.694-19.1-32.64-25-46-12.612-28.559-26.069-57.459-39-87-32.826-74.991-64.945-150.8-98-227-18.682-43.068-41.473-86.225-54-134-7.537-3.548-20.3-3.094-32-3a14.124,14.124,0,0,0-1,4c9.03,9.519,12.422,26.253,18,39,10.29,23.513,20.326,47.729,31,72,40.771,92.709,80.613,187.886,121,281,13.942,32.144,26.517,64.364,40,96,3.354,7.871,9.77,32.832,16,36,5.43-3.395,14.29-2.132,21-4C1031.95,717.952,1044.75,714.053,1057,713Zm-35-516H896c-26.046,0-55.2-1.45-77,3a10.925,10.925,0,0,1-2,3c2.276,12.73,8.418,24.265,13,35,11.321,26.522,21.882,52.6,33,78,2.224,5.082,12.88,35.5,15,37h12c15.948,9.851,36.1-17.02,42-23,17.513-17.754,34.9-36.984,50-57,9.332-12.37,22.69-22.565,32-35,4.81-6.427,8.47-14.235,14-20C1028.09,207.352,1023.47,205.34,1022,197Zm71,1c-0.3,18.03,14.87,45.553,21,60,13.05,30.77,23.68,60.637,37,91,7.23,16.48,19,33.494,24,51h1v-5c-2.38-3.53-2.17-7.678-4-12-4.79-11.293-9.75-22.9-15-35-14.09-32.446-28.96-66.565-43-99-5.73-13.24-10.66-26.387-16-39C1096.06,205.427,1096.09,201.2,1093,198Zm1884,29h88c9.36,0,30.27-1.6,36,2-33.24.188-63.67,0-95,0-8.46,0-34.82,2.224-40-1C2969.67,228.141,2974.88,228.435,2977,227Zm-1949,8c-7.41,11.253-19.95,19.356-28,30-22.6,29.889-50.4,54.984-73,85-9.1,12.084-30.514,26.878-31,46,2.454,2.619,1.444,4.028,6,5,11.453-12.122,25.9-22.634,36-36,11.863-15.7,27.32-28.527,39-44a442.5,442.5,0,0,1,30-36C1012.98,278.629,1038.51,252.089,1028,235Zm660,15q1.005,80.491,2,161l144,2V260Zm-233,1v20h212q-1.005-9-2-18Zm547,2c-0.24,5.937-1.8,10.881,1,15C2003.55,262.646,2005.07,256.84,2002,253Zm-574,5c-0.61,44.392-1.92,94.6-2,142-8.79,2.951-24.34,1.083-35,1-2.41-1.463-6.38-.16-10-1l-22-6c-17.84-7.557-37.94-33.734-44-53h-1v3c1.68,2.648.86,6.535,2,10a88.121,88.121,0,0,0,11,22c12.14,16.8,32.53,23.334,56,29l14,1c10.72,2.395,24.84,2.617,34-1,0.92-2.667,1.05-6.931,1-11,3.31-5.2,1-20.6,1-28,0-13.389.73-29.258-1-41-1.61-10.981,1.07-24.467-1-34C1428.69,280.347,1433.93,264.859,1428,258Zm-11,135c0.04-44.548-.9-91.036-1-134h-1c-7.37,5.727-16.43,8.679-24,14-14.82,10.413-27.72,24.234-42,35-7.95,5.993-22.71,13.871-27,23,8.11,10.342,11.65,29.539,20,41C1354.84,389.617,1387.12,392.744,1417,393Zm428-131c-1.22,2.281-1.64,2.251-2,6-2.41,3.37-.94,13.407,1,16,2.04,5.717,11.41,4.365,19,4l131,11c21.67,4.826,47.44,3.2,69,8l20,1c17.62,3.958,37.27,1.766,56,6,14.07,3.181,29.82,1.57,45,5,11.14,2.516,23.75,1.234,36,4,40.19,9.077,85.19,6.9,125,16l24,2,82,12c6.52,1.482,37.57,4.978,41,3-22.98-4.668-50.33-8.261-74-14-17.2-4.169-34.94-4.112-51-8-21.79-5.274-44.33-5-65-10-27.98-6.761-57.94-6.471-85-13l-14-1c-23.1-5.6-49.82-6.493-73-12l-21-2c-28.5-6.9-61.32-7.192-90-14l-22-2c-19.01-4.428-41.69-4.6-61-9l-18-1C1895.73,264.943,1869.83,262.212,1845,262ZM1442,413h237c0.24-34.3-1-69.089-1-102,0-11.855,3.33-35.04-2-43q-0.495,6-1,12H1446c0.19-5.113.12-10.183-2-13Q1443,339.993,1442,413ZM1072,272v73h1c6.45-3.86,18.38-.608,24-5,0.87-.74,1.13-1.26,2-2-3-16.308-12.01-30.191-18-44C1077.86,286.763,1077.04,277.356,1072,272Zm-43,74V277h-2c-6.84,10.481-18.51,18.083-26,28-7.758,10.267-17.451,18.895-25,29-2.882,3.858-4.681,8.589-8,12q0.5,1.5,1,3C989.976,350.6,1009.66,346.967,1029,346Zm417-58h230V405H1446V288Zm274,4c46.87-.7,78.46,22.964,95,53,4.12,7.483,16.53,29.75,9,41-1.08,3.441-2.6,4.878-6,6-8.65,6.783-32.73,5-47,5-18.57,0-51.95,2.51-63-5-11.62-7.9-10.23-75.387-3-89,2.11-3.968,6.95-6.826,10-10C1717.53,292.926,1718.72,292.88,1720,292Zm-923,1h2c0.939,13.17,4.835,24.728,5,41h-1v-1C796.827,324.946,796.956,306.421,797,293Zm1047,1c-2.03,5.424-2.07,13.055-2,21,3.86,1.322,10.61,1.073,16,1l175,12c19.35,4.244,42.73,1.8,62,6h12l221,21c21.11,4.673,45.9,3.314,67,8l18,1c20.55,4.585,56.64,9.31,80,5v-2c-0.67-.333-1.33-0.667-2-1-10.05-7.347-35.57-5.566-50-9-31.27-7.444-67.26-6.714-99-14l-25-2c-49.31-11.255-107.33-7.882-157-19l-38-3c-24.85-5.574-53.96-3.419-79-9l-21-1c-21.07-4.675-46.63-2.3-68-7h-13c-12-2.633-25.84-.112-39-3C1884.25,295.105,1863.54,294.136,1844,294Zm-389,3v99h212V297H1455Zm1446,4c-1.65,2.825-2.61,3.424-3,8,2.09,1.121,1.83,1.434,5,2a28.9,28.9,0,0,0,1-9ZM1711,386l107,2c-2.81-48.356-46.76-96.864-102-84C1704.92,321.554,1710.87,360.367,1711,386Zm1269-73h89c14.97,0,33.82-1.836,47,1,18.65,4.015,39.32-2.4,55,3-1.02.8-.27,0.355-2,1-7.95,5.038-41.9,3-55,3-41.61.01-88.42,0.027-130,0-14.44-.009-51.11,1.964-59-4h2C2936.95,310.718,2971.3,318.421,2980,313ZM1842,353c24.88,2.636,58.37-1.1,82,4,15.96,3.444,33.33-1.167,48,2h20c13.04,1.2,30.35.269,43,3h20c17.23,3.742,38.82.291,56,4l101,5c28.7,6.238,62.44.822,91,7l28,1c19.87,4.326,43.32.487,64,5,10.48,2.289,22.46.465,34,3,18.54,4.071,41.29,4.7,61,4,1.3-2.418,1.8-2.833,2-7-14.31-8.616-29.78-5.641-49-10-32.02-7.261-68.82-4.8-101-12l-20-1c-32.35-7.239-69.45-3.79-102-11-11.24-2.489-22.91-.764-33-3-14.82-3.282-30.32-.978-44-4-19.24-4.251-40.62-.951-59-5l-76-5c-16.37-3.579-36.55-1.385-53-5h-14c-12.58-2.736-27.17,0-41-3-16.39-3.554-40.28-4.065-56-1-0.33,1-.67,2-1,3C1839.97,331.709,1841.87,346.161,1842,353Zm-559-14c-4.42,2.643-13.02-.3-19,1-21.13,4.607-46.33,1.487-67,6-8.62,1.883-18.85-1.148-25,3,22.17,0.311,49.51,1.228,69-3,10.24-2.221,21.07-.049,30-2,11.51-2.515,24.03.728,32-5h-20Zm-111,20c1.25,18.545,18.62,32.145,16,50-6.29-.09-7.91.68-8,7,4.99,6.659,9.21,21.4,13,29,1.33,2.658,1.55,8.67,4,10h107c0.13-34.75,1.69-73.39-2-105C1255.37,349.548,1212.86,353.851,1172,359Zm-106,96h83v-2q-21.495-49.995-43-100c-11.25-.473-24.44-1.963-33,2C1069.65,385.3,1066.42,421.5,1066,455Zm-57-100c-0.2,25.471-4.29,79.58,3,98,20.07,8.747,17-48.4,17-69,0-8.97,2.17-26.114-4-29h-16ZM2496,496h138l-3-35h-13c-7.7-4.511-21.23.161-31-2-20.67-4.571-60.26-2.213-67-19,5.89-3.483,10.5-9.3,17-12,12.41-5.158,28.7-3.912,43-7h20c12.59-2.723,30.17,1.992,44-1,8.05-1.741,20.3-1,30-1h122c7.03,0,21.07,2.061,26-1-19.66-3.711-41.74-8.644-61-14-23.46-6.522-48.34-8.239-71-14-29.76-7.565-60.36-9.731-89-17l-22-3a701.782,701.782,0,0,0-79-15v2c-4.43,6.88-3,31.626-3,43C2497,430.749,2495.94,463.812,2496,496ZM1002,455q-1-48-2-96c-13.132-.225-30.6-2.35-42,1-14.95,4.394-26.432,22.613-35,34-4.514,6-12.512,11.068-15,19-3.361,10.716,5.025,20.275,8,26l7,16h79Zm840-96v28c13.97-.065,28.41.9,41,1,11.28,0.086,25.41-1.065,35,1,13.52,2.91,30.73-1.642,43,1h21c18.82,0,44.83-1.7,62,2h25c12.2,0.021,29.49-.479,41,2,9.06,1.951,21.19-.683,29,1h27c6.54,1.415,17.21-.685,25,1,26.95,5.831,59.22-.77,86,5h20c20.91,4.526,47.62-.629,69,4,9.13,1.976,21.93,1.044,31,3h17c20.37,4.409,53.33,3.874,76,4,1.3-2.418,1.8-2.833,2-7-0.8-1.021-.35-0.274-1-2-2.68-1.642-5.94-5.011-9-6l-40-2c-31.24-6.848-67.53-2.146-99-9l-27-1c-32.36-7.066-70.4-.922-103-8-10.81-2.347-22.38.088-32-2l-34-1c-29.74-6.465-65.04.494-95-6h-20c-12.21-2.648-28.59-1.147-41-3h-20c-13.44-2.911-29.36,1.171-44-2-6.22-1.347-16.53.617-24-1C1884.6,358.015,1862.35,359.085,1842,359Zm-951,4c-1.438,1.05-3.922,1.558-6,2a15.7,15.7,0,0,0-1,5c1.546,1.133.843,1.085,3,2,5.555,3.72,10.944-3.549,12-8h-4C893.82,363.2,893.319,363.227,891,363Zm-75,5c-8.222,14.627,2.136,23.628,5,35v12c2.46,11.092,1.831,26.39,4,36a24.935,24.935,0,0,1,5,4c1.754-.631.971-0.193,2-1,3.693-4.8,3-15.855,3-24,0.008-20.382.842-42.549-3-59C827.494,368.977,822.929,368.006,816,368Zm626,79c0.37,2.076.24,1.924,1,3,7.06,6.2,20.72,1.623,32,4,23.08,4.864,61.92.456,81-4a12.527,12.527,0,0,1,1-4c1.69,1.86,1.58,3.662,4,5,7.69,5.881,22.45.564,34,3,20.75,4.377,58.87.951,77-3a21.334,21.334,0,0,1,2-5h1c0.12,5.866,1.38,6.1,4,9h2v-2c4.71-5.3,1.21-20.436,1-29l-150-4h-25c-21.08,0-47.37,1.252-67-3l-42-2q-16.005-2.5-32-5c-24.67-6.932-42.91-20.647-53-42h-2c-2.99,25.116-4.06,61.438,1,85a14.134,14.134,0,0,0,4,1,19.39,19.39,0,0,1,9-7v1c1.5,1.552.78,1.838,3,3,6.91,4.674,18.16.923,28,3,15.08,3.183,64,2.1,77-2C1436.82,450.8,1437.37,447.991,1442,447ZM228,455c24.16,0.247,49.946.447,69-4a21.42,21.42,0,0,1,2-5h1a14.338,14.338,0,0,0,1,5c28.859,3.735,70.34,6.515,99,0a12.662,12.662,0,0,1,1-4c3.488,1.195,5.546,3.884,9,5,11.143,3.6,55.1,5.086,68,2,9.969-2.384,19.286,1.017,28-2,2.955-1.023,5.2-4.818,6-5,1.445,1.85.714,2.684,3,4,7.35,5.615,20.878.648,32,3,21.187,4.481,49.035-.452,69-2,1.339-2.151,2.753-3.583,4-6h1c0.33,4.163-.185,3.676,3,5,6.453,4.364,16.826,1.061,26,3,21.418,4.526,53.009.934,71-3a12.662,12.662,0,0,1,1-4c3.471,1.2,5.537,3.971,9,5l15,1c21.494,4.673,53.613,3.01,74-1q0.5-1,1-2h-1v-1c-16.475-1.884-37.637-1.973-57-2V396c8.274,0.137,36.09,2.133,41-1,3.6-1.187,3.657-1.509,4-6,2.066-3.151,1.13-12.069,1-17-26.714-.218-61.974-2.036-85,3-11.789,2.578-24.452-.307-35,2H672c-9.758,2.139-23.293.876-33,3H622c-24.383,5.35-53.644.664-78,6l-30,1c-35.889,7.909-79.259,1.136-115,9l-26,1c-19.765,4.392-42.888,2.633-62,7-9.925,2.268-28.283.012-32,8v24h-1c-0.708,2.347-1.025,2.234-2,4-11.776-5.332-12.03-22.222-22-26v1c-3,4.789.336,24.63-1,32a14.124,14.124,0,0,1-4,1,116.3,116.3,0,0,1-18-26h-2C227.918,431.5,227.99,443.971,228,455Zm614,0c8.915,0.222,24.413,1.882,30-2,0.877-1.3.894-2.467,1-5l-30-68Q842.5,417.5,842,455Zm1675-63h-4c-1.48-2.556-2.4-3.147-3-7a15.662,15.662,0,0,1,5-1C2516.37,386.542,2516.92,387.5,2517,392Zm-675,1v28c63.01-.109,127.52,1,189,1l101,1,172,5c11.03,0.052,27.53-.25,38,2,9.06,1.948,21.19-.679,29,1,8.74,1.879,20.51-.61,28,1h28c13.75,2.948,53.45,3.1,64-1a15.649,15.649,0,0,0,1-5,19.241,19.241,0,0,1-2-4c-13.68-7.524-34.19-2.127-52-6-31.6-6.869-69.1-.1-101-7h-19c-32.52-7.051-71.25,1.082-104-6-7.47-1.615-17.78.345-24-1h-26c-8.13-1.758-20.62,1.027-30-1-11.01-2.38-28.45-1.946-40-2h-25c-14.62-3.157-34.25-2-50-2h-18c-19.16-4.135-48.33-1.551-70-2C1902.06,394.4,1872.24,393.07,1842,393ZM767,401v37h51c-1.269-10.991-4.788-20.01-5-33C802.885,399.249,782.874,400.9,767,401Zm42,33c-9.933.258-31.335,2.682-36-3-3.9-4.931-1.619-17.379-1-24l3-1c5.711-4.015,21.545.5,24,4,2.512,3.3,2.148,12.3,3,17h1c0.056-6.845,1.6-19.445,5-24Q808.5,418.5,809,434Zm2181-28h80c12.8,0,28.93-1.384,40,1,8.24,1.774,21.71-2.919,28,1l-88,1c-12.18,0-27.54,1.251-38-1-12.14-2.612-40.32,4.383-49-1C2970.01,407.163,2985.16,409.134,2990,406ZM1688,418c-0.24,12.692-.86,27.478,3,36,8.89,1.16,12.96-.568,16-8,1.69,1.86,1.58,3.662,4,5,7.69,5.881,22.45.564,34,3,20.75,4.377,58.87.951,77-3a21.334,21.334,0,0,1,2-5h1c-0.02,5.055.29,6.585,4,8v1h1v-1c5.64-6.208,4.14-24.619,4-36H1688Zm154,7v28l176,4,68,1c14.04,0,31.73-1.64,44,1l129,1c20.06,4.319,49.53-3.4,70,1,17.68,3.806,41.07-3.074,60,1,11.37,2.446,27.89,1,41,1l62,1c0.23-6.307.75-14.545-2-18-10.02-9.133-31.99-2.545-48-6-28.42-6.134-64.42,1.153-93-5h-26c-9.09-1.959-22.67,1.228-33-1-9.04-1.948-22.3-.778-33-1-14.44-.3-34.67-0.691-49-2h-43c-9.56-2.06-23.74-.993-35-1l-40-1h-23c-16.41-3.534-38.34,2.8-56-1-17.68-3.807-41.07,3.075-60-1-11.97-2.576-29.27-1-43-1Zm827,1c-8.08,4.848-26.55-.581-37,1-21.22,3.209-46.03.624-66,5-9.39,2.058-19.48-.618-26,4h2c3.51,2.186,12.7,1,18,1l36,1c46.64,0,110.51,5.017,150-4,0.96-1.766,1.26-1.68,2-4-2.42-1.3-2.83-1.8-7-2-3.68-2.3-10.83.1-16-1C2709.14,423.632,2686.72,425.885,2669,426Zm98,1c-1.18.8-1.68,0.773-4,1a35.8,35.8,0,0,1-5,5v2h2c6.12,4.122,17.2.141,26,2,8.07,1.7,20.28,1,30,1l66-1c9.66,0,33.12,1.695,39-2-15.58.012-33.72-.916-48-4l-30-1C2820.37,425.09,2792.96,427.168,2767,427ZM198,435c-8.15,5.342-21.4,4.1-22,17,2.806,1.513,4.964,2.043,10,2,1.541-2.633,3.5-6.213,6-8,0.361,11.492,13.522,8.839,23,8l2-3C211.346,442.553,212.908,434.668,198,435Zm2437,13c-3.54,2.138-12.49-.19-16,2h51c5.71,0,16.16,1.414,20-1Zm174,0c-2.1,1.273-7.92.686-10,2,9.81,0.135,45.19,2.682,51-1ZM165,449c-5.889.136-17.729,1.916-20,6-3.515,5.7-1,35.72-1,45,0,34.432-.642,73.784-2,108h2c4.736,3.227,13.633,4,21,4,3.281-9.942,1-27.127,1-39V489C162.894,484.111,164.888,457.186,165,449Zm2737,6c-1.57,1.8-1.97,1.281-3,4-0.75,1.073-.6.946-1,3a14.134,14.134,0,0,0,4,1C2903.73,460.03,2905.1,457.759,2902,455ZM105,464V597c10.055,1.411,14.71,6.711,27,7,6.717-10.956,6-31.441,6-49,0-33.717-1.79-66.262-2-98a15.7,15.7,0,0,0-5-1C126.624,459.05,110.99,463.154,105,464Zm2733,33,52-3c0.06-11.277-.54-23.132-1-33a24.823,24.823,0,0,1-5-4c-16.2-.2-31.92.185-46,3v37Zm-191-38c-1.84,2.789-3.19,2.825-4,7-1.83,2.862.64,33.992,2,40,9.03,39.777,6.9,83.971,16,123,2.33,10.009,2.11,41.889,9,45,2.93,1.637,4.82.223,6-3,2.1-3.286,1-11.952,1-17,0-14.746-2.44-27.456-3-41-2.11-51.015-13.9-101.511-18-151C2652.91,460.053,2652.57,459.113,2647,459Zm20,0q1.005,17.5,2,35c42.07,0.126,97.01,7.57,135-1a115.167,115.167,0,0,0,4-30l-3-1c-5.69-3.958-30.2-3-40-3h-98Zm147,186h3c1.48-11.361,3.36-26.777,6-39,3.37-15.6-.16-32.3,3-47q0.495-20.5,1-41c3.42-15.865,2.79-43.19,0-58-1.75-.631-0.97-0.193-2-1-1.75.631-.97,0.193-2,1-11.72,8.541-5.26,37.493-9,55-1.67,7.814.94,19.933-1,29-1.79,8.362-1,20.979-1,31C2812,598.9,2813.07,623.84,2814,645ZM1842,461v31h650q-1.005-11-2-22l-190-4ZM176,463c-0.094,5.953.083,12.477,1,17l3,1c4.554,3.5,11.006,1.488,18,3,18.714,4.046,42.791,4,64,4,10.209,0,24.278,1.668,29-4,1.58-2.506,1.994-8.441,3-11,8-5,27.751-6.016,34,2,1.734,2.282,1.977,7,3,10,12.448,5.6,40.91,3.912,55,1,1.642-4.27,1.486-11.171,6-13,6.72-4.58,20.591-1.041,28,0a87.228,87.228,0,0,1,8,15h1c0.229-7.588,3.1-13.08,9-15,5.2-4.2,17.45-1.4,23,0,2.273,3.311,5.667,9.632,9,12,10.039,7.673,60.851,2.109,75,1v-1c-2.08-2.618-1.275-1.942-1-6,15.139-10.044,35.758-11.279,42,9h1c0.888-8.421,4.532-11.419,9-16,10.351-.66,20.822-0.066,26,7,3.311,4.518,3.253,9.918,9,12,12.768,4.626,45.567.616,56-2,1.668-4.151,2.522-9.369,7-11,6.725-5.285,21.387-2.165,30-1,1.971,3.3,5.176,10.461,9,12,4.191,3.71,14.295,3,22,3,16.155,0.007,63.9,3.3,70-5,2.2-3.294,1.605-9.9,4-13a76.9,76.9,0,0,0,2,18h2v-1c6.245-6.522,3.477-26.532-5-28-1.669,2.693-3.491,4.9-5,8-9.334-8.243-35.109-6-52-6-38.368,0-79.178-1-119-1C494.567,464,334.864,462.987,176,463Zm681,0c-5.153,2.945-11.21-.5-14,5-0.752,1.073-.6.946-1,3,7.613,4.822,26.292,5.392,38,3a18.324,18.324,0,0,0,1-6l-3-1C874.11,463.425,864.161,462.99,857,463Zm96,0c-3.121,1.93-21.124,2.145-25,3v4c8.13,5.145,64.294,9.54,74,2,0.88-1.3.89-2.467,1-5l-3-1C993.628,461.719,963.873,462.915,953,463Zm63,0c-3.84,2.877-6.36,1.455-7,8,1.8,1.565,1.28,1.966,4,3,5.87,4.431,12.04-.658,12-7C1022.12,465.23,1020.2,463.922,1016,463Zm51,0v54c16.01-.229,33.12.969,46,4,2.83,4.9,4.05,9.661,4,18-10.89,6.173-33.24,4.1-50,4v74c17.31-.234,35.95.707,50,4,3.02,5.319,4.46,12.8,5,21-12.34,4.109-39.96,1.079-55,1v66h137c0.16-5.529,1.38-16.373-1-20-4.52-12.228-26.44-16.359-37-23-18.71-11.772-35.58-29.01-43-52-11.22-34.773,1.79-70.829,17-91,7.46-9.891,25.65-13.093,26-29-3.31-4.417-9.72-29.341-12-31h-87Zm134,0c2.29,6.3,3.8,12.578,9,16,4.52,3.368,17.84.482,26,0,20.76-1.226,49.18-2.059,66-9,0.67-1,1.33-2,2-3a2.909,2.909,0,0,1-1-1C1272.02,462.423,1235.75,463.069,1201,463Zm480,244c1.14-49.28,2-100.971,2-151,0-30.412-2.29-64.338,1-93H1521c-24.23,0-58.21-3.686-80,1h-37c-32.19,0-68.23-2.045-95,4v4c5.75,2.927,12.34,1.068,21,3,19.52,4.356,40.29,1.315,59,6,22.55,5.647,45.87,7.264,68,14,46.26,14.079,92.75,26.54,132,47,15.27,7.959,56.02,25.7,41,55-4.32,8.43-15.54,13.447-23,19q-4.005,4.5-8,9v18c-12.8,8.055-38.45,23.2-55,26-2.32-8.268-7.34-15.367-19-15-11.17,8.226-29.44,8.563-44,13-36.52,11.13-78.12,13.826-118,23-17.94,4.128-45.06-1.336-61,5a14.159,14.159,0,0,0-1,4,35.982,35.982,0,0,0,3,3c12.89,9.657,60.56-.377,81,4,8.96,1.92,22.36,1,33,1h263Zm7-244V584h146V463H1688ZM98,468c-10.4.841-19.168,7.924-27,12-20.246,10.536-57.25,23.608-62,48-2.033,10.442,7.381,18.4,12,23,13.7,13.658,30.816,21.592,49,31,7.93,4.1,15.317,9.775,27,10v-2c3.913-5.849,3-25.159,3-35C100,525.506,99.261,494.73,98,468Zm206,8c-1.883,2.166-2.222,1.2-3,5l3,1c3.181,2.722,10.814,2.664,14,0,0.752-1.073.6-.946,1-3l-3-1C313.333,475.867,309.046,475.88,304,476Zm256,4c-3.047,2.307-6.51,2.425-3,6,4.129,3.423,12.672,1.858,17,0a14.124,14.124,0,0,0,1-4h-2C570.19,479.758,565.285,479.864,560,480Zm41,0c-0.771.682-2.232,1.311-3,2-0.8,1.18-.773,1.681-1,4h2c3.432,2.811,10.367,2.038,15,1a14.124,14.124,0,0,0,1-4c-3.076-.894-2.958-1.584-7-2C606.451,479.951,603.915,479.969,601,480Zm-201,1c2.432,2.758,8.72,2.21,14,2v-2H400Zm42,0c2.432,2.758,8.72,2.21,14,2v-2H442Zm400,1v35c19.717,0.13,41.149.031,58-2-0.92-7.964-10.632-27.854-17-30C877.663,481.232,851.312,481.914,842,482Zm183,35c0.15-11.234-.03-23.6-2-32h-2c-4.18-2.636-19.1-2-26-2-20.784,0-40.6,1.027-60,2v1c3.991,4.594,10.3,29.044,13,31h77Zm284-34V638c-11.6-.154-22.64.109-32,2v4c3.31,3.779,14.99,33.791,16,40,67.19,1.265,131.83-8.425,183-25,15.73-5.1,31.5-5.674,46-12,6.68-2.914,5.07-7.448,9-13,2.43-3.434,16.64-11.086,21-13a178.271,178.271,0,0,1,30-10c7.12-1.693,11.2,2.119,17,0,8.86-3.236,23.15-13.891,26-23,3.03-9.66-6.24-15.368-10-19-14.26-13.788-33.37-21.46-53-30C1491.75,508.436,1405.19,486.087,1309,483Zm-5,151V484c-29.2-.351-61.78,1.506-85,7a17.885,17.885,0,0,1-3,4c2.12,10.8,8.03,20.705,12,30,11.12,26.01,21,51.884,32,77,2.27,5.183,9.85,30.258,13,32h31ZM701,485v2h16v-1C713.144,484.678,706.386,484.927,701,485Zm-525,7V617c23.383,4.626,49.362,14.592,72,22,31.088,10.173,64.39,14.079,96,23l109,19,36,4c27.414,6.44,59.77,4.565,88,11l34,2c16.51,3.69,37.232,1.212,54,5h16c11.313,2.512,27.194,1.92,39,3h20c6.854,1.52,17.911-.793,26,1,17.249,3.823,47.926,2.953,67,3q1.5-34,3-68l-79-2c-16.817,0-38.022,2.235-53-1-19.866-4.291-48.534,3.207-68-1H607l-56-1c-12.486,0-28.241,1.331-39-1H488c-14.4,0-30.374-.766-44-2-11.99-1.086-26.221,2.166-30-7-0.877-1.295-.894-2.467-1-5,22.114-12.687,91.413-9,127-9l293,3c0.37-13.978,6.415-29.153,3-45a145.131,145.131,0,0,1-3-27l-71-4-232-2c-71.057,0-155.433,5-213-10v-3l6-7c11.767-7.575,31.708-.51,48-4,8.058-1.726,20.29-1,30-1h57l247,2c40.553,0,88.246,3.989,124-3,0.98-4.947,2.238-6.769,7-8v-1c-3.516-.857-9.985-2.13-14-3H795c-12.27-2.642-29.481,1.911-43-1-17.518-3.772-51.914-2-71-2H626c-16.793-3.613-40.322-1-59-1l-102-1Zm122,4c2.2,1.706,2.488,2.421,3,6-2.725,1.708-2.5,2.536-7,3-0.631-1.754-.193-0.971-1-2l1-3A51.523,51.523,0,0,0,298,496Zm1544,1v41h746V502l-152-4c-32.89-4.945-70.83,5.707-102-1H1842ZM404,500l5,2v2a24.935,24.935,0,0,0-5,4c-1.754-.631-0.971-0.193-2-1-1.624-1.35-1.121-.64-2-3h1C402,501.252,402.44,501.805,404,500Zm2188,1V613c18.8,0.155,41.33,1.264,57-2v-7c-2.96-4.315-3.06-13.129-3-20-7.58-4.422-6.79-1.428-16-4-12.25-3.421-25.01-14.3-26-29,6.51-8.034,9.27-17.245,18-23,4.14-2.73,11.53-1.55,14-6,3.17-4.49,1.55-12.2,1-18-0.67-.333-1.33-0.667-2-1C2629.57,498.836,2601.98,500.871,2592,501Zm207,111,3-30c2.66-12.307-.43-25.748,2-37,3.15-14.583-2.38-30.967,2-44H2686c-4.19,2.456-9.96.488-13,4-3.5,4.513-1.25,21.008,0,29,2.85,18.183,3.82,38.812,8,56,1.77,7.261.22,15.837,4,21,2.48,1.644,8.9,1.123,13,1,5.26,3.287,20.56,1,28,1C2750.65,613,2775.72,612.187,2799,612Zm39-111q-1.995,17-4,34-1.5,39-3,78h61V501h-54Zm135,1h114c10.74,0,38.43-2.092,45,2H3008c-9.55,0-41.17,2.618-47-1C2964.87,503.147,2970.72,503.537,2973,502Zm-1803,7c-3.78,3.6-8.81,5.834-13,9-9.71,7.327-19.06,22.122-24,34-2.92,7.009-4.33,15.557-6,23-1.35,6.036-.05,16.524,1,21,8.93,37.973,23.22,48.5,52,66,7.15,4.348,15.23,10.678,24,13V597c-3.27-5.609-1.91-14.649-4-21-5.43-16.48-13.37-32.816-20-48C1177.32,521.862,1175.76,511.888,1170,509ZM349,520c-4.075,2.522-17.906,2.1-22,3v2h1c6.1,5.241,17.215.9,27,3,17.166,3.681,41.932,2,61,2h20c11.374,2.438,27.886,1,41,1l63,1,175,2c24.37,0,50.143-.935,73-1,15.652-.044,34.371,1.552,46-3v-1h-1c-1.268-4.121-2.619-4.9-8-5-7.425-4.567-23.451,1.046-33-1-11.072-2.372-27.2-1-40-1l-60-1Zm-124,1h67v68l-65-3Q226,553.5,225,521Zm627,1c-4.544,2.731-7.973.455-10,6h1c7.261,10.159,46.557,11.1,64,9,0.631-1.754.193-.971,1-2-0.667-3.507-1.99-8.568-4-11C897.027,519.3,863.894,521.887,852,522Zm108,0c-0.771.682-2.232,1.311-3,2-2.105,2.637-1.251,2.439-1,7,11.193,6.626,29.975,6,48,6,6.88,0,16.05,1.021,20-2,0.8-1.18.77-1.681,1-4-0.8-1.021-.35-0.274-1-2-3.36-.877-5.43-3.1-8-4C1001.94,520.1,977.843,522.085,960,522Zm-726,4v58h54V526H234Zm842,0c-1.52,1.051-4.91,1.586-7,2a10.947,10.947,0,0,1-2,3c0.63,1.754.19,0.971,1,2,1.12,2.873.17,1.842,3,3,7.08,5.008,41.03,4.179,42-6C1104.53,525.16,1089.8,525.9,1076,526Zm1555,4c-2.69,2.173-6.23,2.9-9,5q-4.005,5.5-8,11c-1.57,16.338,5.73,29.018,23,29,0.77-.682,2.23-1.311,3-2,6.72-7.364.95-28.637,0-39C2636.67,531.77,2636.81,530.312,2631,530ZM274,536c2.873,1.12,1.842.174,3,3,6.291,7.8,2.458,27.723-1,35-1.754-.631-0.971-0.193-2-1C267.98,566.379,270.735,543.093,274,536Zm-30,5c3.393,4.483,3.359,23.51,0,28C243.361,560.571,243,549.382,244,541Zm17,0c4.31,6.608,1.209,19.354,1,28h-1v-1C258.113,563.672,259.355,545.622,261,541Zm581,1c-0.336,25.963,1.172,51.438,6,72h2c5.485,3.5,14.364.386,22,2,17.791,3.76,49.685,2.546,66-1v-2c3.07-4.532-.362-13.16-2-17-5.119-12-11.761-25-17-37-2.952-6.763-1.2-13.781-11-14-4.251-2.642-15.8-.952-22-1Zm183,75V543H960v1c4.288,4.965,5.187,12.542,8,19,7.355,16.887,15.008,35.034,23,52Zm817-74v46l108-4c18.3-3.94,40.95,2.67,58-1l580-5V543H1842ZM763,550h58c4.109,12.339,1.079,39.958,1,55H763V550Zm4,5v45h50V555H767Zm42,40H771c-0.151-10.67.15-22.111,2-30a180.569,180.569,0,0,1,35-5C810.951,568.786,809.083,584.337,809,595Zm-7-25c-0.154,4.279-.744,11.387,1,14C803.72,579.2,805.056,573.369,802,570Zm1040,23v41l608-11,133-4c1.71-2.725,2.54-2.5,3-7,3.65-5.579,2.13-19.371,2-28ZM1688,755h146c0.22-35.082-.99-71.417-1-105,0-20.933,2.2-46.306-4-62-1.75.631-.97,0.193-2,1-1.74,1.819-2.87,4.606-4,7h-1v-1a19.241,19.241,0,0,1-2-4c-22.51-1.713-49.42-2.485-73-2-11.14.229-28.87-1.669-37,2-2.35,1.059-2.38,3.7-5,5-0.3-4.543-.45-4.749-4-6a6.786,6.786,0,0,0-9,0h-1C1685.07,639.77,1688.07,700.478,1688,755ZM2942,598h100v2H2942v-2ZM293,605c22.036-.686,41.536,1.277,57,7,7.488,2.772,14.5,2.093,15,12-2.738,1.847-5.688,4.806-9,6-18.654,6.728-70.544.792-75-12-1.049-1.549-1.031-4.085-1-7,2.072-1.283,2.3-2.077,5-3C286.945,606.55,290.92,606.429,293,605Zm921,5c-0.66,7.8-.57,15.354,1,22,2.28,1.225,2.25,1.638,6,2,1.22-2.281,1.64-2.251,2-6C1219.35,622.442,1220.12,613.047,1214,610Zm-919,1c-1.194.777-4.815,1.2-6,2-2.347.708-2.234,1.025-4,2v1h1c8.748,12.25,51.077,8.982,71,8l2-3C343.155,611.973,320.018,611.094,295,611Zm1286,3c-5.63,4.362-13.75,5.212-20,9-6.75,4.092-14.24,10.383-22,13v2h1c2.3-1.394,6.12-.961,9-2,9.4-3.394,31.99-11.293,35-20h-1C1581.71,613.533,1583.43,615.319,1581,614ZM461,619c-5.96,3.633-18.225-.766-26,1-4.354.989-8.936,2.952-13,4v2h2c6.779,4.475,17.435.946,27,3,12.822,2.753,28.477,2,43,2h16c19.5,4.176,48.085-3.258,68,1,16.2,3.465,38.93,1,57,1l100,1c19.91,0,45.008,2.881,63-1,12.6-2.717,25.345.787,35-3q0.5-1.5,1-3c-8.06-4.51-13.1-1.656-24-4-8.357-1.8-20.983-1-31-1H721Zm489,16a34.041,34.041,0,0,0-1-8c-13.514-6.164-52.773-9.177-72-5-9.62,2.09-18.722-.865-25,4-0.752,1.073-.6.946-1,3l2,1c5.058,3.815,12.255,1.334,20,3C895.516,637.843,924.635,635.065,950,635Zm50-13c-1.133,1.546-1.085.843-2,3-1.671,2.64-.135,5.376,1,8,9.17,4.744,26.7,10.731,26-7a11.67,11.67,0,0,1-2-3A217.02,217.02,0,0,0,1000,622Zm72,0a19.464,19.464,0,0,1-4,2c-0.61,4.454-1.6,7.759,1,11,7.08,6.461,32.87,3.012,42,1,0.33-1,.67-2,1-3,2.46-3.483.26-6.821-3-8C1102.24,619.83,1083.14,621.872,1072,622Zm1520,0v62c0,8.428-.91,21.863,3,27,1.69,1.142,4.9,1.066,8,1,7.32-4.726,19.44-2.65,29-5,20.11-4.944,50.18-10.205,72-11,0.16-23.406,2.57-52.992-2-73h-2c-2.31-1.541-8.11-1.119-12-1-2.77,5.259-2.12,15.75-2,24,2.7,4.293,3.04,26.057,3,33-7.45,1.069-17.61,6.525-24,2-13.37-4.759-7.68-18.613-11-34-1.7-7.865-3.82-16.159-4-25h-58Zm117,0c-0.16,21.426-1.91,47.848,2,66,13.51,8.172,63.02-5.161,79-10,8.91-2.7,21.96-2.661,25-11,1.66-2.453.62-5.25,0-8-3.72-1.555-10.2-3.342-12-7-4.73-5.243-3.17-20.251-3-30h-91Zm133,0c-2.75,1.732-9.07,1.926-12,3v2c19.32,2.483,41.65,3.239,60-1v-1l-3-1C2878.56,618.545,2854.33,621.875,2842,622ZM843,623v9h1v-1c2.185-2.727,1.666-4.509,1-8h-2Zm999,16v32h89c14.96,0,33.83,1.848,47-1,12.88-2.785,29.37,1.516,41-1h18c15.49,0,34.66,1.1,49-2h30c25.56-5.543,56.55,1.51,82-4h26c6.54-1.42,17.22.691,25-1,6.22-1.352,16.54.622,24-1,28.22-6.134,63.84,1.1,92-5l44-1c5.27-1.148,14.49.419,21-1,31.1-6.777,68.02.724,99-6h18c13.02-2.842,29.45-1.264,40-6a140.743,140.743,0,0,0,1-16l-64,1c-13.42,0-30.33-1.511-42,1-16.7,3.594-37.54-2.325-53,1-16.07,3.457-36.18-2.188-51,1l-185,3c-9.86,2.124-24.44,1-36,1l-46,1h-25c-17.68,3.807-41.07-3.075-60,1-19.24,4.141-45.94-3.315-66,1-12.88,2.77-31.34,1-46,1ZM833,713H769c-10.937,0-24.75,1.01-34-1-8.1-1.76-19.143.491-26-1-12.472-2.712-25.869.424-37-2H656c-15.534-3.422-34.755-1.643-50-5l-22-1c-22.533-5.033-48.836-3.935-71-9l-23-2L389,676c-39.658-10.154-81.66-13.611-120-26-12.1-3.91-25.878-5.762-39-10-11.4-3.681-22.783-8.628-37-9v2h1c20.058,19.962,52.028,33.736,77,49,78.8,48.166,176.562,71.678,276,100,36.083,10.277,73.473,11.667,111,21,31.543,7.845,68.363,7.442,101,15l27,2c8.013,1.792,41.659,6.868,48,4,2.521-1.462,1.828-1.255,2-5-8.725-12.24-4.373-30.336-1-46Q834,743,833,713Zm748-81c-11.35,7.459-40.92,9.453-38,27h2c3.25,2.155,9.8.38,13-1,8.89-3.831,34.18-13.659,37-22h-1c-1.12-2.873-.17-1.842-3-3C1589.01,631.663,1584.49,631.9,1581,632Zm-363,6c-1.53,2.464-2.29,2.276-3,6-4.66,6.7.18,31.122,5,33,4.45,3.07,15.42,2.2,21,1v-8c-7.49-8.727-8.19-26.891-20-31C1219.93,638.248,1220.05,638.4,1218,638Zm1633,0c-3.74,2.315-16.24,2.171-20,3q-1.005,6-2,12c-2.92,5.282-6.93.043-8,13,1.85,2.121.92,2.734,4,4,2.64,1.6,13.42.2,18-1,12.62-3.3,42.21-7.274,46-18,2.09-2.275,2.11-5.344,2-10h-1v-1A358.229,358.229,0,0,0,2851,638ZM980,709c-1.957-18.419-11.667-33.466-18-48-1.388-3.185-5.076-16.651-7-18H855c0.093,9.688,5.5,38.364,2,44,0-15.105-5.031-32.443-10-44h-2c-1.961,14.227-10.032,65.536,8,66,1.021-.8.274-0.355,2-1l5-7c1.372-3.784.094-7.223,2-10q0.5,6.5,1,13c2.725,1.708,2.5,2.536,7,3,4.886,3.037,23.989,2,32,2h78Zm27-66c-2.78,8.016,10.8,36.424,16,40v1h1c0.93-11.342,2.88-30.288-1-40C1019.14,642.678,1012.39,642.927,1007,643Zm835,34c-0.15,12.139.04,24.4,2,34l3,1c6.14,3.87,32.63.017,42,0l112-5c23.33-2.147,51.39-.1,74-5,11.8-2.557,24.45.287,35-2h17c9.71-2.119,23.24-.884,33-3h16c14.68-3.205,33.32-.818,48-4h16c23.39-5.111,51.68-.938,75-6l30-1c26.1-5.715,56.95-1.332,83-7l25-1c29.65-6.525,63.59-2.566,93-9,10.82-2.367,34.45,1.633,40-5,11.35-14.874-19.37-14.594-31-12-28.35,6.32-62.54-.284-91,6-6.19,1.366-15.05-.092-20,1l-39,1c-33.13,7.259-74.74-1.293-108,6-7.14,1.566-17.1-.294-23,1l-51,1c-26.71,5.812-61.19-1.873-88,4h-34c-17.13,3.719-46.78,2-66,2h-21c-18.31,3.973-42.44-3.242-62,1-12.26,2.659-29.97,1-44,1ZM401,659h3c1.544,2.326,4.19,4.812,3,7l-1,2c-1.754-.631-0.971-0.193-2-1-2.873-1.12-1.842-.174-3-3-0.752-1.073-.6-0.946-1-3C400.8,659.979,400.355,660.726,401,659Zm758,38c-16.87.557-38.25,0.509-38-17,2.98-3.251,3.31-7.286,8-9,5.65-5.634,24.51-4.148,27,3C1159.29,678.6,1159.08,689.6,1159,697Zm1703-25c-1.84,2.919-2.74,2.9-3,8,8.12,8.35,15.03,1.554,9-8h-6ZM1842,718c-0.15,10.37.33,19.9,2,28h17c4.4-2.657,13.03.3,19-1,11.82-2.573,25.93.845,39-2,11.53-2.509,25.28.772,38-2,27.99-6.1,61.17.044,89-6l33-1c33.56-7.334,72.68-.742,106-8l28-1c24.15-5.3,52.94-1.734,77-7l24-1c20.71-4.571,45.73-1.281,67-6,18.77-4.166,40.4-1.617,60-6l145-18v-2c1.91-2.376,2.06-5.487,2-10-5.45-2.869-16.52-2.124-25-2-8.41,5.056-40.54,2.24-53,5-38.71,8.572-83.79,2.469-123,11l-28,1c-32.07,7-69.75,1-102,8-10.46,2.271-21.68-.024-31,2l-48,2c-26.95,5.862-58.98.141-86,6h-19c-17.48,3.792-39.41.188-57,4h-20c-13.44,2.91-29.36-1.169-44,2-15.6,3.376-35.47-1.574-52,2C1883.54,719.559,1860.47,717.933,1842,718Zm-707-42c-0.77.682-2.23,1.311-3,2-0.8,1.021-.35.274-1,2-2.4,3.412-.26,8.375,1,11,5.95,0.761,14.12,1.188,20,0,1.67-3.1,2.1-6.486,2-12-0.67-.333-1.33-0.667-2-1C1148.62,675.333,1141.15,675.844,1135,676Zm-733,8h5c1.225,2.281,1.638,2.251,2,6-0.8,1.021-.355.274-1,2-3.042.075-2.744,0.756-4,0-2.748-1-2.195-1.44-4-3,0.631-1.754.193-.971,1-2Zm813,3c-2.12,4.356-3.46,14.721,0,19,7.47,6.868,30.69,2.232,39,0v-7c-0.8-1.021-.35-0.274-1-2C1243.41,691.044,1230.44,687.134,1215,687Zm-959,1-3,13c-0.634,1.221-3.489,2.429-4,4-2.549,7.84,4.038,17.368,6,22,6.816,16.089,12.568,31.772,20,47,8.821,0.236,16.59,3.093,24,5,11.208,2.884,23.456,2.524,34,5,22.687,5.328,47.962,3,70,8l20,1c24.587,5.51,53.917,2.412,79,8l31,1c10.609,2.325,23.351-.552,35,2,12.808,2.806,33.769,5.232,46,3v-1c-19.763-8.254-45.628-8.571-68-15-42-12.068-85.29-22.685-125-36-10.927-3.664-20.587-4.715-31-9-28.37-11.673-55.649-22.974-83-35C290.831,703.891,275.849,690.679,256,688Zm2323,5c-8.12,4.9-28.28,2.493-39,5-23.08,5.395-50.3,4.733-74,10l-30,2c-40.94,9.122-90.7,3.966-132,13-16.11,3.524-33.04.734-48,4-17.09,3.732-35.03.518-51,4-21.09,4.6-46.43.523-67,5l-28,1c-23.05,5.044-50.82.965-74,6l-135,7c-10.85.05-52.65-.917-57,4-2.13,2.667-2.12,6.954-2,12a35.982,35.982,0,0,0,3,3c6.65,5.061,28.44,2,39,2,23.66,0,49.8,1.672,71-3l34-1c26.23-5.784,57.07-1.269,83-7l25-1c18.09-4.013,40.01-2,58-6l22-1c16.66-3.716,35.32-1.026,53-5,12.4-2.788,26.48-.956,40-4,12.15-2.736,25.77-1.008,39-4,34.85-7.883,74.4-5.064,109-13l25-2c33.25-7.754,71.01-6.275,104-14,14.01-3.281,47.64.062,38-17h-6Zm180,0c-7.78,4.741-31.13,5.27-41,9,4.66,7.8,13.73,22.147,23,25,7.54,2.321,16.82-2.589,22-4,4.69-7.956,8.86-15.092,9-28C2768.74,693.251,2764.74,692.892,2759,693ZM825,696a21.42,21.42,0,0,1,5,2q-0.5,1.5-1,3a17.263,17.263,0,0,0-5,3l-3-1v-4A18.068,18.068,0,0,0,825,696Zm42,17c0.222,8.915,1.882,24.413-2,30,0.169-9.267-2.183-24.388-9-27-2.376-1.909-5.487-2.056-10-2q-0.5,1-1,2c-5.685,7.34-3.536,57.228,0,66l3,1c4.1-3.15,13-2.885,19-4,2.192-4.128,2.124-11.122,2-18-1.337-1.992-1.1-6.507-1-10h1v2c4.034,5.235,2.333,15.294,6,21,7.164,11.148,25.227,11.06,29,26,2.219,8.785-6.772,12.394-7,24,20.822,11.811,71.943,9,104,9,35.86,0,73.74,1,111,1,16.51,0,37.32,2.163,52-1h27c16.45,0,32.83-1.024,46-4v-2h-1v-1c-27.2-1.578-58.83-3-88-3-17.42,0-39.43,2.381-55-1h-22c-11.02-2.421-25.49-1.621-36-4-25.43-5.755-54.872-4.671-67-23-6.7-10.125-5.8-36.326-3-49,5.3-3.324,28.1-15.319,21-26-3.923-5.9-23.461-5-33-5Zm815,3c-29.05-2.028-62.3-1-93-1l-102-1h-67c-11.25,0-25.44-1.06-35,1-17.34,3.736-38.91-2.47-55,1-7.47,1.61-16.12-1.668-21,2h1c4.31,3.527,11.35,1.442,18,3,15.7,3.68,32.5,3.89,49,8,13.56,3.377,28.98,2.527,44,6,17.06,3.946,37.04,1.979,55,6,38.83,8.692,82.02,6.817,119,16,18.65,4.631,35.94,4.188,54,9,9.35,2.491,22.41,6.654,32,3C1686.79,755.869,1682.13,732.454,1682,716Zm878-1c2.76,1.932,16.23,1.912,19,0h-19Zm-21,3c-6.66,3.946-25.09.987-34,3-23.12,5.221-49.25,4.818-72,10l-24,2c-39.68,9.108-84.75,6.035-125,15-13.1,2.917-26.92,1.341-39,4-18.07,3.977-37.01,1.27-54,5-22.67,4.976-48.01,1.2-70,6l-25,1c-22.04,4.837-48.74,1.168-71,6l-131,6c-13.11.163-46.98-.675-51,7-0.96,1.418-.98,3.273-1,6l3,1c4.45,2.834,42.25,1.484,49,0,33.67-7.4,72.47-1.7,106-9l25-1c34.83-7.689,74.62-3.446,109-11l21-1c26.86-6.013,58.26-4.076,85-10l28-2c24.8-5.591,53.6-3.237,79-9,18.36-4.165,38.56-2.541,58-7,12.24-2.808,25.68-1.914,39-5,32.73-7.584,69.07-9.178,101-16v-1h-6Zm-1448,1c-6.45,3.725-17.97.172-26,2-24.34,5.537-47.74,8.188-68,16-8.435,3.253-19.387,4.914-20,16,25.73,15.92,53.25,8.7,87,16h21c7.18,1.542,18.57-.807,27,1,10.04,2.153,24.7-1.415,36,1,15.61,3.337,37.54.98,55,1,20.84,0.023,48.58,4.426,69,0h21c20.81,0,46.59,2,65-2h23c16.8-.347,45.35.4,61-3,7.05-1.532,21.52,3.066,25-2-12.41-2.938-27.82-5.812-41-9-13.33-3.225-27.44-2.162-40-5-17-3.843-34.88-1.4-51-5-21.43-4.781-46.12-.373-67-5l-64-2c-21.68-1.971-47.66-1-71-1h-34l-53,4c-16.42,3.768-34.48,7.616-53,8v-2l3-1c12.94-9.914,52.72-7.575,73-12,8.48-1.851,20.39-2.877,30-3h20c14.25-3.047,41.76-3.069,56,0h17c15.66,0,32.99-1.021,47,2h21c22.5,4.858,49.03.011,72,5l69,8c7.22,0.5,21.2,4.511,27,1C1326.26,726.725,1214.3,719.25,1091,719ZM763,730h59v50H763V730Zm1989,0c-1.44,1.05-3.92,1.558-6,2a15.649,15.649,0,0,0-1,5c4.52,4.473,7.14,10.86,11,16l15,14c1.75-.631.97-0.193,2-1,0.88-1.295.89-2.467,1-5-5.22-8.912-1.1-25.007-11-29C2760.6,729.8,2756.87,729.859,2752,730ZM569,734c17.754-.549,46.95,5.022,51,17,4.756,7.184-3.735,15.131-8,17-21.524,9.432-66.391,4.2-66-21,4.319-4.39,6.469-8.606,13-11C561.989,734.9,566.57,735.553,569,734Zm198,0v37h50V734H767Zm42,34c-12.941.24-28.208,0.958-37-3-1.015-7.081-2.928-20.811,2-25,4.813-3.946,21.686-1.269,25,3,2.512,3.3,2.148,12.3,3,17h1c0.045-6.7,1.6-18.783,5-23Q808.5,752.5,809,768ZM695,738c4.692,0.117,6.372,1.117,10,2a18.068,18.068,0,0,0,3,4,50.073,50.073,0,0,1-1,11c-2.825,1.647-3.424,2.611-8,3-3.627-2.982-7.277-4-9-9-1.659-2.453-.616-5.25,0-8A17.263,17.263,0,0,0,695,738Zm-130,5c-4.833,3.465-8.661,1.547-9,10l8,7c14.079,6.256,39.726,3.508,49-4v-2C599.668,746.182,587.5,743.06,565,743Zm132,0v9a14.124,14.124,0,0,0,4,1q0.5-1.5,1-3c0.8-1.18.773-1.681,1-4C700.536,744.467,700.724,743.709,697,743Zm784,8c3.52,9.221,30.24,14.7,37,24,3.91,5.375,1.35,10.907,10,12,2.46,1.312,24.74-1.037,31-2,26.4-4.064,65.19-.32,88-9-1.02-.8-0.27-0.355-2-1-11.42-7.742-37.25-6.273-53-10-17.91-4.239-37.69-3.572-57-8A259.843,259.843,0,0,0,1481,751Zm207,13c-0.56,13.808-3,36.343,10,37,2.46-4.065,5.93-10.379,12-11,4.03,9.88,36.79,6.37,47,4,1.85-4.891,1.26-9.387,8-10,0.72,1.485,1.63,8.568,3,10,3.04,3.18,12.99,2.016,19,2,16.91-.045,31.2-3.968,47-5V759Zm-717-3a156.45,156.45,0,0,0,4,27c4.993,3.263,9.229,8.447,15,11,41.62,18.408,106.5,15,166,15,31.76,0,64.73-.99,95-1,19.5-.006,46.9,1.7,64-2h21c15.25-.192,35.61.121,50-3l36-1c27.85-6.066,61.79-2.97,88-9,0.96-1.766,1.26-1.68,2-4,1.48-2.358.62-5.793,0-8-3.15-11.168-5.55-11.128-17-14-15.33-3.845-46.9-1.539-63,2l-39,1c-7.18,1.56-18.58-.825-27,1-16.2,3.51-40.04,2-58,2h-29c-22.09,4.738-56.47,1-81,1-15.86,0-35.96,2.083-50-1-11.59-2.545-26.65,1.273-37-1-12.17-2.673-25.31.353-36-2l-44-3c-11.18-2.516-24.32-1.887-36-5C987.521,765.006,979.789,761.736,971,761Zm1805,11v2c4.8,3.046,9.42,6.325,15,9-2.5-4.97-6.41-7.246-10-11h-5ZM856,789l-10,3c-2.9,1.72-5.118,5.074-8,7v1h1c1.69,1.142,4.9,1.066,8,1,12-9.613,33.286-.389,48,0q0.5-1.5,1-3C883.71,789.975,877.211,788.924,856,789Zm711,0c-5.12,3.043-14.58.487-21,2-8.01,1.888-16.53,3.915-23,7v1h12c11.23-6.781,43.57-2.5,54-10h-22Zm100,0c-2.64,1.565-7.12.124-11,1-14.13,3.187-31.17,3.763-45,7-5.05,1.181-10.37-.364-14,2,29.79,0.29,62.59,1.069,86-5v-3h-1v-1A128.21,128.21,0,0,0,1667,789Zm1141,4c-0.05,7.141,19.92,6.778,23,0h-23ZM904,952a221.457,221.457,0,0,0-6-56c-3.933-16.713-4.13-33.739-8-49-2.828-11.152-2.032-30.442-8-38-6.415-5.992-23.031-3.93-32-2q-0.5,1.5-1,3c-5.924,9.2-4.026,30.556-7,43-3.118,13.048-2.67,27.571-6,42a235.016,235.016,0,0,0-6,48h1v1c9.11,1.007,25.159.868,35,3h13C887.5,948.91,894.368,951.728,904,952Zm808-147c2.24,6.9,2.93,24.85,9,28,6.58,3.051,32.01-3.288,39-5,1.22-2.281,1.64-2.251,2-6,2.73-3.9.34-11.916-1-15a18.289,18.289,0,0,0-6-1C1749.84,802.728,1720.65,804.888,1712,805Zm-344,13c-4.56,2.678-16.49.981-23,1-16.39.047-52.91,2.1-57,13h1c4.85,3.1,23.91,2,32,2,17.89,0,38.55,1.517,54-3,9.61-2.81,16.7-9.385,26-12v-1h-33Zm-99,4c-2.6,2-6.04,2.2-9,4-10.26,6.253-20.97,12.971-31,20-34.74,24.352-68.18,50.468-103,75-40.36,28.433-78.91,60.592-119,90-13.18,9.67-25.123,22.09-39,31v2c1.766,0.96,1.68,1.26,4,2,6.927,5.13,16.676-4.85,22-8,19.78-11.71,36.85-25.92,55-39,55.52-40.012,108.88-81.554,164-122,23.45-17.2,45.38-38.25,70-54v-1h-14ZM809,834c-0.232,15.779.823,32.719,1,47,0.216,17.421-1.285,35.92,2,51,1.747,8.021-1.829,19.321,4,23v-2c5.8-8.486,4.218-22.711,7-34a356.42,356.42,0,0,0,10-82c-2.281-1.225-2.251-1.638-6-2C823.678,832.827,814.141,833.869,809,834Zm254,12v76H959V852c-18.721-.14-40.153-6.3-58-3v2c4.225,7.058,1.83,25.6,4,35l13,84c27.76,3.245,57.653,3.971,88,5l32,2c2.63-.821,4.92-4.543,7-6,8.39-5.87,16.97-12.419,26-17V843l-116-1c-6.758-1.444-40.431-4.438-46-1C955.191,846.424,1010.34,845.847,1063,846Zm13-3v74c0,9.311-1.03,23.44,4,28v1h1v-1c6.21-6.966,3.89-21.947,5-34,1.78-19.349,2.03-40.515,2-61,30.14,0.367,60.83,1.605,90,0,10.38-.571,30.13,2.051,34-5h-3c-5.73-3.557-28.63-2-38-2h-95Zm141,128h62c2.23-42.357,31.45-75.165,51-101,6.76-8.933,15.59-19.9,25-26v-1h-86v1c-10.96,3.75-28.87,23.632-39,31-3.15,2.293-11.38,5.6-13,9v87ZM963,851v61a174.806,174.806,0,0,1,32,4l59,1c-0.03-22.289,1.52-43.548,1-65C1025.7,852.016,993.772,851.041,963,851Zm129,4c-0.21,16.717-2.22,38.129,1,53,1.89,8.725-2.23,20.033,2,26,4.27-4.27,9.95-6.446,15-10,11.68-8.222,23.24-17.372,35-26,16.33-11.977,33.15-30.636,51-40-1.02-.8-0.27-0.355-2-1-4.12-2.562-12.32.209-18-1C1154.5,851.424,1116.35,854.885,1092,855Zm117,38h-4c-4.63,14.683-4.04,36.83-4,57,0.01,8.379-.72,19.078,6,21,0.33-1,.67-2,1-3,3.6-5.34.35-14.209,2-22C1213.43,929.789,1209.56,909.465,1209,893Zm-16,9c-13.22,13.588-31.48,23.835-47,35-15.2,10.937-29.02,26.165-46,35v1h4c5.08,3.192,19.77.979,27,1,20.02,0.057,41.84.473,61-1,1.3-2.418,1.8-2.833,2-7,3.19-4.915,1.42-44.525,0-51C1193.04,910.614,1194.95,905.018,1193,902ZM830,955v77l79-3V965h-1v-1l-42-10C853.428,951.074,842.008,954.917,830,955Zm87,25c-0.156,17.275-.864,36.57,2,51,32.532,19.49,58.887-9.81,79-24,7.76-5.47,22.7-11.588,26-21h-8c-7.28-4.467-20.554.028-30-2C967.863,980.106,936.823,980.119,917,980Zm-57,59c-5.659,3.33-32.525,1.73-41,4a281.834,281.834,0,0,0-40,14c-6.248,2.74-12.215,7.74-19,10v2h8c7.19-4.28,33.463-1.66,44-4,33.008-7.35,70.357-4.64,103-12,10.464-2.36,26.711,1.29,35-4q-13.5-3.495-27-7C903.893,1037.43,881.46,1039.19,860,1039Zm78,18q-25.5,1.995-51,4c-21.388,4.73-44.636,2.04-67,7-20.948,4.65-49.307,7.59-72,8-6.168,9.46-17.321,15.13-24,24-13.074,17.37-23.242,37.24-32,59-5.431,13.5-6.572,29.24-10,44-2.155,9.28-2.646,26.39-1,34v18c3.472,15.31,4.848,30.52,12,42,18.081,29.02,73.407,33.98,117,23,24.328-6.13,49.061-8.16,73-15,60.4-17.25,119.99-34.68,173-58,25-11,62.39-28.65,77-49,15.9-22.15-11.45-53.4-23-65-31.07-31.2-74.74-58.88-122-73C973.706,1055.73,955.572,1057.03,938,1057Zm70,221c-15.351.25-28.618,8.01-40,13-9.147,4.01-17.826,5.99-26,11-4.908,3.01-9.239,7.97-14,11-12.536,7.98-27.31,12.11-44,16-8.662,2.02-24.888.64-32-1-13.972-3.22-48.283,1.4-59,4-8.5,2.06-19.627-.28-26,4,19.431,12.41,38.239,27.64,63,35,10.106,3,22.7,2,35,2,59.512,0,86.047-17.21,114-48C990.491,1312.34,1005.19,1298.97,1008,1278Zm-97,28c-3.9,2.51-8.853,1.45-14,3-9.154,2.76-19.672,6.54-29,9v2h7c8.431,5.08,36.584-9.7,42-13v-1h-6Z"/>
</svg>
