<svg width="75" height="75" viewBox="0 0 75 75" fill="none" xmlns="http://www.w3.org/2000/svg">
<g clip-path="url(#clip0)">
<path d="M60.645 44.2214C59.9558 44.6227 58.7452 44.9527 57.3442 45.2181C53.5347 45.9405 48.3142 46.1969 48.3142 46.1969C48.3142 46.1969 21.4777 49.7142 1.36418 36.6327C1.36418 36.6327 -1.56138 34.209 1.15254 30.947C1.57045 30.4595 2.01473 30.0312 2.48023 29.6671L2.51338 29.6147C2.82208 29.1639 3.15568 28.7575 3.5102 28.4006C4.55218 27.336 6.3116 26.074 8.45339 26.6459L61.28 40.1478C61.28 40.1478 63.2094 42.7242 60.645 44.2214Z" fill="white"/>
<path d="M50.119 38.102L61.1778 25.7027L66.0519 27.0349L61.2794 40.1477C61.2794 40.1477 50.246 40.2871 50.119 38.102Z" fill="white"/>
<path d="M22.2771 30.569L44.3053 20.8063L47.8559 21.9791L37.9053 29.0528L34.7956 34.5512L22.2771 30.569Z" fill="white"/>
<path d="M57.3442 45.218C53.5347 45.9405 48.3142 46.1969 48.3142 46.1969C48.3142 46.1969 21.4777 49.7142 1.36418 36.6326C1.36418 36.6326 -1.56138 34.209 1.15254 30.9469L1.16171 31.0071C1.16171 31.0071 5.50173 35.6427 26.2381 39.5123L57.3442 45.218Z" fill="#23D997"/>
<path d="M53.8029 44.9505L63.6512 51.3052L66.1253 50.8715L60.2346 43.8747C60.2346 43.8747 53.1094 41.4722 53.8029 44.9505Z" fill="white"/>
<path d="M4.73228 31.6861C4.26244 31.6984 3.1859 30.4531 2.51642 29.6147C2.82511 29.1639 3.15872 28.7576 3.51324 28.4007C4.05292 29.0551 5.01305 30.1142 5.54709 30.0729C6.31816 30.0228 5.43986 31.666 4.73228 31.6861Z" fill="#23D997"/>
<path d="M49.4735 66.9163L43.1504 67.4391L25.3727 48.4957L22.0726 44.9784L20.4697 43.2693C23.4771 39.2559 35.7473 44.7911 35.7473 44.7911C35.9822 45.1044 36.057 45.625 36.0464 46.2002C36.0259 47.2772 35.7056 48.5414 35.5822 48.9963C35.5526 49.1078 35.5342 49.1668 35.5342 49.1668L49.4735 66.9163Z" fill="white"/>
<path d="M28.6496 57.0945L27.5526 58.1915L28.2172 56.2818C28.029 56.0446 27.7962 55.9131 27.5555 55.9083H27.5378C27.4617 55.9107 27.3857 55.9017 27.3107 55.8816L26.9396 56.2539L27.0983 55.7969C26.8354 55.651 26.6083 55.378 26.4493 55.0165L25.7854 55.6854L26.2045 54.4791C25.8165 53.7422 25.293 53.2907 24.7167 53.2907C24.026 53.2907 23.4108 53.9395 23.0137 54.9518C22.8959 55.255 22.7294 55.5034 22.5311 55.6718C22.3328 55.8402 22.1099 55.9226 21.8849 55.9106H21.8482C21.0856 55.9106 20.4676 57.2763 20.4676 58.9619C20.4676 60.6475 21.0856 62.0132 21.8482 62.0132C22.0158 62.0124 22.1807 61.9469 22.3286 61.8226C22.5883 61.6235 22.8722 61.5158 23.1607 61.507C23.4492 61.4981 23.7356 61.5883 23.9999 61.7713C24.2234 61.9289 24.4655 62.0104 24.7103 62.0104C24.9551 62.0104 25.1972 61.9289 25.4207 61.7713C25.6829 61.5917 25.9664 61.5033 26.252 61.5119C26.5377 61.5206 26.8188 61.6261 27.0764 61.8214C27.2235 61.9427 27.3868 62.0066 27.5526 62.0076C28.3152 62.0076 28.9332 60.642 28.9332 58.9563C28.9387 58.308 28.8412 57.6679 28.6496 57.0945Z" fill="#E5E5E5"/>
<path opacity="0.03" d="M26.5862 61.5594C26.1878 61.4403 25.776 61.5109 25.4031 61.7623C25.1797 61.9204 24.9378 62.0021 24.693 62.0021C24.4483 62.0021 24.2063 61.9204 23.983 61.7623C23.7187 61.5788 23.4324 61.4884 23.1438 61.4972C22.8552 61.5061 22.5713 61.6141 22.3117 61.8136C22.1634 61.9376 21.9984 62.003 21.8306 62.0043C21.1533 62.0043 20.5897 60.9251 20.4726 59.5025C20.6081 59.347 20.7231 59.1513 20.8112 58.9262C21.2084 57.915 21.8235 57.2662 22.5142 57.2662C23.2048 57.2662 23.8137 57.9016 24.2101 58.905C24.3285 59.2074 24.4942 59.4564 24.6914 59.6277C24.8886 59.799 25.1104 59.8868 25.3354 59.8827H25.353C25.892 59.8805 26.359 60.5628 26.5862 61.5594Z" fill="black"/>
<path d="M59.6195 55.6452L58.5225 56.7422L59.187 54.8325C58.9988 54.5952 58.766 54.4638 58.5253 54.459H58.5077C58.4316 54.4614 58.3555 54.4524 58.2805 54.4323L57.9094 54.8046L58.0682 54.3475C57.8053 54.2017 57.5782 53.9286 57.4191 53.5671L56.7553 54.2361L57.1743 53.0298C56.7863 52.2929 56.2629 51.8414 55.6865 51.8414C54.9959 51.8414 54.3807 52.4902 53.9835 53.5025C53.8657 53.8056 53.6993 54.054 53.501 54.2225C53.3027 54.3909 53.0798 54.4733 52.8548 54.4613H52.8181C52.0555 54.4613 51.4375 55.8269 51.4375 57.5126C51.4375 59.1982 52.0555 60.5639 52.8181 60.5639C52.9857 60.5631 53.1506 60.4976 53.2985 60.3733C53.5582 60.1742 53.8421 60.0665 54.1306 60.0577C54.4191 60.0488 54.7054 60.139 54.9698 60.322C55.1933 60.4796 55.4354 60.5611 55.6802 60.5611C55.925 60.5611 56.167 60.4796 56.3906 60.322C56.6527 60.1424 56.9362 60.054 57.2219 60.0626C57.5075 60.0713 57.7887 60.1769 58.0463 60.3722C58.1933 60.4934 58.3566 60.5573 58.5225 60.5583C59.2851 60.5583 59.9031 59.1927 59.9031 57.507C59.9086 56.8587 59.811 56.2186 59.6195 55.6452V55.6452Z" fill="#E5E5E5"/>
<path opacity="0.03" d="M57.556 60.1101C57.1576 59.991 56.7459 60.0616 56.3729 60.313C56.1496 60.4711 55.9076 60.5528 55.6629 60.5528C55.4182 60.5528 55.1762 60.4711 54.9528 60.313C54.6886 60.1295 54.4022 60.0391 54.1136 60.0479C53.8251 60.0568 53.5411 60.1648 53.2816 60.3643C53.1333 60.4883 52.9682 60.5537 52.8005 60.555C52.1232 60.555 51.5596 59.4758 51.4425 58.0532C51.578 57.8977 51.693 57.702 51.7811 57.4769C52.1782 56.4657 52.7934 55.8169 53.4841 55.8169C54.1747 55.8169 54.7835 56.4523 55.18 57.4557C55.2986 57.7589 55.465 58.0084 55.6628 58.1797C55.8606 58.3511 56.0832 58.4385 56.3087 58.4334H56.3264C56.8618 58.4312 57.3288 59.1135 57.556 60.1101Z" fill="black"/>
<path d="M59.6194 19.0783L58.5224 20.1753L59.187 18.2656C58.9988 18.0283 58.7659 17.8969 58.5252 17.8921H58.5076C58.4315 17.8945 58.3555 17.8855 58.2804 17.8654L57.9094 18.2377L58.0681 17.7806C57.8052 17.6348 57.5781 17.3618 57.4191 17.0003L56.7552 17.6692L57.1743 16.4629C56.7863 15.726 56.2628 15.2745 55.6865 15.2745C54.9958 15.2745 54.3807 15.9233 53.9835 16.9356C53.8657 17.2387 53.6992 17.4872 53.501 17.6556C53.3027 17.824 53.0797 17.9064 52.8548 17.8944H52.8181C52.0555 17.8944 51.4375 19.2601 51.4375 20.9457C51.4375 22.6313 52.0555 23.997 52.8181 23.997C52.9857 23.9962 53.1506 23.9308 53.2985 23.8064C53.5582 23.6073 53.842 23.4997 54.1306 23.4908C54.4191 23.482 54.7054 23.5721 54.9697 23.7551C55.193 23.9136 55.435 23.9961 55.6798 23.997C55.9246 23.998 56.1667 23.9175 56.3905 23.7607C56.6527 23.5811 56.9362 23.4927 57.2218 23.5013C57.5075 23.51 57.7886 23.6156 58.0462 23.8109C58.1933 23.9321 58.3566 23.996 58.5224 23.997C59.285 23.997 59.903 22.6313 59.903 20.9457C59.9091 20.2955 59.8116 19.6533 59.6194 19.0783V19.0783Z" fill="#E5E5E5"/>
<path opacity="0.03" d="M57.556 23.5433C57.1576 23.4242 56.7459 23.4948 56.3729 23.7462C56.1496 23.9042 55.9076 23.9859 55.6629 23.9859C55.4182 23.9859 55.1762 23.9042 54.9528 23.7462C54.6886 23.5627 54.4022 23.4722 54.1136 23.4811C53.8251 23.4899 53.5411 23.5979 53.2816 23.7974C53.1333 23.9214 52.9682 23.9868 52.8005 23.9881C52.1232 23.9881 51.5596 22.9089 51.4425 21.4864C51.578 21.3309 51.693 21.1351 51.7811 20.91C52.1782 19.8988 52.7934 19.25 53.4841 19.25C54.1747 19.25 54.7835 19.8855 55.18 20.8888C55.2986 21.1921 55.465 21.4415 55.6628 21.6129C55.8606 21.7842 56.0832 21.8716 56.3087 21.8665H56.3264C56.8618 21.8643 57.3288 22.5466 57.556 23.5433Z" fill="black"/>
<path d="M14.3273 15.1329L13.7805 15.6803L14.1121 14.7282C14.0184 14.6092 13.9021 14.5432 13.7819 14.5409H13.7735C13.7354 14.5415 13.6974 14.5371 13.6599 14.5275L13.4751 14.7126L13.5541 14.4896C13.4229 14.417 13.3096 14.2809 13.2303 14.1005L12.8994 14.435L13.111 13.8341C13.023 13.6542 12.9108 13.5077 12.7824 13.4051C12.654 13.3025 12.5127 13.2464 12.3689 13.241C12.0246 13.241 11.7177 13.5643 11.5223 14.0693C11.4635 14.2209 11.3803 14.3451 11.2811 14.4291C11.1819 14.5132 11.0704 14.5541 10.958 14.5476H10.9396C10.5594 14.5476 10.2511 15.2299 10.2511 16.0705C10.2511 16.9111 10.5594 17.5922 10.9396 17.5922C11.0232 17.5918 11.1056 17.5593 11.1795 17.4975C11.309 17.3979 11.4506 17.344 11.5946 17.3395C11.7386 17.3351 11.8815 17.3803 12.0133 17.4718C12.1244 17.5498 12.2446 17.5901 12.3661 17.5901C12.4876 17.5901 12.6078 17.5498 12.7188 17.4718C12.8496 17.3822 12.9911 17.3381 13.1336 17.3425C13.2762 17.3469 13.4164 17.3998 13.5449 17.4975C13.6182 17.5574 13.6994 17.5891 13.7819 17.59C14.1622 17.59 14.4705 16.9088 14.4705 16.0682C14.4732 15.7424 14.4239 15.4208 14.3273 15.1329Z" fill="#E5E5E5"/>
<path opacity="0.03" d="M13.298 17.3604C13.0992 17.3002 12.8935 17.3355 12.7075 17.4618C12.5964 17.5394 12.4763 17.5796 12.3548 17.58C12.2319 17.5799 12.1105 17.5385 11.9985 17.4585C11.8666 17.3673 11.7237 17.3225 11.5797 17.3271C11.4358 17.3317 11.2941 17.3857 11.1647 17.4852C11.091 17.547 11.0089 17.5796 10.9255 17.58C10.5876 17.58 10.3061 17.0415 10.2476 16.3325C10.315 16.2543 10.3724 16.1567 10.4169 16.0449C10.6144 15.5398 10.9213 15.2165 11.2634 15.2165C11.6056 15.2165 11.911 15.5365 12.11 16.0348C12.1693 16.1864 12.2525 16.3109 12.3514 16.3963C12.4503 16.4818 12.5616 16.5251 12.6744 16.522H12.6835C12.9495 16.522 13.1844 16.8631 13.298 17.3604Z" fill="black"/>
<path d="M63.0043 69.6488L62.4576 70.1961L62.7891 69.2441C62.6954 69.125 62.5792 69.0591 62.459 69.0568H62.4505C62.4125 69.0574 62.3745 69.0529 62.3369 69.0434L62.1521 69.2285L62.2311 69.0055C62.0999 68.9329 61.9866 68.7967 61.9073 68.6164L61.5764 68.9509L61.7881 68.35C61.7001 68.1701 61.5878 68.0235 61.4594 67.9209C61.331 67.8183 61.1897 67.7623 61.0459 67.7569C60.7017 67.7569 60.3948 68.0802 60.1994 68.5852C60.1405 68.7368 60.0573 68.861 59.9581 68.945C59.859 69.029 59.7474 69.0699 59.635 69.0635H59.6166C59.2364 69.0635 58.9281 69.7457 58.9281 70.5863C58.9281 71.4269 59.2364 72.1081 59.6166 72.1081C59.7003 72.1077 59.7826 72.0752 59.8565 72.0133C59.986 71.9137 60.1277 71.8598 60.2716 71.8554C60.4156 71.851 60.5585 71.8961 60.6904 71.9877C60.8014 72.0657 60.9216 72.106 61.0431 72.106C61.1646 72.106 61.2848 72.0657 61.3958 71.9877C61.5266 71.898 61.6681 71.8539 61.8106 71.8583C61.9532 71.8628 62.0935 71.9156 62.2219 72.0133C62.2952 72.0733 62.3764 72.105 62.459 72.1059C62.8392 72.1059 63.1475 71.4247 63.1475 70.5841C63.1502 70.2583 63.1009 69.9366 63.0043 69.6488V69.6488Z" fill="#E5E5E5"/>
<path opacity="0.03" d="M61.975 71.8762C61.7762 71.816 61.5705 71.8514 61.3846 71.9777C61.2734 72.0552 61.1533 72.0954 61.0318 72.0958C60.909 72.0958 60.7875 72.0543 60.6756 71.9743C60.5436 71.8831 60.4007 71.8383 60.2568 71.8429C60.1128 71.8475 59.9712 71.9015 59.8417 72.0011C59.768 72.0629 59.686 72.0954 59.6026 72.0958C59.2646 72.0958 58.9832 71.5574 58.9246 70.8483C58.992 70.7702 59.0495 70.6726 59.0939 70.5607C59.2914 70.0557 59.5983 69.7324 59.9405 69.7324C60.2826 69.7324 60.5881 70.0523 60.787 70.5507C60.8463 70.7022 60.9295 70.8268 61.0285 70.9122C61.1274 70.9976 61.2387 71.0409 61.3514 71.0378H61.3606C61.6265 71.0378 61.8615 71.379 61.975 71.8762Z" fill="black"/>
<path d="M12.2109 72.5473L11.6642 73.0947L11.9957 72.1427C11.902 72.0236 11.7858 71.9577 11.6656 71.9554H11.6571C11.6191 71.956 11.5811 71.9515 11.5435 71.942L11.3587 72.127L11.4377 71.9041C11.3065 71.8315 11.1932 71.6953 11.1139 71.515L10.783 71.8495L10.9947 71.2485C10.9067 71.0687 10.7944 70.9221 10.666 70.8195C10.5376 70.7169 10.3964 70.6609 10.2525 70.6555C9.90826 70.6555 9.60138 70.9788 9.40596 71.4838C9.34715 71.6354 9.2639 71.7596 9.16473 71.8436C9.06556 71.9276 8.95404 71.9685 8.84159 71.9621H8.82325C8.443 71.9621 8.13472 72.6443 8.13472 73.4849C8.13472 74.3255 8.443 75.0067 8.82325 75.0067C8.90688 75.0063 8.98919 74.9737 9.06311 74.9119C9.1926 74.8123 9.33426 74.7584 9.47825 74.754C9.62224 74.7496 9.76512 74.7947 9.89697 74.8863C10.008 74.9643 10.1282 75.0046 10.2497 75.0046C10.3712 75.0046 10.4914 74.9643 10.6024 74.8863C10.7332 74.7966 10.8747 74.7525 11.0172 74.7569C11.1598 74.7614 11.3001 74.8142 11.4285 74.9119C11.5018 74.9719 11.583 75.0036 11.6656 75.0045C12.0458 75.0045 12.3541 74.3233 12.3541 73.4827C12.3568 73.1569 12.3075 72.8352 12.2109 72.5473V72.5473Z" fill="#E5E5E5"/>
<path opacity="0.03" d="M11.1816 74.7748C10.9828 74.7146 10.7771 74.75 10.5911 74.8763C10.48 74.9538 10.3599 74.9941 10.2384 74.9944C10.1155 74.9944 9.99407 74.953 9.88212 74.8729C9.75019 74.7817 9.6073 74.7369 9.46333 74.7415C9.31936 74.7461 9.17774 74.8001 9.04826 74.8997C8.9746 74.9615 8.89251 74.994 8.80911 74.9944C8.47119 74.9944 8.18971 74.456 8.13116 73.7469C8.19856 73.6688 8.25601 73.5712 8.30047 73.4593C8.498 72.9543 8.80488 72.631 9.14703 72.631C9.48918 72.631 9.79464 72.9509 9.99359 73.4493C10.0529 73.6008 10.1361 73.7254 10.235 73.8108C10.3339 73.8962 10.4452 73.9395 10.558 73.9365H10.5671C10.8331 73.9365 11.068 74.2776 11.1816 74.7748Z" fill="black"/>
<path d="M37.4679 3.80458L36.3709 4.90159L37.0354 2.99186C36.8473 2.75459 36.6144 2.62318 36.3737 2.61838H36.3561C36.28 2.62074 36.2039 2.61178 36.1289 2.59163L35.7578 2.96399L35.9166 2.5069C35.6537 2.36108 35.4266 2.08801 35.2676 1.72651L34.6037 2.39542L35.0228 1.18916C34.6348 0.452245 34.1113 0.000732422 33.5349 0.000732422C32.8443 0.000732422 32.2291 0.649571 31.8319 1.66185C31.7142 1.96499 31.5477 2.2134 31.3494 2.38181C31.1511 2.55022 30.9282 2.63262 30.7032 2.62062H30.6665C29.9039 2.62062 29.2859 3.9863 29.2859 5.67194C29.2859 7.35759 29.9039 8.72327 30.6665 8.72327C30.8341 8.72243 30.999 8.65699 31.1469 8.53263C31.4066 8.33358 31.6905 8.22591 31.979 8.21705C32.2675 8.2082 32.5538 8.29837 32.8182 8.48135C33.0415 8.63988 33.2834 8.72231 33.5282 8.72327C33.773 8.72423 34.0152 8.6437 34.239 8.48692C34.5011 8.30737 34.7846 8.21893 35.0703 8.22759C35.356 8.23624 35.6371 8.34179 35.8947 8.53709C36.0418 8.65836 36.205 8.7222 36.3709 8.72327C37.1335 8.72327 37.7515 7.35759 37.7515 5.67194C37.7576 5.02175 37.66 4.37959 37.4679 3.80458V3.80458Z" fill="#E5E5E5"/>
<path opacity="0.03" d="M35.4044 8.26988C35.006 8.15077 34.5943 8.22139 34.2213 8.47278C33.998 8.63082 33.756 8.71252 33.5113 8.71252C33.2666 8.71252 33.0246 8.63082 32.8012 8.47278C32.537 8.28929 32.2506 8.19884 31.962 8.20769C31.6735 8.21655 31.3895 8.3245 31.13 8.52406C30.9817 8.64805 30.8166 8.71346 30.6489 8.7147C29.9716 8.7147 29.408 7.63554 29.2909 6.213C29.4264 6.05748 29.5414 5.86171 29.6295 5.63662C30.0267 4.62546 30.6418 3.97662 31.3325 3.97662C32.0231 3.97662 32.6319 4.61208 33.0284 5.61544C33.147 5.91868 33.3134 6.16814 33.5112 6.3395C33.709 6.51085 33.9316 6.59825 34.1571 6.59316H34.1748C34.7102 6.59093 35.1772 7.27321 35.4044 8.26988Z" fill="black"/>
<path d="M74.8562 22.9368L74.3094 23.4842L74.641 22.5321C74.5473 22.4131 74.431 22.3472 74.3108 22.3448H74.3024C74.2643 22.3455 74.2263 22.341 74.1888 22.3315L74.0039 22.5165L74.083 22.2935C73.9518 22.2209 73.8385 22.0848 73.7591 21.9045L73.4283 22.2389L73.6399 21.638C73.5519 21.4582 73.4396 21.3116 73.3112 21.209C73.1828 21.1064 73.0416 21.0503 72.8978 21.0449C72.5535 21.0449 72.2466 21.3682 72.0512 21.8733C71.9924 22.0249 71.9091 22.149 71.8099 22.2331C71.7108 22.3171 71.5993 22.358 71.4868 22.3515H71.4685C71.0882 22.3515 70.7799 23.0338 70.7799 23.8744C70.7799 24.715 71.0882 25.3962 71.4685 25.3962C71.5521 25.3957 71.6344 25.3632 71.7083 25.3014C71.8378 25.2018 71.9795 25.1479 72.1235 25.1435C72.2675 25.139 72.4103 25.1842 72.5422 25.2758C72.6532 25.3538 72.7734 25.3941 72.8949 25.3941C73.0165 25.3941 73.1366 25.3538 73.2477 25.2758C73.3785 25.1861 73.52 25.142 73.6625 25.1464C73.805 25.1508 73.9453 25.2037 74.0738 25.3014C74.1471 25.3613 74.2283 25.393 74.3108 25.3939C74.6911 25.3939 74.9994 24.7128 74.9994 23.8722C75.0021 23.5463 74.9528 23.2247 74.8562 22.9368V22.9368Z" fill="#E5E5E5"/>
<path opacity="0.03" d="M73.8267 25.1642C73.6279 25.1041 73.4222 25.1394 73.2363 25.2657C73.1251 25.3432 73.005 25.3835 72.8835 25.3839C72.7619 25.383 72.6417 25.3416 72.5308 25.2623C72.3989 25.1711 72.256 25.1263 72.112 25.1309C71.9681 25.1356 71.8265 25.1895 71.697 25.2891C71.6233 25.3509 71.5412 25.3834 71.4578 25.3839C71.1199 25.3839 70.8385 24.8454 70.7799 24.1363C70.8473 24.0582 70.9048 23.9606 70.9492 23.8487C71.1467 23.3437 71.4536 23.0204 71.7957 23.0204C72.1379 23.0204 72.4433 23.3403 72.6423 23.8387C72.7013 23.9894 72.7839 24.1135 72.8821 24.1988C72.9804 24.2842 73.091 24.3279 73.2031 24.3259H73.2123C73.4782 24.3259 73.7131 24.667 73.8267 25.1642Z" fill="black"/>
</g>
<defs>
<clipPath id="clip0">
<rect width="75" height="75" fill="white"/>
</clipPath>
</defs>
</svg>
