<svg width="135" height="91" viewBox="0 0 135 91" fill="none" xmlns="http://www.w3.org/2000/svg">
<g clip-path="url(#clip0)">
<path d="M23.1225 49.4726C27.6303 49.4726 31.2846 45.9085 31.2846 41.5119C31.2846 37.1154 27.6303 33.5513 23.1225 33.5513C18.6147 33.5513 14.9604 37.1154 14.9604 41.5119C14.9604 45.9085 18.6147 49.4726 23.1225 49.4726Z" fill="#FF6584"/>
<path d="M90 39.0496V59.9875C90.0001 64.0457 89.1806 68.0642 87.5884 71.8135C85.9961 75.5628 83.6622 78.9695 80.72 81.8391C77.7778 84.7087 74.2849 86.985 70.4407 88.5379C66.5965 90.0909 62.4763 90.8901 58.3153 90.89H0V69.9521C0 58.7637 6.09687 48.963 15.2281 43.5399C16.8016 42.6045 18.4563 41.8058 20.1732 41.153C21.1836 40.7681 22.214 40.4349 23.26 40.1549C23.2805 40.1482 23.3018 40.1426 23.3222 40.1378C23.6313 40.0553 23.9423 39.9776 24.2553 39.9046C24.2728 39.8999 24.2893 39.8961 24.3068 39.8923C26.2356 39.4441 28.2033 39.1734 30.184 39.0837C30.4183 39.0733 30.6525 39.0648 30.8887 39.06C30.9732 39.0572 31.0587 39.0553 31.1453 39.0553C31.3241 39.0515 31.5039 39.0496 31.6847 39.0496H90Z" fill="#3F3D56"/>
<path d="M41.9883 77.3972C18.8482 77.3972 0.0809029 83.483 0.00222778 91H83.9745C83.8958 83.483 65.1285 77.3972 41.9883 77.3972Z" fill="#F2F2F2"/>
<g opacity="0.1">
<path opacity="0.1" d="M34.2117 87.7033C38.5059 87.7033 41.987 86.7602 41.987 85.5968C41.987 84.4334 38.5059 83.4903 34.2117 83.4903C29.9174 83.4903 26.4363 84.4334 26.4363 85.5968C26.4363 86.7602 29.9174 87.7033 34.2117 87.7033Z" fill="black"/>
</g>
<g opacity="0.1">
<path opacity="0.1" d="M51.0259 83.9116C55.3201 83.9116 58.8013 82.9685 58.8013 81.8051C58.8013 80.6417 55.3201 79.6985 51.0259 79.6985C46.7317 79.6985 43.2505 80.6417 43.2505 81.8051C43.2505 82.9685 46.7317 83.9116 51.0259 83.9116Z" fill="black"/>
</g>
<g opacity="0.1">
<path opacity="0.1" d="M34.2117 87.4927C38.0765 87.4927 41.2095 86.6438 41.2095 85.5968C41.2095 84.5497 38.0765 83.7009 34.2117 83.7009C30.3469 83.7009 27.2138 84.5497 27.2138 85.5968C27.2138 86.6438 30.3469 87.4927 34.2117 87.4927Z" fill="black"/>
</g>
<g opacity="0.1">
<path opacity="0.1" d="M51.0259 83.7009C54.8907 83.7009 58.0238 82.8521 58.0238 81.8051C58.0238 80.758 54.8907 79.9092 51.0259 79.9092C47.1611 79.9092 44.0281 80.758 44.0281 81.8051C44.0281 82.8521 47.1611 83.7009 51.0259 83.7009Z" fill="black"/>
</g>
<path d="M13.4125 48.1535C13.7883 48.1535 14.0929 47.8565 14.0929 47.49C14.0929 47.1235 13.7883 46.8264 13.4125 46.8264C13.0368 46.8264 12.7322 47.1235 12.7322 47.49C12.7322 47.8565 13.0368 48.1535 13.4125 48.1535Z" fill="#F2F2F2"/>
<path d="M71.9222 74.1268C72.298 74.1268 72.6026 73.8298 72.6026 73.4633C72.6026 73.0968 72.298 72.7997 71.9222 72.7997C71.5465 72.7997 71.2419 73.0968 71.2419 73.4633C71.2419 73.8298 71.5465 74.1268 71.9222 74.1268Z" fill="#F2F2F2"/>
<path d="M39.8488 52.7984C40.2246 52.7984 40.5292 52.5013 40.5292 52.1349C40.5292 51.7684 40.2246 51.4713 39.8488 51.4713C39.4731 51.4713 39.1685 51.7684 39.1685 52.1349C39.1685 52.5013 39.4731 52.7984 39.8488 52.7984Z" fill="#F2F2F2"/>
<path d="M73.5745 48.5327C73.7892 48.5327 73.9633 48.363 73.9633 48.1536C73.9633 47.9441 73.7892 47.7744 73.5745 47.7744C73.3598 47.7744 73.1858 47.9441 73.1858 48.1536C73.1858 48.363 73.3598 48.5327 73.5745 48.5327Z" fill="#FF6584"/>
<path d="M14.9676 67.4913C15.1823 67.4913 15.3564 67.3216 15.3564 67.1121C15.3564 66.9027 15.1823 66.733 14.9676 66.733C14.7529 66.733 14.5788 66.9027 14.5788 67.1121C14.5788 67.3216 14.7529 67.4913 14.9676 67.4913Z" fill="#FF6584"/>
<path d="M9.13607 75.1053H8.95898V74.9326H8.92438V75.1053H8.7473V75.139H8.92438V75.3117H8.95898V75.139H9.13607V75.1053Z" fill="#F2F2F2"/>
<path d="M65.9935 61.0759H65.8164V60.9032H65.7818V61.0759H65.6048V61.1097H65.7818V61.2824H65.8164V61.1097H65.9935V61.0759Z" fill="#F2F2F2"/>
<path d="M80.6695 58.2321H80.4925V58.0594H80.4579V58.2321H80.2808V58.2659H80.4579V58.4386H80.4925V58.2659H80.6695V58.2321Z" fill="#F2F2F2"/>
<path d="M49.0821 65.8156H48.905V65.6429H48.8704V65.8156H48.6933V65.8493H48.8704V66.022H48.905V65.8493H49.0821V65.8156Z" fill="#F2F2F2"/>
<path d="M76.3931 66.7635H76.216V66.5908H76.1814V66.7635H76.0043V66.7972H76.1814V66.97H76.216V66.7972H76.3931V66.7635Z" fill="#F2F2F2"/>
<path d="M43.4449 70.8396H43.2678V70.6669H43.2332V70.8396H43.0562V70.8734H43.2332V71.0461H43.2678V70.8734H43.4449V70.8396Z" fill="#F2F2F2"/>
<path d="M55.8855 71.0292H55.7084V70.8565H55.6738V71.0292H55.4968V71.0629H55.6738V71.2356H55.7084V71.0629H55.8855V71.0292Z" fill="#F2F2F2"/>
<path d="M9.33045 54.9144H9.15337V54.7417H9.11877V54.9144H8.94168V54.9481H9.11877V55.1208H9.15337V54.9481H9.33045V54.9144Z" fill="#F2F2F2"/>
<path d="M66.0782 41.8677H65.7989V47.3717H66.0782V41.8677Z" fill="#E6E6E6"/>
<path d="M59.4571 56.4997L56.8869 62.2762L57.3898 63.0936L57.2221 63.366L58.3955 63.9655V63.6386L58.8425 63.5295L60.7422 60.1508L59.4571 56.4997Z" fill="#E6E6E6"/>
<path d="M57.4456 63.3116C57.4456 63.3116 55.5459 66.1998 57.6691 66.6358C59.7924 67.0717 58.0603 63.584 58.0603 63.584L57.4456 63.3116Z" fill="#E6E6E6"/>
<path d="M60.1835 62.0037L59.513 64.129L59.2336 66.8537L58.7307 67.8346L59.2895 72.2488L60.1835 73.1207L60.5746 77.4803V79.4421L61.6362 81.2405L60.2691 83.1329C60.2046 83.2219 60.166 83.3262 60.1575 83.4348C60.1489 83.5434 60.1706 83.6522 60.2203 83.7497C60.2701 83.8472 60.346 83.9298 60.44 83.9886C60.534 84.0474 60.6425 84.0803 60.7542 84.0838C61.056 84.0915 61.4539 84.0083 61.9715 83.7472C63.5918 82.9298 63.5359 82.1669 63.5359 82.1669C63.5359 82.1669 64.5417 82.1669 64.5976 81.4039C64.6534 80.641 63.9829 75.1915 63.9829 75.1915L63.3683 72.8482V66.4723H63.5918L63.7036 71.9218L64.2064 73.9381L64.2623 74.81L64.9887 83.5292C64.9887 83.5292 68.2294 84.4012 68.397 83.6927C68.5646 82.9843 67.1678 82.5483 67.1678 82.5483L68.0059 80.968V77.9162L67.7265 77.2623L67.2237 72.8482L68.0618 71.9763L68.5088 71.4313V67.0717L67.95 65.3824L67.7824 63.9655L66.8884 61.7857C66.8884 61.7857 62.8096 60.4778 60.1835 62.0037Z" fill="white"/>
<path d="M67.4471 49.6878C67.4472 50.3433 67.2877 50.9894 66.9817 51.573C66.6758 52.1567 66.2323 52.6612 65.6875 53.045C65.1427 53.4289 64.5123 53.6812 63.8481 53.7811C63.1839 53.881 62.5048 53.8258 61.8668 53.6199C61.2287 53.414 60.6499 53.0633 60.1779 52.5967C59.7058 52.1301 59.3541 51.5609 59.1516 50.9359C58.9491 50.3108 58.9016 49.6479 59.013 49.0014C59.1244 48.355 59.3915 47.7436 59.7924 47.2175L59.7935 47.2164C60.3261 46.5176 61.071 46.0003 61.9223 45.7381C62.7737 45.4759 63.6881 45.482 64.5356 45.7557C65.3831 46.0294 66.1207 46.5566 66.6433 47.2625C67.166 47.9684 67.4473 48.817 67.4471 49.6878V49.6878Z" fill="#23D997"/>
<g opacity="0.1">
<path opacity="0.1" d="M66.8437 47.9706L66.4973 49.9058C63.8941 43.3151 59.7532 47.3636 59.6817 47.4344C60.1097 46.8731 60.6765 46.4266 61.3292 46.1367C61.9819 45.8467 62.6992 45.7227 63.4143 45.7763C64.1294 45.8298 64.819 46.0591 65.4187 46.4429C66.0183 46.8266 66.5086 47.3522 66.8437 47.9706V47.9706Z" fill="black"/>
</g>
<path d="M66.9554 47.7527L66.609 49.6878C64.0058 43.0971 59.865 47.1456 59.7935 47.2164C60.2214 46.6551 60.7882 46.2086 61.4409 45.9187C62.0936 45.6287 62.811 45.5048 63.5261 45.5583C64.2412 45.6118 64.9307 45.8412 65.5304 46.2249C66.1301 46.6086 66.6203 47.1342 66.9554 47.7527V47.7527Z" fill="white"/>
<path d="M66.3733 46.9357L66.9555 48.9065C66.9555 48.9065 65.7471 52.4388 60.1436 52.5619L59.96 53.0665L59.3454 53.23L59.066 54.3744L59.8482 61.6222C59.8482 61.6222 59.513 62.3307 60.0717 62.2762C60.0717 62.2762 63.7594 61.0773 66.9443 62.1672C66.9443 62.1672 67.6148 62.4397 67.4472 61.8402C67.4472 61.8402 69.6821 60.4778 69.5145 59.061C69.3469 57.6441 69.6821 51.0502 69.6821 51.0502C69.6821 51.0502 70.0174 49.1428 69.0116 48.7069C69.0116 48.7069 67.5345 46.6904 66.3733 46.9357Z" fill="white"/>
<path d="M65.1484 60.7058C65.1484 60.7058 61.6477 61.0487 62.6167 62.9421C63.5858 64.8355 65.3114 61.3448 65.3114 61.3448L65.1484 60.7058Z" fill="#E6E6E6"/>
<path d="M66.9443 52.249C66.9443 52.249 66.3297 52.9575 66.5532 54.1019C66.7767 55.2463 67.6148 57.8075 67.6148 57.8075L64.6534 60.4778L65.5474 61.6767L69.5704 59.6604L70.4644 59.1154C70.2421 56.9113 69.6889 54.7509 68.8226 52.7036L68.6764 52.358C68.6764 52.358 67.6148 51.9221 66.9443 52.249Z" fill="#E6E6E6"/>
<path d="M66.6649 50.3145C67.2358 50.3145 67.6986 49.8631 67.6986 49.3063C67.6986 48.7495 67.2358 48.2982 66.6649 48.2982C66.094 48.2982 65.6312 48.7495 65.6312 49.3063C65.6312 49.8631 66.094 50.3145 66.6649 50.3145Z" fill="#E6E6E6"/>
<path d="M65.9385 42.5762C66.3551 42.5762 66.6928 42.2468 66.6928 41.8405C66.6928 41.4342 66.3551 41.1048 65.9385 41.1048C65.5219 41.1048 65.1842 41.4342 65.1842 41.8405C65.1842 42.2468 65.5219 42.5762 65.9385 42.5762Z" fill="#E6E6E6"/>
<path d="M46.7495 53.3977H46.5724V53.225H46.5378V53.3977H46.3607V53.4314H46.5378V53.6041H46.5724V53.4314H46.7495V53.3977Z" fill="#F2F2F2"/>
<path d="M62.689 48.0893H62.5119V47.9166H62.4773V48.0893H62.3002V48.123H62.4773V48.2957H62.5119V48.123H62.689V48.0893Z" fill="#F2F2F2"/>
<path d="M60.9395 49.7008H60.7624V49.528H60.7278V49.7008H60.5508V49.7345H60.7278V49.9072H60.7624V49.7345H60.9395V49.7008Z" fill="#F2F2F2"/>
<path d="M54.0389 45.6889C54.2536 45.6889 54.4277 45.5192 54.4277 45.3097C54.4277 45.1003 54.2536 44.9306 54.0389 44.9306C53.8242 44.9306 53.6501 45.1003 53.6501 45.3097C53.6501 45.5192 53.8242 45.6889 54.0389 45.6889Z" fill="#F2F2F2"/>
<path d="M34.8879 47.9824C34.8879 74.4338 31.4776 74.4338 27.272 74.4338C25.0976 74.4338 23.1361 74.4338 21.7489 70.7799C21.3501 69.7298 20.9978 68.3758 20.7025 66.6327C20.0374 62.7146 19.656 56.8267 19.656 47.9824C19.656 44.5814 20.0688 41.2473 20.7025 38.1332C21.0071 36.634 21.3629 35.187 21.7489 33.8069C22.221 32.1172 22.7384 30.5284 23.2605 29.0745C23.6105 28.097 23.964 27.1796 24.307 26.3324C25.8918 22.4223 27.272 20 27.272 20C27.272 20 34.8879 33.3737 34.8879 47.9824Z" fill="#F2F2F2"/>
<g opacity="0.1">
<path opacity="0.1" d="M24.307 26.3325V72.4493H23.2605V29.0746C23.6105 28.097 23.964 27.1796 24.307 26.3325Z" fill="black"/>
</g>
<path d="M27.0394 42.3405C29.3512 42.3405 31.2253 40.5127 31.2253 38.258C31.2253 36.0033 29.3512 34.1755 27.0394 34.1755C24.7276 34.1755 22.8535 36.0033 22.8535 38.258C22.8535 40.5127 24.7276 42.3405 27.0394 42.3405Z" fill="#3F3D56"/>
<path d="M36.225 71.9389C35.2943 69.7045 34.0993 69.319 33.3182 69.3525V68.9904H21.1094V69.3525C20.3283 69.319 19.1333 69.7045 18.2026 71.9389C16.691 75.5679 19.1328 81.8051 19.1328 81.8051C19.1328 81.8051 17.8279 73.1062 22.1611 73.049C22.5364 73.5264 22.9969 73.9339 23.5205 74.2518V76.5915H30.5184V74.4649C31.2024 74.1265 31.7998 73.6426 32.2665 73.0489C36.5998 73.1062 35.2949 81.8051 35.2949 81.8051C35.2949 81.8051 37.7366 75.5679 36.225 71.9389Z" fill="#23D997"/>
<path d="M27.0394 41.4333C28.8375 41.4333 30.2951 40.0117 30.2951 38.258C30.2951 36.5043 28.8375 35.0827 27.0394 35.0827C25.2414 35.0827 23.7837 36.5043 23.7837 38.258C23.7837 40.0117 25.2414 41.4333 27.0394 41.4333Z" fill="#23D997"/>
<path d="M82.2256 39.0496H82.0312C82.0452 41.1027 82.8906 43.0673 84.3833 44.5151C85.8759 45.963 87.8948 46.7767 90 46.779V46.5894C87.9463 46.5873 85.9768 45.7935 84.5206 44.3812C83.0643 42.9689 82.2394 41.0525 82.2256 39.0496V39.0496Z" fill="#23D997"/>
<path d="M78.6295 39.0496H78.4351C78.4499 42.0327 79.6744 44.8889 81.8413 46.9943C84.0082 49.0997 86.9413 50.2833 90 50.2864V50.0968C86.9929 50.0935 84.1094 48.9299 81.979 46.8601C79.8486 44.7903 78.6444 41.9824 78.6295 39.0496V39.0496Z" fill="#23D997"/>
<path d="M74.9352 39.0496H74.7408C74.7651 47.2359 81.6006 53.8885 90 53.8885V53.6989C81.7076 53.6989 74.9595 47.1317 74.9352 39.0496Z" fill="#23D997"/>
</g>
<path d="M43.0797 16.8919L42.533 17.4393L42.8646 16.4872C42.7708 16.3682 42.6546 16.3022 42.5344 16.2999H42.5259C42.4879 16.3005 42.4499 16.2961 42.4123 16.2865L42.2275 16.4716L42.3065 16.2486C42.1754 16.176 42.0621 16.0399 41.9827 15.8595L41.6519 16.194L41.8635 15.5931C41.7755 15.4132 41.6632 15.2667 41.5348 15.1641C41.4064 15.0615 41.2652 15.0054 41.1213 15C40.7771 15 40.4702 15.3233 40.2748 15.8283C40.216 15.9799 40.1327 16.1041 40.0336 16.1881C39.9344 16.2722 39.8229 16.3131 39.7104 16.3066H39.6921C39.3118 16.3066 39.0035 16.9889 39.0035 17.8295C39.0035 18.6701 39.3118 19.3512 39.6921 19.3512C39.7757 19.3508 39.858 19.3183 39.9319 19.2565C40.0614 19.1569 40.2031 19.103 40.3471 19.0985C40.4911 19.0941 40.6339 19.1393 40.7658 19.2308C40.8768 19.3088 40.997 19.3491 41.1185 19.3491C41.24 19.3491 41.3602 19.3088 41.4713 19.2308C41.6021 19.1412 41.7435 19.0971 41.8861 19.1015C42.0286 19.1059 42.1689 19.1588 42.2974 19.2565C42.3706 19.3164 42.4519 19.3481 42.5344 19.349C42.9146 19.349 43.2229 18.6678 43.2229 17.8273C43.2256 17.5014 43.1764 17.1798 43.0797 16.8919Z" fill="#E5E5E5"/>
<path opacity="0.03" d="M42.0504 19.1194C41.8516 19.0592 41.6459 19.0945 41.46 19.2208C41.3488 19.2984 41.2287 19.3386 41.1072 19.339C40.9844 19.3389 40.8629 19.2975 40.751 19.2175C40.619 19.1263 40.4761 19.0815 40.3322 19.0861C40.1882 19.0907 40.0466 19.1447 39.9171 19.2442C39.8434 19.306 39.7614 19.3386 39.678 19.339C39.34 19.339 39.0586 18.8005 39 18.0915C39.0674 18.0133 39.1249 17.9157 39.1693 17.8039C39.3668 17.2988 39.6737 16.9755 40.0159 16.9755C40.358 16.9755 40.6635 17.2955 40.8624 17.7938C40.9217 17.9454 41.0049 18.0699 41.1038 18.1553C41.2028 18.2408 41.3141 18.2841 41.4268 18.281H41.436C41.7019 18.281 41.9368 18.6222 42.0504 19.1194Z" fill="black"/>
<g clip-path="url(#clip1)">
<path d="M120.645 44.2214C119.956 44.6227 118.745 44.9527 117.344 45.2181C113.535 45.9405 108.314 46.1969 108.314 46.1969C108.314 46.1969 81.4777 49.7142 61.3642 36.6327C61.3642 36.6327 58.4386 34.209 61.1525 30.947C61.5704 30.4595 62.0147 30.0312 62.4802 29.6671L62.5134 29.6147C62.8221 29.1639 63.1557 28.7575 63.5102 28.4006C64.5522 27.336 66.3116 26.074 68.4534 26.6459L121.28 40.1478C121.28 40.1478 123.209 42.7242 120.645 44.2214Z" fill="white"/>
<path d="M110.119 38.102L121.178 25.7027L126.052 27.0349L121.279 40.1477C121.279 40.1477 110.246 40.2871 110.119 38.102Z" fill="white"/>
<path d="M82.2771 30.569L104.305 20.8063L107.856 21.9791L97.9053 29.0528L94.7956 34.5512L82.2771 30.569Z" fill="white"/>
<path d="M117.344 45.218C113.535 45.9405 108.314 46.1969 108.314 46.1969C108.314 46.1969 81.4777 49.7142 61.3642 36.6326C61.3642 36.6326 58.4386 34.209 61.1525 30.9469L61.1617 31.0071C61.1617 31.0071 65.5017 35.6427 86.2381 39.5123L117.344 45.218Z" fill="#23D997"/>
<path d="M113.803 44.9505L123.651 51.3052L126.125 50.8715L120.235 43.8747C120.235 43.8747 113.109 41.4722 113.803 44.9505Z" fill="white"/>
<path d="M64.7323 31.6861C64.2624 31.6984 63.1859 30.4531 62.5164 29.6147C62.8251 29.1639 63.1587 28.7576 63.5132 28.4007C64.0529 29.0551 65.0131 30.1142 65.5471 30.0729C66.3182 30.0228 65.4399 31.666 64.7323 31.6861Z" fill="#23D997"/>
<path d="M109.473 66.9163L103.15 67.4391L85.3727 48.4957L82.0726 44.9784L80.4697 43.2693C83.4771 39.2559 95.7473 44.7911 95.7473 44.7911C95.9822 45.1044 96.057 45.625 96.0464 46.2002C96.0259 47.2772 95.7056 48.5414 95.5822 48.9963C95.5526 49.1078 95.5342 49.1668 95.5342 49.1668L109.473 66.9163Z" fill="white"/>
<path opacity="0.03" d="M86.5862 61.5594C86.1878 61.4403 85.776 61.5109 85.4031 61.7623C85.1797 61.9204 84.9378 62.0021 84.693 62.0021C84.4483 62.0021 84.2063 61.9204 83.983 61.7623C83.7187 61.5788 83.4324 61.4884 83.1438 61.4973C82.8552 61.5061 82.5713 61.6141 82.3117 61.8136C82.1634 61.9376 81.9984 62.003 81.8306 62.0043C81.1533 62.0043 80.5897 60.9251 80.4726 59.5025C80.6081 59.347 80.7231 59.1513 80.8112 58.9262C81.2084 57.915 81.8235 57.2662 82.5142 57.2662C83.2048 57.2662 83.8137 57.9016 84.2101 58.905C84.3285 59.2074 84.4942 59.4564 84.6914 59.6277C84.8886 59.799 85.1104 59.8868 85.3354 59.8827H85.353C85.892 59.8805 86.359 60.5628 86.5862 61.5594Z" fill="black"/>
<path d="M130.182 17.8038L129.085 18.9008L129.75 16.9911C129.561 16.7539 129.328 16.6224 129.088 16.6177H129.07C128.994 16.62 128.918 16.611 128.843 16.5909L128.472 16.9633L128.631 16.5062C128.368 16.3604 128.141 16.0873 127.982 15.7258L127.318 16.3947L127.737 15.1884C127.349 14.4515 126.825 14 126.249 14C125.558 14 124.943 14.6488 124.546 15.6611C124.428 15.9643 124.262 16.2127 124.063 16.3811C123.865 16.5495 123.642 16.6319 123.417 16.6199H123.381C122.618 16.6199 122 17.9856 122 19.6712C122 21.3569 122.618 22.7225 123.381 22.7225C123.548 22.7217 123.713 22.6563 123.861 22.5319C124.121 22.3328 124.405 22.2252 124.693 22.2163C124.982 22.2075 125.268 22.2976 125.532 22.4806C125.756 22.6383 125.998 22.7197 126.243 22.7197C126.487 22.7197 126.73 22.6383 126.953 22.4806C127.215 22.3011 127.499 22.2126 127.784 22.2213C128.07 22.2299 128.351 22.3355 128.609 22.5308C128.756 22.652 128.919 22.7159 129.085 22.717C129.848 22.717 130.466 21.3513 130.466 19.6656C130.471 19.0173 130.374 18.3772 130.182 17.8038Z" fill="#E5E5E5"/>
<path opacity="0.03" d="M128.118 22.2688C127.72 22.1497 127.308 22.2203 126.935 22.4717C126.712 22.6297 126.47 22.7114 126.225 22.7114C125.981 22.7114 125.739 22.6297 125.515 22.4717C125.251 22.2882 124.965 22.1977 124.676 22.2066C124.388 22.2154 124.104 22.3234 123.844 22.523C123.696 22.6469 123.531 22.7123 123.363 22.7136C122.686 22.7136 122.122 21.6344 122.005 20.2119C122.14 20.0564 122.255 19.8606 122.344 19.6355C122.741 18.6243 123.356 17.9755 124.047 17.9755C124.737 17.9755 125.346 18.611 125.742 19.6143C125.861 19.9176 126.027 20.167 126.225 20.3384C126.423 20.5097 126.646 20.5971 126.871 20.592H126.889C127.424 20.5898 127.891 21.2721 128.118 22.2688Z" fill="black"/>
<path d="M89.1819 4.80386L88.0849 5.90087L88.7494 3.99113C88.5613 3.75387 88.3284 3.62246 88.0877 3.61766H88.0701C87.994 3.62001 87.918 3.61105 87.8429 3.5909L87.4719 3.96326L87.6306 3.50617C87.3677 3.36036 87.1406 3.08729 86.9816 2.72578L86.3177 3.39469L86.7368 2.18843C86.3488 1.45151 85.8253 1 85.249 1C84.5583 1 83.9432 1.64884 83.546 2.66112C83.4282 2.96426 83.2617 3.21268 83.0635 3.38109C82.8652 3.5495 82.6422 3.6319 82.4173 3.61989H82.3806C81.618 3.61989 81 4.98558 81 6.67123C81 8.35687 81.618 9.72256 82.3806 9.72256C82.5481 9.72172 82.7131 9.65628 82.861 9.53192C83.1206 9.33287 83.4045 9.22519 83.693 9.21634C83.9816 9.20749 84.2679 9.29766 84.5322 9.48064C84.7555 9.63917 84.9974 9.7216 85.2422 9.72256C85.487 9.72352 85.7292 9.64299 85.953 9.48621C86.2152 9.30666 86.4987 9.21822 86.7843 9.22688C87.07 9.23553 87.3511 9.34108 87.6087 9.53638C87.7558 9.65765 87.919 9.72149 88.0849 9.72256C88.8475 9.72256 89.4655 8.35687 89.4655 6.67123C89.4716 6.02103 89.374 5.37887 89.1819 4.80386Z" fill="#E5E5E5"/>
<path opacity="0.03" d="M117.556 23.5433C117.158 23.4242 116.746 23.4948 116.373 23.7462C116.15 23.9042 115.908 23.9859 115.663 23.9859C115.418 23.9859 115.176 23.9042 114.953 23.7462C114.689 23.5627 114.402 23.4722 114.114 23.4811C113.825 23.4899 113.541 23.5979 113.282 23.7974C113.133 23.9214 112.968 23.9868 112.8 23.9881C112.123 23.9881 111.56 22.9089 111.442 21.4864C111.578 21.3309 111.693 21.1351 111.781 20.91C112.178 19.8988 112.793 19.25 113.484 19.25C114.175 19.25 114.784 19.8855 115.18 20.8888C115.299 21.1921 115.465 21.4415 115.663 21.6129C115.861 21.7842 116.083 21.8716 116.309 21.8665H116.326C116.862 21.8643 117.329 22.5466 117.556 23.5433Z" fill="black"/>
<path d="M85.0797 19.8919L84.5329 20.4393L84.8645 19.4872C84.7708 19.3682 84.6546 19.3022 84.5344 19.2999H84.5259C84.4879 19.3005 84.4499 19.2961 84.4123 19.2865L84.2275 19.4716L84.3065 19.2486C84.1753 19.176 84.062 19.0399 83.9827 18.8595L83.6518 19.194L83.8635 18.5931C83.7755 18.4132 83.6632 18.2667 83.5348 18.1641C83.4064 18.0615 83.2651 18.0054 83.1213 18C82.777 18 82.4702 18.3233 82.2748 18.8283C82.2159 18.9799 82.1327 19.1041 82.0335 19.1881C81.9344 19.2722 81.8228 19.3131 81.7104 19.3066H81.692C81.3118 19.3066 81.0035 19.9889 81.0035 20.8295C81.0035 21.6701 81.3118 22.3512 81.692 22.3512C81.7757 22.3508 81.858 22.3183 81.9319 22.2565C82.0614 22.1569 82.2031 22.103 82.347 22.0985C82.491 22.0941 82.6339 22.1392 82.7658 22.2308C82.8768 22.3088 82.997 22.3491 83.1185 22.3491C83.24 22.3491 83.3602 22.3088 83.4712 22.2308C83.602 22.1412 83.7435 22.097 83.886 22.1015C84.0286 22.1059 84.1689 22.1588 84.2973 22.2565C84.3706 22.3164 84.4518 22.3481 84.5344 22.349C84.9146 22.349 85.2229 21.6678 85.2229 20.8272C85.2256 20.5014 85.1763 20.1797 85.0797 19.8919Z" fill="#E5E5E5"/>
<path opacity="0.03" d="M84.0504 22.1193C83.8516 22.0592 83.6459 22.0945 83.46 22.2208C83.3488 22.2983 83.2287 22.3386 83.1072 22.339C82.9844 22.3389 82.8629 22.2975 82.751 22.2174C82.619 22.1263 82.4761 22.0814 82.3322 22.086C82.1882 22.0907 82.0466 22.1446 81.9171 22.2442C81.8434 22.306 81.7614 22.3385 81.678 22.339C81.34 22.339 81.0586 21.8005 81 21.0915C81.0674 21.0133 81.1248 20.9157 81.1693 20.8038C81.3668 20.2988 81.6737 19.9755 82.0159 19.9755C82.358 19.9755 82.6635 20.2955 82.8624 20.7938C82.9217 20.9453 83.0049 21.0699 83.1038 21.1553C83.2028 21.2407 83.3141 21.284 83.4268 21.281H83.436C83.7019 21.281 83.9369 21.6221 84.0504 22.1193Z" fill="black"/>
<path d="M116.076 12.8919L115.53 13.4393L115.861 12.4872C115.767 12.3682 115.651 12.3022 115.531 12.2999H115.522C115.484 12.3005 115.446 12.2961 115.409 12.2865L115.224 12.4716L115.303 12.2486C115.172 12.176 115.059 12.0399 114.979 11.8595L114.648 12.194L114.86 11.5931C114.772 11.4132 114.66 11.2667 114.531 11.1641C114.403 11.0615 114.262 11.0054 114.118 11C113.774 11 113.467 11.3233 113.271 11.8283C113.212 11.9799 113.129 12.1041 113.03 12.1881C112.931 12.2722 112.819 12.3131 112.707 12.3066H112.689C112.308 12.3066 112 12.9889 112 13.8295C112 14.6701 112.308 15.3512 112.689 15.3512C112.772 15.3508 112.854 15.3183 112.928 15.2565C113.058 15.1569 113.2 15.103 113.344 15.0985C113.488 15.0941 113.63 15.1393 113.762 15.2308C113.873 15.3088 113.994 15.3491 114.115 15.3491C114.237 15.3491 114.357 15.3088 114.468 15.2308C114.599 15.1412 114.74 15.097 114.883 15.1015C115.025 15.1059 115.165 15.1588 115.294 15.2565C115.367 15.3164 115.448 15.3481 115.531 15.349C115.911 15.349 116.219 14.6678 116.219 13.8272C116.222 13.5014 116.173 13.1798 116.076 12.8919Z" fill="#E5E5E5"/>
<path opacity="0.03" d="M115.047 15.1193C114.848 15.0591 114.642 15.0945 114.456 15.2208C114.345 15.2983 114.225 15.3385 114.104 15.3389C113.982 15.3381 113.862 15.2967 113.751 15.2174C113.619 15.1262 113.476 15.0814 113.332 15.086C113.188 15.0906 113.047 15.1446 112.917 15.2442C112.843 15.306 112.761 15.3385 112.678 15.3389C112.34 15.3389 112.059 14.8005 112 14.0914C112.067 14.0133 112.125 13.9157 112.169 13.8038C112.367 13.2988 112.674 12.9755 113.016 12.9755C113.358 12.9755 113.663 13.2954 113.862 13.7938C113.921 13.9445 114.004 14.0685 114.102 14.1539C114.201 14.2393 114.311 14.283 114.423 14.2809H114.432C114.698 14.2809 114.933 14.6221 115.047 15.1193Z" fill="black"/>
</g>
<path d="M62.182 12.8038L61.085 13.9009L61.7495 11.9911C61.5614 11.7539 61.3285 11.6224 61.0878 11.6177H61.0702C60.9941 11.62 60.918 11.611 60.843 11.5909L60.4719 11.9633L60.6307 11.5062C60.3678 11.3604 60.1407 11.0873 59.9816 10.7258L59.3178 11.3947L59.7368 10.1884C59.3488 9.45151 58.8254 9 58.249 9C57.5584 9 56.9432 9.64884 56.546 10.6611C56.4282 10.9643 56.2617 11.2127 56.0635 11.3811C55.8652 11.5495 55.6422 11.6319 55.4173 11.6199H55.3806C54.618 11.6199 54 12.9856 54 14.6712C54 16.3569 54.618 17.7225 55.3806 17.7225C55.5482 17.7217 55.7131 17.6563 55.861 17.5319C56.1207 17.3328 56.4045 17.2252 56.6931 17.2163C56.9816 17.2075 57.2679 17.2976 57.5323 17.4806C57.7556 17.6391 57.9975 17.7216 58.2423 17.7225C58.4871 17.7235 58.7293 17.643 58.9531 17.4862C59.2152 17.3066 59.4987 17.2182 59.7844 17.2269C60.07 17.2355 60.3512 17.3411 60.6088 17.5364C60.7558 17.6576 60.9191 17.7215 61.085 17.7225C61.8476 17.7225 62.4656 16.3569 62.4656 14.6712C62.4717 14.021 62.3741 13.3789 62.182 12.8038Z" fill="#E5E5E5"/>
<path opacity="0.03" d="M60.1185 17.2691C59.7201 17.15 59.3084 17.2207 58.9354 17.4721C58.7121 17.6301 58.4701 17.7118 58.2254 17.7118C57.9807 17.7118 57.7387 17.6301 57.5153 17.4721C57.2511 17.2886 56.9647 17.1981 56.6761 17.207C56.3875 17.2158 56.1036 17.3238 55.8441 17.5233C55.6958 17.6473 55.5307 17.7127 55.363 17.714C54.6857 17.714 54.1221 16.6348 54.0049 15.2123C54.1405 15.0568 54.2555 14.861 54.3436 14.6359C54.7407 13.6247 55.3559 12.9759 56.0466 12.9759C56.7372 12.9759 57.346 13.6114 57.7425 14.6147C57.8611 14.9179 58.0275 15.1674 58.2253 15.3388C58.4231 15.5101 58.6457 15.5975 58.8712 15.5924H58.8889C59.4243 15.5902 59.8913 16.2725 60.1185 17.2691Z" fill="black"/>
<defs>
<clipPath id="clip0">
<rect width="90" height="71" fill="white" transform="translate(0 20)"/>
</clipPath>
<clipPath id="clip1">
<rect width="75" height="75" fill="white" transform="translate(60)"/>
</clipPath>
</defs>
</svg>
